<?xml version="1.0" encoding="utf-8"?>
<!-- Generator: Adobe Illustrator 27.4.1, SVG Export Plug-In . SVG Version: 6.00 Build 0)  -->
<svg version="1.1" id="Layer_1" xmlns="http://www.w3.org/2000/svg" xmlns:xlink="http://www.w3.org/1999/xlink" x="0px" y="0px"
	 width="97.2px" height="23px" viewBox="0 0 97.2 23" style="enable-background:new 0 0 97.2 23;" xml:space="preserve">
<style type="text/css">
	.st0{fill:#010101;}
</style>
<g>
	<path class="st0" d="M49,6.8L49,6.8L49,6.8c0,0-0.8,0.8-1.6,1.6c-0.1-0.1-0.3-0.3-0.4-0.5l-0.1-0.1c-0.8-0.9-1.4-1.6-1.9-2.1
		c-0.1-0.1-0.1-0.1-0.2-0.2c1.2-0.3,2-1.4,2-2.6c0-1.5-1.2-2.7-2.7-2.7s-2.7,1.2-2.7,2.7c0,0.7,0.3,1.4,0.8,1.9
		c-1.4,0.6-2.3,2-2.4,3.5c0,2.1,1.7,3.8,3.8,3.8l0,0c1,0,1.9-0.4,2.6-1c0.2-0.2,0.5-0.5,1.1-1.1c0.8,0.9,1.4,1.6,1.4,1.6
		c0.2,0.2,0.5,0.2,0.7,0.1s0.2-0.5,0.1-0.7l0,0c-0.1-0.1-0.7-0.8-1.5-1.7c0.8-0.8,1.6-1.6,1.7-1.7C50,7.3,50,7,49.8,6.8
		C49.6,6.6,49.2,6.6,49,6.8z M43.5,5.6c0.4,0.3,1.7,1.8,2.8,3c0.2,0.2,0.3,0.3,0.4,0.5c-0.6,0.6-1,1-1.2,1.1
		c-0.5,0.5-1.2,0.7-1.9,0.7c-1.5,0-2.7-1.2-2.7-2.7C40.9,6.9,42,5.7,43.5,5.6z M44.1,4.6c-0.9,0-1.6-0.7-1.7-1.7
		c0-0.9,0.7-1.6,1.7-1.6c0.9,0,1.6,0.7,1.7,1.6C45.8,3.8,45,4.6,44.1,4.6z"/>
	<path class="st0" d="M6.5,1.1l-6,0c-0.1,0-0.3,0-0.4,0.1C0.1,1.4,0,1.5,0,1.6v9.9c0,0.1,0.1,0.3,0.2,0.4c0.1,0.1,0.2,0.2,0.4,0.2
		s0.3-0.1,0.4-0.1C1,11.8,1,11.7,1,11.6V7.1h4.1c0.1,0,0.3-0.1,0.4-0.2s0.2-0.2,0.2-0.4c0-0.1-0.1-0.3-0.2-0.4
		C5.4,6.1,5.3,6.1,5.1,6.1H1V2.2l5.5,0c0.1,0,0.3,0,0.4-0.2C7,1.9,7,1.8,7,1.6S7,1.4,6.9,1.3C6.8,1.2,6.7,1.1,6.5,1.1z"/>
	<path class="st0" d="M15.2,1.1c-1.5,0-2.8,0.5-3.9,1.6c-1.1,1.1-1.6,2.4-1.6,3.9c0,1.5,0.5,2.8,1.6,3.9c1.1,1.1,2.4,1.6,3.9,1.6
		c1.5,0,2.8-0.5,3.9-1.6c1.1-1.1,1.6-2.4,1.6-3.9c0-1.5-0.5-2.8-1.6-3.9C18,1.7,16.7,1.1,15.2,1.1z M19.6,6.6c0,1.2-0.4,2.3-1.3,3.2
		c-0.9,0.9-1.9,1.3-3.1,1.3s-2.3-0.4-3.1-1.3c-0.9-0.9-1.3-1.9-1.3-3.2s0.4-2.3,1.3-3.2c0.9-0.9,1.9-1.3,3.1-1.3s2.3,0.4,3.1,1.3
		C19.2,4.3,19.6,5.4,19.6,6.6z"/>
	<path class="st0" d="M32.2,1.5c0-0.1-0.1-0.2-0.2-0.3c-0.1-0.1-0.2-0.1-0.4-0.1c-0.1,0-0.2,0.1-0.3,0.2l-3.1,4.4l-3.1-4.4
		c-0.1-0.1-0.2-0.2-0.3-0.2c-0.1,0-0.3,0-0.4,0.1c-0.1,0.1-0.2,0.2-0.2,0.3c0,0.1,0,0.3,0.1,0.4l3.3,4.7l-3.3,4.7
		c-0.1,0.1-0.1,0.2-0.1,0.4c0,0.1,0.1,0.3,0.2,0.3c0.1,0.1,0.2,0.1,0.3,0.1c0.2,0,0.3-0.1,0.4-0.2l3.1-4.4l3.1,4.4
		c0.1,0.1,0.2,0.2,0.4,0.2c0.1,0,0.2,0,0.3-0.1c0.1-0.1,0.2-0.2,0.2-0.3s0-0.3-0.1-0.4l-3.3-4.7l3.3-4.7C32.2,1.8,32.2,1.7,32.2,1.5
		z"/>
	<path class="st0" d="M60.4,1.1c-0.1,0-0.3,0-0.4,0.2c-0.1,0.1-0.2,0.2-0.2,0.4V9c0,0.6-0.2,1.1-0.6,1.5c-0.4,0.4-0.9,0.6-1.5,0.6
		c-0.1,0-0.3,0.1-0.4,0.1c-0.1,0.1-0.2,0.2-0.2,0.4s0,0.3,0.2,0.4c0.1,0.1,0.2,0.2,0.4,0.2c0.9,0,1.6-0.3,2.2-0.9s0.9-1.4,0.9-2.2
		V1.6c0-0.1,0-0.3-0.2-0.4C60.7,1.2,60.5,1.1,60.4,1.1z"/>
	<path class="st0" d="M69.6,1.5C69.6,1.4,69.6,1.4,69.6,1.5l-0.2-0.3v0.1l0,0c-0.1,0-0.1-0.1-0.2-0.1l0,0.1V1.1h0c0,0-0.1,0-0.1,0
		c0,0,0,0-0.1,0H69c-0.1,0-0.1,0-0.2,0.1l0,0c0,0,0,0,0,0c0,0,0,0,0,0c0,0,0,0,0,0l0,0l0,0c0,0,0,0.1,0,0.1l-4.1,9.9
		c-0.1,0.1-0.1,0.3,0,0.4c0.1,0.1,0.1,0.2,0.3,0.3l0.1,0l0.1,0c0.2,0,0.4-0.1,0.5-0.3l0.9-2.2h5.4l0.9,2.2c0.1,0.2,0.2,0.3,0.5,0.3
		c0.1,0,0.1,0,0.2,0c0.1-0.1,0.2-0.1,0.3-0.3s0.1-0.3,0-0.4L69.6,1.5z M71.4,8.5h-4.6L69.1,3L71.4,8.5z"/>
	<path class="st0" d="M85.4,1.1c-0.1,0-0.3,0-0.4,0.1s-0.2,0.2-0.2,0.4v8.4l-6.8-8.8c-0.2-0.2-0.3-0.2-0.6-0.2
		c-0.2,0.1-0.3,0.2-0.3,0.5v9.9c0,0.1,0.1,0.3,0.2,0.4c0.1,0.1,0.2,0.2,0.4,0.2s0.3-0.1,0.4-0.1c0.1-0.1,0.2-0.2,0.2-0.4V3.1
		l6.8,8.8l0.1,0.1c0,0,0,0,0,0c0,0,0,0,0.1,0c0,0,0,0,0,0l0,0h0c0,0,0,0,0.1,0l0,0c0,0,0.1,0,0.1,0s0.1,0,0.1,0c0,0,0,0,0.1,0
		c0,0,0,0,0.1,0l0,0c0,0,0,0,0.1,0c0,0,0,0,0,0l0.1-0.1l0,0l0,0c0,0,0,0,0-0.1c0,0,0,0,0,0c0,0,0,0,0-0.1c0,0,0,0,0,0c0,0,0,0,0-0.1
		c0,0,0,0,0-0.1c0,0,0,0,0-0.1v-10c0-0.1-0.1-0.3-0.2-0.4C85.6,1.2,85.5,1.1,85.4,1.1z"/>
	<path class="st0" d="M96.7,11.1h-5.5V7.1h4.1c0.1,0,0.3-0.1,0.4-0.2s0.2-0.2,0.2-0.4c0-0.1-0.1-0.3-0.2-0.4
		c-0.1-0.1-0.2-0.2-0.4-0.2h-4.1V2.2l5.5,0c0.1,0,0.3,0,0.4-0.2c0.1-0.1,0.2-0.2,0.2-0.4S97.1,1.4,97,1.3s-0.2-0.2-0.4-0.2l-6,0
		c-0.1,0-0.3,0-0.4,0.1s-0.2,0.2-0.2,0.4v9.9c0,0.1,0.1,0.3,0.2,0.4c0.1,0.1,0.2,0.2,0.4,0.2h6c0.1,0,0.3-0.1,0.4-0.1
		c0.1-0.1,0.2-0.2,0.2-0.4s-0.1-0.3-0.2-0.4C96.9,11.1,96.8,11.1,96.7,11.1z"/>
</g>
<g>
	<path d="M16.9,22.3c-0.1,0-0.2,0-0.3-0.1c-0.1-0.1-0.1-0.2-0.1-0.3v-5.4c0-0.1,0-0.2,0.1-0.3c0.1-0.1,0.2-0.1,0.3-0.1h3.6
		c0.1,0,0.2,0,0.3,0.1s0.1,0.2,0.1,0.3c0,0.1,0,0.2-0.1,0.3c-0.1,0.1-0.2,0.1-0.3,0.1h-3.2v2h2.3c0.1,0,0.2,0,0.3,0.1
		s0.1,0.2,0.1,0.3c0,0.1,0,0.2-0.1,0.3c-0.1,0.1-0.2,0.1-0.3,0.1h-2.3v2h3.2c0.1,0,0.2,0,0.3,0.1c0.1,0.1,0.1,0.2,0.1,0.3
		c0,0.1,0,0.2-0.1,0.3s-0.2,0.1-0.3,0.1H16.9z"/>
	<path d="M22.4,22.3c-0.2,0-0.3-0.1-0.3-0.2C22,22,22,21.9,22,21.7l2.3-5.4c0.1-0.2,0.2-0.3,0.4-0.3c0.2,0,0.3,0.1,0.4,0.3l2.3,5.4
		c0.1,0.2,0,0.3,0,0.4c-0.1,0.1-0.2,0.2-0.4,0.2c-0.1,0-0.2,0-0.2-0.1c-0.1,0-0.1-0.1-0.2-0.2l-2-5h0.2l-2,5c0,0.1-0.1,0.2-0.2,0.2
		C22.5,22.3,22.5,22.3,22.4,22.3z M22.8,20.9l0.3-0.7h3.2l0.3,0.7H22.8z"/>
	<path d="M30.8,22.4c-0.3,0-0.7-0.1-1-0.2c-0.3-0.1-0.6-0.3-0.8-0.5c-0.2-0.2-0.4-0.4-0.5-0.7c-0.1-0.1-0.1-0.2,0-0.3
		s0.2-0.2,0.3-0.2c0.1,0,0.2,0,0.3,0s0.2,0.1,0.2,0.2c0.1,0.1,0.2,0.3,0.3,0.4c0.1,0.1,0.3,0.2,0.5,0.3c0.2,0.1,0.4,0.1,0.7,0.1
		c0.3,0,0.5,0,0.7-0.1c0.2-0.1,0.4-0.2,0.5-0.3c0.1-0.2,0.2-0.3,0.2-0.6c0-0.3-0.1-0.5-0.3-0.8s-0.6-0.4-1.1-0.4
		c-0.7-0.1-1.2-0.3-1.6-0.6s-0.6-0.7-0.6-1.2c0-0.4,0.1-0.7,0.3-0.9c0.2-0.2,0.5-0.4,0.8-0.6c0.3-0.1,0.7-0.2,1.1-0.2
		c0.3,0,0.6,0,0.9,0.1c0.2,0.1,0.5,0.2,0.6,0.4c0.2,0.2,0.3,0.4,0.5,0.6c0.1,0.1,0.1,0.2,0.1,0.3c0,0.1-0.1,0.2-0.2,0.2
		c-0.1,0.1-0.2,0.1-0.3,0c-0.1,0-0.2-0.1-0.3-0.2c-0.1-0.2-0.2-0.3-0.3-0.4s-0.3-0.2-0.4-0.3s-0.4-0.1-0.6-0.1c-0.4,0-0.7,0.1-1,0.2
		c-0.3,0.2-0.4,0.4-0.4,0.7c0,0.2,0,0.3,0.1,0.5c0.1,0.1,0.2,0.3,0.5,0.4s0.5,0.2,1,0.2c0.6,0.1,1.1,0.3,1.5,0.6
		c0.4,0.3,0.5,0.8,0.5,1.3c0,0.3-0.1,0.6-0.2,0.8s-0.3,0.4-0.5,0.6c-0.2,0.2-0.5,0.3-0.7,0.3S31.1,22.4,30.8,22.4z"/>
	<path d="M36.4,22.3c-0.1,0-0.2,0-0.3-0.1C36.1,22.1,36,22,36,21.9V20l-2.1-3.3c-0.1-0.1-0.1-0.2-0.1-0.3s0.1-0.2,0.1-0.2
		c0.1-0.1,0.2-0.1,0.3-0.1c0.1,0,0.2,0,0.2,0.1c0.1,0,0.1,0.1,0.2,0.2l2,3.2h-0.3l2.1-3.3c0-0.1,0.1-0.1,0.2-0.1
		c0.1,0,0.1-0.1,0.2-0.1c0.1,0,0.2,0,0.2,0.1s0.1,0.1,0.1,0.2s0,0.2-0.1,0.3L36.9,20v1.9c0,0.1,0,0.2-0.1,0.3
		C36.7,22.3,36.6,22.3,36.4,22.3z"/>
	<path d="M45.4,22.3c-0.2,0-0.3-0.1-0.4-0.3l-2.4-5.4c-0.1-0.2-0.1-0.3,0-0.5S42.8,16,43,16c0.2,0,0.3,0.1,0.4,0.2l2.1,5h-0.1l2.1-5
		c0-0.1,0.1-0.2,0.1-0.2c0.1,0,0.1-0.1,0.2-0.1c0.2,0,0.3,0.1,0.3,0.2s0.1,0.2,0,0.4l-2.4,5.5c0,0.1-0.1,0.2-0.1,0.2
		S45.5,22.3,45.4,22.3z"/>
	<path d="M50.1,22.3c-0.1,0-0.2,0-0.3-0.1c-0.1-0.1-0.1-0.2-0.1-0.3v-5.4c0-0.1,0-0.2,0.1-0.3c0.1-0.1,0.2-0.1,0.3-0.1
		c0.1,0,0.2,0,0.3,0.1c0.1,0.1,0.1,0.2,0.1,0.3v5.4c0,0.1,0,0.2-0.1,0.3C50.3,22.3,50.2,22.3,50.1,22.3z"/>
	<path d="M53,22.3c-0.1,0-0.2,0-0.3-0.1c-0.1-0.1-0.1-0.2-0.1-0.3v-5.4c0-0.1,0-0.2,0.1-0.3c0.1-0.1,0.2-0.1,0.3-0.1
		c0.1,0,0.2,0,0.3,0.1c0.1,0.1,0.1,0.2,0.1,0.3v5h2.9c0.1,0,0.2,0,0.3,0.1c0.1,0.1,0.1,0.2,0.1,0.3c0,0.1,0,0.2-0.1,0.3
		c-0.1,0.1-0.2,0.1-0.3,0.1H53z"/>
	<path d="M58.7,22.3c-0.1,0-0.2,0-0.3-0.1c-0.1-0.1-0.1-0.2-0.1-0.3v-5.4c0-0.1,0-0.2,0.1-0.3c0.1-0.1,0.2-0.1,0.3-0.1
		c0.1,0,0.2,0,0.3,0.1c0.1,0.1,0.1,0.2,0.1,0.3v5H62c0.1,0,0.2,0,0.3,0.1c0.1,0.1,0.1,0.2,0.1,0.3c0,0.1,0,0.2-0.1,0.3
		c-0.1,0.1-0.2,0.1-0.3,0.1H58.7z"/>
	<path d="M63.7,22.3c-0.2,0-0.3-0.1-0.3-0.2s-0.1-0.3,0-0.4l2.3-5.4c0.1-0.2,0.2-0.3,0.4-0.3c0.2,0,0.3,0.1,0.4,0.3l2.3,5.4
		c0.1,0.2,0,0.3,0,0.4c-0.1,0.1-0.2,0.2-0.4,0.2c-0.1,0-0.2,0-0.2-0.1c-0.1,0-0.1-0.1-0.2-0.2l-2-5h0.2l-2,5c0,0.1-0.1,0.2-0.2,0.2
		S63.7,22.3,63.7,22.3z M64.1,20.9l0.3-0.7h3.2l0.3,0.7H64.1z"/>
	<path d="M72.7,22.4c-0.4,0-0.8-0.1-1.2-0.2c-0.4-0.2-0.7-0.4-1-0.7c-0.3-0.3-0.5-0.6-0.7-1s-0.2-0.8-0.2-1.3c0-0.5,0.1-0.9,0.2-1.3
		s0.4-0.7,0.7-1c0.3-0.3,0.6-0.5,1-0.7c0.4-0.2,0.8-0.2,1.2-0.2c0.4,0,0.8,0.1,1.1,0.2s0.6,0.3,0.9,0.5c0,0,0.1,0.1,0.1,0.1
		c0,0,0,0.1,0,0.1s0,0.1,0,0.1c0,0.1,0,0.2-0.1,0.3c-0.1,0.1-0.2,0.1-0.3,0.1s-0.2,0-0.3-0.1c-0.2-0.2-0.4-0.3-0.6-0.4
		s-0.5-0.1-0.8-0.1c-0.3,0-0.6,0.1-0.9,0.2c-0.3,0.1-0.5,0.3-0.7,0.5c-0.2,0.2-0.4,0.5-0.5,0.8c-0.1,0.3-0.2,0.6-0.2,1
		c0,0.3,0.1,0.7,0.2,1c0.1,0.3,0.3,0.6,0.5,0.8c0.2,0.2,0.5,0.4,0.7,0.5c0.3,0.1,0.6,0.2,0.9,0.2c0.3,0,0.5,0,0.8-0.1
		c0.2-0.1,0.5-0.2,0.7-0.4c0.1-0.1,0.2-0.1,0.3-0.1c0.1,0,0.2,0,0.2,0.1c0.1,0.1,0.1,0.2,0.1,0.3c0,0.1,0,0.1,0,0.2
		c0,0.1-0.1,0.1-0.1,0.1c-0.3,0.2-0.6,0.4-0.9,0.5S73.1,22.4,72.7,22.4z M74.8,21.4L74,21.3v-1.4h-1.1c-0.1,0-0.2,0-0.3-0.1
		c-0.1-0.1-0.1-0.2-0.1-0.3s0-0.2,0.1-0.3c0.1-0.1,0.2-0.1,0.3-0.1h1.5c0.1,0,0.2,0,0.3,0.1c0.1,0.1,0.1,0.2,0.1,0.3V21.4z"/>
	<path d="M77,22.3c-0.1,0-0.2,0-0.3-0.1c-0.1-0.1-0.1-0.2-0.1-0.3v-5.4c0-0.1,0-0.2,0.1-0.3c0.1-0.1,0.2-0.1,0.3-0.1h3.6
		c0.1,0,0.2,0,0.3,0.1s0.1,0.2,0.1,0.3c0,0.1,0,0.2-0.1,0.3c-0.1,0.1-0.2,0.1-0.3,0.1h-3.2v2h2.3c0.1,0,0.2,0,0.3,0.1
		c0.1,0.1,0.1,0.2,0.1,0.3c0,0.1,0,0.2-0.1,0.3c-0.1,0.1-0.2,0.1-0.3,0.1h-2.3v2h3.2c0.1,0,0.2,0,0.3,0.1c0.1,0.1,0.1,0.2,0.1,0.3
		c0,0.1,0,0.2-0.1,0.3s-0.2,0.1-0.3,0.1H77z"/>
</g>
</svg>
