<svg width="54" height="45" viewBox="0 0 54 45" fill="none" xmlns="http://www.w3.org/2000/svg">
<g clip-path="url(#clip0_96_10)">
<path d="M52.4477 13.3015H44.6213C44.2655 13.3015 44.1074 13.4569 44.1074 13.8454V43.7594C44.1074 44.1479 44.3051 44.381 44.7003 44.381H52.4477C52.8034 44.381 52.9615 44.1868 52.9615 43.7594V13.8454C52.9615 13.4958 52.8034 13.3015 52.4477 13.3015Z" fill="white"/>
<path d="M25.2924 3.5503C25.2529 3.35605 25.0948 3.2395 24.7786 3.2395H14.541C14.3434 3.27835 14.1853 3.4726 14.2248 3.66684C14.2248 4.52153 14.1457 5.37622 13.9876 6.19205C13.8295 6.65825 13.7109 7.08559 13.5924 7.47408L0.864593 43.4874C0.746012 43.9536 0.864593 44.1867 1.29939 44.1867H8.73052C9.08626 44.2256 9.40248 43.9925 9.48153 43.6428L12.4856 34.5132H27.1897L30.431 43.7594C30.51 44.0313 30.7867 44.2256 31.0634 44.1867H39.3246C39.7199 44.1867 39.8385 43.9925 39.7199 43.5651L25.2924 3.5503ZM14.7782 26.6268C15.3711 24.9951 15.964 23.1692 16.5174 21.1879C17.1498 19.2454 17.7427 17.303 18.3356 15.4382C18.889 13.7677 19.3238 12.0972 19.6796 10.4266H19.7586C20.0353 11.359 20.312 12.3691 20.6282 13.4569C20.9444 14.5835 21.3002 15.7101 21.6955 16.9145C22.0907 18.1188 22.4465 19.2843 22.8417 20.4886C23.1975 21.6541 23.5532 22.7807 23.909 23.8297C24.2647 24.8397 24.5809 25.811 24.8181 26.6268H14.7782Z" fill="white"/>
<path d="M48.6136 0.286865C47.3092 0.286865 46.0443 0.753058 45.0957 1.64659C44.147 2.54013 43.6332 3.78331 43.6727 5.10419C43.6332 6.42506 44.1075 7.70709 45.0166 8.67833C45.9653 9.57186 47.2301 10.0769 48.5345 10.0381C49.8785 10.1158 51.2224 9.61071 52.1315 8.67833C53.0802 7.70709 53.5545 6.42506 53.515 5.10419C53.5545 3.82216 53.0802 2.57898 52.2106 1.64659C51.341 0.753058 50.1552 0.286865 48.6136 0.286865Z" fill="white"/>
</g>
<defs>
<clipPath id="clip0_96_10">
<rect width="52.6977" height="44.094" fill="white" transform="translate(0.821289 0.286865)"/>
</clipPath>
</defs>
</svg>
