<svg width="422" height="93" viewBox="0 0 422 93" fill="none" xmlns="http://www.w3.org/2000/svg">
<path d="M13.7846 5.51841L24.7046 1.04398C24.7046 1.04398 25.6523 0.639147 26.5784 0.980057C27.5046 1.32097 27.4615 2.08801 27.4615 2.19455V11.0369C27.4615 11.1647 27.3538 11.9744 26.6431 12.7201C25.9323 13.4659 24.8769 14.2329 24.1661 14.5738C23.4554 14.9147 15.2277 18.3451 14.2369 18.7073C13.2461 19.0482 12.4708 19.2826 11.5446 19.1761C10.5969 19.0695 10.7908 17.8337 10.7908 17.8337V9.46017C10.7908 8.65051 10.8554 8.16045 11.8461 7.03119C12.6646 6.115 13.7846 5.51841 13.7846 5.51841Z" fill="white"/>
<path d="M10.5969 15.1278L21.5385 10.6534C21.5385 10.6534 22.4862 10.2485 23.4123 10.5894C24.36 10.9303 24.2954 11.6974 24.2954 11.8039V20.6462C24.2954 20.7528 24.1877 21.5838 23.4769 22.3295C22.7662 23.0752 21.7108 23.8423 21 24.1832C20.2892 24.5241 12.0615 27.9545 11.0708 28.3167C10.08 28.6576 9.30462 28.892 8.37846 28.7855C7.43077 28.6789 7.62462 27.4431 7.62462 27.4431V19.0695C7.62462 18.2599 7.68923 17.7485 8.68 16.6193C9.47692 15.7031 10.5969 15.1278 10.5969 15.1278Z" fill="white"/>
<path d="M23.4123 10.5256C22.4646 10.1847 21.5385 10.5895 21.5385 10.5895L18.48 11.8466L10.7693 14.9787V17.7912C10.7693 17.7912 10.597 19.0057 11.5231 19.1335C12.4708 19.2401 13.2246 19.027 14.2154 18.6648C14.6462 18.5156 16.477 17.7699 18.437 16.9602L24.1446 14.5526C24.1877 14.5313 24.2308 14.51 24.2523 14.4887V11.7614C24.2954 11.6335 24.36 10.8665 23.4123 10.5256Z" fill="white"/>
<path d="M4.78149 12.784L15.723 8.3096C15.723 8.3096 16.6707 7.90477 17.5969 8.24568C18.5446 8.58659 18.48 9.35364 18.48 9.46017V18.3025C18.48 18.409 18.3723 19.24 17.6615 19.9857C16.9507 20.7315 15.8953 21.4985 15.1846 21.8394C14.4738 22.1803 6.24611 25.6107 5.25534 25.973C4.26457 26.3139 3.48919 26.5482 2.56303 26.4417C1.61534 26.3352 1.80919 25.0994 1.80919 25.0994V16.7258C1.80919 15.9161 1.8738 15.4048 2.86457 14.2755C3.66149 13.3806 4.78149 12.784 4.78149 12.784Z" fill="white"/>
<path d="M17.597 8.26709C16.6493 7.90487 15.7231 8.3097 15.7231 8.3097L10.7693 10.3339V17.8552C10.7693 17.8552 10.597 19.0696 11.5231 19.1975C12.4708 19.304 13.2246 19.091 14.2154 18.7287C14.6462 18.5796 16.477 17.8339 18.437 17.0242V9.50288C18.48 9.37504 18.5446 8.608 17.597 8.26709Z" fill="white"/>
<path d="M1.95996 15.6392C1.95996 15.6392 6.22458 18.0895 8.91689 20.7103C11.6092 23.331 12.8584 25.76 13.2677 27.4432L13.8923 27.1875C13.8923 27.1875 15.6584 22.8623 19.0615 18.1535C22.4646 13.4446 26.4492 11.4205 27.4615 10.8878V10.6108C27.4615 10.6108 22.8307 12.1662 20.0092 14.0199C17.1877 15.8736 14.9046 17.8552 13.483 19.7089C13.483 19.7089 11.243 18.1321 9.77842 17.5569L8.4215 14.3608L7.96919 14.4887L8.72304 17.0455C8.72304 17.0455 5.25535 15.5327 2.32611 14.9574C2.32611 14.9574 2.08919 15.2557 1.95996 15.6392ZM18.4369 12.3154L11.5446 12.1236L6.63381 14.2969L9.88612 14.4035C9.84353 14.5562 9.8218 14.7138 9.8215 14.8722C9.8215 16.2571 11.3507 17.3651 13.2246 17.3651C15.0984 17.3651 16.6277 16.2571 16.6277 14.8722C16.6277 14.3182 16.3692 13.8069 15.96 13.402L18.4369 12.3154Z" fill="#0F1156"/>
<path d="M45.0153 24.6094H43.7661V22.564H45.0153V22.7983H44.0246V23.4802H44.7569V23.7145H44.0246V24.3964H45.0153V24.6094Z" fill="white"/>
<path d="M46.6738 22.7984H45.683V23.4802H46.4153V23.7146H45.683V24.6308H45.4246V22.5853H46.6738V22.7984V22.7984Z" fill="white"/>
<path d="M48.3538 22.7984H47.3631V23.4802H48.0954V23.7146H47.3631V24.6308H47.1046V22.5853H48.3538V22.7984V22.7984Z" fill="white"/>
<path d="M49.8184 24.6094H48.9784V24.375H49.2584V22.7983H48.9784V22.564H49.8184V22.7983H49.5384V24.3964H49.8184V24.6094Z" fill="white"/>
<path d="M51.7138 24.0981C51.7138 24.2046 51.6922 24.2898 51.6276 24.375C51.5199 24.5242 51.3476 24.6094 51.0676 24.6094C50.7876 24.6094 50.6153 24.4816 50.5291 24.2472C50.4861 24.0981 50.443 23.885 50.443 23.5867C50.443 23.2884 50.4645 23.0753 50.5291 22.9262C50.6153 22.6918 50.8091 22.564 51.0676 22.564C51.3261 22.564 51.5199 22.6492 51.6276 22.7983C51.6707 22.8836 51.7138 22.9688 51.7138 23.0753H51.4553C51.4553 22.8836 51.3261 22.7983 51.0891 22.7983C50.9384 22.7983 50.8307 22.8836 50.7661 23.0753C50.723 23.1819 50.723 23.3523 50.723 23.5867C50.723 23.8211 50.7445 23.9915 50.7661 24.0981C50.8307 24.2898 50.9168 24.375 51.0891 24.375C51.3261 24.375 51.4553 24.2898 51.4553 24.0981H51.7138Z" fill="white"/>
<path d="M53.1784 24.6094H52.3384V24.375H52.6184V22.7983H52.3384V22.564H53.1784V22.7983H52.8984V24.3964H53.1784V24.6094ZM55.0522 24.6094H53.803V22.564H55.0522V22.7983H54.0615V23.4802H54.7938V23.7145H54.0615V24.3964H55.0522V24.6094ZM56.7322 24.6094H56.4738L55.7415 23.0966V24.6094H55.483V22.564H55.7415L56.4738 24.0981V22.564H56.7322V24.6094ZM58.3907 22.7983H57.8953V24.6094H57.6368V22.7983H57.1415V22.564H58.3907V22.7983ZM59.4461 24.6094H59.1015V24.2685H59.4461V24.6094Z" fill="white"/>
<path d="M61.7508 24.6094H60.5016V22.564H61.7508V22.7983H60.76V23.4802H61.4924V23.7145H60.76V24.3964H61.7508V24.6094Z" fill="white"/>
<path d="M63.4309 22.7984H62.4401V23.4802H63.1724V23.7146H62.4401V24.6308H62.1816V22.5853H63.4309V22.7984V22.7984Z" fill="white"/>
<path d="M65.0893 22.7984H64.0986V23.4802H64.8309V23.7146H64.0986V24.6308H63.8401V22.5853H65.0893V22.7984V22.7984Z" fill="white"/>
<path d="M66.7693 24.6094H65.52V22.564H66.7693V22.7983H65.7785V23.4802H66.5108V23.7145H65.7785V24.3964H66.7693V24.6094Z" fill="white"/>
<path d="M68.4492 24.0981C68.4492 24.2046 68.4277 24.2898 68.3631 24.375C68.2554 24.5242 68.0831 24.6094 67.8031 24.6094C67.5231 24.6094 67.3508 24.4816 67.2646 24.2472C67.2215 24.0981 67.1785 23.885 67.1785 23.5867C67.1785 23.2884 67.2 23.0753 67.2646 22.9262C67.3508 22.6918 67.5446 22.564 67.8031 22.564C68.0615 22.564 68.2554 22.6492 68.3631 22.7983C68.4062 22.8836 68.4492 22.9688 68.4492 23.0753H68.1908C68.1908 22.8836 68.0615 22.7983 67.8246 22.7983C67.6739 22.7983 67.5662 22.8836 67.5015 23.0753C67.4585 23.1819 67.4585 23.3523 67.4585 23.5867C67.4585 23.8211 67.48 23.9915 67.5015 24.0981C67.5662 24.2898 67.6523 24.375 67.8246 24.375C68.0615 24.375 68.1908 24.2898 68.1908 24.0981H68.4492Z" fill="white"/>
<path d="M70.1293 22.7983H69.6339V24.6094H69.3539V22.7983H68.8585V22.564H70.1077V22.7983H70.1293ZM71.5939 24.6094H70.7539V24.375H71.0339V22.7983H70.7539V22.564H71.5939V22.7983H71.2924V24.3964H71.5724V24.6094H71.5939ZM73.7262 22.564L72.9724 24.6094H72.7139L71.9601 22.564H72.2401L72.8431 24.3324L73.4462 22.564H73.7262ZM75.1477 24.6094H73.877V22.564H75.1262V22.7983H74.1354V23.4802H74.8678V23.7145H74.1354V24.3964H75.1262V24.6094H75.1477Z" fill="white"/>
<path d="M76.3538 24.6093H76.0092V24.2684H76.3538V24.6093Z" fill="white"/>
<path d="M78.4862 24.6094H77.2369V22.564H78.4862V22.7983H77.4954V23.4802H78.2277V23.7145H77.4954V24.3964H78.4862V24.6094Z" fill="white"/>
<path d="M80.4246 24.6094H80.1231L79.8861 23.9276H79.1969L78.96 24.6094H78.6584L79.4123 22.5639H79.6707L80.4246 24.6094ZM79.8 23.6932L79.5415 22.8409L79.2831 23.6932H79.8ZM81.8461 24.098C81.8461 24.4389 81.6307 24.6094 81.2215 24.6094C80.8123 24.6094 80.5969 24.4389 80.5969 24.098H80.8554C80.8554 24.2046 80.8769 24.2685 80.9415 24.3111C81.0061 24.3537 81.0923 24.375 81.2215 24.375C81.3507 24.375 81.4369 24.375 81.4584 24.3537C81.5446 24.3111 81.5877 24.2259 81.5877 24.098C81.5877 24.0128 81.5015 23.9276 81.3292 23.8423C81.0492 23.6932 80.8984 23.5867 80.8554 23.544C80.6831 23.4162 80.5969 23.2458 80.5969 23.0753C80.5969 22.7344 80.8123 22.5639 81.2215 22.5639C81.5877 22.5639 81.8031 22.7344 81.8461 23.0753H81.5877C81.5877 22.9901 81.5661 22.9262 81.5015 22.8835C81.4369 22.8196 81.3507 22.7983 81.2215 22.7983C81.0923 22.7983 81.0061 22.8196 80.9415 22.8622C80.8769 22.9048 80.8554 22.9688 80.8554 23.0753C80.8554 23.2031 80.9415 23.3097 81.1138 23.4162L81.5877 23.6932C81.76 23.821 81.8461 23.9489 81.8461 24.098ZM83.5046 22.5639L83.0092 23.6932V24.6094H82.7508V23.6932L82.2554 22.5639H82.5138L82.88 23.3949L83.2461 22.5639H83.5046ZM36.0338 17.6847C36.0338 17.1733 35.7323 16.8537 35.0861 16.6619L33.0184 16.108C30.9723 15.5966 29.96 14.6378 29.96 13.2742C30.0031 11.1009 31.3169 10.0355 33.9015 10.0568C36.3569 10.0568 37.6492 11.1222 37.7569 13.2742H36.5507C36.0984 13.2742 35.7969 13.0611 35.6031 12.6563C35.2584 12.0597 34.6123 11.7827 33.7077 11.7827C32.6092 11.804 32.0492 12.2088 32.0061 12.9972C32.0061 13.6577 32.6738 14.1264 34.0307 14.4247C34.8061 14.6165 35.6461 14.8296 36.5292 15.1492C37.6923 15.554 38.2523 16.4063 38.1877 17.706C38.0584 19.7301 36.68 20.7315 34.0307 20.7315C31.2523 20.7315 29.8523 19.581 29.8092 17.3438H31.8769C31.9631 18.4304 32.6523 18.9844 34.0307 18.9844C35.4092 18.9844 36.0554 18.5156 36.0338 17.6847ZM39.5231 10.206H41.5907L43.7015 18.0895L45.7477 10.206H48.9354V20.5611H46.9107V12.1875L44.7784 20.5398H42.6031L40.4707 12.1875V20.5398H38.4461V11.3139C38.4461 10.7173 38.92 10.206 39.5231 10.206ZM49.2369 11.3139C49.2369 10.5895 49.5815 10.206 50.3138 10.206H51.3692V20.5611H49.2369V11.3139ZM52.7261 10.206H53.7815V18.6435H58.8861V20.5398H51.6492V11.3139C51.6492 10.7173 52.1446 10.206 52.7261 10.206ZM59.08 11.3139C59.08 10.5895 59.4246 10.2273 60.1569 10.206H66.64V11.9958H61.1692V14.2117H65.2615V14.9148C65.2831 15.6392 64.9169 15.9801 64.1631 15.9801H61.1907V18.6648H66.6615V20.5611H59.1015V11.3139H59.08Z" fill="white"/>
<path d="M74.48 8.86365H66.2092V9.41763H70.0431V20.3906H70.6677V9.41763H74.48V8.86365ZM78.6585 17.4716C78.6585 18.1534 78.4 18.75 77.8615 19.2614C77.3446 19.7727 76.72 20.0284 76.0308 20.0284C75.3415 20.0284 74.76 19.7727 74.2646 19.2614C73.7908 18.75 73.5323 18.1534 73.5323 17.4716V13.4233H72.9292V17.4716C72.9292 18.3239 73.2308 19.0696 73.8123 19.6662C74.4154 20.2628 75.1477 20.5611 76.0308 20.5611C77.2154 20.5611 78.0985 20.0923 78.6585 19.1761V20.3906H79.2615V13.4233H78.6585V17.4716ZM81.8892 19.3466C81.48 18.9631 81.2862 18.4517 81.2862 17.8551V13.9773H83.4185V13.4446H81.2862V10.6747H80.6831V17.8551C80.6831 18.6222 80.9415 19.2614 81.48 19.7514C81.9969 20.2415 82.6431 20.4972 83.3754 20.4972H83.44V19.9645H83.3754C82.7938 19.9219 82.2985 19.7301 81.8892 19.3466ZM87.8769 13.2529C86.8646 13.2529 85.96 13.6151 85.2492 14.3182C84.5169 15.0213 84.1508 15.8949 84.1508 16.8537C84.1508 17.8338 84.5169 18.6861 85.2277 19.4318C85.9385 20.1563 86.8215 20.5398 87.8123 20.5398H87.9415C88.9538 20.5398 89.8154 20.1776 90.5262 19.4318C91.2369 18.7074 91.5815 17.8338 91.5815 16.8537C91.5815 15.8736 91.2154 15.0213 90.5046 14.2969C89.7938 13.6151 88.9108 13.2529 87.8769 13.2529ZM90.0738 19.0909C89.4708 19.7088 88.7385 20.0071 87.8985 20.0071C87.0585 20.0071 86.3046 19.6875 85.7015 19.0909C85.0769 18.473 84.7754 17.7486 84.7754 16.9176C84.7754 16.0867 85.0985 15.3409 85.7015 14.723C86.3262 14.1051 87.0585 13.7855 87.8985 13.7855C88.7385 13.7855 89.4708 14.1051 90.0738 14.7017C90.6769 15.3196 90.9785 16.044 90.9785 16.8963C90.9785 17.7486 90.6769 18.473 90.0738 19.0909ZM94.3169 13.5938C93.9938 13.7855 93.7354 14.0199 93.5415 14.2969V13.4233H92.9385V20.3906H93.5415V15.7671C93.5415 15.2557 93.7354 14.7869 94.1446 14.4034C94.5323 14.0199 95.0062 13.8281 95.5015 13.8068V13.2742C95.0849 13.2742 94.6759 13.3846 94.3169 13.5938Z" fill="white"/>
<g clip-path="url(#clip0_137_2)">
<path d="M233.836 24.5114C233.748 24.5114 233.642 24.4948 233.553 24.4948C232.085 24.4948 230.634 24.4948 229.165 24.4948C229.112 24.4948 229.042 24.5114 228.989 24.4948C228.935 24.4782 228.9 24.4283 228.847 24.3784C228.9 24.3451 228.935 24.2952 228.989 24.2786C229.236 24.262 229.484 24.262 229.714 24.2287C230.174 24.1622 230.386 23.9293 230.404 23.4803C230.422 23.1144 230.439 22.7485 230.439 22.3825C230.439 20.1705 230.439 17.9751 230.439 15.763C230.439 15.5135 230.404 15.264 230.351 15.0146C230.227 14.4657 229.785 14.1331 229.183 14.0998C227.856 14.0499 226.972 14.7318 226.299 15.7131C225.981 16.1622 225.839 16.6445 225.857 17.1934C225.875 19.3056 225.857 21.4345 225.857 23.5468C225.857 24.0624 226.052 24.262 226.618 24.262C226.812 24.262 227.025 24.262 227.219 24.262C227.29 24.262 227.396 24.3119 227.414 24.3618C227.432 24.5114 227.308 24.4615 227.219 24.4782C227.184 24.4782 227.131 24.4782 227.095 24.4782C225.68 24.4782 224.265 24.4782 222.867 24.4782C222.761 24.4782 222.531 24.578 222.531 24.3784C222.531 24.1788 222.743 24.2786 222.849 24.2786C223.062 24.2453 223.274 24.262 223.504 24.2287C223.929 24.1622 224.141 23.9626 224.176 23.5468C224.176 23.4803 224.176 23.3971 224.176 23.3139C224.176 20.4532 224.176 17.5759 224.176 14.7152C224.176 14.316 224.088 14.183 223.663 14.0998C223.345 14.0333 223.026 14.0166 222.708 13.9667C222.637 13.9501 222.584 13.9002 222.531 13.867C222.584 13.8171 222.637 13.7672 222.69 13.7173C222.708 13.7006 222.725 13.7173 222.761 13.7173C223.716 13.684 224.689 13.6674 225.645 13.6341C225.839 13.6341 225.892 13.684 225.892 13.867C225.875 14.4657 225.892 15.0811 225.892 15.6798C225.892 15.7464 225.892 15.8295 225.892 15.8961C225.91 15.8961 225.928 15.9127 225.945 15.9127C225.981 15.8462 226.016 15.7963 226.052 15.7297C226.388 15.1144 226.812 14.5322 227.396 14.0998C228.529 13.2682 230.103 13.2516 231.165 14.0998C231.819 14.6154 232.138 15.2807 232.138 16.0624C232.155 18.4408 232.138 20.8358 232.138 23.2141C232.138 23.3805 232.138 23.5468 232.173 23.6965C232.244 24.0624 232.403 24.2121 232.792 24.2453C233.146 24.262 233.5 24.2453 233.854 24.2453C233.836 24.3451 233.836 24.4283 233.836 24.5114Z" fill="white"/>
<path d="M150.364 6.49891C150.665 6.48228 150.965 6.48228 151.266 6.46564C151.956 6.41575 152.629 6.36585 153.319 6.31596C153.46 6.29932 153.602 6.28269 153.743 6.28269C153.849 6.26606 153.902 6.31596 153.902 6.41575C153.902 6.46565 153.902 6.53217 153.902 6.58207C153.902 12.1704 153.902 17.7588 153.902 23.3471C153.902 24.0291 154.292 24.3118 154.911 24.2952C155.141 24.2952 155.353 24.2785 155.583 24.2952C155.654 24.2952 155.76 24.3451 155.778 24.395C155.795 24.5447 155.672 24.5114 155.583 24.5114C154.292 24.5114 153 24.5114 151.709 24.5114C151.39 24.5114 151.054 24.5114 150.735 24.5114C150.682 24.5114 150.612 24.4449 150.559 24.395C150.612 24.3617 150.682 24.3118 150.735 24.2952C151.036 24.2785 151.337 24.2785 151.62 24.2453C151.992 24.1954 152.151 24.0124 152.222 23.6632C152.239 23.5301 152.257 23.397 152.257 23.264C152.257 18.1413 152.257 13.002 152.257 7.87937C152.257 7.82947 152.257 7.76294 152.257 7.71305C152.222 7.09766 151.956 6.83155 151.302 6.76502C151.001 6.74839 150.682 6.74839 150.364 6.73176C150.364 6.66523 150.364 6.58207 150.364 6.49891Z" fill="white"/>
<path d="M211.526 19.2058C211.615 17.1268 212.358 15.4636 214.056 14.2495C214.782 13.7339 215.613 13.4511 216.533 13.501C217.542 13.5675 218.391 13.9833 219.134 14.6154C220.231 15.58 220.868 16.7609 221.08 18.1414C221.363 19.9875 220.885 21.6341 219.629 23.0811C218.957 23.8461 218.125 24.395 217.082 24.6112C215.985 24.8441 214.994 24.5613 214.109 23.9626C212.765 23.0644 212.004 21.817 211.685 20.3201C211.597 19.921 211.562 19.5052 211.526 19.2058ZM216.144 13.7505C215.401 13.7505 214.746 14.0998 214.286 14.8648C213.985 15.3638 213.826 15.9127 213.72 16.4781C213.543 17.4927 213.49 18.5073 213.543 19.5218C213.579 20.2536 213.632 20.9854 213.72 21.7172C213.809 22.3659 214.021 22.9646 214.392 23.5301C215.153 24.6777 216.958 24.6611 217.789 24.0125C218.249 23.6632 218.515 23.1975 218.692 22.6985C219.134 21.4678 219.152 20.2037 219.152 18.9397C219.152 18.2079 219.081 17.4927 218.992 16.7609C218.922 16.1455 218.762 15.5301 218.444 14.9646C218.019 14.1497 217.312 13.7339 216.144 13.7505Z" fill="white"/>
<path d="M181.785 14.9979C181.785 17.7755 181.785 20.5696 181.785 23.3472C181.785 24.0125 182.068 24.2786 182.794 24.2786C183.042 24.2786 183.272 24.2786 183.519 24.2786C183.572 24.2786 183.608 24.3451 183.661 24.3784C183.608 24.4116 183.572 24.4782 183.519 24.4782C183.148 24.4948 182.758 24.4782 182.387 24.4782C181.202 24.4782 180.016 24.4782 178.831 24.4782C178.778 24.4782 178.725 24.4782 178.672 24.4782C178.583 24.4615 178.442 24.5281 178.442 24.3784C178.442 24.212 178.583 24.2786 178.672 24.2619C178.937 24.2453 179.22 24.2453 179.485 24.212C179.857 24.1621 180.034 23.9792 180.087 23.6299C180.105 23.4969 180.122 23.3638 180.122 23.2308C180.122 18.1081 180.122 12.9688 180.122 7.84614C180.122 7.69645 180.105 7.53013 180.069 7.38044C179.998 7.01454 179.698 6.78169 179.22 6.74843C178.955 6.73179 178.689 6.73179 178.424 6.69853C178.371 6.69853 178.318 6.632 178.265 6.59874C178.318 6.56547 178.371 6.49895 178.424 6.49895C179.397 6.41579 180.352 6.34926 181.325 6.28273C181.785 6.24947 181.785 6.24947 181.785 6.69853C181.785 9.47608 181.785 12.237 181.785 14.9979Z" fill="white"/>
<path d="M202.344 14.9314C202.344 17.6757 202.344 20.42 202.344 23.1642C202.344 23.2474 202.344 23.3139 202.344 23.3971C202.362 23.9958 202.68 24.2952 203.317 24.2952C203.565 24.2952 203.795 24.2952 204.042 24.2952C204.095 24.2952 204.149 24.3617 204.202 24.395C204.149 24.4283 204.095 24.4948 204.025 24.4948C202.397 24.4948 200.769 24.4948 199.142 24.4948C199.089 24.4948 199.035 24.4283 198.982 24.395C199.035 24.3617 199.089 24.2952 199.142 24.2952C199.442 24.2786 199.743 24.2786 200.026 24.2453C200.451 24.1954 200.645 23.9792 200.663 23.58C200.681 23.2474 200.699 22.9314 200.699 22.5988C200.699 17.7422 200.699 12.869 200.699 8.01247C200.699 7.82952 200.681 7.62994 200.663 7.44699C200.61 7.06445 200.292 6.81497 199.814 6.7817C199.549 6.76507 199.283 6.76507 199.018 6.73181C198.965 6.73181 198.912 6.66528 198.859 6.61538C198.912 6.58212 198.965 6.51559 199.018 6.51559C199.973 6.44906 200.929 6.3659 201.884 6.29938H201.902C202.344 6.26611 202.344 6.26611 202.344 6.69854C202.344 9.44283 202.344 12.1871 202.344 14.9314Z" fill="white"/>
<path d="M164.429 14.0333C163.987 14.0333 163.562 14.0333 163.155 14.0333C163.032 14.0333 162.925 14.0499 162.802 14.0333C162.748 14.0167 162.695 13.9501 162.642 13.9169C162.695 13.867 162.748 13.7838 162.802 13.7838C163.208 13.7672 163.615 13.7838 164.022 13.7838C164.518 13.7838 164.429 13.8004 164.429 13.4013C164.429 12.0873 164.429 10.7568 164.429 9.44285C164.429 9.24327 164.5 9.19337 164.695 9.21C165.102 9.22664 165.508 9.22664 165.915 9.21C166.092 9.21 166.145 9.2599 166.145 9.42622C166.145 10.79 166.145 12.1705 166.145 13.5343C166.145 13.7339 166.198 13.8004 166.411 13.7838C167.331 13.7672 168.251 13.7838 169.171 13.7838C169.242 13.7838 169.365 13.8004 169.401 13.8503C169.472 13.9501 169.383 14.0333 169.206 14.0333C168.322 14.0333 167.437 14.0333 166.552 14.0333C166.145 14.0333 166.145 14.0333 166.145 14.4158C166.145 16.9273 166.145 19.4553 166.145 21.9668C166.145 22.3493 166.216 22.7485 166.322 23.131C166.499 23.7298 166.942 24.0458 167.614 24.079C167.844 24.0957 168.092 24.0957 168.322 24.0624C169.171 23.9293 169.578 23.3805 169.772 22.632C169.843 22.3327 169.861 22.0333 169.896 21.7339C169.914 21.6508 169.878 21.5343 170.038 21.5676C170.073 21.5842 170.126 21.684 170.126 21.7505C170.055 22.2329 170.02 22.7152 169.861 23.1643C169.542 24.1456 168.711 24.6944 167.632 24.7609C167.048 24.7942 166.499 24.7609 165.951 24.5447C165.066 24.1955 164.535 23.5801 164.465 22.6653C164.447 22.4491 164.429 22.2495 164.429 22.0333C164.429 19.472 164.429 16.9106 164.429 14.3493C164.429 14.2495 164.429 14.1663 164.429 14.0333Z" fill="white"/>
<path d="M173.736 14.0332C173.736 14.133 173.736 14.1829 173.736 14.2494C173.736 16.8773 173.736 19.5052 173.736 22.133C173.736 22.4324 173.789 22.7318 173.859 23.0145C174.001 23.5966 174.372 23.9625 175.027 24.0457C175.682 24.1289 176.319 24.0956 176.814 23.6133C177.168 23.264 177.327 22.8316 177.398 22.3659C177.433 22.133 177.451 21.9002 177.486 21.6507C177.486 21.6174 177.539 21.5675 177.575 21.5343C177.61 21.5675 177.681 21.6008 177.681 21.6341C177.663 22.5987 177.539 23.5135 176.708 24.1954C176.354 24.4948 175.912 24.6278 175.452 24.6943C174.726 24.7941 174.019 24.7442 173.364 24.4282C172.462 24.0124 172.019 23.2973 172.019 22.3825C172.002 19.6881 172.019 16.9937 172.019 14.2993C172.019 14.0166 172.019 14.0166 171.719 14.0166C171.294 14.0166 170.869 14.0166 170.445 14.0166C170.356 14.0166 170.25 14.0332 170.25 13.9002C170.25 13.7505 170.339 13.7505 170.445 13.7505C170.887 13.7505 171.329 13.7505 171.772 13.7505C171.966 13.7505 172.037 13.7006 172.037 13.501C172.037 12.1372 172.037 10.7733 172.019 9.40952C172.019 9.20994 172.072 9.14341 172.285 9.16004C172.674 9.17667 173.063 9.17667 173.452 9.16004C173.682 9.14341 173.736 9.22657 173.718 9.42615C173.7 10.7733 173.718 12.1372 173.7 13.4844C173.7 13.6839 173.771 13.7338 173.966 13.7338C174.832 13.7172 175.699 13.7338 176.566 13.7338C176.619 13.7338 176.69 13.7338 176.743 13.7338C176.849 13.7338 176.956 13.7505 176.92 13.8835C176.902 13.9334 176.814 14 176.743 14C176 14 175.257 14 174.532 14C174.302 14.0332 174.036 14.0332 173.736 14.0332Z" fill="white"/>
<path d="M193.02 18.3409C192.896 18.3409 192.808 18.3409 192.719 18.3409C190.809 18.3409 188.915 18.3409 187.005 18.3409C186.686 18.3409 186.686 18.3409 186.686 18.6237C186.669 19.7214 186.739 20.8191 187.04 21.9002C187.217 22.4989 187.465 23.0644 187.942 23.5301C188.526 24.0956 189.234 24.2453 190.03 24.1455C191.162 24.0125 191.923 23.3638 192.507 22.4823C192.595 22.3326 192.684 22.1829 192.772 22.0332C192.808 21.9834 192.861 21.9667 192.932 21.9168C192.949 21.9833 192.967 22 192.967 22C192.525 23.1143 191.835 24.0624 190.579 24.4615C189.022 24.9771 187.642 24.5946 186.474 23.5468C185.625 22.7817 185.147 21.817 184.917 20.7526C184.581 19.2391 184.687 17.7422 185.342 16.2952C185.766 15.3804 186.368 14.5821 187.27 14.0332C188.915 13.0187 190.968 13.4511 192.047 15.0644C192.578 15.8628 192.843 16.7443 192.967 17.6757C192.985 17.8919 193.002 18.0915 193.02 18.3409ZM186.722 18.0748C186.952 18.0748 187.146 18.0748 187.341 18.0748C188.491 18.0748 189.641 18.0748 190.791 18.0748C190.897 18.0748 191.021 18.1081 191.003 17.9251C190.932 17.2931 190.897 16.6611 190.809 16.0291C190.72 15.4303 190.543 14.8482 190.172 14.3326C189.588 13.5509 188.562 13.4844 187.907 14.2162C187.677 14.4823 187.482 14.7983 187.323 15.1143C187.005 15.7962 186.881 16.5114 186.792 17.2432C186.757 17.526 186.739 17.7921 186.722 18.0748Z" fill="white"/>
<path d="M160.13 13.6674C160.13 13.7505 160.13 13.8337 160.13 13.9169C160.13 17.027 160.13 20.1372 160.13 23.2474C160.13 23.3638 160.13 23.4803 160.13 23.5967C160.148 23.9127 160.307 24.1456 160.643 24.1954C161.015 24.262 161.404 24.262 161.775 24.2952C161.846 24.2952 161.917 24.2786 161.988 24.2952C162.023 24.2952 162.076 24.3618 162.076 24.3784C162.076 24.4117 162.023 24.4616 161.988 24.4948C161.952 24.5115 161.899 24.4948 161.864 24.4948C160.219 24.4948 158.555 24.4948 156.91 24.4948C156.875 24.4948 156.822 24.5115 156.804 24.4948C156.751 24.4616 156.715 24.4283 156.68 24.395C156.715 24.3618 156.769 24.2952 156.804 24.2952C157.069 24.2786 157.335 24.2786 157.6 24.2453C158.202 24.1788 158.449 23.8961 158.449 23.314C158.449 22.0333 158.449 20.736 158.449 19.4553C158.449 17.8753 158.449 16.3119 158.449 14.7318C158.449 14.3659 158.325 14.1996 157.954 14.1331C157.6 14.0666 157.246 14.0499 156.875 14C156.804 13.9834 156.68 13.9335 156.68 13.8836C156.662 13.7505 156.786 13.7505 156.892 13.7505C157.246 13.7339 157.6 13.7173 157.954 13.7173C158.644 13.7006 159.334 13.684 160.006 13.6674C160.059 13.6507 160.077 13.6507 160.13 13.6674Z" fill="white"/>
<path d="M208.572 13.6674C208.572 13.7672 208.572 13.8503 208.572 13.9501C208.572 16.9938 208.572 20.0208 208.572 23.0645C208.572 23.2641 208.589 23.4803 208.607 23.6799C208.642 23.9626 208.802 24.1622 209.102 24.2121C209.403 24.262 209.739 24.2786 210.04 24.3119C210.182 24.3285 210.323 24.3119 210.447 24.3119C210.482 24.3119 210.535 24.3784 210.535 24.4117C210.535 24.4449 210.482 24.4948 210.447 24.5115C210.412 24.5281 210.341 24.5115 210.305 24.5115C208.678 24.5115 207.05 24.5115 205.422 24.5115C205.387 24.5115 205.334 24.5281 205.299 24.5115C205.245 24.4782 205.21 24.4449 205.157 24.395C205.21 24.3618 205.245 24.3119 205.299 24.2952C205.546 24.2786 205.812 24.2786 206.059 24.2453C206.714 24.1456 206.944 23.9127 206.944 23.2807C206.944 22.7318 206.944 22.1996 206.944 21.6507C206.944 19.3888 206.944 17.1102 206.944 14.8483C206.944 14.3327 206.82 14.183 206.272 14.0998C205.971 14.0499 205.67 14.0333 205.369 14.0167C205.281 14 205.139 14.0333 205.175 13.9002C205.192 13.8503 205.316 13.7672 205.387 13.7672C205.741 13.7339 206.077 13.7339 206.431 13.7173C207.103 13.7006 207.793 13.684 208.465 13.6674C208.483 13.6507 208.501 13.6507 208.572 13.6674Z" fill="white"/>
<path d="M159.104 8.71106C159.582 8.71106 159.989 8.97717 160.183 9.44287C160.378 9.89193 160.342 10.341 160.077 10.7734C159.688 11.3888 158.803 11.472 158.29 10.9564C157.759 10.4075 157.812 9.42624 158.414 8.96054C158.609 8.79422 158.839 8.72769 159.104 8.71106Z" fill="white"/>
<path d="M208.766 10.0084C208.713 10.1913 208.695 10.3909 208.625 10.5738C208.448 11.0063 208.023 11.3057 207.563 11.289C207.068 11.2724 206.714 11.0395 206.519 10.6237C206.342 10.2412 206.325 9.82541 206.502 9.42624C206.696 8.96054 207.103 8.69443 207.599 8.71106C208.059 8.71106 208.483 9.01044 208.66 9.4595C208.713 9.64246 208.731 9.82541 208.766 10.0084Z" fill="white"/>
</g>
<path fill-rule="evenodd" clip-rule="evenodd" d="M421.886 18.8323C421.702 22.2547 418.645 25.1727 407.926 23.6957C407.594 24.0559 407.631 24.272 407.631 24.272C407.631 24.272 407.521 24.164 407.3 23.9839L407.484 24.2C407.484 24.2 406.195 24.236 405.753 24.236C405.311 24.236 404.832 24.3441 404.169 24.3441C403.506 24.3441 403.432 24.0919 403.469 23.8037C403.543 23.5155 404.095 23.4435 404.427 23.4075C404.758 23.3354 404.869 23.2634 404.832 22.9391C404.022 22.4708 403.837 20.9578 403.801 20.3453C403.764 20.3093 403.764 20.2733 403.727 20.2373C403.248 20.9938 403.69 23.2994 403.285 23.8398C403.138 24.0559 402.88 24.164 402.622 24.2C402.438 24.2721 402.18 24.3081 401.885 24.3081C401.59 24.3081 401.406 24.236 401.333 24.1279C400.927 24.272 399.859 24.236 399.786 24.2C399.528 24.0199 399.675 23.7317 399.675 23.7317L400.559 22.9752C400.559 22.9752 400.522 20.0932 399.749 18.472C396.581 14.7615 396.471 10.5826 397.87 9.42981C397.797 6.8 399.565 4.35031 400.964 3.44969C400.78 1.93665 402.659 1 402.659 1L402.917 1.03602C402.917 1.03602 402.732 2.72919 402.88 3.12547C403.837 2.11677 405.163 1.7205 405.163 1.7205L405.384 1.79255C405.384 1.79255 404.464 4.20621 404.537 4.49441C404.869 4.96273 405.163 5.17888 405.237 5.35901C405.311 5.50311 405.163 6.33168 405.163 6.33168L407.631 7.48447L407.484 7.84472C407.484 7.84472 406.232 9.03354 403.727 8.70932C403.322 9.14161 403.395 9.10559 403.395 9.10559L404.243 10.4745C404.243 10.4745 407.226 10.6907 409.547 15.2298C410.873 17.8596 410.431 20.0571 409.141 22.0025C410.983 20.7776 416.913 22.2907 416.95 18.7963C416.987 16.995 415.072 16.4547 415.035 15.0137C414.998 13.6447 418.46 11.7354 419.86 12.6721C416.14 14.4373 422.107 14.6894 421.886 18.8323ZM401.738 23.3714C401.738 23.3714 402.069 23.2994 402.29 23.2634C402.364 18.5441 401.922 17.9317 401.922 17.9317C401.922 17.9317 401.664 18.6882 401.48 18.9764C401.701 20.0571 401.738 23.3714 401.738 23.3714ZM402.29 9.68199C401.075 10.0783 400.596 10.0062 399.896 9.50186C398.938 10.2944 397.097 13.5366 400.78 17.0311C400.964 16.5988 401.296 15.7702 401.296 15.7702C401.296 15.7702 401.664 16.1304 401.664 16.4186C403.653 13.5006 403.506 11.8435 402.29 9.68199ZM417.834 13.3565C414.004 15.2298 417.613 16.2385 417.576 17.6795C417.945 16.923 418.166 16.6708 418.166 16.6708C418.166 16.6708 418.681 17.1752 418.829 17.8596C419.087 17.2112 419.271 16.5267 419.271 16.5267C419.271 16.5267 419.676 16.7068 419.786 16.959C420.67 15.4099 417.134 14.9056 417.834 13.3565Z" fill="white"/>
<path d="M338.457 18.9043C338.42 18.9403 337.61 19.7328 336.763 20.5614C336.615 20.4173 336.468 20.2372 336.358 20.0931L336.247 19.949C335.437 19.0123 334.737 18.2918 334.258 17.7515C334.184 17.6794 334.147 17.6434 334.074 17.5713C335.289 17.2471 336.137 16.1664 336.137 14.9055C336.137 13.3925 334.847 12.1316 333.3 12.1316C331.753 12.1316 330.464 13.3925 330.464 14.9055C330.464 15.626 330.759 16.3465 331.311 16.8508C329.838 17.4272 328.843 18.8682 328.843 20.4533C328.843 22.5788 330.611 24.344 332.821 24.344C333.853 24.344 334.81 23.9838 335.547 23.2993C335.731 23.1192 336.137 22.7589 336.726 22.1465C337.573 23.0831 338.162 23.8036 338.199 23.8397C338.383 24.0558 338.752 24.0918 338.973 23.9117C339.194 23.7316 339.231 23.3713 339.046 23.1552C338.973 23.0471 338.347 22.3266 337.536 21.426C338.383 20.5974 339.194 19.8049 339.267 19.6968C339.488 19.4807 339.488 19.1564 339.267 18.9403C339.01 18.6881 338.641 18.6881 338.457 18.9043ZM332.6 17.6794C333.006 18.0397 334.368 19.5167 335.51 20.8136C335.658 20.9937 335.805 21.1738 335.989 21.3179C335.363 21.9303 334.958 22.3266 334.774 22.5067C334.221 23.0111 333.558 23.2633 332.821 23.2633C331.238 23.2633 329.948 22.0024 329.948 20.4533C329.912 19.0123 331.09 17.7875 332.6 17.6794ZM333.3 16.6347C332.343 16.6347 331.569 15.8782 331.569 14.9415C331.569 14.0049 332.343 13.2484 333.3 13.2484C334.258 13.2484 335.031 14.0049 335.031 14.9415C334.995 15.8782 334.221 16.6347 333.3 16.6347Z" fill="white"/>
<path d="M293.814 13.1042H287.516C287.368 13.1042 287.258 13.1403 287.147 13.2483C287.037 13.3564 287 13.4645 287 13.6086V23.8397C287 23.9838 287.037 24.1279 287.147 24.1999C287.258 24.308 287.368 24.344 287.516 24.344C287.663 24.344 287.81 24.308 287.884 24.1999C287.995 24.0918 288.031 23.9838 288.031 23.8397V19.2645H292.341C292.488 19.2645 292.636 19.2285 292.709 19.1204C292.82 19.0123 292.857 18.9042 292.857 18.7601C292.857 18.616 292.82 18.472 292.709 18.3999C292.599 18.2918 292.488 18.2558 292.341 18.2558H288.031V14.149H293.777C293.925 14.149 294.072 14.1129 294.146 14.0049C294.256 13.8968 294.293 13.7887 294.293 13.6086C294.293 13.4645 294.256 13.3564 294.146 13.2483C294.072 13.1403 293.962 13.1042 293.814 13.1042Z" fill="white"/>
<path d="M302.912 13.1042C301.328 13.1042 299.966 13.6446 298.861 14.7614C297.756 15.8421 297.166 17.2111 297.166 18.7241C297.166 20.2732 297.719 21.6061 298.861 22.6869C299.966 23.7676 301.365 24.344 302.912 24.344C304.496 24.344 305.859 23.8036 306.964 22.6869C308.069 21.6061 308.658 20.2372 308.658 18.7241C308.658 17.1751 308.106 15.8421 306.964 14.7614C305.859 13.6446 304.496 13.1042 302.912 13.1042ZM307.59 18.7241C307.59 19.985 307.111 21.0657 306.227 21.9664C305.307 22.867 304.202 23.2993 302.912 23.2993C301.623 23.2993 300.518 22.831 299.597 21.9664C298.676 21.0657 298.234 19.985 298.234 18.7241C298.234 17.4633 298.713 16.3825 299.597 15.4819C300.518 14.5813 301.623 14.149 302.912 14.149C304.202 14.149 305.307 14.6173 306.227 15.4819C307.111 16.3825 307.59 17.4633 307.59 18.7241Z" fill="white"/>
<path d="M320.777 13.5006C320.74 13.3565 320.666 13.2485 320.556 13.1404C320.445 13.0683 320.298 13.0323 320.151 13.0683C320.003 13.1044 319.893 13.1764 319.782 13.2845L316.504 17.7876L313.226 13.2845C313.152 13.1764 313.005 13.1044 312.858 13.0683C312.71 13.0323 312.563 13.0683 312.452 13.1404C312.342 13.2124 312.268 13.3565 312.231 13.5006C312.195 13.6447 312.231 13.7888 312.305 13.8969L315.804 18.7242L312.305 23.5155C312.231 23.6236 312.195 23.7677 312.231 23.9118C312.268 24.0559 312.342 24.164 312.452 24.2721C312.563 24.3441 312.637 24.3801 312.784 24.3801C312.968 24.3801 313.115 24.3081 313.226 24.164L316.504 19.6609L319.782 24.164C319.893 24.3081 320.04 24.3801 320.224 24.3801C320.335 24.3801 320.445 24.3441 320.556 24.2721C320.666 24.2 320.74 24.0919 320.777 23.9478C320.814 23.8037 320.777 23.6596 320.703 23.5516L317.204 18.7603L320.666 13.9329C320.777 13.7888 320.814 13.6447 320.777 13.5006Z" fill="white"/>
<path d="M350.391 13.1042C350.244 13.1042 350.097 13.1403 349.986 13.2483C349.876 13.3564 349.839 13.4645 349.839 13.6086V21.1018C349.839 21.7142 349.618 22.2185 349.176 22.6508C348.734 23.0831 348.218 23.2993 347.629 23.2993C347.481 23.2993 347.334 23.3353 347.26 23.4434C347.15 23.5515 347.113 23.6595 347.113 23.8036C347.113 23.9477 347.15 24.0918 347.26 24.1639C347.371 24.272 347.481 24.308 347.629 24.308C348.55 24.308 349.323 23.9838 349.949 23.3713C350.575 22.7589 350.907 21.9664 350.907 21.1018V13.6086C350.907 13.4645 350.87 13.3204 350.76 13.2483C350.649 13.1403 350.539 13.1042 350.391 13.1042Z" fill="white"/>
<path d="M360.042 13.4285C360.042 13.3924 360.005 13.3564 360.005 13.3204L359.895 13.1042V13.2123L359.858 13.1763C359.784 13.1403 359.747 13.1042 359.674 13.1042H359.637C359.6 13.1042 359.563 13.1042 359.563 13.1042C359.563 13.1042 359.526 13.1042 359.489 13.1042H359.453C359.379 13.1042 359.305 13.1403 359.268 13.1763C359.268 13.1763 359.232 13.1763 359.232 13.2123C359.195 13.2483 359.195 13.2483 359.195 13.2483L359.158 13.2844L359.121 13.3204C359.121 13.3564 359.084 13.3924 359.084 13.3924L354.775 23.5875C354.701 23.7316 354.701 23.8757 354.775 23.9838C354.811 24.1279 354.922 24.1999 355.069 24.272L355.143 24.308H355.253C355.474 24.308 355.659 24.1999 355.732 23.9838L356.69 21.7142H362.399L363.357 23.9838C363.431 24.1999 363.615 24.308 363.836 24.308C363.909 24.308 363.983 24.308 364.057 24.272C364.204 24.2359 364.278 24.1279 364.351 23.9838C364.425 23.8397 364.425 23.6956 364.351 23.5875L360.042 13.4285ZM361.957 20.7055H357.132L359.526 15.0136L361.957 20.7055Z" fill="white"/>
<path d="M376.617 13.0683C376.47 13.0683 376.359 13.1043 376.249 13.2124C376.138 13.3204 376.101 13.4285 376.101 13.5726V22.2546L368.956 13.2484C368.808 13.0683 368.587 12.9962 368.366 13.0683C368.145 13.1403 367.998 13.3204 367.998 13.5726V23.8037C367.998 23.9478 368.035 24.0919 368.145 24.1639C368.256 24.272 368.366 24.308 368.514 24.308C368.661 24.308 368.808 24.272 368.882 24.1639C368.992 24.0558 369.029 23.9478 369.029 23.8037V15.1577L376.175 24.1639L376.249 24.236C376.249 24.236 376.249 24.236 376.286 24.272C376.322 24.272 376.322 24.308 376.359 24.308C376.359 24.308 376.359 24.308 376.396 24.308C376.396 24.308 376.433 24.308 376.47 24.344H376.507C376.543 24.344 376.58 24.344 376.617 24.344C376.654 24.344 376.691 24.344 376.691 24.344H376.728C376.764 24.344 376.764 24.344 376.801 24.308H376.838C376.875 24.308 376.875 24.308 376.875 24.272C376.875 24.272 376.912 24.272 376.912 24.236L376.985 24.1999L377.022 24.1639C377.022 24.1639 377.022 24.1279 377.059 24.1279C377.059 24.1279 377.096 24.0919 377.096 24.0558V24.0198C377.096 24.0198 377.096 23.9838 377.133 23.9478C377.133 23.9117 377.133 23.9117 377.133 23.9117C377.133 23.8757 377.133 23.8757 377.133 23.8397V13.6086C377.133 13.4645 377.096 13.3204 376.985 13.2484C376.875 13.1403 376.764 13.0683 376.617 13.0683Z" fill="white"/>
<path d="M388.478 23.2993H382.732V19.2645H387.041C387.188 19.2645 387.336 19.2285 387.409 19.1204C387.52 19.0123 387.557 18.9042 387.557 18.7601C387.557 18.616 387.52 18.472 387.409 18.3999C387.299 18.2918 387.188 18.2558 387.041 18.2558H382.732V14.149H388.478C388.625 14.149 388.772 14.1129 388.846 14.0049C388.956 13.8968 388.993 13.7887 388.993 13.6086C388.993 13.4645 388.956 13.3564 388.846 13.2483C388.735 13.1403 388.625 13.1042 388.478 13.1042H382.179C382.032 13.1042 381.921 13.1403 381.811 13.2483C381.7 13.3564 381.663 13.4645 381.663 13.6086V23.8397C381.663 23.9838 381.7 24.1279 381.811 24.1999C381.921 24.308 382.032 24.344 382.179 24.344H388.478C388.625 24.344 388.772 24.308 388.846 24.1999C388.956 24.0918 388.993 23.9838 388.993 23.8397C388.993 23.6956 388.956 23.5515 388.846 23.4794C388.735 23.3353 388.625 23.2993 388.478 23.2993Z" fill="white"/>
<path d="M9.96836 73.5793C9.72102 73.5793 9.47369 73.6149 9.22635 73.6505C8.41368 73.7928 7.67167 74.184 7.10634 74.8243C7.03567 74.8954 7.00034 74.931 6.92967 75.0021C6.859 75.0732 6.82367 75.1088 6.753 75.18C6.68234 75.2511 6.647 75.2867 6.57633 75.3578C6.50567 75.4289 6.47033 75.4645 6.39967 75.5356C6.329 75.6068 6.29367 75.6424 6.223 75.7135C6.15233 75.7846 6.117 75.8202 6.04633 75.8913C5.97566 75.9625 5.94033 75.998 5.86966 76.0692C5.799 76.1403 5.76366 76.1759 5.693 76.247C5.62233 76.3182 5.58699 76.3537 5.51633 76.4249C5.44566 76.496 5.41033 76.5316 5.33966 76.6027C5.26899 76.6739 5.23366 76.7094 5.16299 76.7806C5.09233 76.8517 5.05699 76.8873 4.98632 76.9584C4.91566 77.0295 4.88032 77.0651 4.80966 77.1363C4.59766 77.3497 4.38565 77.5987 4.17365 77.8832C3.67898 78.6302 3.43165 79.6261 3.39631 80.6576C3.39631 81.12 3.46698 81.5824 3.57298 82.0092C3.78498 82.8273 4.17365 83.6454 4.70366 84.3924C4.98632 84.8192 5.26899 85.2104 5.55166 85.6017L3.04298 88.1982L3.00765 88.2694V88.5539C2.97231 89.5854 3.04298 90.9015 3.57298 91.8263C4.03232 92.5732 4.77432 93.0001 5.83433 93.0001C6.08166 93.0001 6.36433 92.9645 6.61167 92.9289C7.56567 92.7867 8.37835 92.3598 8.94368 91.7552C9.01435 91.684 9.04968 91.6485 9.12035 91.5773C9.19102 91.5062 9.22635 91.4706 9.29702 91.3995C9.36769 91.3283 9.40302 91.2928 9.47369 91.2216C9.54435 91.1505 9.57969 91.1149 9.65035 91.0438C9.72102 90.9726 9.75635 90.9371 9.82702 90.8659C9.89769 90.7948 9.93302 90.7592 10.0037 90.6881C10.0744 90.6169 10.1097 90.5814 10.1804 90.5102C10.251 90.4391 10.2864 90.4035 10.357 90.3324C10.4277 90.2613 10.463 90.2257 10.5337 90.1545C10.6044 90.0834 10.6397 90.0478 10.7104 89.9767C10.781 89.9056 10.8164 89.87 10.887 89.7989C10.9577 89.7277 10.993 89.6921 11.0637 89.621C11.1344 89.5499 11.1697 89.5143 11.2404 89.4432C11.4877 89.2298 11.6644 88.9808 11.841 88.6962C12.3357 87.9137 12.583 86.8822 12.583 85.6373C12.583 84.8192 12.371 84.0011 11.9117 83.1119C11.523 82.3649 10.9577 81.5824 10.463 80.9066C10.3924 80.7999 10.2864 80.6576 10.2157 80.5509L12.689 78.0255C12.7244 77.9899 12.7244 77.9543 12.7244 77.9543V77.6698C12.7244 76.8517 12.6537 75.7135 12.159 74.7887C11.6997 74.0062 10.9577 73.5793 9.96836 73.5793ZM5.693 85.7084C5.72833 85.6728 5.72833 85.7084 5.72833 85.7084H5.693Z" fill="white"/>
<path d="M24.5611 71.374L21.5931 71.8364C21.5578 71.8009 20.0738 73.2592 20.0738 73.2592L20.1091 72.0854L17.1411 72.5478C17.1411 72.5478 14.7737 74.9665 14.7031 75.1088L14.3497 91.5417L17.2471 91.0793C17.2824 91.1149 18.8018 89.621 18.8018 89.621L19.0491 90.7948L21.7698 90.3679L24.3491 87.9848C24.3845 87.9492 24.3845 87.9137 24.3845 87.9137L22.1584 77.4208L24.5611 71.374Z" fill="white"/>
<path d="M61.5201 65.4695C61.4847 65.434 60.3894 66.5366 60.3894 66.5366V65.6474L57.4214 66.1098C57.386 66.1098 54.9834 68.564 54.9834 68.564L54.7007 85.0681L57.598 84.6057C57.6334 84.6413 58.764 83.5386 58.764 83.5386V84.4279L61.6967 83.9655C61.6967 83.9655 64.2054 81.4756 64.1701 81.4401L64.4527 64.9716L61.5201 65.4695Z" fill="white"/>
<path d="M76.9607 79.4837L74.8054 63.3708L71.5193 63.9044C71.484 63.8688 68.9753 66.3587 68.9753 66.3587L66.2546 83.254L69.1873 82.7916C69.2227 82.7916 71.4133 80.693 71.4133 80.693L71.6253 82.4003L74.5227 81.9379C74.5227 81.9379 74.6287 81.9379 74.6287 81.9024C74.6287 81.9024 76.9607 79.5192 76.9607 79.4837Z" fill="white"/>
<path d="M87.2781 69.1687C87.7021 68.6707 87.9848 68.2439 88.1968 67.7815C88.4441 67.248 88.5501 66.6433 88.5501 65.7896C88.5855 64.1535 88.1968 63.0508 87.4195 62.4106C86.9248 61.9838 86.2181 61.8059 85.3348 61.8059C84.9461 61.8059 84.5221 61.8415 84.0628 61.9126L81.7661 62.2683C81.7661 62.2683 79.2927 64.7581 79.3281 64.7937L79.0454 81.2266L82.2608 80.6931C83.3208 80.4797 84.1688 80.0173 84.8048 79.3059C84.8754 79.2348 84.9108 79.1992 84.9814 79.1281C85.0521 79.0569 85.0874 79.0214 85.1581 78.9502C85.2288 78.8791 85.2641 78.8435 85.3348 78.7724C85.4054 78.7012 85.4408 78.6657 85.5114 78.5945C85.5821 78.5234 85.6174 78.4878 85.6881 78.4167C85.7588 78.3455 85.7941 78.31 85.8648 78.2388C85.9354 78.1677 85.9708 78.1321 86.0414 78.061C86.1121 77.9899 86.1474 77.9543 86.2181 77.8831C86.2888 77.812 86.3241 77.7764 86.3948 77.7053C86.4655 77.6342 86.5008 77.5986 86.5715 77.5275C86.6421 77.4563 86.6775 77.4207 86.7481 77.3496C86.8188 77.2785 86.8541 77.2429 86.9248 77.1718C86.9955 77.1006 87.0308 77.0651 87.1015 76.9939C87.3488 76.7449 87.5961 76.4604 87.7728 76.1758C88.3028 75.2866 88.5855 74.1484 88.6208 72.8323C88.6208 71.9787 88.5501 71.3384 88.3735 70.8049C88.0908 70.0579 87.7375 69.4888 87.2781 69.1687Z" fill="white"/>
<path d="M91.2354 62.8375L90.9528 79.3416L93.9208 78.8436L96.3588 76.3893L96.6415 59.8853L93.6734 60.3477C93.6734 60.3477 91.2001 62.8019 91.2354 62.8375Z" fill="white"/>
<path d="M26.7871 73.1168L26.5044 89.5853L29.4371 89.1229L31.9104 86.6686L32.1931 70.1646L29.2604 70.6269C29.2604 70.5914 26.7517 73.0812 26.7871 73.1168Z" fill="white"/>
<path d="M108.337 58L101.058 59.1738C101.023 59.1382 98.6202 61.628 98.6202 61.628L98.5496 64.7226L100.705 64.3669L100.458 77.7764C100.458 77.7764 103.39 77.314 103.426 77.314C103.461 77.314 105.864 74.8242 105.864 74.8242L106.076 63.3354L108.266 61.0589L108.337 58Z" fill="white"/>
<path d="M41.9452 68.5997L40.3552 70.1647L40.0371 68.8842L37.4931 69.2755C37.4578 69.2755 34.9491 71.7297 34.9845 71.7653L34.7018 88.2338L37.4578 87.807L39.1185 86.2775L39.4365 87.4868L42.0512 87.06L44.4538 84.7125C44.4892 84.6769 44.4892 84.6058 44.4892 84.6058L44.7718 68.1017L42.0865 68.5285C42.0158 68.5641 41.9805 68.5641 41.9452 68.5997Z" fill="white"/>
<path d="M9.93293 78.4522C9.93293 77.9187 9.93293 77.3496 9.7916 76.9228C9.65026 76.5315 9.43826 76.247 9.04959 76.3181C8.44892 76.4248 8.27225 77.1006 8.23692 78.0254C8.23692 78.559 8.44892 79.0925 8.76692 79.626C9.08492 80.1596 9.50893 80.7287 9.96826 81.3333C10.4983 82.0447 10.9929 82.7917 11.3816 83.5031C11.7703 84.25 12.0176 84.997 12.0176 85.8506C11.9823 86.9177 11.8056 87.9136 11.3109 88.7317C10.8163 89.5498 10.0389 90.1545 8.76692 90.3323C7.31825 90.5813 6.50557 90.1189 6.04624 89.3364C5.5869 88.5539 5.51624 87.4157 5.51624 86.2419L7.74225 85.6728C7.74225 86.3486 7.74225 86.9888 7.88358 87.4868C8.02492 87.9848 8.27225 88.2693 8.76692 88.1982C9.43826 88.0915 9.72093 87.309 9.72093 86.313C9.72093 85.7795 9.47359 85.2459 9.15559 84.6768C8.97892 84.3923 8.80226 84.1077 8.59025 83.8232C8.16625 83.2541 7.67158 82.5783 7.17691 81.8669C6.68224 81.1555 6.32891 80.4086 6.11691 79.5905C6.0109 79.1992 5.94024 78.7724 5.94024 78.3455C5.94024 77.4919 6.15224 76.5315 6.64691 75.749C7.14158 74.9665 7.88358 74.3618 8.97892 74.184C10.3569 73.935 11.1343 74.3974 11.5583 75.1799C11.9823 75.9624 12.0883 76.9939 12.0883 77.8831L9.93293 78.4522Z" fill="#0F1055"/>
<path d="M19.5084 72.6901L19.4377 78.2033H19.5084L19.6144 77.9188L21.5931 72.37L23.8191 72.0143L21.6284 77.5275L23.8191 87.7714L21.5931 88.1271L20.1444 81.4757L20.0737 81.1911H20.0384L19.897 81.5468L19.3317 82.8984L19.2257 88.4828L16.9644 88.874L17.247 73.0458L19.5084 72.6901Z" fill="#0F1055"/>
<path d="M29.3665 71.125L31.6632 70.7693L31.3805 86.562L29.0839 86.9177L29.3665 71.125Z" fill="#0F1055"/>
<path d="M39.8251 76.9939L39.6485 76.2825L39.5425 76.318L39.3658 85.2815L37.2811 85.6016L37.5638 69.8089L39.5778 69.4888L41.6625 77.3851L41.8392 78.0609H41.9452L42.1218 69.0975L44.2065 68.7418L43.9238 84.5701L41.9098 84.8902L39.8251 76.9939Z" fill="#0F1055"/>
<path d="M74.3107 63.9401L71.5193 64.3669L68.9047 80.5508L71.1307 80.1951L71.6254 76.8872L73.816 76.5315L74.1694 79.6972L76.3954 79.3415L74.3107 63.9401ZM71.9434 74.433L72.6854 69.3466L72.756 68.9197L72.8974 68.8842L72.968 69.2754L73.5334 74.1484L71.9434 74.433Z" fill="#0F1055"/>
<path d="M87.8435 71.1606C87.5255 70.2002 87.1015 69.6667 86.5361 69.4533C87.0661 68.8842 87.4548 68.3862 87.6668 67.8171C87.9141 67.248 87.9848 66.6789 87.9848 65.9319C88.0201 64.3669 87.6668 63.371 86.9955 62.8374C86.3241 62.2683 85.2641 62.1972 83.9214 62.4106L81.9074 62.7307L81.6248 78.5234L84.4161 78.061C85.7588 77.7764 86.6775 77.1006 87.2428 76.2114C87.7728 75.3222 88.0201 74.2195 88.0201 73.0458C88.0555 72.2632 87.9848 71.623 87.8435 71.1606ZM85.6881 73.188C85.6528 74.4685 85.3701 75.1443 84.9814 75.5C84.5928 75.8557 84.1688 75.8557 83.9568 75.8913L84.0274 71.0183C84.2041 70.9827 84.6634 70.876 85.0521 71.0894C85.4408 71.3029 85.7234 71.872 85.6881 73.188ZM85.8295 66.501C85.7941 67.6037 85.5114 68.1728 85.1228 68.4929C84.7341 68.813 84.3101 68.8486 84.0981 68.8842L84.1688 64.687C84.3454 64.6514 84.8048 64.5803 85.1934 64.7581C85.5468 64.936 85.8295 65.434 85.8295 66.501Z" fill="#0F1055"/>
<path d="M93.8149 60.8456L96.1116 60.4899L95.8289 76.2826L93.5322 76.6382L93.8149 60.8456Z" fill="#0F1055"/>
<path d="M101.164 62.0549L101.2 59.6718L107.772 58.6047L107.736 60.9879L105.581 61.3436L105.369 74.7531L103.072 75.1088L103.32 61.6992L101.164 62.0549Z" fill="#0F1055"/>
<path d="M61.4847 74.8954L59.718 75.1799L59.5767 82.0447L57.3153 82.436L57.5626 66.6078L59.8593 66.2521L59.7533 72.7968L61.52 72.5122L61.626 65.9675L63.9227 65.6118L63.64 81.4045L61.3433 81.7958L61.4847 74.8954Z" fill="#0F1055"/>
<g clip-path="url(#clip1_137_2)">
<path d="M221.055 75.5735C221.236 75.5507 221.419 75.5278 221.6 75.5032L221.605 75.4698C221.476 75.4575 221.348 75.4417 221.219 75.4329C219.817 75.3363 218.528 74.9094 217.401 74.0766C216.018 73.054 215.141 71.6783 214.735 70.0267C214.273 68.1397 214.26 66.2369 214.781 64.3622C215.556 61.5739 217.427 59.8995 220.247 59.2354C220.933 59.0737 221.628 59.0158 222.333 59.0421C222.863 59.0632 223.397 59.0298 223.927 59.0562C227.303 59.2266 230.016 61.1312 230.853 64.5344C231.154 65.759 231.174 66.9995 231.108 68.2416C231.034 69.6683 230.685 71.03 229.907 72.2528C228.969 73.7287 227.622 74.6704 225.951 75.1747C225.329 75.3627 224.699 75.4927 224.044 75.4698L224.513 75.5735C223.361 75.5735 222.209 75.5735 221.057 75.5735H221.055ZM226.211 67.2121C226.178 66.7025 226.174 66.1877 226.101 65.6817C225.981 64.8401 225.672 64.0758 225.027 63.475C224.152 62.6615 223.088 62.5403 221.988 62.737C220.692 62.9707 219.934 63.8369 219.607 65.0598C219.246 66.4161 219.255 67.7971 219.519 69.1693C219.687 70.0478 220.074 70.8156 220.843 71.348C221.511 71.8101 222.259 71.9102 223.053 71.8891C224.37 71.8522 225.414 71.1108 225.844 69.8756C226.146 69.0094 226.162 68.1116 226.211 67.2121Z" fill="white"/>
<path d="M160.618 75.5735C160.786 75.5507 160.957 75.5278 161.125 75.5067C161.125 75.4962 161.125 75.4839 161.125 75.4733C160.887 75.4523 160.648 75.4365 160.411 75.4066C158.202 75.136 156.426 74.1556 155.212 72.2721C154.425 71.0493 154 69.7157 154.012 68.2539C154.02 67.5371 153.984 66.8202 154.011 66.1034C154.113 63.1815 155.854 60.3265 159.223 59.3689C160.093 59.1212 160.978 58.9964 161.887 59.0439C162.424 59.072 162.965 59.0281 163.502 59.0632C165.694 59.2055 167.585 59.9856 168.994 61.7197C169.889 62.8196 170.336 64.111 170.533 65.4937C170.722 66.8238 170.669 68.1485 170.453 69.4715C169.948 72.5708 167.683 74.8566 164.579 75.3908C164.255 75.447 163.92 75.4487 163.587 75.4751C163.702 75.5085 163.821 75.5436 163.939 75.5788C162.832 75.5788 161.724 75.5788 160.616 75.5788L160.618 75.5735ZM165.751 67.1541C165.694 66.6182 165.655 66.0788 165.574 65.5447C165.474 64.8928 165.247 64.2832 164.815 63.7701C163.929 62.7212 162.75 62.5139 161.481 62.7388C160.272 62.9531 159.512 63.742 159.166 64.8823C158.711 66.3845 158.725 67.9148 159.085 69.4364C159.328 70.4607 159.913 71.232 160.914 71.659C161.446 71.8838 162.002 71.8926 162.566 71.8874C163.796 71.8768 164.834 71.1846 165.276 70.0496C165.637 69.1219 165.715 68.1468 165.753 67.1558L165.751 67.1541Z" fill="white"/>
<path d="M244.761 75.5736C244.984 75.549 245.209 75.5261 245.432 75.5015C245.432 75.491 245.434 75.4805 245.436 75.4699C245.163 75.4488 244.888 75.433 244.615 75.4049C241.867 75.1097 240.165 73.7375 239.492 70.9176C239.437 70.6909 239.424 70.4538 239.376 70.2253C239.341 70.0619 239.382 70.0022 239.557 69.9952C240.406 69.9583 241.253 69.9126 242.1 69.8634C242.668 69.83 243.235 69.7914 243.8 69.7422C243.992 69.7264 244.061 69.7826 244.103 69.9776C244.183 70.3396 244.273 70.7085 244.429 71.0423C244.825 71.8874 245.528 72.3337 246.452 72.4532C247.008 72.5252 247.559 72.5006 248.084 72.288C248.63 72.0667 248.988 71.6608 249.14 71.0968C249.307 70.4766 248.928 69.7299 248.281 69.3978C247.621 69.0587 246.904 68.883 246.184 68.7214C244.88 68.4297 243.596 68.0731 242.407 67.4476C241.436 66.9345 240.654 66.2317 240.241 65.1916C239.483 63.2783 240.294 61.0399 242.106 59.9804C243.307 59.2776 244.615 59.0317 245.987 59.0352C246.748 59.0352 247.51 59.0071 248.266 59.0668C249.683 59.1775 251.014 59.5412 252.07 60.5655C252.729 61.205 253.096 62.0009 253.307 62.8777C253.355 63.0762 253.394 63.2783 253.442 63.4768C253.481 63.6384 253.415 63.7017 253.252 63.7105C252.781 63.7351 252.309 63.7737 251.838 63.8018C250.895 63.8581 249.952 63.909 249.009 63.9723C248.851 63.9828 248.809 63.9231 248.775 63.7878C248.63 63.2185 248.43 62.6668 247.907 62.3313C247.067 61.7919 246.163 61.7251 245.248 62.1204C244.741 62.34 244.484 62.8812 244.589 63.4136C244.656 63.7562 244.906 63.9898 245.214 64.1058C245.688 64.2815 246.177 64.4308 246.67 64.5433C248.194 64.8877 249.722 65.2232 251.15 65.8751C252.655 66.5603 253.674 67.6549 253.936 69.3328C254.254 71.3516 253.307 73.3914 251.544 74.4684C250.5 75.1062 249.364 75.4559 248.123 75.4787C248.242 75.5121 248.36 75.5437 248.479 75.5771C247.239 75.5771 245.998 75.5771 244.757 75.5771L244.761 75.5736Z" fill="white"/>
<path d="M185.057 66.7886C185.295 66.8624 185.536 66.9292 185.771 67.0135C186.962 67.4422 187.838 68.1889 188.191 69.4364C188.76 71.4464 187.997 73.5178 186.202 74.5369C185.559 74.9006 184.839 74.9867 184.123 75.0921C181.397 75.4979 178.655 75.2379 175.921 75.3082C175.167 75.3275 174.414 75.3082 173.663 75.3152C173.484 75.317 173.422 75.2695 173.423 75.0815C173.429 69.9002 173.429 64.7189 173.43 59.5376C173.43 59.4497 173.43 59.3636 173.43 59.2494C173.519 59.2459 173.595 59.2371 173.673 59.2371C176.745 59.2371 179.816 59.2248 182.886 59.2442C183.965 59.2512 185.025 59.4322 185.936 60.0682C187.193 60.9449 187.735 62.1643 187.574 63.6735C187.43 65.0264 186.707 65.9734 185.456 66.5268C185.318 66.5883 185.185 66.6656 185.05 66.7341C185.054 66.7535 185.055 66.771 185.059 66.7904L185.057 66.7886ZM178.468 71.8733C179.563 71.8733 180.624 71.8944 181.686 71.861C182.005 71.8505 182.342 71.7345 182.629 71.5869C183.209 71.2865 183.451 70.7471 183.423 70.1251C183.395 69.4944 183.081 69.0059 182.462 68.774C182.211 68.6791 181.936 68.6001 181.67 68.5948C180.66 68.5719 179.648 68.5842 178.636 68.5772C178.496 68.5772 178.459 68.6352 178.46 68.7617C178.468 69.0393 178.466 69.3187 178.468 69.5963C178.468 70.35 178.468 71.102 178.468 71.8751V71.8733ZM178.468 65.5763C179.474 65.5517 180.449 65.5763 181.415 65.4885C182.321 65.4059 182.739 64.8841 182.746 64.0372C182.751 63.2641 182.469 62.7933 181.849 62.5894C181.621 62.5139 181.376 62.4506 181.138 62.4471C180.321 62.4313 179.503 62.4471 178.686 62.4419C178.507 62.4419 178.457 62.5051 178.459 62.6703C178.468 63.1376 178.468 63.6067 178.469 64.0741C178.469 64.5555 178.469 65.0387 178.469 65.5763H178.468Z" fill="white"/>
<path d="M191.064 75.3117V59.2529H196.019C196.019 59.339 196.019 59.4304 196.019 59.5217C196.019 63.3853 196.019 67.2507 196.019 71.1143C196.019 71.4059 196.019 71.4042 196.322 71.4042C198.766 71.4042 201.209 71.4042 203.653 71.3971C203.842 71.3971 203.865 71.4657 203.865 71.6273C203.857 72.7324 203.855 73.8376 203.857 74.941C203.857 75.3047 203.865 75.3064 203.502 75.3064C200.151 75.3064 196.799 75.3064 193.447 75.3064C192.731 75.3064 192.015 75.3082 191.299 75.3099C191.227 75.3099 191.156 75.3099 191.062 75.3099L191.064 75.3117Z" fill="white"/>
<path d="M206.402 59.2354C206.749 59.2354 207.066 59.2354 207.383 59.2354C208.624 59.2354 209.863 59.2354 211.104 59.2354C211.296 59.2354 211.393 59.3309 211.393 59.5218C211.393 64.4536 211.389 69.3854 211.387 74.3173C211.387 74.5738 211.382 74.8303 211.389 75.0851C211.394 75.2397 211.35 75.31 211.178 75.31C209.65 75.3047 208.123 75.3065 206.595 75.31C206.423 75.31 206.389 75.2414 206.391 75.0851C206.398 70.0882 206.4 65.0896 206.402 60.0928C206.402 59.817 206.402 59.5411 206.402 59.2336V59.2354Z" fill="white"/>
<path d="M233.06 59.0421C233.698 59.0421 234.302 59.0474 234.906 59.0421C235.77 59.0333 236.633 59.0228 237.496 59.0017C237.696 58.9964 237.765 59.0474 237.763 59.2582C237.756 60.3493 237.769 61.4386 237.763 62.5297C237.762 63.2483 237.689 63.9581 237.476 64.6521C237.083 65.9312 236.152 66.7289 235.03 67.3561C234.761 67.5072 234.477 67.6302 234.205 67.776C234.082 67.841 234.024 67.8112 233.964 67.697C233.683 67.1664 233.402 66.6358 233.113 66.1104C233.042 65.9822 233.084 65.9523 233.198 65.8855C233.616 65.6413 234.04 65.3989 234.426 65.1107C234.945 64.7242 235.208 64.1725 235.307 63.54C235.337 63.352 235.227 63.3502 235.101 63.352C234.511 63.3537 233.919 63.3572 233.329 63.3608C233.021 63.3625 233.024 63.366 233.026 63.048C233.035 61.79 233.042 60.5303 233.049 59.2723C233.049 59.1932 233.056 59.1159 233.06 59.0421Z" fill="white"/>
<path d="M237.517 83.8331C237.322 84.0474 237.304 84.0562 237.083 83.8225C236.34 83.0389 235.603 82.25 234.864 81.4629C234.803 81.3997 234.747 81.3346 234.648 81.224C234.637 81.3821 234.621 81.491 234.621 81.6C234.623 82.3027 234.624 83.0038 234.637 83.7066C234.64 83.8946 234.58 83.9648 234.385 83.9648C233.852 83.9648 233.852 83.9701 233.852 83.4553C233.852 82.3063 233.852 81.159 233.852 80.0099C233.852 79.973 233.841 79.9326 233.855 79.901C233.885 79.8307 233.914 79.7428 233.97 79.7059C234.001 79.6866 234.105 79.7428 234.153 79.7903C234.568 80.2067 234.967 80.6389 235.39 81.0447C235.823 81.4612 236.278 81.8547 236.725 82.2571C236.711 82.2799 236.696 82.3045 236.682 82.3273C236.689 82.236 236.703 82.1464 236.702 82.055C236.696 81.368 236.695 80.6793 236.673 79.9923C236.668 79.7991 236.746 79.7446 236.916 79.7516C236.968 79.7534 237.019 79.7516 237.07 79.7516C237.443 79.7604 237.441 79.7692 237.439 80.1241C237.434 81.2784 237.437 82.4345 237.464 83.5906C237.464 83.0301 237.464 82.4697 237.464 81.9092C237.464 81.419 237.464 80.9288 237.473 80.4386C237.473 80.3384 237.503 80.2383 237.519 80.1381V83.8278L237.517 83.8331Z" fill="white"/>
<path d="M198.66 81.2152C198.651 81.3891 198.64 81.4945 198.64 81.6017C198.644 82.3045 198.644 83.0073 198.658 83.7101C198.662 83.9016 198.596 83.9666 198.403 83.9648C197.871 83.9648 197.871 83.9701 197.871 83.4518C197.871 82.3027 197.871 81.1537 197.871 80.0046C197.871 79.9607 197.869 79.9168 197.876 79.8729C197.914 79.6778 198.013 79.6357 198.158 79.778C198.582 80.1961 198.984 80.6354 199.413 81.0483C199.846 81.4647 200.298 81.8617 200.741 82.2659C200.728 82.2852 200.716 82.3063 200.703 82.3256C200.709 82.2254 200.719 82.1253 200.719 82.0251C200.714 81.3364 200.71 80.6494 200.695 79.9625C200.691 79.8061 200.751 79.7569 200.897 79.7464C201.492 79.7024 201.49 79.7007 201.489 80.2752C201.485 81.4032 201.487 82.5294 201.478 83.6574C201.478 83.7716 201.423 83.8858 201.395 83.9982C201.292 83.935 201.171 83.8893 201.092 83.805C200.352 83.0266 199.62 82.243 198.887 81.4594C198.826 81.3962 198.77 81.3311 198.663 81.2134L198.66 81.2152Z" fill="white"/>
<path d="M203.454 81.8777C203.454 81.2487 203.454 80.6214 203.454 79.9924C203.454 79.88 203.449 79.7517 203.61 79.757C204.243 79.7781 204.884 79.7447 205.505 79.8448C206.465 80.0012 207.203 80.9763 207.149 81.9023C207.091 82.9459 206.311 83.8244 205.308 83.9175C204.751 83.9685 204.19 83.9421 203.63 83.9544C203.447 83.9579 203.456 83.8402 203.458 83.719C203.458 83.1058 203.458 82.4908 203.458 81.8777C203.458 81.8777 203.458 81.8777 203.456 81.8777H203.454ZM204.223 83.227C204.53 83.227 204.81 83.2376 205.088 83.2253C205.739 83.1954 206.254 82.7052 206.325 82.0639C206.407 81.3172 206.054 80.6952 205.393 80.5494C205.021 80.4668 204.624 80.4967 204.223 80.4756V83.227Z" fill="white"/>
<path d="M171.27 82.4487C171.27 82.8686 171.261 83.278 171.273 83.6856C171.279 83.8859 171.231 83.979 171.004 83.9667C170.428 83.9368 170.485 84.0792 170.486 83.4361C170.49 82.2958 170.492 81.1556 170.486 80.0153C170.486 79.815 170.547 79.7429 170.752 79.75C171.165 79.7623 171.578 79.7447 171.991 79.7552C172.617 79.7711 173.122 80.1312 173.315 80.646C173.634 81.4929 172.934 82.28 172.261 82.3784C171.934 82.4258 171.603 82.4276 171.27 82.4487ZM171.252 80.4984C171.252 80.8657 171.249 81.2135 171.256 81.5632C171.256 81.6053 171.316 81.6809 171.348 81.6809C171.626 81.6826 171.911 81.702 172.183 81.6563C172.466 81.6089 172.631 81.3348 172.615 81.0484C172.597 80.7567 172.408 80.5318 172.105 80.5055C171.828 80.4809 171.546 80.5002 171.252 80.5002V80.4984Z" fill="white"/>
<path d="M192.403 83.8665C193.066 82.4644 193.724 81.0729 194.381 79.6814C194.408 79.6814 194.435 79.6832 194.461 79.6849C194.527 79.7851 194.603 79.8817 194.653 79.9889C195.225 81.2065 195.794 82.4258 196.361 83.6451C196.489 83.9192 196.459 83.9579 196.161 83.9614C196.131 83.9614 196.102 83.9614 196.072 83.9614C195.821 83.9614 195.647 83.8437 195.553 83.6082C195.43 83.299 195.2 83.1462 194.862 83.1497C194.463 83.1532 194.066 83.1444 193.667 83.1602C193.587 83.1637 193.493 83.241 193.44 83.3096C193.38 83.3869 193.357 83.494 193.316 83.5889C193.148 83.979 192.832 84.0809 192.403 83.8665ZM194.429 81.1379C194.209 81.6123 194.013 82.0375 193.798 82.5013H195.055C194.849 82.0533 194.651 81.6193 194.429 81.1379Z" fill="white"/>
<path d="M228.361 83.9122C229.043 82.4697 229.699 81.08 230.357 79.6884C230.383 79.6884 230.41 79.6867 230.436 79.6849C230.5 79.7833 230.578 79.8747 230.628 79.9801C231.204 81.2047 231.776 82.4293 232.345 83.6557C232.466 83.9157 232.436 83.9579 232.148 83.9597C231.572 83.9614 231.681 84.0053 231.505 83.5327C231.404 83.2586 231.28 83.1198 230.959 83.1427C230.52 83.1743 230.075 83.1462 229.634 83.1602C229.559 83.162 229.469 83.234 229.423 83.3008C229.357 83.3957 229.327 83.5134 229.281 83.6206C229.137 83.9474 229.112 83.9649 228.749 83.9544C228.634 83.9509 228.52 83.9298 228.361 83.9122ZM230.408 81.138C230.188 81.6123 229.992 82.0375 229.777 82.4996H231.032C230.828 82.0551 230.63 81.6229 230.408 81.138Z" fill="white"/>
<path d="M220.396 83.9579C220.162 84.0088 220.003 83.8823 219.946 83.6328C219.857 83.241 219.636 83.097 219.226 83.1391C218.854 83.1778 218.475 83.1497 218.099 83.1426C217.931 83.1391 217.812 83.1848 217.777 83.364C217.768 83.4062 217.745 83.4448 217.729 83.4853C217.527 83.9702 217.52 83.9737 217 83.9596C216.773 83.9526 216.747 83.9122 216.841 83.7154C217.406 82.5189 217.973 81.3224 218.539 80.1277C218.583 80.0346 218.618 79.9379 218.67 79.8501C218.778 79.6674 218.863 79.6674 218.955 79.8589C219.216 80.3983 219.467 80.9429 219.723 81.4858C220.049 82.1816 220.375 82.8756 220.697 83.5714C220.871 83.9473 220.859 83.9632 220.396 83.9579ZM218.836 81.2065C218.812 81.21 218.787 81.2135 218.762 81.217C218.569 81.6387 218.377 82.0604 218.174 82.5049H219.434C219.226 82.0533 219.031 81.6299 218.836 81.2047V81.2065Z" fill="white"/>
<path d="M187.552 79.6831C188.208 81.0887 188.86 82.4855 189.545 83.9508C189.268 83.9508 189.057 83.9578 188.85 83.9455C188.804 83.9438 188.758 83.884 188.72 83.8419C188.692 83.8102 188.669 83.7663 188.66 83.7259C188.556 83.2322 188.258 83.067 187.758 83.1373C187.418 83.1848 187.067 83.1531 186.719 83.1531C186.585 83.1531 186.496 83.1953 186.461 83.3359C186.439 83.4202 186.399 83.4993 186.363 83.5801C186.193 83.9754 185.892 84.0808 185.477 83.8893C185.518 83.5976 187.349 79.8219 187.552 79.6849V79.6831ZM188.098 82.5066C187.893 82.055 187.7 81.6298 187.478 81.1414C187.251 81.6263 187.053 82.0515 186.84 82.5066H188.1H188.098Z" fill="white"/>
<path d="M182.588 83.2041C182.728 83.2129 182.834 83.2252 182.941 83.2252C183.302 83.2252 183.664 83.2252 184.025 83.2181C184.206 83.2164 184.304 83.2902 184.298 83.4782C184.297 83.559 184.298 83.6398 184.298 83.7189C184.295 83.8665 184.224 83.9543 184.068 83.9543C183.279 83.9543 182.489 83.9596 181.7 83.9455C181.408 83.9402 181.385 83.884 181.526 83.631C182.046 82.7051 182.569 81.7827 183.088 80.8585C183.148 80.7513 183.203 80.6424 183.283 80.4931C182.849 80.4931 182.455 80.4931 182.062 80.4931C181.633 80.4931 181.594 80.4456 181.604 80.0222C181.61 79.8254 181.698 79.7499 181.892 79.7516C182.363 79.7604 182.836 79.7586 183.308 79.7622C183.55 79.7622 183.795 79.7586 184.038 79.7622C184.43 79.7709 184.449 79.8026 184.265 80.1382C183.894 80.8199 183.52 81.498 183.148 82.178C182.967 82.5083 182.785 82.8386 182.586 83.2006L182.588 83.2041Z" fill="white"/>
<path d="M180.33 79.7974C179.701 80.9499 179.095 82.0639 178.469 83.2112C178.591 83.2182 178.675 83.2287 178.76 83.2287C179.144 83.2287 179.527 83.2287 179.912 83.2235C180.16 83.2199 180.176 83.3904 180.174 83.5678C180.174 83.74 180.204 83.9508 179.937 83.9526C179.139 83.9579 178.343 83.9579 177.546 83.9473C177.299 83.9438 177.273 83.8665 177.4 83.6399C177.946 82.67 178.492 81.7002 179.038 80.7321C179.074 80.6688 179.105 80.6056 179.16 80.5001C179.024 80.5001 178.918 80.5001 178.813 80.5001C178.451 80.5001 178.09 80.4966 177.728 80.5019C177.59 80.5037 177.521 80.451 177.512 80.3157C177.512 80.3016 177.507 80.2876 177.505 80.2717C177.434 79.8132 177.484 79.7569 177.943 79.7587C178.57 79.7605 179.198 79.7622 179.825 79.7675C179.97 79.7675 180.116 79.7868 180.33 79.8026V79.7974Z" fill="white"/>
<path d="M215.04 80.4949C215.04 81.449 215.04 82.3696 215.04 83.292C215.04 83.4537 215.045 83.6136 215.049 83.7752C215.052 83.9122 214.994 83.9737 214.849 83.9685C214.175 83.9421 214.264 84.0897 214.264 83.3957C214.264 82.4381 214.264 81.4806 214.264 80.4984H213.266C213.105 79.808 213.145 79.7552 213.812 79.757C214.46 79.7605 215.111 79.757 215.76 79.7605C216.089 79.7605 216.103 79.7781 216.1 80.1084C216.1 80.1383 216.1 80.1664 216.098 80.1962C216.084 80.3965 215.978 80.4967 215.779 80.4967C215.536 80.4967 215.295 80.4967 215.038 80.4967L215.04 80.4949Z" fill="white"/>
<path d="M222.998 83.2253C223.179 83.2253 223.324 83.2253 223.469 83.2253C223.787 83.2253 224.104 83.2253 224.421 83.2218C224.614 83.2218 224.717 83.2903 224.714 83.5064C224.706 83.9579 224.717 83.9579 224.267 83.9579C223.677 83.9579 223.086 83.9527 222.496 83.9579C222.31 83.9597 222.238 83.9105 222.239 83.7102C222.25 82.4733 222.25 81.2381 222.246 80.0012C222.246 79.8238 222.308 79.7552 222.489 79.7535C223.003 79.7447 223 79.7394 222.998 80.2419C222.996 81.2223 222.998 82.201 222.998 83.2235V83.2253Z" fill="white"/>
<path d="M174.997 81.8478C174.997 81.2276 175.004 80.6056 174.994 79.9854C174.99 79.8115 175.052 79.7552 175.219 79.7482C175.793 79.7236 175.788 79.7201 175.788 80.2771C175.788 81.4173 175.788 82.5558 175.796 83.6961C175.796 83.8929 175.741 83.9685 175.534 83.9667C175.01 83.9614 175.01 83.9702 175.01 83.4484C175.01 82.9143 175.01 82.3819 175.01 81.8478C175.006 81.8478 175.002 81.8478 174.999 81.8478H174.997Z" fill="white"/>
<path d="M226.218 81.8583C226.218 81.2293 226.223 80.6021 226.215 79.9731C226.213 79.8079 226.273 79.7552 226.427 79.7464C227.012 79.713 227.009 79.7095 227.007 80.2858C227.007 81.4103 227.01 82.5365 227.012 83.661C227.012 83.9561 227.009 83.9596 226.722 83.9614C226.393 83.9626 226.229 83.8021 226.229 83.48C226.229 82.9388 226.229 82.3995 226.229 81.8583H226.218Z" fill="white"/>
<path d="M210.946 79.7587C211.141 79.7587 211.33 79.764 211.52 79.7587C211.674 79.7534 211.727 79.8237 211.724 79.9713C211.717 80.3649 211.717 80.7602 211.719 81.1537C211.719 81.9936 211.724 82.8334 211.727 83.6732C211.727 83.9456 211.711 83.9614 211.444 83.9596C211.283 83.9596 211.123 83.9596 210.948 83.9596V79.7587H210.946Z" fill="white"/>
</g>
<g clip-path="url(#clip2_137_2)">
<path d="M300.156 74.4203H303.273C304.325 74.4203 305.104 74.6538 305.571 75.1596C306.039 75.6654 306.312 76.4047 306.312 77.4553V78.0001C306.312 78.6615 306.195 79.2452 305.961 79.6732C305.766 80.1012 305.416 80.4125 304.987 80.6071V80.646C306 80.9962 306.507 81.93 306.507 83.4086V84.537C306.507 85.5487 306.234 86.3269 305.688 86.8716C305.182 87.4164 304.403 87.6499 303.39 87.6499H300.156V74.4203ZM303 79.7899C303.429 79.7899 303.701 79.6732 303.935 79.4787C304.13 79.2841 304.247 78.895 304.247 78.3892V77.6499C304.247 77.1829 304.169 76.8327 303.974 76.5993C303.818 76.4047 303.545 76.288 303.195 76.288H302.221V79.7899H303ZM303.39 85.7432C303.74 85.7432 304.013 85.6654 304.208 85.4709C304.364 85.2763 304.481 84.9261 304.481 84.4592V83.2919C304.481 82.7082 304.364 82.2802 304.169 82.0467C303.974 81.8133 303.623 81.6966 303.156 81.6966H302.221V85.7432H303.39Z" fill="white"/>
<path d="M308.182 74.4203H311.221C312.273 74.4203 313.052 74.6538 313.519 75.1596C313.987 75.6654 314.26 76.4047 314.26 77.4553V78.2724C314.26 79.6343 313.792 80.4903 312.896 80.8794V80.9183C313.403 81.074 313.753 81.3853 313.948 81.8522C314.143 82.3191 314.26 82.9417 314.26 83.7199V86.0545C314.26 86.4436 314.26 86.7549 314.299 86.9884C314.338 87.2218 314.377 87.4553 314.493 87.6499H312.39C312.312 87.4553 312.273 87.2218 312.234 87.0662C312.195 86.8716 312.195 86.5215 312.195 86.0545V83.6421C312.195 83.0584 312.078 82.6304 311.883 82.3969C311.688 82.1635 311.377 82.0467 310.909 82.0467H310.208V87.6888H308.182V74.4203ZM310.987 80.1012C311.416 80.1012 311.688 79.9845 311.922 79.7899C312.117 79.5954 312.234 79.2063 312.234 78.7004V77.6888C312.234 77.2218 312.156 76.8717 311.961 76.6382C311.805 76.4436 311.532 76.3269 311.182 76.3269H310.247V80.1012H310.987Z" fill="white"/>
<path d="M319.13 87.8055C318.117 87.8055 317.338 87.5331 316.831 86.9495C316.286 86.3658 316.013 85.5487 316.013 84.4981V77.572C316.013 76.5215 316.286 75.7043 316.831 75.1207C317.377 74.537 318.156 74.2646 319.13 74.2646C320.143 74.2646 320.922 74.537 321.429 75.1207C321.974 75.7043 322.247 76.5215 322.247 77.572V84.4981C322.247 85.5487 321.974 86.3658 321.429 86.9495C320.922 87.5331 320.143 87.8055 319.13 87.8055ZM319.13 85.9378C319.831 85.9378 320.182 85.5098 320.182 84.6538V77.4164C320.182 76.5604 319.831 76.1324 319.13 76.1324C318.429 76.1324 318.078 76.5604 318.078 77.4164V84.6148C318.078 85.5098 318.429 85.9378 319.13 85.9378Z" fill="white"/>
<path d="M325.675 76.3268H323.532V74.4591H329.883V76.3268H327.74V87.6109H325.675V76.3268Z" fill="white"/>
<path d="M331.325 74.4203H333.39V79.7899H335.61V74.4203H337.675V87.6109H335.61V81.6966H333.39V87.6109H331.325V74.4203Z" fill="white"/>
<path d="M339.662 74.4203H345.273V76.288H341.688V79.7899H344.494V81.6576H341.688V85.7043H345.234V87.572H339.623V74.4203H339.662Z" fill="white"/>
<path d="M346.909 74.4203H349.948C351 74.4203 351.779 74.6538 352.247 75.1596C352.714 75.6654 352.987 76.4047 352.987 77.4553V78.2724C352.987 79.6343 352.519 80.4903 351.623 80.8794V80.9183C352.13 81.074 352.481 81.3853 352.675 81.8522C352.87 82.3191 352.987 82.9417 352.987 83.7199V86.0545C352.987 86.4436 352.987 86.7549 353.026 86.9884C353.065 87.2218 353.104 87.4553 353.221 87.6499H351.117C351.039 87.4553 351 87.2218 350.961 87.0662C350.922 86.8716 350.922 86.5215 350.922 86.0545V83.6421C350.922 83.0584 350.805 82.6304 350.61 82.3969C350.416 82.1635 350.104 82.0467 349.636 82.0467H348.935V87.6888H346.87V74.4203H346.909ZM349.714 80.1012C350.143 80.1012 350.416 79.9845 350.649 79.7899C350.844 79.5954 350.961 79.2063 350.961 78.7004V77.6888C350.961 77.2218 350.883 76.8717 350.688 76.6382C350.532 76.4436 350.26 76.3269 349.909 76.3269H348.974V80.1012H349.714Z" fill="white"/>
<path d="M354.896 74.4203H356.961V79.7899H359.182V74.4203H361.247V87.6109H359.182V81.6966H356.961V87.6109H354.896V74.4203Z" fill="white"/>
<path d="M366.195 87.8055C365.182 87.8055 364.403 87.5331 363.896 86.9495C363.351 86.3658 363.078 85.5487 363.078 84.4981V77.572C363.078 76.5215 363.351 75.7043 363.896 75.1207C364.442 74.537 365.221 74.2646 366.195 74.2646C367.208 74.2646 367.987 74.537 368.493 75.1207C369.039 75.7043 369.312 76.5215 369.312 77.572V84.4981C369.312 85.5487 369.039 86.3658 368.493 86.9495C367.987 87.5331 367.208 87.8055 366.195 87.8055ZM366.195 85.9378C366.896 85.9378 367.247 85.5098 367.247 84.6538V77.4164C367.247 76.5604 366.896 76.1324 366.195 76.1324C365.493 76.1324 365.143 76.5604 365.143 77.4164V84.6148C365.143 85.5098 365.493 85.9378 366.195 85.9378Z" fill="white"/>
<path d="M374.143 87.8055C373.13 87.8055 372.351 87.5331 371.844 86.9495C371.299 86.3658 371.026 85.5487 371.026 84.4981V77.572C371.026 76.5215 371.299 75.7043 371.844 75.1207C372.39 74.537 373.169 74.2646 374.143 74.2646C375.156 74.2646 375.935 74.537 376.442 75.1207C376.987 75.7043 377.26 76.5215 377.26 77.572V84.4981C377.26 85.5487 376.987 86.3658 376.442 86.9495C375.935 87.5331 375.156 87.8055 374.143 87.8055ZM374.143 85.9378C374.844 85.9378 375.195 85.5098 375.195 84.6538V77.4164C375.195 76.5604 374.844 76.1324 374.143 76.1324C373.442 76.1324 373.091 76.5604 373.091 77.4164V84.6148C373.091 85.5098 373.442 85.9378 374.143 85.9378Z" fill="white"/>
<path d="M379.13 74.4203H382.286C383.299 74.4203 384.078 74.6927 384.584 75.2374C385.091 75.7822 385.364 76.5993 385.364 77.6499V84.3036C385.364 85.3541 385.091 86.1713 384.584 86.716C384.078 87.2608 383.299 87.5331 382.286 87.5331H379.13V74.4203ZM382.208 85.7432C382.558 85.7432 382.792 85.6265 382.987 85.432C383.182 85.2374 383.26 84.8872 383.26 84.4592V77.6109C383.26 77.144 383.182 76.8327 382.987 76.6382C382.831 76.4436 382.558 76.3269 382.208 76.3269H381.156V85.7432H382.208Z" fill="white"/>
<path d="M300.156 74.4203H303.273C304.325 74.4203 305.104 74.6538 305.571 75.1596C306.039 75.6654 306.312 76.4047 306.312 77.4553V78.0001C306.312 78.6615 306.195 79.2452 305.961 79.6732C305.766 80.1012 305.416 80.4125 304.987 80.6071V80.646C306 80.9962 306.507 81.93 306.507 83.4086V84.537C306.507 85.5487 306.234 86.3269 305.688 86.8716C305.182 87.4164 304.403 87.6499 303.39 87.6499H300.156V74.4203ZM303 79.7899C303.429 79.7899 303.701 79.6732 303.935 79.4787C304.13 79.2841 304.247 78.895 304.247 78.3892V77.6499C304.247 77.1829 304.169 76.8327 303.974 76.5993C303.818 76.4047 303.545 76.288 303.195 76.288H302.221V79.7899H303ZM303.39 85.7432C303.74 85.7432 304.013 85.6654 304.208 85.4709C304.364 85.2763 304.481 84.9261 304.481 84.4592V83.2919C304.481 82.7082 304.364 82.2802 304.169 82.0467C303.974 81.8133 303.623 81.6966 303.156 81.6966H302.221V85.7432H303.39Z" fill="white"/>
<path d="M308.182 74.4203H311.221C312.273 74.4203 313.052 74.6538 313.519 75.1596C313.987 75.6654 314.26 76.4047 314.26 77.4553V78.2724C314.26 79.6343 313.792 80.4903 312.896 80.8794V80.9183C313.403 81.074 313.753 81.3853 313.948 81.8522C314.143 82.3191 314.26 82.9417 314.26 83.7199V86.0545C314.26 86.4436 314.26 86.7549 314.299 86.9884C314.338 87.2218 314.377 87.4553 314.493 87.6499H312.39C312.312 87.4553 312.273 87.2218 312.234 87.0662C312.195 86.8716 312.195 86.5215 312.195 86.0545V83.6421C312.195 83.0584 312.078 82.6304 311.883 82.3969C311.688 82.1635 311.377 82.0467 310.909 82.0467H310.208V87.6888H308.182V74.4203ZM310.987 80.1012C311.416 80.1012 311.688 79.9845 311.922 79.7899C312.117 79.5954 312.234 79.2063 312.234 78.7004V77.6888C312.234 77.2218 312.156 76.8717 311.961 76.6382C311.805 76.4436 311.532 76.3269 311.182 76.3269H310.247V80.1012H310.987Z" fill="white"/>
<path d="M319.13 87.8055C318.117 87.8055 317.338 87.5331 316.831 86.9495C316.286 86.3658 316.013 85.5487 316.013 84.4981V77.572C316.013 76.5215 316.286 75.7043 316.831 75.1207C317.377 74.537 318.156 74.2646 319.13 74.2646C320.143 74.2646 320.922 74.537 321.429 75.1207C321.974 75.7043 322.247 76.5215 322.247 77.572V84.4981C322.247 85.5487 321.974 86.3658 321.429 86.9495C320.922 87.5331 320.143 87.8055 319.13 87.8055ZM319.13 85.9378C319.831 85.9378 320.182 85.5098 320.182 84.6538V77.4164C320.182 76.5604 319.831 76.1324 319.13 76.1324C318.429 76.1324 318.078 76.5604 318.078 77.4164V84.6148C318.078 85.5098 318.429 85.9378 319.13 85.9378Z" fill="white"/>
<path d="M325.675 76.3268H323.532V74.4591H329.883V76.3268H327.74V87.6109H325.675V76.3268Z" fill="white"/>
<path d="M331.325 74.4203H333.39V79.7899H335.61V74.4203H337.675V87.6109H335.61V81.6966H333.39V87.6109H331.325V74.4203Z" fill="white"/>
<path d="M339.662 74.4203H345.273V76.288H341.688V79.7899H344.494V81.6576H341.688V85.7043H345.234V87.572H339.623V74.4203H339.662Z" fill="white"/>
<path d="M346.909 74.4203H349.948C351 74.4203 351.779 74.6538 352.247 75.1596C352.714 75.6654 352.987 76.4047 352.987 77.4553V78.2724C352.987 79.6343 352.519 80.4903 351.623 80.8794V80.9183C352.13 81.074 352.481 81.3853 352.675 81.8522C352.87 82.3191 352.987 82.9417 352.987 83.7199V86.0545C352.987 86.4436 352.987 86.7549 353.026 86.9884C353.065 87.2218 353.104 87.4553 353.221 87.6499H351.117C351.039 87.4553 351 87.2218 350.961 87.0662C350.922 86.8716 350.922 86.5215 350.922 86.0545V83.6421C350.922 83.0584 350.805 82.6304 350.61 82.3969C350.416 82.1635 350.104 82.0467 349.636 82.0467H348.935V87.6888H346.87V74.4203H346.909ZM349.714 80.1012C350.143 80.1012 350.416 79.9845 350.649 79.7899C350.844 79.5954 350.961 79.2063 350.961 78.7004V77.6888C350.961 77.2218 350.883 76.8717 350.688 76.6382C350.532 76.4436 350.26 76.3269 349.909 76.3269H348.974V80.1012H349.714Z" fill="white"/>
<path d="M354.896 74.4203H356.961V79.7899H359.182V74.4203H361.247V87.6109H359.182V81.6966H356.961V87.6109H354.896V74.4203Z" fill="white"/>
<path d="M366.195 87.8055C365.182 87.8055 364.403 87.5331 363.896 86.9495C363.351 86.3658 363.078 85.5487 363.078 84.4981V77.572C363.078 76.5215 363.351 75.7043 363.896 75.1207C364.442 74.537 365.221 74.2646 366.195 74.2646C367.208 74.2646 367.987 74.537 368.493 75.1207C369.039 75.7043 369.312 76.5215 369.312 77.572V84.4981C369.312 85.5487 369.039 86.3658 368.493 86.9495C367.987 87.5331 367.208 87.8055 366.195 87.8055ZM366.195 85.9378C366.896 85.9378 367.247 85.5098 367.247 84.6538V77.4164C367.247 76.5604 366.896 76.1324 366.195 76.1324C365.493 76.1324 365.143 76.5604 365.143 77.4164V84.6148C365.143 85.5098 365.493 85.9378 366.195 85.9378Z" fill="white"/>
<path d="M374.143 87.8055C373.13 87.8055 372.351 87.5331 371.844 86.9495C371.299 86.3658 371.026 85.5487 371.026 84.4981V77.572C371.026 76.5215 371.299 75.7043 371.844 75.1207C372.39 74.537 373.169 74.2646 374.143 74.2646C375.156 74.2646 375.935 74.537 376.442 75.1207C376.987 75.7043 377.26 76.5215 377.26 77.572V84.4981C377.26 85.5487 376.987 86.3658 376.442 86.9495C375.935 87.5331 375.156 87.8055 374.143 87.8055ZM374.143 85.9378C374.844 85.9378 375.195 85.5098 375.195 84.6538V77.4164C375.195 76.5604 374.844 76.1324 374.143 76.1324C373.442 76.1324 373.091 76.5604 373.091 77.4164V84.6148C373.091 85.5098 373.442 85.9378 374.143 85.9378Z" fill="white"/>
<path d="M379.13 74.4203H382.286C383.299 74.4203 384.078 74.6927 384.584 75.2374C385.091 75.7822 385.364 76.5993 385.364 77.6499V84.3036C385.364 85.3541 385.091 86.1713 384.584 86.716C384.078 87.2608 383.299 87.5331 382.286 87.5331H379.13V74.4203ZM382.208 85.7432C382.558 85.7432 382.792 85.6265 382.987 85.432C383.182 85.2374 383.26 84.8872 383.26 84.4592V77.6109C383.26 77.144 383.182 76.8327 382.987 76.6382C382.831 76.4436 382.558 76.3269 382.208 76.3269H381.156V85.7432H382.208Z" fill="white"/>
<path d="M303.429 71.5409C302.416 71.5409 301.675 71.2685 301.169 70.6848C300.662 70.1012 300.39 69.284 300.39 68.2335V67.4942H302.338V68.3891C302.338 69.2451 302.688 69.6732 303.39 69.6732C303.74 69.6732 304.013 69.5564 304.169 69.3619C304.364 69.1673 304.442 68.8171 304.442 68.3502C304.442 67.8054 304.325 67.2996 304.052 66.9105C303.818 66.4825 303.351 65.9767 302.688 65.393C301.831 64.6537 301.247 63.9533 300.896 63.3697C300.545 62.7471 300.39 62.0467 300.39 61.3074C300.39 60.2568 300.662 59.4786 301.169 58.8949C301.753 58.2724 302.494 58 303.507 58C304.481 58 305.221 58.2724 305.727 58.856C306.234 59.4397 306.507 60.2179 306.507 61.3074V61.8521H304.558V61.1907C304.558 60.7237 304.481 60.4125 304.286 60.2179C304.13 60.0233 303.857 59.9066 303.507 59.9066C302.805 59.9066 302.494 60.3346 302.494 61.1518C302.494 61.6187 302.61 62.0856 302.883 62.4747C303.156 62.9027 303.623 63.4086 304.286 63.9922C305.143 64.7315 305.727 65.4319 306.078 66.0545C306.39 66.677 306.545 67.3774 306.545 68.2335C306.545 69.323 306.273 70.1401 305.727 70.7237C305.182 71.2685 304.442 71.5409 303.429 71.5409Z" fill="white"/>
<path d="M308.182 58.1946H310.247V71.3852H308.182V58.1946Z" fill="white"/>
<path d="M314.883 71.5409C313.87 71.5409 313.13 71.2685 312.623 70.6848C312.117 70.1012 311.844 69.284 311.844 68.2335V67.4942H313.792V68.3891C313.792 69.2451 314.143 69.6732 314.844 69.6732C315.195 69.6732 315.468 69.5564 315.623 69.3619C315.818 69.1673 315.896 68.8171 315.896 68.3502C315.896 67.8054 315.779 67.2996 315.507 66.9105C315.273 66.4825 314.805 65.9767 314.143 65.393C313.286 64.6537 312.701 63.9533 312.351 63.3697C312 62.7471 311.844 62.0467 311.844 61.3074C311.844 60.2568 312.117 59.4786 312.623 58.8949C313.208 58.2724 313.987 58 314.961 58C315.935 58 316.675 58.2724 317.182 58.856C317.688 59.4397 317.961 60.2179 317.961 61.3074V61.8521H316.013V61.1907C316.013 60.7237 315.935 60.4125 315.74 60.2179C315.584 60.0233 315.312 59.9066 314.961 59.9066C314.26 59.9066 313.948 60.3346 313.948 61.1518C313.948 61.6187 314.065 62.0856 314.338 62.4747C314.61 62.9027 315.078 63.4086 315.74 63.9922C316.597 64.7315 317.182 65.4319 317.533 66.0545C317.844 66.677 318 67.3774 318 68.2335C318 69.323 317.727 70.1401 317.182 70.7237C316.675 71.2685 315.896 71.5409 314.883 71.5409Z" fill="white"/>
<path d="M321.273 60.0623H319.091V58.1946H325.442V60.0623H323.299V71.3463H321.234V60.0623H321.273Z" fill="white"/>
<path d="M326.922 58.1946H332.533V60.0623H328.987V63.5642H331.792V65.4319H328.987V69.4786H332.533V71.3463H326.922V58.1946Z" fill="white"/>
<path d="M334.169 58.1946H337.208C338.26 58.1946 339.039 58.428 339.506 58.9339C339.974 59.4397 340.247 60.179 340.247 61.2296V62.0467C340.247 63.4086 339.779 64.2646 338.883 64.6537V64.6926C339.39 64.8483 339.74 65.1596 339.935 65.6265C340.13 66.0934 340.247 66.716 340.247 67.4942V69.8288C340.247 70.2179 340.247 70.5292 340.286 70.7627C340.325 70.9961 340.364 71.2296 340.481 71.4242H338.377C338.299 71.2296 338.26 70.9961 338.221 70.8405C338.182 70.6459 338.182 70.2957 338.182 69.8288V67.3385C338.182 66.7549 338.065 66.3269 337.87 66.0934C337.675 65.8599 337.364 65.7432 336.896 65.7432H336.234V71.3852H334.169V58.1946ZM336.974 63.8366C337.403 63.8366 337.675 63.7199 337.909 63.5253C338.104 63.3308 338.221 62.9417 338.221 62.4358V61.4242C338.221 60.9572 338.143 60.607 337.948 60.3736C337.792 60.179 337.519 60.0623 337.169 60.0623H336.234V63.8366H336.974Z" fill="white"/>
<path d="M344.844 71.5409C343.831 71.5409 343.091 71.2685 342.584 70.6849C342.078 70.1012 341.805 69.2841 341.805 68.2335V67.4942H343.753V68.3891C343.753 69.2452 344.104 69.6732 344.805 69.6732C345.156 69.6732 345.429 69.5565 345.584 69.3619C345.779 69.1673 345.857 68.8172 345.857 68.3502C345.857 67.8055 345.74 67.2996 345.468 66.9105C345.234 66.4825 344.766 65.9767 344.104 65.393C343.247 64.6537 342.662 63.9533 342.312 63.3697C341.961 62.7471 341.805 62.0467 341.805 61.3074C341.805 60.2568 342.078 59.4786 342.584 58.895C343.091 58.3113 343.87 58.0389 344.883 58.0389C345.857 58.0389 346.597 58.3113 347.104 58.895C347.61 59.4786 347.883 60.2568 347.883 61.3463V61.8911H345.935V61.1907C345.935 60.7238 345.857 60.4125 345.662 60.2179C345.506 60.0234 345.234 59.9066 344.883 59.9066C344.182 59.9066 343.87 60.3347 343.87 61.1518C343.87 61.6187 343.987 62.0856 344.26 62.4747C344.532 62.9028 345 63.4086 345.662 63.9922C346.519 64.7315 347.104 65.4319 347.455 66.0545C347.766 66.6771 347.922 67.3775 347.922 68.2335C347.922 69.323 347.649 70.1401 347.104 70.7238C346.636 71.2685 345.857 71.5409 344.844 71.5409Z" fill="white"/>
<path d="M352.792 62.5914H354.156V71.3852H352.792V62.5914Z" fill="white"/>
<path d="M355.52 62.5914H357.234L358.558 67.8443H358.597V62.5914H359.805V71.3852H358.403L356.766 64.965H356.727V71.3852H355.52V62.5914Z" fill="white"/>
<path d="M364.52 63.8366H363.078V62.5914H367.325V63.8366H365.883V71.3852H364.52V63.8366Z" fill="white"/>
<path d="M368.299 62.5914H369.662V66.1712H371.143V62.5914H372.506V71.3852H371.143V67.4163H369.662V71.3852H368.299V62.5914Z" fill="white"/>
<path d="M373.831 62.5914H377.571V63.8366H375.195V66.1712H377.065V67.4163H375.195V70.1012H377.571V71.3463H373.831V62.5914Z" fill="white"/>
</g>
<defs>
<clipPath id="clip0_137_2">
<rect width="88.4615" height="18.4615" fill="white" transform="translate(147.692 6)"/>
</clipPath>
<clipPath id="clip1_137_2">
<rect width="100" height="25" fill="white" transform="translate(154 59)"/>
</clipPath>
<clipPath id="clip2_137_2">
<rect width="85.7143" height="30" fill="white" transform="translate(300 58)"/>
</clipPath>
</defs>
</svg>
