<svg width="60" height="60" viewBox="0 0 60 60" fill="none" xmlns="http://www.w3.org/2000/svg">
<path d="M38.9307 45.0776C38.5045 45.0776 38.0997 44.8208 37.9339 44.3981C37.7181 43.8489 37.9874 43.2265 38.5384 43.0108L44.491 40.6711C45.042 40.4553 45.6626 40.7264 45.8784 41.2756C46.0942 41.8249 45.8249 42.4472 45.2738 42.663L39.3213 45.0027C39.1947 45.0526 39.0609 45.0776 38.9307 45.0776Z" fill="#254EDB"/>
<path d="M10.5534 52.4478C10.4232 52.4478 10.2912 52.4246 10.1628 52.3729C9.61359 52.1572 9.34253 51.5366 9.55831 50.9855L21.5045 20.5807C21.7202 20.0315 22.3408 19.7604 22.8918 19.9762C23.4411 20.192 23.7121 20.8126 23.4964 21.3636L11.5502 51.7684C11.3826 52.1893 10.9796 52.4478 10.5534 52.4478Z" fill="#254EDB"/>
<path d="M16.506 54.7857C16.3758 54.7857 16.2439 54.7625 16.1155 54.7108C15.5662 54.495 15.2952 53.8744 15.5109 53.3234L28.3773 20.5789C28.593 20.0297 29.2136 19.7586 29.7646 19.9744C30.3139 20.1902 30.5849 20.8108 30.3692 21.3618L17.5029 54.1063C17.337 54.5289 16.9322 54.7857 16.506 54.7857Z" fill="#254EDB"/>
<path d="M48.6941 52.446C48.2661 52.446 47.8631 52.1893 47.6973 51.7666L35.7493 21.3636C35.5336 20.8144 35.8046 20.192 36.3539 19.9762C36.9031 19.7604 37.5255 20.0315 37.7413 20.5807L49.6892 50.9838C49.905 51.533 49.6339 52.1554 49.0847 52.3712C48.958 52.4211 48.8243 52.446 48.6941 52.446Z" fill="#254EDB"/>
<path d="M42.7415 54.7857C42.3135 54.7857 41.9105 54.5289 41.7446 54.1063L28.8765 21.3618C28.6608 20.8126 28.9318 20.1902 29.4811 19.9744C30.0303 19.7586 30.6527 20.0297 30.8685 20.5789L43.7366 53.3234C43.9523 53.8727 43.6813 54.495 43.132 54.7108C43.0036 54.7625 42.8717 54.7857 42.7415 54.7857Z" fill="#254EDB"/>
<path d="M36.748 22.0412H22.4996C21.9093 22.0412 21.4279 21.5615 21.4279 20.9713V12.178C21.4279 8.04967 24.7858 4.69177 28.914 4.69177H30.3317C34.46 4.69177 37.8179 8.04967 37.8179 12.178V20.9713C37.8179 21.5633 37.3382 22.0412 36.748 22.0412ZM23.5678 19.9013H35.678V12.178C35.678 9.2302 33.2795 6.8317 30.3317 6.8317H28.914C25.9663 6.8317 23.5678 9.2302 23.5678 12.178V19.9013Z" fill="#254EDB"/>
<path d="M29.6237 6.83172C29.0334 6.83172 28.5537 6.35202 28.5537 5.76175V1.06996C28.5537 0.4797 29.0334 0 29.6237 0C30.2139 0 30.6936 0.4797 30.6936 1.06996V5.76175C30.6936 6.35202 30.2139 6.83172 29.6237 6.83172Z" fill="#254EDB"/>
<path d="M44.8797 42.7379C44.4517 42.7379 44.0486 42.4794 43.8828 42.0585C43.667 41.5093 43.9381 40.8869 44.4891 40.6711L45.4699 40.2877C46.4668 39.8954 47.1123 38.9503 47.1123 37.8785C47.1123 37.5557 47.0517 37.2383 46.9304 36.9334C46.6772 36.2878 46.1886 35.7814 45.5555 35.505C44.9225 35.2286 44.2181 35.2161 43.5743 35.4675L42.5935 35.8527C42.0425 36.0685 41.4219 35.7974 41.2061 35.2464C40.9903 34.6954 41.2614 34.0748 41.8124 33.859L42.7932 33.4756C43.9666 33.0137 45.2524 33.0369 46.4097 33.5416C47.5688 34.0463 48.4605 34.9718 48.9223 36.1487C49.1417 36.7033 49.2522 37.2865 49.2522 37.8785C49.2522 39.8365 48.0753 41.5628 46.2528 42.2796L45.272 42.6648C45.14 42.713 45.008 42.7379 44.8797 42.7379Z" fill="#254EDB"/>
<path d="M42.7415 54.7857C42.3153 54.7857 41.9105 54.5289 41.7447 54.1063C41.5289 53.557 41.7982 52.9347 42.3492 52.7189L48.3018 50.3792C48.8528 50.1635 49.4734 50.4345 49.6892 50.9838C49.9049 51.533 49.6357 52.1554 49.0846 52.3711L43.1321 54.7108C43.0037 54.7625 42.8717 54.7857 42.7415 54.7857Z" fill="#254EDB"/>
<path d="M16.5059 54.7857C16.3758 54.7857 16.2438 54.7626 16.1154 54.7108L10.1628 52.373C9.61359 52.1572 9.34253 51.5366 9.55831 50.9856C9.77408 50.4363 10.3964 50.1653 10.9457 50.3811L16.8983 52.7189C17.4475 52.9347 17.7186 53.5553 17.5028 54.1063C17.3369 54.529 16.9321 54.7857 16.5059 54.7857Z" fill="#254EDB"/>
<path d="M10.9759 60C10.844 60 10.7085 59.975 10.5783 59.9233C10.029 59.7039 9.76332 59.0816 9.98266 58.5323L12.5363 52.1482C12.7557 51.599 13.378 51.3333 13.9273 51.5526C14.4765 51.772 14.7422 52.3943 14.5229 52.9436L11.9692 59.3277C11.8016 59.745 11.4004 60 10.9759 60Z" fill="#254EDB"/>
<path d="M48.2716 60C47.8471 60 47.4459 59.745 47.2783 59.3277L44.7246 52.9436C44.5053 52.3944 44.7728 51.772 45.3202 51.5527C45.8695 51.3333 46.4918 51.6008 46.7112 52.1483L49.2648 58.5324C49.4842 59.0816 49.2167 59.704 48.6692 59.9233C48.539 59.9751 48.4035 60 48.2716 60Z" fill="#254EDB"/>
<path d="M29.6861 16.6201H29.5612C28.675 16.6201 27.9563 15.9014 27.9563 15.0152C27.9563 14.1289 28.675 13.4102 29.5612 13.4102H29.6861C30.5724 13.4102 31.291 14.1289 31.291 15.0152C31.291 15.9014 30.5724 16.6201 29.6861 16.6201Z" fill="#254EDB"/>
<path d="M58.1775 60H1.06996C0.4797 60 0 59.5203 0 58.93C0 58.3398 0.4797 57.8601 1.06996 57.8601H58.1775C58.7678 57.8601 59.2475 58.3398 59.2475 58.93C59.2475 59.5203 58.7678 60 58.1775 60Z" fill="#254EDB"/>
</svg>
