<svg width="70" height="70" viewBox="0 0 70 70" fill="none" xmlns="http://www.w3.org/2000/svg">
<path d="M35.0488 62C34.9183 62 34.7878 61.9813 34.676 61.9438L9.90078 53.5525C9.43473 53.4027 9.13646 52.9719 9.13646 52.4849C9.13646 52.41 9.17374 44.8429 9.08053 35.4402C8.96868 25.9251 9.00597 17.2903 9.00597 17.2154C9.00597 16.9157 9.13646 16.616 9.36016 16.41C9.49066 16.2039 9.69572 16.0354 9.95671 15.9417L34.7878 8.05619C35.0116 7.98127 35.2539 7.98127 35.4776 8.05619L60.0664 16.1103C60.2342 16.129 60.4019 16.2039 60.5324 16.2976C60.8307 16.5036 60.9985 16.8408 60.9985 17.2154C60.9985 17.309 61.0171 27.4422 60.9239 36.6202C60.8307 45.7794 60.868 52.4287 60.868 52.4849C60.868 52.9719 60.5697 53.4027 60.1037 53.5525L35.4217 61.9251C35.3098 61.9813 35.1793 62 35.0488 62ZM11.3735 51.6795L33.9117 59.3028C33.9117 55.9688 33.9117 48.0645 33.9117 42.9136C33.9117 37.3507 33.9117 29.0343 33.9117 26.4121L11.243 18.77C11.243 21.6732 11.243 28.3038 11.3176 35.4027C11.3921 43.0447 11.3921 49.488 11.3735 51.6795ZM36.1674 26.4308V38.5682V42.8387C36.1674 48.4017 36.1674 56.0624 36.1674 59.3028L58.6309 51.6795C58.6309 49.6379 58.6123 43.9063 58.6869 36.5827C58.7614 29.5588 58.7614 21.9729 58.7614 18.77L51.5097 21.2237C50.9318 21.4297 50.298 21.1113 50.0929 20.512C49.8879 19.9313 50.2048 19.2945 50.8013 19.0884L56.3193 17.2154L35.142 10.2851L13.5173 17.1779L35.0488 24.4454L43.8851 21.4485C44.463 21.2424 45.0969 21.5609 45.3019 22.1602C45.507 22.7409 45.1901 23.3777 44.5935 23.5838L36.1674 26.4308Z" fill="#254EDB"/>
<path d="M47.4747 40C47.2495 40 47.0054 39.9261 46.8177 39.7968L43.1568 37.2291C42.8564 37.0259 42.6874 36.6749 42.6874 36.3239C42.6874 36.3239 42.7062 32.8511 42.725 30.0986C42.7438 28.0482 42.7438 24.9448 42.7625 23.5039L18.7697 15.4683C18.3004 15.3205 18 14.8771 18 14.4153C18 13.935 18.3192 13.5102 18.7885 13.3624L26.2041 11.0533C26.4294 10.9794 26.6922 10.9794 26.9175 11.0718L51.2483 19.4399C51.6988 19.6061 52.018 20.031 51.9992 20.4928C51.9992 20.5298 51.9617 23.4854 51.9804 27.0137C52.018 30.5605 51.9617 33.9779 51.9617 34.0148C51.9617 34.2365 51.8866 34.4397 51.7739 34.6244L48.3947 39.5197C48.2257 39.7599 47.9629 39.9261 47.6625 39.9815C47.6062 40 47.5311 40 47.4747 40ZM44.9403 35.7513L47.1931 37.3215L49.7276 33.6454C49.7464 32.7033 49.7651 29.9139 49.7464 27.0322C49.7276 24.5753 49.7464 22.3955 49.7464 21.2687L26.5233 13.2885L22.7498 14.4523L44.2269 21.6566C44.6775 21.8044 44.9966 22.2293 44.9966 22.7096C44.9966 22.7096 44.9778 27.3647 44.9591 30.1171C44.9591 32.1861 44.9403 34.6614 44.9403 35.7513Z" fill="#254EDB"/>
</svg>
