<svg width="44" height="45" viewBox="0 0 44 45" fill="none" xmlns="http://www.w3.org/2000/svg">
<g clip-path="url(#clip0_96_26)">
<path d="M8.73816 4.09759H1.30787C0.964934 4.09759 0.774414 4.25001 0.774414 4.59294V43.8401C0.774414 44.2593 0.92683 44.4498 1.26977 44.4498H8.73816C9.0811 44.4498 9.27162 44.2593 9.27162 43.8401V4.59294C9.27162 4.55484 9.27162 4.51674 9.23352 4.47863C9.19541 4.2119 8.96679 4.05949 8.73816 4.09759Z" fill="white"/>
<path d="M43.5271 37.4386V1.08735C43.489 0.934931 43.3366 0.782515 43.146 0.820619H35.4109C35.1442 0.820619 35.0299 0.973036 35.0299 1.23976V13.2806C34.5726 13.2425 34.1916 13.2425 33.8487 13.2044C33.5057 13.1663 33.239 13.1663 33.0485 13.1663C29.2762 13.1663 26.0754 13.8903 23.4081 15.3764C20.8933 16.7481 18.7975 18.8057 17.3496 21.2825C15.9397 23.7212 15.2158 26.5028 15.2539 29.3225C15.2539 32.7899 15.9397 35.6858 17.3496 38.0102C18.7213 40.2583 20.7028 42.0873 23.1033 43.1923C25.6563 44.3736 28.476 44.9451 31.2957 44.907C33.2771 44.907 35.2585 44.7165 37.1637 44.3736C39.2975 43.9925 41.3933 43.3829 43.3747 42.5446C43.6414 42.4303 43.7557 42.2016 43.7557 41.9349C43.7176 41.2871 43.6795 40.5251 43.6033 39.7249C43.5652 38.8866 43.5271 38.1245 43.5271 37.4386ZM35.0299 37.2862C34.6107 37.4386 34.1535 37.5148 33.6581 37.4767C33.1628 37.5148 32.6293 37.5529 32.0578 37.5529C30.9908 37.5529 29.9239 37.4005 28.8951 37.0576C27.9044 36.7528 27.028 36.2193 26.304 35.5334C25.542 34.7713 24.9704 33.8568 24.5894 32.828C24.1321 31.5706 23.9035 30.237 23.9416 28.9033C23.9416 26.9219 24.3607 25.2834 25.199 24.0641C26.0373 22.8448 27.1423 21.8922 28.4379 21.2444C29.7715 20.5585 31.2576 20.2537 32.7436 20.2537C33.1628 20.2537 33.5819 20.2918 34.0011 20.3299C34.344 20.368 34.6869 20.4442 35.0299 20.5204V37.2862Z" fill="white"/>
</g>
<defs>
<clipPath id="clip0_96_26">
<rect width="42.9814" height="44.094" fill="white" transform="translate(0.774414 0.812988)"/>
</clipPath>
</defs>
</svg>
