<svg xmlns="http://www.w3.org/2000/svg" xmlns:xlink="http://www.w3.org/1999/xlink" id="Layer_1" x="0px" y="0px" viewBox="0 0 128.6 33.7" style="enable-background:new 0 0 128.6 33.7;" xml:space="preserve"><style type="text/css">	.st0{fill:#010101;}	.st1{fill-rule:evenodd;clip-rule:evenodd;fill:#020202;}	.st2{fill:#020202;}</style><g>	<g>		<path class="st0" d="M95.3,33.6c-0.1,0-0.2,0-0.2-0.1S95,33.4,95,33.3v-4.6c0-0.1,0-0.2,0.1-0.2c0.1-0.1,0.2-0.1,0.2-0.1h1.6   c0.3,0,0.6,0.1,0.8,0.2c0.2,0.1,0.4,0.3,0.6,0.5c0.1,0.2,0.2,0.5,0.2,0.7c0,0.2-0.1,0.4-0.2,0.6s-0.3,0.3-0.5,0.4   c0.3,0.1,0.5,0.2,0.7,0.4c0.2,0.2,0.3,0.5,0.3,0.8c0,0.3-0.1,0.6-0.2,0.8c-0.2,0.2-0.3,0.4-0.6,0.6c-0.3,0.1-0.6,0.2-0.9,0.2   L95.3,33.6L95.3,33.6z M95.7,30.5h1.3c0.3,0,0.5-0.1,0.6-0.2c0.2-0.1,0.2-0.3,0.2-0.6s-0.1-0.5-0.2-0.6c-0.2-0.1-0.4-0.2-0.6-0.2   h-1.3V30.5z M95.7,33h1.4c0.2,0,0.4,0,0.6-0.1s0.3-0.2,0.4-0.3c0.1-0.1,0.1-0.3,0.1-0.5c0-0.2-0.1-0.4-0.1-0.5s-0.2-0.2-0.4-0.3   c-0.2-0.1-0.3-0.1-0.6-0.1h-1.4V33z"></path>		<path class="st0" d="M102.8,33.7c-0.4,0-0.8-0.1-1.1-0.2s-0.6-0.3-0.8-0.6c-0.2-0.2-0.4-0.5-0.6-0.9c-0.1-0.3-0.2-0.7-0.2-1.1   s0.1-0.8,0.2-1.1s0.3-0.6,0.6-0.9c0.2-0.2,0.5-0.4,0.8-0.6s0.7-0.2,1.1-0.2c0.4,0,0.8,0.1,1.1,0.2s0.6,0.3,0.8,0.6   s0.4,0.5,0.6,0.9s0.2,0.7,0.2,1.1s-0.1,0.8-0.2,1.1c-0.1,0.3-0.3,0.6-0.6,0.9c-0.2,0.2-0.5,0.4-0.8,0.6   C103.6,33.6,103.2,33.7,102.8,33.7z M102.8,33.1c0.3,0,0.6,0,0.8-0.2s0.5-0.2,0.6-0.4c0.2-0.2,0.3-0.4,0.4-0.7   c0.1-0.2,0.2-0.5,0.2-0.8c0-0.3-0.1-0.6-0.2-0.8s-0.2-0.5-0.4-0.7s-0.4-0.3-0.6-0.4c-0.2-0.1-0.5-0.2-0.8-0.2   c-0.3,0-0.6,0-0.8,0.2c-0.2,0.1-0.5,0.2-0.6,0.4s-0.3,0.4-0.4,0.7s-0.2,0.5-0.2,0.8c0,0.3,0.1,0.6,0.2,0.8   c0.1,0.3,0.2,0.5,0.4,0.7c0.2,0.2,0.4,0.3,0.6,0.4S102.5,33.1,102.8,33.1z"></path>		<path class="st0" d="M108.3,33.6c-0.1,0-0.2,0-0.2-0.1c-0.1,0-0.1-0.1-0.1-0.2l-1.4-4.5c-0.1-0.1,0-0.3,0-0.4   c0.1-0.1,0.1-0.1,0.2-0.1c0.1,0,0.2,0,0.2,0.1c0.1,0,0.1,0.1,0.1,0.2l1.2,4.1h-0.2l1.1-4.1c0-0.1,0.1-0.1,0.1-0.2   c0.1,0,0.1-0.1,0.2-0.1c0.1,0,0.1,0,0.2,0.1c0.1,0,0.1,0.1,0.1,0.2l1.1,4.1H111l1.2-4.2c0.1-0.1,0.2-0.2,0.3-0.2   c0.1,0,0.2,0,0.2,0.1c0,0.1,0,0.2,0,0.3l-1.4,4.5c0,0.1-0.1,0.2-0.1,0.2c-0.1,0-0.1,0.1-0.2,0.1c-0.1,0-0.2,0-0.2-0.1   s-0.1-0.1-0.1-0.2l-1.1-4.2h0.2l-1.1,4.2c0,0.1-0.1,0.2-0.1,0.2C108.5,33.6,108.4,33.6,108.3,33.6z"></path>		<path class="st0" d="M114.6,33.6c-0.1,0-0.2,0-0.2-0.1s-0.1-0.2-0.1-0.2v-4.6c0-0.1,0-0.2,0.1-0.2c0.1-0.1,0.2-0.1,0.2-0.1h3.1   c0.1,0,0.2,0,0.2,0.1s0.1,0.1,0.1,0.2c0,0.1,0,0.2-0.1,0.2s-0.2,0.1-0.2,0.1h-2.7v1.6h1.9c0.1,0,0.2,0,0.2,0.1s0.1,0.1,0.1,0.2   s0,0.2-0.1,0.2s-0.2,0.1-0.2,0.1h-1.9V33h2.7c0.1,0,0.2,0,0.2,0.1c0.1,0.1,0.1,0.1,0.1,0.2c0,0.1,0,0.2-0.1,0.2   c-0.1,0.1-0.2,0.1-0.2,0.1C117.6,33.6,114.6,33.6,114.6,33.6z"></path>		<path class="st0" d="M120,33.6c-0.1,0-0.2,0-0.2-0.1s-0.1-0.2-0.1-0.2v-4.6c0-0.1,0-0.2,0.1-0.2c0.1-0.1,0.2-0.1,0.2-0.1h1.2   c0.3,0,0.6,0.1,0.9,0.2s0.5,0.3,0.6,0.6c0.2,0.2,0.2,0.5,0.2,0.9c0,0.3-0.1,0.6-0.2,0.8s-0.3,0.4-0.6,0.6   c-0.3,0.1-0.6,0.2-0.9,0.2h-0.9v1.7c0,0.1,0,0.2-0.1,0.2S120.1,33.6,120,33.6z M120.3,30.9h0.9c0.2,0,0.4,0,0.6-0.1   s0.3-0.2,0.4-0.3c0.1-0.1,0.1-0.3,0.1-0.5c0-0.2-0.1-0.4-0.1-0.5c-0.1-0.1-0.2-0.3-0.4-0.4s-0.3-0.1-0.6-0.1h-0.9V30.9z    M122.8,33.6c-0.1,0-0.1,0-0.2,0c-0.1,0-0.1-0.1-0.1-0.1l-1.2-2l0.7-0.2l1.1,1.8c0.1,0.1,0.1,0.2,0,0.4   C123.1,33.6,122.9,33.6,122.8,33.6z"></path>		<path class="st0" d="M126.2,33.6c-0.1,0-0.2,0-0.2-0.1c-0.1-0.1-0.1-0.2-0.1-0.2v-1.6l-1.8-2.8c-0.1-0.1-0.1-0.2-0.1-0.3   c0-0.1,0.1-0.1,0.1-0.2c0.1,0,0.1-0.1,0.2-0.1c0.1,0,0.1,0,0.2,0c0,0,0.1,0.1,0.1,0.1l1.7,2.7h-0.3l1.7-2.8c0,0,0.1-0.1,0.1-0.1   c0.1,0,0.1,0,0.2,0c0.1,0,0.1,0,0.2,0.1c0.1,0.1,0.1,0.1,0.1,0.2c0,0.1,0,0.2-0.1,0.2l-1.8,2.8v1.6c0,0.1,0,0.2-0.1,0.2   C126.4,33.6,126.3,33.6,126.2,33.6z"></path>	</g>	<g>		<g>			<g>				<g>					<g>						<path class="st1" d="M124.2,16.8c-0.2,3.2-3,6-12.8,4.6c-0.3,0.3-0.3,0.5-0.3,0.5s-0.1-0.1-0.3-0.3l0.2,0.2c0,0-1.2,0-1.6,0       s-0.9,0.1-1.5,0.1s-0.7-0.2-0.6-0.5c0.1-0.3,0.6-0.3,0.9-0.4c0.3,0,0.4-0.1,0.4-0.4c-0.8-0.5-0.9-1.9-0.9-2.4       c0,0,0-0.1-0.1-0.1c-0.4,0.7,0,2.9-0.4,3.4c-0.2,0.2-0.4,0.3-0.6,0.4c-0.2,0.1-0.4,0.1-0.7,0.1c-0.3,0-0.4-0.1-0.5-0.2       c-0.4,0.1-1.3,0.1-1.4,0c-0.2-0.2-0.1-0.4-0.1-0.4l0.8-0.7c0,0,0-2.7-0.7-4.2c-2.9-3.5-3-7.4-1.7-8.5       c-0.1-2.5,1.6-4.8,2.9-5.6c-0.2-1.4,1.6-2.3,1.6-2.3l0.2,0c0,0-0.2,1.6-0.1,2c0.9-0.9,2.1-1.3,2.1-1.3l0.2,0.1       c0,0-0.9,2.3-0.8,2.6c0.3,0.4,0.6,0.7,0.6,0.8c0.1,0.2-0.1,0.9-0.1,0.9l2.3,1.1L111,6.6c0,0-1.2,1.1-3.4,0.8       c-0.4,0.4-0.3,0.4-0.3,0.4l0.8,1.3c0,0,2.8,0.2,4.9,4.5c1.2,2.5,0.8,4.5-0.4,6.4c1.7-1.2,7.1,0.3,7.2-3c0-1.7-1.7-2.2-1.8-3.6       c0-1.3,3.1-3.1,4.4-2.2C118.9,12.7,124.4,12.9,124.2,16.8L124.2,16.8z M105.7,21.1c0,0,0.3-0.1,0.5-0.1c0.1-4.4-0.3-5-0.3-5       s-0.2,0.7-0.4,1C105.6,18,105.7,21.1,105.7,21.1L105.7,21.1z M106.1,8.2c-1.1,0.4-1.5,0.3-2.2-0.2c-0.9,0.8-2.6,3.8,0.8,7.1       c0.2-0.4,0.5-1.2,0.5-1.2s0.3,0.3,0.3,0.6C107.4,11.8,107.3,10.2,106.1,8.2L106.1,8.2z M120.5,11.6c-3.5,1.8-0.2,2.7-0.2,4.1       c0.3-0.7,0.5-1,0.5-1s0.5,0.5,0.6,1.1c0.2-0.6,0.4-1.2,0.4-1.2s0.4,0.2,0.5,0.4C123.1,13.6,119.8,13.1,120.5,11.6L120.5,11.6z       "></path>					</g>				</g>				<g>					<path class="st2" d="M47.5,16.9L47.5,16.9L47.5,16.9c0,0-0.8,0.8-1.5,1.6c-0.1-0.1-0.3-0.3-0.4-0.5l-0.1-0.1      c-0.8-0.9-1.4-1.6-1.8-2.1c0-0.1-0.1-0.1-0.2-0.2c1.1-0.3,1.9-1.3,1.9-2.5c0-1.4-1.2-2.6-2.6-2.6c-1.4,0-2.6,1.2-2.6,2.6      c0,0.7,0.3,1.4,0.8,1.8c-1.4,0.6-2.3,1.9-2.3,3.4c0,2,1.6,3.6,3.7,3.6l0,0c0.9,0,1.8-0.4,2.5-1c0.2-0.2,0.5-0.5,1.1-1.1      c0.8,0.9,1.3,1.6,1.3,1.6c0.2,0.2,0.5,0.2,0.7,0.1c0.2-0.2,0.2-0.5,0.1-0.7l0,0c-0.1-0.1-0.7-0.8-1.4-1.6      c0.8-0.8,1.5-1.5,1.6-1.6c0.2-0.2,0.2-0.5,0-0.7C48,16.7,47.7,16.7,47.5,16.9z M42.1,15.7c0.4,0.3,1.6,1.7,2.7,2.9      c0.1,0.2,0.3,0.3,0.4,0.5c-0.6,0.6-1,1-1.1,1.1c-0.5,0.5-1.1,0.7-1.8,0.7c-1.5,0-2.6-1.2-2.6-2.6C39.6,17,40.7,15.8,42.1,15.7z       M42.7,14.7c-0.9,0-1.6-0.7-1.6-1.6c0-0.9,0.7-1.6,1.6-1.6c0.9,0,1.6,0.7,1.6,1.6C44.3,14,43.6,14.7,42.7,14.7z"></path>					<path class="st2" d="M6.4,11.4l-5.8,0c-0.1,0-0.2,0.1-0.3,0.1c-0.1,0.1-0.2,0.2-0.2,0.4v9.6c0,0.1,0,0.3,0.2,0.4      C0.4,22,0.5,22,0.6,22s0.2,0,0.4-0.1c0.1-0.1,0.1-0.2,0.1-0.4v-4.3h3.9c0.1,0,0.3,0,0.3-0.1c0.1-0.1,0.2-0.2,0.2-0.4      c0-0.1-0.1-0.3-0.2-0.4c-0.1-0.1-0.2-0.1-0.3-0.1H1.1v-3.8l5.3,0c0.1,0,0.2-0.1,0.3-0.1c0.1-0.1,0.2-0.2,0.2-0.4      c0-0.1-0.1-0.2-0.2-0.4C6.7,11.5,6.6,11.4,6.4,11.4z"></path>					<path class="st2" d="M14.8,11.4c-1.4,0-2.7,0.5-3.7,1.6s-1.6,2.3-1.6,3.7s0.5,2.7,1.6,3.7s2.3,1.5,3.7,1.5s2.7-0.5,3.7-1.5      c1-1,1.5-2.3,1.5-3.7S19.6,14,18.5,13C17.5,11.9,16.2,11.4,14.8,11.4z M19.1,16.7c0,1.2-0.4,2.2-1.3,3S16,21,14.8,21      s-2.2-0.4-3-1.3s-1.3-1.9-1.3-3s0.4-2.2,1.3-3s1.9-1.3,3-1.3s2.2,0.4,3,1.3C18.7,14.5,19.1,15.5,19.1,16.7z"></path>					<path class="st2" d="M31.2,11.8c0-0.1-0.1-0.2-0.2-0.3s-0.2-0.1-0.4-0.1c-0.1,0-0.2,0.1-0.3,0.2l-3,4.2l-3-4.2      c-0.1-0.1-0.2-0.2-0.3-0.2s-0.3,0-0.4,0.1c-0.1,0.1-0.2,0.2-0.2,0.3c0,0.1,0,0.3,0.1,0.4l3.2,4.5l-3.2,4.5      c-0.1,0.1-0.1,0.2-0.1,0.4c0,0.1,0.1,0.2,0.2,0.3c0.1,0.1,0.2,0.1,0.3,0.1c0.2,0,0.3-0.1,0.4-0.2l3-4.2l3,4.2      c0.1,0.1,0.2,0.2,0.4,0.2c0.1,0,0.2,0,0.3-0.1c0.1-0.1,0.2-0.2,0.2-0.3c0-0.1,0-0.3-0.1-0.4L28,16.7l3.2-4.5      C31.2,12.1,31.3,11.9,31.2,11.8z"></path>					<path class="st2" d="M58.4,11.4c-0.1,0-0.3,0.1-0.4,0.1c-0.1,0.1-0.1,0.2-0.1,0.4v7.1c0,0.6-0.2,1-0.6,1.5      c-0.4,0.4-0.9,0.6-1.4,0.6c-0.1,0-0.2,0-0.3,0.1c-0.1,0.1-0.2,0.2-0.2,0.4c0,0.1,0,0.3,0.2,0.4c0.1,0.1,0.2,0.1,0.3,0.1      c0.8,0,1.5-0.3,2.1-0.9s0.9-1.3,0.9-2.1v-7.1c0-0.1,0-0.3-0.2-0.4C58.7,11.4,58.6,11.4,58.4,11.4z"></path>					<path class="st2" d="M67.3,11.7C67.3,11.7,67.3,11.7,67.3,11.7l-0.2-0.3v0.1l0,0c-0.1,0-0.1-0.1-0.2-0.1l0,0.1v-0.1h0      c0,0-0.1,0-0.1,0c0,0,0,0-0.1,0h-0.1c-0.1,0-0.1,0-0.2,0.1l0,0c0,0,0,0,0,0c0,0,0,0,0,0c0,0,0,0,0,0l0,0l0,0c0,0,0,0.1,0,0.1      l-4,9.6c0,0.1,0,0.3,0,0.4c0,0.1,0.1,0.2,0.3,0.3l0.1,0l0.1,0c0.2,0,0.4-0.1,0.5-0.3l0.9-2.1h5.2l0.9,2.1      c0.1,0.2,0.2,0.3,0.5,0.3c0.1,0,0.1,0,0.2,0c0.1,0,0.2-0.1,0.3-0.3c0.1-0.1,0.1-0.3,0-0.4L67.3,11.7z M69.1,18.5h-4.4l2.2-5.4      L69.1,18.5z"></path>					<path class="st2" d="M82.5,11.4c-0.1,0-0.2,0.1-0.3,0.1c-0.1,0.1-0.1,0.2-0.1,0.4V20l-6.6-8.5c-0.1-0.2-0.3-0.2-0.6-0.2      c-0.2,0.1-0.3,0.2-0.3,0.5v9.6c0,0.1,0.1,0.3,0.2,0.4c0.1,0.1,0.2,0.1,0.3,0.1s0.2,0,0.3-0.1c0.1-0.1,0.2-0.2,0.2-0.4v-8.2      l6.6,8.5l0.1,0.1c0,0,0,0,0,0c0,0,0,0,0.1,0s0,0,0,0l0,0h0c0,0,0,0,0.1,0l0,0c0,0,0.1,0,0.1,0c0,0,0.1,0,0.1,0c0,0,0,0,0,0      c0,0,0,0,0.1,0l0,0c0,0,0,0,0.1,0c0,0,0,0,0,0l0.1,0l0,0l0,0c0,0,0,0,0,0c0,0,0,0,0,0c0,0,0,0,0,0c0,0,0,0,0,0c0,0,0,0,0,0      c0,0,0,0,0,0c0,0,0,0,0,0v-9.6c0-0.1-0.1-0.2-0.1-0.4C82.8,11.4,82.7,11.4,82.5,11.4z"></path>					<path class="st2" d="M93.5,21h-5.3v-3.8h3.9c0.1,0,0.2,0,0.3-0.1c0.1-0.1,0.2-0.2,0.2-0.4c0-0.1-0.1-0.3-0.2-0.4      c-0.1-0.1-0.2-0.1-0.3-0.1h-3.9v-3.8l5.3,0c0.1,0,0.2-0.1,0.3-0.1c0.1-0.1,0.2-0.2,0.2-0.4c0-0.1-0.1-0.2-0.2-0.4      c-0.1-0.1-0.2-0.1-0.3-0.1l-5.8,0c-0.1,0-0.2,0.1-0.3,0.1c-0.1,0.1-0.2,0.2-0.2,0.4v9.6c0,0.1,0.1,0.3,0.2,0.4      c0.1,0.1,0.2,0.1,0.3,0.1h5.8c0.1,0,0.3,0,0.3-0.1c0.1-0.1,0.2-0.2,0.2-0.4s-0.1-0.3-0.2-0.4C93.7,21,93.6,21,93.5,21z"></path>				</g>			</g>		</g>	</g></g></svg>