<?xml version="1.0" encoding="utf-8"?>
<!-- Generator: Adobe Illustrator 27.5.0, SVG Export Plug-In . SVG Version: 6.00 Build 0)  -->
<svg version="1.1" id="Layer_1" xmlns="http://www.w3.org/2000/svg" xmlns:xlink="http://www.w3.org/1999/xlink" x="0px" y="0px"
	 width="111.4px" height="109.2px" viewBox="0 0 111.4 109.2" style="enable-background:new 0 0 111.4 109.2;" xml:space="preserve"
	>
<style type="text/css">
	.st0{fill:#254EDB;}
	.st1{clip-path:url(#SVGID_00000057113202648112830200000013059545788056209287_);}
	.st2{fill:#FFFFFF;}
</style>
<g>
	<path class="st0" d="M102.3,107.4H9c-3.4,0-6.1-2.7-6.1-6.1V8c0-3.4,2.7-6.1,6.1-6.1h93.3c3.4,0,6.1,2.7,6.1,6.1v93.3
		C108.4,104.6,105.7,107.4,102.3,107.4z"/>
	<g>
		<defs>
			<rect id="SVGID_1_" x="2.9" y="1.8" width="105.5" height="105.5"/>
		</defs>
		<clipPath id="SVGID_00000047775608128388481980000009823498211771789983_">
			<use xlink:href="#SVGID_1_"  style="overflow:visible;"/>
		</clipPath>
		<g style="clip-path:url(#SVGID_00000047775608128388481980000009823498211771789983_);">
			<path class="st2" d="M16.4,68.1c-8.3-24.3,5.6-45.2,25.5-52c23.3-8,40.6,4,47.4,23.7c1.3,3.8,2,7.6,2.4,9.9
				c0.1,0.6-0.2,1.3-0.8,1.5L39.5,68.7c-0.6,0.2-1.4-0.1-1.6-0.8l-4.8-14.1c-0.2-0.6,0.1-1.4,0.8-1.6l32.3-11.1c1-0.3,2,0.6,1.6,1.7
				s-1.9,1.2-2.3,0.1c-3.5-7.5-8.7-10.4-16-7.8c-9.7,3.3-13,11.4-8.4,24.7s13.5,17.2,27.1,12.6c1.8-0.6,3.5-1.4,5-2.2
				c7.7-4.1,17.3-2.8,23.6,3.1c0.5,0.4,0.5,1.3,0.1,1.8C90.2,83.1,80,89.7,71.2,92.7C47.7,100.6,24.8,92.5,16.4,68.1L16.4,68.1z"/>
		</g>
	</g>
</g>
</svg>
