<svg width="60" height="47" viewBox="0 0 60 47" fill="none" xmlns="http://www.w3.org/2000/svg">
<g clip-path="url(#clip0_189_2)">
<path d="M28.6541 4.90593C27.0043 3.29957 25.0072 2.08394 22.8365 1.34588C20.4052 0.434153 17.453 0 13.8929 0C12.5904 0 11.288 0 9.94211 0.0434153C8.59624 0.0868307 7.33719 0.0868307 6.16498 0.130246C4.99276 0.173661 3.90738 0.173661 2.86541 0.217077C1.86686 0.260492 1.17221 0.260492 0.434153 0.260492C0.130246 0.260492 0 0.434153 0 0.738061V45.4124C0 45.8032 0.173661 45.9768 0.520984 45.9768H8.94356C9.24747 45.9334 9.46454 45.6729 9.42113 45.369V31.4327C10.246 31.4327 10.8538 31.4327 11.288 31.4761C11.7221 31.5195 12.4168 31.5195 13.4588 31.5195C17.0188 31.5195 20.275 31.1288 23.2272 30.0434C26.0492 29.0014 28.4805 27.178 30.2171 24.7467C31.9537 22.3155 32.822 19.233 32.822 15.4993C32.822 13.5456 32.4747 11.6787 31.8234 9.85528C31.1288 7.98842 30.0434 6.29522 28.6541 4.90593ZM22.0116 20.275C21.0564 21.3603 19.8408 22.1852 18.4515 22.576C16.8452 23.097 15.152 23.3575 13.4588 23.3575H11.1577C10.6368 23.3575 10.0724 23.314 9.46454 23.2706V8.68307C9.76845 8.63965 10.3763 8.59624 11.2446 8.63965C12.0695 8.59624 13.068 8.59624 14.1968 8.59624C15.9768 8.55282 17.7135 8.81331 19.3198 9.46454C20.5789 9.94211 21.6208 10.8104 22.3589 11.9392C23.0535 13.1114 23.4009 14.4573 23.3575 15.8032C23.3575 17.7135 22.9233 19.1896 22.0116 20.275Z" fill="white"/>
<path d="M59.3922 10.5065C57.0912 10.5065 54.7902 11.0709 52.7931 12.1997C51.013 13.1548 49.4501 14.4139 48.1476 15.9334C48.1476 15.369 48.1042 14.848 48.0608 14.3705C48.0174 13.9363 47.9305 13.4588 47.8437 13.0246C47.8003 12.6339 47.7135 12.2865 47.5832 11.9392C47.453 11.5485 47.1057 11.2446 46.6715 11.2446H39.0738C39.0304 11.2012 38.9436 11.2012 38.9436 11.2446C38.7265 11.288 38.5963 11.5051 38.6397 11.7221C38.7265 12.7207 38.8133 13.6758 38.8133 14.6744C38.8567 15.8032 38.8567 16.932 38.9002 18.0608C38.9436 19.1896 38.9436 20.275 38.9436 21.3169V45.5427C38.987 45.89 39.2909 46.1071 39.6382 46.0637H48.191C48.5818 46.0637 48.7554 45.89 48.7554 45.4559V23.314C49.3633 22.6194 50.1447 22.0984 50.9696 21.7077C52.1418 21.1867 53.3575 20.7959 54.6165 20.5355C56.136 20.1881 57.7424 20.0579 59.3054 20.1013C59.7829 20.1013 60 19.9711 60 19.6237V10.9841C59.9566 10.6802 59.6961 10.4631 59.3922 10.5065Z" fill="white"/>
</g>
<defs>
<clipPath id="clip0_189_2">
<rect width="60" height="46.068" fill="white"/>
</clipPath>
</defs>
</svg>
