<?xml version="1.0" encoding="UTF-8"?>
<!-- Generator: Adobe Illustrator 25.4.1, SVG Export Plug-In . SVG Version: 6.00 Build 0)  -->
<svg version="1.1" id="Layer_1" xmlns="http://www.w3.org/2000/svg" xmlns:xlink="http://www.w3.org/1999/xlink" x="0px" y="0px" viewBox="0 0 842.2 319" style="enable-background:new 0 0 842.2 319;" xml:space="preserve">
<style type="text/css">
	.st0{fill:#100E51;}
</style>
<path class="st0" d="M593.5,112.4c-1.8-9.9-5.2-19.5-12.7-26.3c-15.2-13.8-33-18.2-52.9-12.4c-6.3,1.8-12.2,4.9-17.9,7.9  c-2.2,1.3-4.6,2.3-7,3c-5.3,1.4-8.6-0.1-10.8-5.2c-0.9-2-1.5-4.2-2.3-6.3c-0.6-1.5-1.3-3-3.1-3.2c-2.1-0.2-3.2,1.2-4.2,2.7  c-1.5,2.6-2.5,5.5-2.9,8.6c-1,6.1-0.7,12.1,2.6,17.6c3.1,5.3,8.2,7.6,13.9,9.5s10,0.6,14-3.3c2-2,4-4,6.7-6.7  c-1.5,8.1-5.2,13.5-11.9,17.8c-1.5,0.9-3.1,1.5-4,3.3c-5.7,11.1-10.1,22.5-9.2,35.2s6.5,23.9,13.4,34.4c1.6,2.5,4.1,4.2,6.3,6.2  c-8.8-0.8-14.4-5.6-17.2-13.7c-0.7-2-1.2-3.9-2.9-5.4c-4.6-4.1-9.7-7.3-15.7-8.8c-6.8-1.7-13.1-0.6-18.4,4.1  c-7.6,6.7-11.3,15.7-13.5,25.3c-0.2,1.1-0.5,2.4,0.5,3.1s2.1-0.3,3-0.9c0.7-0.5,1.2-1,1.9-1.5c10.5-7.9,20-7.5,30,1.1  c3.5,3,6.8,6.3,10.3,9.4c4.4,3.9,9.5,7,15.1,9.2c10.5,3.9,21.8,5.3,33,4c10.4-1,20.2-5.4,28-12.5c6.6-6.1,11.9-13.4,15.7-21.6  c6-12.5,9.3-25.8,11.7-39.3C594.7,136,595.6,124.2,593.5,112.4z M546.9,172.9c-2.7,2.8-6.1,4.8-9.8,5.8c-5.2,1.5-8.9-1.2-9-6.6  c-0.1-3.3,0.2-6.7,0.3-10c0.1-1.3,0-2.6-0.3-3.8c-0.5-2-1.8-2.4-3.5-1.1c-0.8,0.7-1.6,1.5-2.4,2.4c-1.6,1.6-3.6,2.6-5.8,1.6  c-0.7-0.3-1.2-0.8-1.7-1.4c-0.4-0.4-0.6-0.8-0.9-1.2c-0.2-0.9,0-1.9,0.6-2.6c0.4-0.6,0.8-1.2,1.2-1.8c0.1,0.2,0.1,0.4,0.2,0.6  c0,0.2,0.1,0.4,0.1,0.7c0,0.5,0,0.9,0,1.4c0,1,0.1,3,1.5,3c1.3,0,2.5-0.6,3.3-1.7c0.5-0.6,0.9-1.3,1.4-2c1.3-1.7,2.9-3.1,5.2-2.7  c2.1,0.4,3.7,2.4,4,5.4c0.1,2.1,0.1,4.1,0,6.2c-0.1,2.1-0.1,4.1,0,6.2c0.4,3.8,3.2,5.4,6.8,4.2c4.4-1.6,8.1-4.7,10.4-8.7  c3.3-5.5,5.1-11.3,4.2-17.8s-3.9-8-9.6-4.9c-4.3,2.3-8.7,3.1-13.3,1.5c-2-0.6-3.9-1.7-5.4-3.2c-1.5-1.4-2.7-3.1-3.6-4.9  c-0.5-1.1-1-2.2-1.3-3.3c-0.4-1-0.6-2.1-0.8-3.2c-0.1-1.2,0.1-2.3,0.5-3.4c0,0.1,0.3,0.6,0.4,0.7c0.1,0.3,0.3,0.5,0.4,0.8  c0.7,1.7,0.7,3.6,1.4,5.3c0.8,1.7,1.8,3.4,3.1,4.8c1.4,1.5,3.2,2.6,5.2,3c2.2,0.6,4.4,0.7,6.6,0.2c1.8-0.4,3.5-1.1,5.1-2  c3.3-1.8,6.8-2.8,10.6-1.5c3.4,1.2,5.5,3.5,5.5,7.1C557.2,156.2,554.2,165.4,546.9,172.9L546.9,172.9z M561.3,118.9  c-2.1,0.2-3.9-2.6-3.9-6.2c0-1.6,0.3-3.2,1.1-4.6c1.5-2.5,3.6-2.4,5.1,0.1c0.8,1.4,1.2,3,1,4.6C564.7,116.2,563.3,118.8,561.3,118.9  L561.3,118.9z M583.4,113.9c-0.5,1.8-1,4.1-3.4,3.8c-2.2-0.3-2.7-2.4-2.9-4.3c-0.1-0.5-0.1-1-0.1-1.2c0-3.4,1.3-5.7,3.1-5.9  s3.7,2.5,3.6,5.8C583.7,112.7,583.6,113.3,583.4,113.9L583.4,113.9z"/>
<path class="st0" d="M702.7,58c0.1-0.5,0.2-1.3,0.4-2.3C703,56.5,702.9,57.2,702.7,58z"/>
<path class="st0" d="M66.8,273c5.9,0,11.8,0.1,17.8,0c2.2,0,3.4,0.5,3.1,2.9c0,0.3,0,0.7,0,1c-0.1,6,0.6,5.5-5.2,5.7  c-4.4,0.1-5.4,1-5.4,5.5c-0.1,8.3-0.1,16.6-0.1,24.9c0,3.9-0.1,3.9-4,4s-3.9,0.1-5.1-3.6c-0.9-2.7-1.4-3-4.3-2  c-2.1,0.8-4.1,1.8-6.1,2.7c-7.6,3.5-16,4.9-24.3,4c-14-1.5-23.7-9-29-21.9c-5.3-12.8-5.5-27.3-0.4-40.2c7-18.4,23.2-24.7,40.4-22.7  c5.9,0.8,11.5,2.8,16.6,5.8c3.8,2.1,4.3,1.9,4.8-2.2c0.2-1.9,0.9-2.3,2.7-2.5C75,234,75,234,75,240.8s-0.1,13.7,0,20.6  c0.1,2.6-0.9,3.5-3.3,3.2c-0.6-0.1-1.3,0-1.9,0c-3.5,0-3.5-0.1-4.3-3.5c-2.7-11.3-10.4-17.9-22-18.6c-12.1-0.7-20.6,4.6-24.5,15.8  c-3.9,11.1-3.9,23.2-0.2,34.3c7,21.3,30.9,18.7,41.4,8.3c0.4-0.4,1.1-1,1.2-1.5c0.3-4.8,0.9-9.6-0.4-14.3c-0.5-1.9-2.5-2.4-4.3-2.5  c-2.7-0.2-5.4-0.3-8.1-0.3c-1.9,0-2.4-0.8-2.6-2.6c-0.5-6.9-0.5-6.9,6.3-6.9L66.8,273z"/>
<path class="st0" d="M121.4,266.1c6.2-6.4,12.8-9.1,20.5-9.2c13.4-0.2,21.1,7.4,21.4,21.4c0.1,7.5,0.1,15,0.1,22.5  c0,1.1,0,2.2,0.2,3.3c0.1,2.2,1.8,3.9,4,4.1c1.1,0.2,2.2,0.3,3.3,0.2c4.5-0.1,4.2,0,4.2,4.2s0,4.3-4.1,4.3c-9.4,0-18.9,0-28.3,0  c-3.4,0-3.4-0.1-3.5-3.5c0-0.8,0-1.6,0-2.4c-0.1-1.8,0.6-2.4,2.5-2.6c7.6-0.6,8-1,8.1-8.6c0.1-6.7,0.1-13.4,0-20.1  c0-1.3-0.1-2.6-0.3-3.8c-1.2-8.1-6.1-11.6-14.2-10.3c-7.9,1.2-12.8,5.8-13.6,13.8c-0.7,8-0.7,16,0,23.9c0.2,3.8,1.4,4.7,5.1,5  c5.1,0.6,5,0.6,5,5.4c0,2.7-1.1,3.2-3.4,3.2c-9.8-0.1-19.5,0-29.3,0c-3.4,0-3.4-0.1-3.5-3.5c0-1,0-1.9,0-2.9c0-1.4,0.6-2,2-2  s2.9,0,4.3-0.1c4.4-0.4,5.6-1.6,5.9-5.9c0.1-1.6,0.1-3.2,0.1-4.8c0-15.5,0-31,0-46.5c0-1.3-0.1-2.6-0.1-3.8c0.1-2.4-1.7-4.4-4.1-4.6  c-1.4-0.2-2.9-0.3-4.3-0.4c-3.8-0.2-3.8-0.2-3.8-4.1s0-4.1,3.9-4.1c6.2,0,12.5,0.1,18.7,0c2.5-0.1,3.3,0.8,3.2,3.3  C121.3,246.7,121.4,255.8,121.4,266.1z"/>
<path class="st0" d="M374.3,299.9c0-4.6,0-9.3,0-13.9c0-1.8,0.5-2.8,2.5-2.5c1.6,0.2,3.8-0.8,3.9,2.1c0.1,1.3,0.3,2.5,0.5,3.8  c1.8,12.5,8.9,20.2,21.4,22.5c6.8,1.4,13.8,0.9,20.3-1.5c6.6-2.5,9.8-7.6,9.5-14.5c-0.2-4.2-2.4-8.1-6-10.3  c-3.5-2.2-7.4-3.8-11.4-4.8c-6.2-1.6-12.4-3.1-18.5-4.8c-4.2-1.1-8.1-2.9-11.7-5.3c-7.6-5.3-9.5-12.9-8.2-21.5  c1.2-7.8,6.3-12.3,13.7-14.4c10.2-3,21.2-2.4,31,1.7c1.8,0.7,3.5,1.6,5.2,2.3c3.2,1.3,3.3,1.3,4.2-1.9c0.6-2.2,1.8-2.6,5.2-2.3  c2.1,0.2,2.1,1.5,2.1,3c0,8.3-0.1,16.6,0,24.9c0,2.3-0.8,3.1-3,3.1s-3.6-0.1-3.7-3c-0.1-4-1.2-7.9-3.2-11.4  c-2.3-4.3-6.1-7.6-10.6-9.3c-7.5-3-15.8-3.3-23.5-1c-7.5,2.2-11,8.8-8.7,15.6c1.1,3.4,3.6,5.5,6.7,7.2c4.2,2.3,8.9,3.5,13.5,4.7  s9.6,2.5,14.3,3.8c3.4,0.9,6.6,2.3,9.7,4c8.6,4.8,12.4,12.2,11.5,21.9c-0.8,9.1-6.2,15-14.4,18.1c-11.4,4.3-22.9,3.7-34.1-1.1  c-2.2-1-4.2-2.2-6.4-3.2c-2.9-1.3-3.7-0.8-4.5,2c-0.3,1,0.4,2.5-1,2.9c-1.7,0.5-3.5,0.5-5.2,0c-1.1-0.3-0.9-1.5-0.9-2.5  C374.3,309.5,374.3,304.6,374.3,299.9z"/>
<path class="st0" d="M243.2,276.4c-3.2-10.2-10.2-16.3-20.6-18.6c-5.8-1.3-11.8-1.3-17.6-0.2c-11.7,2.3-19,9.3-22,20.7  c-0.4,1.7-0.7,3.4-0.9,5.2c-1.3,13.7,3.2,30.7,23.7,34.2c2.5,0.4,5.1,0.5,7.6,0.7c0-0.1,0-0.2,0-0.3c1.6,0,3.2,0.1,4.8,0  c12.9-1,22.1-8.5,25.4-20.5C245.5,290.7,245.3,283.3,243.2,276.4z M227.9,300.9c-2.9,6.4-7.9,9.5-14.8,9.4  c-6.6-0.1-11.7-3.2-14.2-9.5c-3.5-8.5-3.5-18.1,0.1-26.5c2.5-6,7.4-9,13.9-9.1s11.7,2.6,14.7,8.7c2.1,4.4,2.5,9.2,2.9,14  C230.2,292.3,229.8,296.8,227.9,300.9L227.9,300.9z"/>
<path class="st0" d="M308.5,268.5c0,2.7,0,5.4,0,8.2c0,1.7-0.7,2.3-2.3,2.2c-0.8-0.1-1.6-0.1-2.4,0c-2.6,0.3-3.7-0.4-4.5-3.3  c-2.4-9-15.6-14-23.7-9.2c-4.5,2.6-4.9,7.4-0.7,10.5c2,1.4,4.2,2.3,6.6,2.9c3.8,1.1,7.7,2,11.6,3c3.1,0.8,6.1,2,8.9,3.5  c6.4,3.5,9.5,8.9,9,16.1c-0.6,7.1-4.5,11.8-11.2,14.2c-7.3,2.7-14.8,2.3-22.2,0.2c-2.1-0.6-4.2-1.5-6.3-2.3  c-2.1-0.8-4.1-1.7-5.2,1.6c-0.7,2.1-3.1,0.9-4.7,1c-3.7,0.1-3.7,0-3.8-3.6c0-4.8,0.1-9.6,0-14.4c0-2,0.6-3,2.7-2.8  c1,0.1,1.9,0.1,2.9,0c2.3-0.3,3.4,0.5,4,2.9c1.3,4.8,4.7,7.8,9.1,9.8c4.6,2,9.7,2.5,14.6,1.4c3.3-0.6,5.9-2.4,6.6-6  c0.6-3-1-5.7-4.6-7.6c-3.3-1.8-6.9-2.5-10.4-3.5c-5.4-1.5-10.9-2.7-15.7-5.7s-7.5-7.2-7.6-13c-0.1-8.4,4.3-14.4,12.4-16.6  c6.1-1.6,12.5-1.4,18.4,0.7c2.3,0.7,4.5,1.7,6.7,2.5c1.1,0.4,2.3,0.8,2.8-0.6c0.4-1.1,0.7-2.1,2.2-2.1c1.9,0,3.8,0,5.7,0.2  c1,0.1,1,1.1,1,1.9c0,0.2,0,0.3,0,0.5L308.5,268.5z"/>
<path class="st0" d="M839.6,311.2c-9.5-0.3-10.1-0.6-10.1-11.2v-59.9c0-1.1,0-2.2,0-3.3c0.1-1.6-0.7-2.4-2.3-2.3  c-5.3,0-10.5,0-15.8,0c-1.7,0-2.2,0.9-2.2,2.4c0.1,2.4-0.6,3.8,3.3,3.7c1.3,0,2.6,0,3.8,0.2c2.6,0.2,4.2,1.8,4.4,4.3  c0.4,7.2,0.4,14.4,0,21.5c-4.8-5.7-10.1-8.5-16.6-9.2c-13.3-1.5-26.9,3.4-30.6,20.8c-1.1,5.5-1.3,11.1-0.5,16.7  c2.8,21.2,26,31,43.2,18.5c1.8-1.3,3.3-2.9,5.4-4.7c0.8,2.1,0.5,3.9,0.5,5.6c0,2,0.7,2.9,2.8,2.8c4.8-0.1,9.6-0.1,14.4,0  c2.1,0,2.8-0.8,2.8-2.8S841.8,311.2,839.6,311.2z M819.2,300.5c-3.2,8-9.3,11.8-16.1,12c-10.4,0.1-16.6-4.3-19.3-12.7  c-2.5-7.8-2.6-16.2-0.1-24c2.5-8.2,8.3-12.6,16.4-13.1c8.3-0.5,15.6,3.7,18.8,11.3C822.6,282.4,822.7,292,819.2,300.5z"/>
<path class="st0" d="M687.7,280c-1.8-10.1-6.4-18.2-16.8-21.4c-10.7-3.2-20.9-2.6-29.3,6.1c-0.4,0.4-0.7,1.1-1.9,0.7V260  c0-7.5-0.1-15,0-22.5c0-2.2-0.5-3.2-2.9-3.1c-5.1,0.2-10.2,0.1-15.4,0c-2.1,0-2.8,0.8-2.8,2.9s0.5,3.3,2.9,3.2  c1.6-0.1,3.2,0,4.8,0.2c3.1,0.4,4.2,1.4,4.7,4.4c0.3,2.4,0.5,4.8,0.5,7.2c0,15.7,0,31.3,0,47c0,2.4-0.3,4.8-0.5,7.2  c0,2.4-1.9,4.3-4.3,4.3c0,0,0,0,0,0c-1.7,0.2-3.5,0.3-5.3,0.3c-2.4,0-2.9,1.2-2.8,3.3s1,2.8,3,2.7c3.5-0.1,7,0,10.5,0  c7.4,0,7.4,0,7.7-7.6c8.8,7.7,12.4,9.1,22.7,8.9c11.9-0.3,20.7-6.9,24-18.4C688.5,293.5,688.9,286.6,687.7,280z M676.9,300.7  c-2.5,6.7-7.2,10.9-14.4,11.7c-7.7,0.8-14.2-1.3-18.7-8c-5.8-8.7-5.8-24.5-0.1-33.3c4.3-6.5,10.7-8.9,18.2-8.2s12.3,4.8,15,11.6  c1.6,4.2,2.3,8.6,2.1,13C679.1,292,678.4,296.5,676.9,300.7z"/>
<path class="st0" d="M714.6,290.4c6.7,0.1,13.4,0,20.1,0h13.4c10.9,0,10.9,0,9.3-11c-1.9-13-9.2-20.6-21.9-22.3  c-3-0.4-6.1-0.4-9.1-0.1c-12.8,1.4-20.8,8.6-23.2,21.2c-1.5,7.1-1.2,14.4,0.7,21.3c2.8,9.7,9.1,16,19,18.2  c6.7,1.5,13.8,1.3,20.4-0.6c3.3-0.9,6.2-2.5,8.7-4.8c3-2.7,4.7-6.6,4.7-10.7c0-1.5-0.5-2.5-2.2-2.4c-1,0.1-1.9,0.1-2.9,0  c-2.5-0.3-3.7,0.4-3.9,3.3c-0.3,4-2.9,6.6-6.6,8.1c-4.9,2-10.3,2.4-15.5,1.3c-6-1.2-9.9-4.9-12.1-10.5c-0.9-2.6-1.4-5.2-1.7-7.9  C711.5,291.3,712.2,290.4,714.6,290.4z M712.1,281.5c0.1-0.5,0.2-0.9,0.2-1.4c1.8-15.3,13.3-19.2,24.8-16.4c4.1,1,7.6,3.8,9.4,7.6  c1.6,3.1,2.5,6.6,2.6,10.1c0.1,3.1,0.1,3.1-3.2,3.2c-5.3,0-10.5,0-15.8,0c-5.1,0-10.2-0.1-15.3,0  C712.3,284.6,711.5,283.7,712.1,281.5z"/>
<path class="st0" d="M332.1,286.1c0-5.4-0.1-10.8,0-16.3c0.1-2.3-0.5-3.7-3.2-3.4c-1.4,0.1-2.9,0.1-4.3,0c-4.5,0-4.4,0-4.3-4.5  c0-2.4,0.8-3.3,3.3-3.3c11.2,0.2,12.6-4,12.6-12.9c0-1,0-1.9,0-2.9c0-0.8,0.6-1.5,1.4-1.5c0,0,0,0,0.1,0c0.5,0,1-0.1,1.4-0.1  c8,0,6.4-0.5,6.5,6.2c0.1,2.5,0.2,5.1,0,7.7c-0.2,2.5,1,3.3,3.4,3.2c3.5-0.1,7,0,10.5,0c2.1-0.1,2.9,0.8,2.7,2.8  c-0.1,1-0.1,1.9,0,2.9c0.2,1.8-0.7,2.5-2.5,2.5c-3.8-0.1-7.7,0-11.5,0c-1.8,0-2.6,0.5-2.6,2.4c0.1,10.7-0.1,21.4,0.2,32.1  c0.1,5.3,2.9,7.6,8.3,7.9c1,0,1.9-0.1,2.9,0c1.7,0.1,4-1.3,4.9,0.4c1,1.9,0.4,4.4,0.2,6.6c-0.1,1-0.8,1.3-1.7,1.4  c-6.2,1-12.4,1.3-18.4-1c-6-2.3-9.6-6.8-9.8-13.4C331.9,297.3,332.1,291.7,332.1,286.1L332.1,286.1z"/>
<path class="st0" d="M511.1,281.1c-1.5,0-2.5,0-3.4,0c-1.5,0-2.1-0.6-2.5-2.1c-3.5-12.7-12.6-18.2-25.3-15.5  c-5.3,0.9-9.8,4.4-12,9.3c-4.4,9.7-4.6,19.6,0,29.2c5.5,11.5,22.7,14.4,32.1,5.7c3.1-2.6,4.8-6.6,4.6-10.6c-0.2-3.1,1.7-2.7,3.7-2.8  c2.3-0.2,3.1,0.7,3.1,3c-0.1,8.1-3.5,14.4-10.7,17.8c-10.8,5.1-21.8,4.9-32.2-1.1c-8.3-4.7-11.7-12.8-12.8-21.9  c-0.9-6.7,0.1-13.5,2.9-19.7c5.8-13,20.2-18.7,34.8-14c2.9,1,5.5,2.5,8.3,3.6s3.2,1,4-1.9c0.5-2.1,1.7-2.3,3.4-2.3s2.2,0.7,2.2,2.3  C511.1,267,511.1,273.8,511.1,281.1z"/>
<path class="st0" d="M543.7,266.1c5.4-7.2,12.8-9,21-9c3.7,0,3.7,0.1,3.8,3.8c0.1,4.3,0.1,4.3-4.4,4.2c-1.1,0-2.2,0-3.3,0  c-9.2,0.5-14.1,5-15.2,14.1c-0.9,8.4-1,16.9-0.2,25.3c0.4,4.8,1.5,5.8,6.2,6.2c1.1,0.1,2.2,0.2,3.3,0.2c2.3-0.1,3,1,3,3.2  c0,2.5-1.3,2.8-3.3,2.8c-9.3-0.1-18.5-0.1-27.8,0c-2.1,0-2.8-0.8-2.8-2.8c0-1.7,0.1-3.2,2.4-3.2c1.9,0,3.8-0.2,5.7-0.4  c2.2,0,4-1.7,4.2-3.9c0.3-1.9,0.5-3.8,0.5-5.7c0-8.9,0-17.9,0-26.8c0-0.6,0-1.3-0.1-1.9c-0.4-6.7-1.3-7.6-8-7.9  c-0.6-0.1-1.3-0.1-1.9-0.1c-2,0.2-3-0.6-2.9-2.7s0.4-3.3,2.9-3.3c4.8,0.1,9.6,0.1,14.4,0c1.8,0,2.6,0.7,2.5,2.5  S543.7,264.3,543.7,266.1z"/>
<path class="st0" d="M597.3,282.5c0,6.7-0.1,13.4,0,20.1s1.2,7.8,7.7,8.2c0.6,0.1,1.3,0.1,1.9,0.2c2.3-0.1,3,0.9,3,3.1  s-1,2.9-3.2,2.9c-9.3-0.1-18.5-0.1-27.8,0c-2.1,0-2.8-0.7-2.8-2.8s0.3-3.5,2.8-3.2c1.1,0,2.2,0,3.3-0.2c5.2-0.4,6.2-1.4,6.5-6.8  c0.1-2.1,0.1-4.2,0.1-6.2c0-8.6,0-17.2-0.1-25.9c-0.1-6.2-1.2-7.2-7.2-7.5c-0.8-0.1-1.6-0.1-2.4-0.1c-2.4,0.2-3-0.9-3-3.1  c0-2,0.7-2.9,2.8-2.8c5.1,0.1,10.2,0.1,15.3,0c2.3,0,3.1,0.8,3,3.1c-0.1,7,0,14,0,21.1L597.3,282.5z"/>
<path class="st0" d="M600.3,128.4c1.4,1.5,2.3,2.5,3.2,3.5c4.9,5,8.6,5.8,15.1,3.2c1.5-0.6,3-1.1,4.5-1.6c1.4-0.3,2.8,0.1,3.7,1.2  c-7.4,14.4-16.2,27.7-27.8,39.5c-2.1-1.7-2.6-3.7-2.8-6c-0.2-2.6-0.1-5.1,0.2-7.7c0.1-1.4,1.8-3-0.6-4.1c-0.2-0.1-0.1-0.9,0-1.3  C598.6,146.7,599.7,137.9,600.3,128.4z"/>
<path class="st0" d="M612.3,195.6c-2.1,3.1-2,7-1.7,10.7c0.2,2.9-0.8,4.6-3.2,6.3c-5.5,3.8-10.6,8.2-13,14.9  c-0.3,0.9-1.1,0.8-1.8,0.7c0.1-1.1,0.2-2.2,0.5-3.3c0.1-0.5,0.2-1,0.3-1.5c1-4.7,2.7-11,3.8-15l0,0c0.1-0.3,0.2-0.7,0.3-1l0,0  c0-0.1,0.1-0.2,0.1-0.3c0.2-0.9,0.5-1.6,0.6-2.1s0.2-0.7,0.2-0.7l-0.4,0.6c-0.4,0.6-0.8,1.1-1.1,1.7l-0.1,0.1  c-0.4,0.6-0.8,1.3-1.1,1.9c-2,3.7-3.4,7.6-4.2,11.8v0.1c-0.4,1.9-0.6,3.8-0.7,5.8c0,0.1,0,0.2,0,0.2s0,0.2,0,0.2s0,0.4,0,0.6  c-1,0.1-1.8,0.1-2-1.3c-1.2-8.9-0.2-17.8,0-26.8c0-1,0.5-1.9,1.2-2.5c5.8-4.2,11.2-9,15.1-15c2.8,1.2,4.1,3.3,5.9,4.9  C613.8,189.2,614.9,191.9,612.3,195.6z"/>
<path class="st0" d="M635.9,170.3c0.1,1.7-0.8,2.4-1.6,3.2c-4.7,4.8-9.2,9.8-13.4,15c-2.4,2.9-3.1,2.9-5.4-0.2  c-2.4-3.4-5.1-6.5-8.3-9.2c-1.3-0.8-1.7-2.5-0.9-3.7c0.1-0.1,0.2-0.3,0.3-0.4c3.9-5.8,8.3-11.4,13-16.6c0.8-0.9,1.8-1.5,2.9-0.8  c5,2.9,9.3,6.8,12.8,11.3C635.6,169.3,635.8,169.8,635.9,170.3z"/>
<path class="st0" d="M592.6,232.9c4.3,0,6.9,2.3,6.9,6.1s-2.7,6.1-7,6.1s-6.9-2.3-6.9-6.2S588.2,232.9,592.6,232.9z"/>
<path class="st0" d="M590.7,226.6c0,0.2,0,0.4,0,0.6C590.7,226.9,590.7,226.8,590.7,226.6z"/>
<path class="st0" d="M591.4,220.3c-0.4,2-0.7,4-0.8,6C590.7,224.3,591,222.3,591.4,220.3z"/>
<path class="st0" d="M703.9,49.6V50c0,0.3-0.1,0.6-0.1,0.9c0-0.3,0.1-0.6,0.1-0.9l0,0C703.9,50,703.9,49.7,703.9,49.6z"/>
<path class="st0" d="M702.6,94.3c0.1-0.2,0.2-0.3,0.3-0.5C702.7,94,702.6,94.2,702.6,94.3z"/>
<path class="st0" d="M721.3,80.7c-0.4,2.2-2.1,4-4.3,4.5c-5.4,1.7-10.2,4.6-14.2,8.6v0c-0.1,0.2-0.2,0.3-0.3,0.5  c-0.1,0.4-0.1,0.8,0.7,0.8l0,0c0.2,0,0.5-0.1,0.7-0.2c4.7-1.4,9.2-3.6,14.1-2.9c0.6,0.9,0.6,2.1,0.2,3.1c-2,8.9-6.3,17.2-12.4,24  c-1.8,2.2-4.6,3.5-7.5,3.5c-5.2,0-7.9,1-12.2,3.6c0.8,1.3,2.3,1,3.5,1.2c2.1,0.3,4.1,0.9,6,1.7c1.7,0.7,1.7,1.7,0.4,2.9  c-0.2,0.2-0.5,0.4-0.7,0.6c-16,13.4-33,25.2-52.5,33.1c-0.7,0.3-1.5,0.6-2.2,0.8c-2.6,1-5.6-0.3-6.6-2.9c0-0.1-0.1-0.2-0.1-0.3  c-0.2-0.8,0.1-1.6,0.7-2.1c1.4-1.3,2.8-2.6,4.2-4c20.8-21,38.9-44,52.8-70.2c0.6-1.5,1.5-3,2.3-4.4s1.5-3,2.2-4.6  c1.4-3.1,2.6-6.2,3.7-9.4c1.3-3.4,2.2-7,2.9-10.5c0.3-1.9,0.6-3.9,0.9-5.8c0.1-1,0.2-2,0.4-2.9c0.2-0.9,0.3-1.9,0.3-2.8  c-1.1,2.8-1.8,5.8-2.7,8.6s-2.1,5.8-3.3,8.6c-2.9,6.6-6.1,13.1-9.7,19.4c-3.6,6.3-7.5,12.3-11.5,18.3c-13.3,19.5-28.2,37.9-44.5,55  c-0.5,0.6-1.1,1.1-1.7,1.7c-0.9,1-1.8,1.2-2.9,0.3c-0.9-0.7-1.7-1.4-2.7-2c-1.3-0.8-1.2-1.7-0.3-2.8s1.5-2.1,2.2-3.1  c12-17.2,22.7-35,29.9-54.9c0.1-0.2,0.4-0.4,0.9-0.8c2.5,2.4,3,5.8,4.7,8.6c0.3,0.4,0.6,0.9,0.9,1.4l0,0v0.1l0.1,0.1v0.1l0.3,0.5  c0,0,0,0,0,0c0.1,0.3,0.3,0.5,0.3,0.6c0.2-1,0.3-2.1,0.4-3.1c0,0,0-0.1,0-0.1c0.4-5.3-0.1-10.6-1.5-15.7c-0.5-1.5-0.4-3.2,0.5-4.5  c7.5-12.3,13.7-25.2,18.6-38.8c0.2-0.9,0.8-1.6,1.7-2c3.7,3.8,3.7,9.1,5.5,13.7c1.7-0.2,1.1-1.4,1.2-2.2c0.5-6.2-0.1-12.5-1.8-18.5  c-0.8-2.6-0.4-5.4,1-7.7C695,17.5,702,9,709.4,0.8c0.4-0.5,1-0.8,1.7-0.8c1.1,0.6,1.3,1.7,1.7,2.8c4.4,11,7.1,22.5,8.2,34.3  c0.4,2.7-0.5,5.4-2.5,7.2c-4.1,4-7.5,8.8-9.8,14c-0.4,1.2,0.1,1.3,1.1,1c2.9-2.7,6.3-4.9,9.9-6.6c2.5-1.1,3.2-0.8,3.5,1.8  C724.3,63.3,723.7,72.2,721.3,80.7z"/>
<path class="st0" d="M703.9,49.6V50c0,0,0,0,0,0s0,0,0,0S703.9,49.7,703.9,49.6z"/>
<path class="st0" d="M703.1,55.7c-0.1,1-0.3,1.8-0.4,2.3C702.9,57.2,703,56.5,703.1,55.7z"/>
<path class="st0" d="M689.2,55.6"/>
</svg>