<?xml version="1.0" encoding="utf-8"?>
<!-- Generator: Adobe Illustrator 25.3.1, SVG Export Plug-In . SVG Version: 6.00 Build 0)  -->
<!DOCTYPE svg PUBLIC "-//W3C//DTD SVG 1.1//EN" "http://www.w3.org/Graphics/SVG/1.1/DTD/svg11.dtd" [
	<!ENTITY ns_extend "http://ns.adobe.com/Extensibility/1.0/">
	<!ENTITY ns_ai "http://ns.adobe.com/AdobeIllustrator/10.0/">
	<!ENTITY ns_graphs "http://ns.adobe.com/Graphs/1.0/">
	<!ENTITY ns_vars "http://ns.adobe.com/Variables/1.0/">
	<!ENTITY ns_imrep "http://ns.adobe.com/ImageReplacement/1.0/">
	<!ENTITY ns_sfw "http://ns.adobe.com/SaveForWeb/1.0/">
	<!ENTITY ns_custom "http://ns.adobe.com/GenericCustomNamespace/1.0/">
	<!ENTITY ns_adobe_xpath "http://ns.adobe.com/XPath/1.0/">
]>
<svg version="1.1" id="Maeve_in_June" xmlns:x="&ns_extend;" xmlns:i="&ns_ai;" xmlns:graph="&ns_graphs;"
	 xmlns="http://www.w3.org/2000/svg" xmlns:xlink="http://www.w3.org/1999/xlink" x="0px" y="0px" viewBox="0 0 366.1 123.9"
	 style="enable-background:new 0 0 366.1 123.9;" xml:space="preserve">
<metadata>
	<sfw  xmlns="&ns_sfw;">
		<slices></slices>
		<sliceSourceBounds  bottomLeftOrigin="true" height="122.1" width="363.8" x="1.4" y="0.7"></sliceSourceBounds>
	</sfw>
</metadata>
<link  id="dark-mode-custom-link" rel="stylesheet" type="text/css" xmlns=""></link>
<link  id="dark-mode-general-link" rel="stylesheet" type="text/css" xmlns=""></link>
<link  id="dark-mode-custom-link" rel="stylesheet" type="text/css" xmlns=""></link>
<link  id="dark-mode-general-link" rel="stylesheet" type="text/css" xmlns=""></link>
<g id="Logo">
	<g id="IN_JUNE">
		<path d="M105.6,122.7c-0.3-0.3-0.4-0.6-0.4-1v-19.3c0-0.4,0.1-0.7,0.4-1s0.6-0.4,1-0.4s0.7,0.1,1,0.4s0.4,0.6,0.4,1v19.3
			c0,0.4-0.1,0.7-0.4,1s-0.6,0.4-1,0.4S105.8,123,105.6,122.7z"/>
		<path d="M120.7,122.7c-0.3-0.3-0.4-0.6-0.4-1V103c0-0.6,0.2-1,0.6-1.5c0.4-0.4,0.9-0.6,1.4-0.6h0.4c0.7,0,1.2,0.3,1.7,0.9l12,17.4
			v-16.9c0-0.4,0.1-0.7,0.4-1c0.3-0.3,0.6-0.4,1-0.4s0.7,0.1,1,0.4s0.4,0.6,0.4,1V121c0,0.6-0.2,1-0.6,1.4c-0.4,0.4-0.9,0.6-1.5,0.6
			h-0.4c-0.3,0-0.6-0.1-0.9-0.2c-0.3-0.2-0.5-0.4-0.7-0.6L123,104.7v16.9c0,0.4-0.1,0.7-0.4,1s-0.6,0.4-1,0.4
			C121.3,123.1,121,123,120.7,122.7z"/>
		<path d="M164.2,122.2c-0.5-0.3-0.7-0.7-0.7-1.2c0-0.3,0.1-0.6,0.3-0.9s0.5-0.4,0.9-0.4c0.2,0,0.4,0,0.6,0.1c1,0.5,1.9,0.7,2.9,0.7
			c1.1,0,2-0.3,2.7-1c0.7-0.6,1-1.9,1-3.7v-13.5c0-0.4,0.1-0.7,0.4-1c0.3-0.3,0.6-0.4,1-0.4s0.7,0.1,1,0.4s0.4,0.6,0.4,1v13.4
			c0,2.7-0.6,4.7-1.8,5.8c-1.2,1.1-2.8,1.7-4.6,1.7C166.8,123.3,165.4,122.9,164.2,122.2z"/>
		<path d="M191.5,122.3c-1.4-0.6-2.5-1.6-3.4-2.9s-1.3-2.9-1.3-4.7v-12.4c0-0.4,0.1-0.7,0.4-1c0.3-0.3,0.6-0.4,1-0.4s0.7,0.1,1,0.4
			s0.4,0.6,0.4,1v12.4c0,1.3,0.3,2.3,0.9,3.2c0.6,0.9,1.3,1.5,2.3,2c0.9,0.4,1.9,0.7,3,0.7s2.1-0.2,3-0.7c0.9-0.4,1.7-1.1,2.3-2
			s0.9-1.9,0.9-3.2v-12.4c0-0.4,0.1-0.7,0.4-1c0.3-0.3,0.6-0.4,1-0.4s0.7,0.1,1,0.4s0.4,0.6,0.4,1v12.4c0,1.9-0.4,3.4-1.3,4.7
			c-0.9,1.3-2,2.2-3.4,2.9c-1.4,0.6-2.8,0.9-4.3,0.9C194.3,123.3,192.8,122.9,191.5,122.3z"/>
		<path d="M217.3,122.7c-0.3-0.3-0.4-0.6-0.4-1V103c0-0.6,0.2-1,0.6-1.5c0.4-0.4,0.9-0.6,1.4-0.6h0.4c0.7,0,1.2,0.3,1.7,0.9l12,17.4
			v-16.9c0-0.4,0.1-0.7,0.4-1c0.3-0.3,0.6-0.4,1-0.4s0.7,0.1,1,0.4s0.4,0.6,0.4,1V121c0,0.6-0.2,1-0.6,1.4c-0.4,0.4-0.9,0.6-1.5,0.6
			h-0.4c-0.3,0-0.6-0.1-0.9-0.2c-0.3-0.2-0.5-0.4-0.7-0.6l-12.1-17.5v16.9c0,0.4-0.1,0.7-0.4,1c-0.3,0.3-0.6,0.4-1,0.4
			C217.9,123.1,217.6,123,217.3,122.7z"/>
		<path d="M248.7,122.5c-0.3-0.3-0.4-0.6-0.4-1v-19c0-0.4,0.1-0.7,0.4-1c0.3-0.3,0.6-0.4,1-0.4h12.5c0.4,0,0.7,0.1,1,0.4
			s0.4,0.6,0.4,1s-0.1,0.7-0.4,0.9c-0.3,0.3-0.6,0.4-1,0.4h-11.1v6.9h10c0.4,0,0.7,0.1,1,0.4s0.4,0.6,0.4,1s-0.1,0.7-0.4,0.9
			c-0.3,0.3-0.6,0.4-1,0.4h-10v6.9h11.1c0.4,0,0.7,0.1,1,0.4s0.4,0.6,0.4,1s-0.1,0.7-0.4,0.9c-0.3,0.3-0.6,0.4-1,0.4h-12.5
			C249.3,122.9,248.9,122.8,248.7,122.5z"/>
	</g>
	<g id="MAEVE">
		<path d="M2.7,72.5c-0.9-0.9-1.3-2-1.3-3.3V7.9c0-1.8,0.6-3.4,1.9-4.8c1.3-1.3,2.9-2,4.7-2h3.4c1.4,0,2.6,0.4,3.7,1.2
			s2,1.8,2.5,3.1L41,63.6L64.3,5.5c0.5-1.2,1.4-2.3,2.5-3.1s2.4-1.2,3.7-1.2H74c1.8,0,3.4,0.7,4.7,2c1.3,1.3,2,2.9,2,4.8v61.3
			c0,1.3-0.4,2.4-1.3,3.3s-2,1.3-3.3,1.3s-2.4-0.4-3.3-1.3s-1.4-2-1.4-3.3V10.9L47.6,69.5c-0.5,1.3-1.4,2.3-2.6,3.1
			c-1.2,0.8-2.5,1.2-4,1.2c-1.4,0-2.8-0.4-4-1.2c-1.2-0.8-2.1-1.8-2.6-3.1L10.7,10.9v58.3c0,1.3-0.5,2.4-1.4,3.3s-2,1.3-3.3,1.3
			S3.6,73.4,2.7,72.5z"/>
		<path d="M97,72.5c-0.9-0.9-1.3-2-1.3-3.3c0-0.5,0.2-1.2,0.5-2.1l26.2-61.8c0.5-1.2,1.3-2.2,2.3-3s2.2-1.2,3.6-1.2h1
			c1.4,0,2.7,0.4,3.6,1.2c1,0.8,1.8,1.8,2.3,3l26.2,61.8c0.3,0.8,0.5,1.5,0.5,2.1c0,1.3-0.4,2.4-1.3,3.3c-0.9,0.9-2,1.3-3.3,1.3
			c-1,0-1.8-0.3-2.6-0.8s-1.4-1.2-1.8-2.1l-6.7-16h-34.9l-6.7,16c-0.4,0.9-1,1.6-1.8,2.1s-1.7,0.8-2.6,0.8
			C99,73.8,97.8,73.4,97,72.5z M115,46.4h27.7L128.8,13L115,46.4z"/>
		<path d="M178.4,72c-0.9-0.9-1.3-2-1.3-3.3V6.4c0-1.3,0.4-2.4,1.3-3.3c0.9-0.9,2-1.4,3.3-1.4h41.2c1.2,0,2.3,0.4,3.1,1.3
			c0.9,0.9,1.3,1.9,1.3,3.1s-0.4,2.3-1.3,3.1c-0.9,0.8-1.9,1.2-3.1,1.2h-36.4v22.7h32.7c1.2,0,2.3,0.4,3.1,1.3
			c0.9,0.9,1.3,1.9,1.3,3.1s-0.4,2.3-1.3,3.1c-0.9,0.8-1.9,1.2-3.1,1.2h-32.7v22.8h36.4c1.2,0,2.3,0.4,3.1,1.3
			c0.9,0.9,1.3,1.9,1.3,3.1s-0.4,2.3-1.3,3.1c-0.9,0.8-1.9,1.2-3.1,1.2h-41.2C180.4,73.3,179.3,72.9,178.4,72z"/>
		<path d="M263.4,69.1L238.1,7.6c-0.2-0.5-0.3-1.1-0.3-1.7c0-1.4,0.4-2.6,1.2-3.4c0.8-0.9,2-1.3,3.4-1.3c1,0,1.8,0.3,2.6,0.9
			s1.4,1.4,1.8,2.3l24.1,60.1L295,4.3c0.4-1,1-1.7,1.8-2.3s1.7-0.9,2.6-0.9c1.4,0,2.6,0.4,3.4,1.3s1.2,2,1.2,3.4
			c0,0.6-0.1,1.2-0.3,1.7L278.3,69c-1.4,3.1-3.6,4.7-6.4,4.7h-2.3C267,73.8,264.8,72.2,263.4,69.1z"/>
		<path d="M316.3,72c-0.9-0.9-1.3-2-1.3-3.3V6.4c0-1.3,0.4-2.4,1.3-3.3s2-1.4,3.3-1.4h41.2c1.2,0,2.3,0.4,3.1,1.3
			c0.9,0.9,1.3,1.9,1.3,3.1s-0.4,2.3-1.3,3.1s-1.9,1.2-3.1,1.2h-36.4v22.7H357c1.2,0,2.3,0.4,3.1,1.3c0.9,0.9,1.3,1.9,1.3,3.1
			s-0.4,2.3-1.3,3.1s-1.9,1.2-3.1,1.2h-32.7v22.8h36.4c1.2,0,2.3,0.4,3.1,1.3c0.9,0.9,1.3,1.9,1.3,3.1s-0.4,2.3-1.3,3.1
			c-0.9,0.8-1.9,1.2-3.1,1.2h-41.2C318.2,73.3,317.2,72.9,316.3,72z"/>
	</g>
</g>
</svg>
