<?xml version="1.0" encoding="UTF-8"?>
<!-- Generator: Adobe Illustrator 26.1.0, SVG Export Plug-In . SVG Version: 6.00 Build 0)  -->
<svg version="1.1" id="Layer_1" xmlns="http://www.w3.org/2000/svg" xmlns:xlink="http://www.w3.org/1999/xlink" x="0px" y="0px" width="214px" height="214px" viewBox="0 0 214 214" style="enable-background:new 0 0 214 214;" xml:space="preserve">
<style type="text/css">
	.st0{fill:#FFFFFF;}
	.st1{fill:#FFFFFF;stroke:#070707;stroke-width:6;stroke-linecap:round;stroke-miterlimit:10;}
	.st2{display:none;}
	.st3{display:inline;fill:#FFFFFF;}
</style>
<g>
	<g>
		<g>
			<g>
				<path class="st0" d="M101.5,59.4c0.1-0.1,0.1-0.1,0.2-0.1c0.3-0.1,0.7-0.1,1-0.1c0.4-0.1,0.8-0.1,1.2-0.1c0.5-0.1,1-0.1,1.4-0.2      c0.1-0.1,0.3-0.1,0.5-0.1c0.1,0,0.1-0.1,0.1-0.1c-0.3-0.5-0.8-1-1.2-1.4c-0.2-0.3-0.5-0.5-0.6-0.7l-0.1-0.1      c0.1-0.1,0.1,0,0.1,0.1c0.3,0.1,0.5,0.4,0.7,0.5c0.3,0.3,0.7,0.5,1,0.8c0.2,0.1,0.3,0.3,0.6,0.5c0.1,0.1,0.1,0.1,0.1-0.1      c0.1-0.3,0.1-0.7,0.1-1c0.1-0.4,0.1-0.8,0.1-1.2c0.1-0.2,0.1-0.5,0.1-0.7c0.1-0.3,0.1-0.5,0.1-0.8c0-0.2,0.1-0.4,0.1-0.6      c0-0.1,0-0.1,0.1-0.1c0.1,0.1,0.1,0.1,0.1,0.3c0.1,0.3,0.1,0.7,0.1,1c0.1,0.3,0.1,0.5,0.1,0.7c0.1,0.3,0.1,0.5,0.1,0.7      c0.1,0.3,0.1,0.7,0.1,1c0.1,0.3,0.1,0.5,0.1,0.8c0,0.1,0.1,0.1,0.1,0.1c0.5-0.3,0.9-0.7,1.4-1c0.3-0.3,0.5-0.5,0.8-0.7l0.1-0.1      c0.1,0.1,0,0.1-0.1,0.1c-0.1,0.3-0.4,0.5-0.5,0.7c-0.3,0.3-0.5,0.7-0.8,1c-0.1,0.2-0.3,0.4-0.5,0.6c-0.1,0.1-0.1,0.1,0.1,0.1      c0.4,0.1,0.7,0.1,1,0.1c0.4,0.1,0.8,0.1,1.2,0.1c0.2,0.1,0.5,0.1,0.7,0.1c0.3,0.1,0.5,0.1,0.8,0.1c0.2,0,0.4,0.1,0.6,0.1      c0.1,0,0.1,0,0.1,0.1c-0.1,0.1-0.1,0.1-0.3,0.1c-0.3,0.1-0.7,0.1-1,0.1c-0.3,0.1-0.5,0.1-0.7,0.1c-0.3,0.1-0.5,0.1-0.7,0.1      c-0.3,0.1-0.7,0.1-1,0.1c-0.3,0.1-0.5,0.1-0.8,0.1c-0.1,0-0.1,0.1-0.1,0.1c0.3,0.5,0.7,0.9,1,1.4c0.3,0.3,0.5,0.5,0.7,0.8      l0.1,0.1c-0.1,0.1-0.1,0-0.1-0.1c-0.3-0.1-0.5-0.4-0.7-0.5c-0.3-0.3-0.7-0.5-1-0.8c-0.2-0.1-0.3-0.3-0.6-0.5      c-0.1-0.1-0.1-0.1-0.1,0.1c-0.1,0.3-0.1,0.7-0.1,1c-0.1,0.4-0.1,0.8-0.1,1.2c-0.1,0.2-0.1,0.5-0.1,0.7c-0.1,0.3-0.1,0.5-0.1,0.8      c0,0.2-0.1,0.4-0.1,0.6c0,0.1,0,0.1-0.1,0.1c-0.1-0.1-0.1-0.1-0.1-0.3c-0.1-0.3-0.1-0.7-0.1-1c-0.1-0.3-0.1-0.5-0.1-0.7      c-0.1-0.3-0.1-0.5-0.1-0.7c-0.1-0.3-0.1-0.7-0.1-1c-0.1-0.3-0.1-0.5-0.1-0.8c0-0.1-0.1-0.1-0.1-0.1c-0.5,0.3-0.9,0.7-1.4,1      c-0.3,0.3-0.5,0.5-0.8,0.7l-0.1,0.1c-0.1-0.1,0-0.1,0.1-0.1c0.1-0.3,0.4-0.5,0.5-0.7c0.3-0.3,0.5-0.7,0.8-1      c0.1-0.2,0.3-0.4,0.5-0.6C106,60,106,60,105.8,60c-0.4-0.1-0.7-0.1-1-0.1c-0.4-0.1-0.8-0.1-1.2-0.1c-0.2-0.1-0.5-0.1-0.7-0.1      c-0.3-0.1-0.5-0.1-0.8-0.1C102,59.6,101.8,59.5,101.5,59.4C101.5,59.4,101.5,59.4,101.5,59.4z"/>
			</g>
		</g>
		<g>
			<g>
				<path class="st0" d="M71.3,75c0,0.1-0.1,0.1-0.1,0.1c-0.1,0.2-0.1,0.4-0.2,0.6c-0.1,0.3-0.2,0.5-0.3,0.8      c-0.1,0.3-0.1,0.7-0.3,0.9c-0.1,0.1-0.1,0.2-0.1,0.3c0,0.1,0,0.1,0.1,0.1c0.4-0.1,0.8-0.2,1.2-0.3c0.2-0.1,0.4-0.1,0.6-0.2      c0,0,0.1-0.1,0.1,0s0,0.1-0.1,0.1c-0.1,0.1-0.3,0.1-0.5,0.3c-0.3,0.1-0.5,0.3-0.8,0.4c-0.1,0.1-0.3,0.1-0.4,0.3      c-0.1,0.1-0.1,0.1,0,0.1c0.2,0.1,0.4,0.3,0.6,0.3c0.3,0.1,0.5,0.3,0.7,0.4c0.1,0.1,0.3,0.1,0.3,0.2c0.1,0.1,0.3,0.1,0.5,0.3      c0.1,0.1,0.3,0.1,0.3,0.2c0,0,0.1,0,0.1,0.1c-0.1,0-0.1-0.1-0.1-0.1c-0.2-0.1-0.5-0.1-0.7-0.2c-0.1-0.1-0.3-0.1-0.5-0.1      c-0.2,0-0.3-0.1-0.5-0.1c-0.2-0.1-0.4-0.1-0.7-0.1C70.5,79,70.4,79,70.2,79c-0.1,0-0.1,0-0.1,0.1c0.1,0.4,0.2,0.8,0.3,1.2      c0.1,0.2,0.1,0.5,0.2,0.7c0,0,0.1,0.1,0,0.1c-0.1,0-0.1,0-0.1-0.1c-0.1-0.1-0.1-0.3-0.3-0.5c-0.1-0.3-0.3-0.5-0.4-0.8      c-0.1-0.1-0.1-0.3-0.3-0.4c-0.1-0.1-0.1-0.1-0.1,0c-0.1,0.2-0.3,0.4-0.3,0.6c-0.1,0.3-0.3,0.5-0.4,0.7c-0.1,0.1-0.1,0.3-0.2,0.4      c-0.1,0.1-0.1,0.3-0.3,0.5c-0.1,0.1-0.1,0.3-0.2,0.3c0,0,0,0.1-0.1,0.1c0-0.1,0.1-0.1,0.1-0.1c0.1-0.2,0.1-0.5,0.2-0.7      c0.1-0.1,0.1-0.3,0.1-0.5c0-0.2,0.1-0.3,0.1-0.5c0.1-0.2,0.1-0.4,0.1-0.7c0.1-0.1,0.1-0.3,0.1-0.5c0-0.1,0-0.1-0.1-0.1      c-0.4,0.1-0.8,0.2-1.2,0.3c-0.2,0.1-0.5,0.1-0.7,0.2c0,0-0.1,0.1-0.1,0c0-0.1,0-0.1,0.1-0.1c0.1-0.1,0.3-0.1,0.5-0.3      c0.3-0.1,0.5-0.3,0.8-0.4c0.1-0.1,0.3-0.1,0.4-0.3c0.1-0.1,0.1-0.1,0-0.1c-0.2-0.1-0.4-0.3-0.6-0.3c-0.3-0.1-0.5-0.3-0.7-0.4      c-0.1-0.1-0.3-0.1-0.4-0.2c-0.1-0.1-0.3-0.1-0.5-0.3c-0.1-0.1-0.3-0.1-0.3-0.2c0,0-0.1,0-0.1-0.1c0.1,0,0.1,0.1,0.1,0.1      c0.2,0.1,0.5,0.1,0.7,0.2c0.1,0.1,0.3,0.1,0.5,0.1c0.1,0.1,0.3,0.1,0.5,0.1c0.2,0.1,0.4,0.1,0.7,0.1c0.1,0.1,0.3,0.1,0.5,0.1      c0.1,0,0.1,0,0.1-0.1c-0.1-0.4-0.2-0.8-0.3-1.2c-0.1-0.2-0.1-0.5-0.2-0.7c0,0-0.1-0.1,0-0.1c0.1,0,0.1,0,0.1,0.1      c0.1,0.1,0.1,0.3,0.3,0.5c0.1,0.3,0.3,0.5,0.4,0.8c0.1,0.1,0.1,0.3,0.3,0.4c0.1,0.1,0.1,0.1,0.1,0c0.1-0.2,0.3-0.4,0.3-0.6      c0.1-0.3,0.3-0.5,0.4-0.7c0.1-0.1,0.1-0.3,0.2-0.3c0.1-0.1,0.1-0.3,0.3-0.5C71.1,75.2,71.1,75,71.3,75C71.2,75,71.2,75,71.3,75z      "/>
			</g>
		</g>
		<g>
			<g>
				<path class="st0" d="M142.8,75c0,0.1,0.1,0.1,0.1,0.1c0.1,0.2,0.1,0.4,0.2,0.6c0.1,0.3,0.2,0.5,0.3,0.8c0.1,0.3,0.1,0.7,0.3,0.9      c0.1,0.1,0.1,0.2,0.1,0.3c0,0.1,0,0.1-0.1,0.1c-0.4-0.1-0.8-0.2-1.2-0.3c-0.2-0.1-0.4-0.1-0.6-0.2c0,0-0.1-0.1-0.1,0      s0,0.1,0.1,0.1c0.1,0.1,0.3,0.1,0.5,0.3c0.3,0.1,0.5,0.3,0.8,0.4c0.1,0.1,0.3,0.1,0.4,0.3c0.1,0.1,0.1,0.1,0,0.1      c-0.2,0.1-0.4,0.3-0.6,0.3c-0.3,0.1-0.5,0.3-0.7,0.4c-0.1,0.1-0.3,0.1-0.4,0.2c-0.1,0.1-0.3,0.1-0.5,0.3      c-0.1,0.1-0.3,0.1-0.3,0.2c0,0-0.1,0-0.1,0.1c0.1,0,0.1-0.1,0.1-0.1c0.2-0.1,0.5-0.1,0.7-0.2c0.1-0.1,0.3-0.1,0.5-0.1      c0.1-0.1,0.3-0.1,0.5-0.1c0.2-0.1,0.4-0.1,0.7-0.1c0.1-0.1,0.3-0.1,0.5-0.1c0.1,0,0.1,0,0.1,0.1c-0.1,0.4-0.2,0.8-0.3,1.2      c-0.1,0.2-0.1,0.5-0.2,0.7c0,0-0.1,0.1,0,0.1s0.1,0,0.1-0.1c0.1-0.1,0.1-0.3,0.3-0.5c0.1-0.3,0.3-0.5,0.4-0.8      c0.1-0.1,0.1-0.3,0.3-0.4c0.1-0.1,0.1-0.1,0.1,0c0.1,0.2,0.3,0.4,0.3,0.6c0.1,0.3,0.3,0.5,0.4,0.7c0.1,0.1,0.1,0.3,0.2,0.4      s0.1,0.3,0.3,0.5c0.1,0.1,0.1,0.3,0.2,0.3c0,0,0,0.1,0.1,0.1c0-0.1-0.1-0.1-0.1-0.1c-0.1-0.2-0.1-0.5-0.2-0.7      c-0.1-0.1-0.1-0.3-0.1-0.5c-0.1-0.1-0.1-0.3-0.1-0.5c-0.1-0.2-0.1-0.4-0.1-0.7c-0.1-0.1-0.1-0.3-0.1-0.5c0-0.1,0-0.1,0.1-0.1      c0.4,0.1,0.8,0.2,1.2,0.3c0.2,0.1,0.5,0.1,0.7,0.2c0,0,0.1,0.1,0.1,0s0-0.1-0.1-0.1c-0.1-0.1-0.3-0.1-0.5-0.3      c-0.3-0.1-0.5-0.3-0.8-0.4c-0.1-0.1-0.3-0.1-0.4-0.3c-0.1-0.1-0.1-0.1,0-0.1c0.2-0.1,0.4-0.3,0.6-0.3c0.3-0.1,0.5-0.3,0.7-0.4      c0.1-0.1,0.3-0.1,0.4-0.2s0.3-0.1,0.5-0.3c0.1-0.1,0.3-0.1,0.3-0.2c0,0,0.1,0,0.1-0.1c-0.1,0-0.1,0.1-0.1,0.1      c-0.2,0.1-0.5,0.1-0.7,0.2c-0.1,0.1-0.3,0.1-0.5,0.1c-0.1,0.1-0.3,0.1-0.5,0.1c-0.2,0.1-0.4,0.1-0.7,0.1      c-0.1,0.1-0.3,0.1-0.5,0.1c-0.1,0-0.1,0-0.1-0.1c0.1-0.4,0.2-0.8,0.3-1.2c0.1-0.2,0.1-0.5,0.2-0.7c0,0,0.1-0.1,0-0.1      c-0.1,0-0.1,0-0.1,0.1c-0.1,0.1-0.1,0.3-0.3,0.5c-0.1,0.3-0.3,0.5-0.4,0.8c-0.1,0.1-0.1,0.3-0.3,0.4c-0.1,0.1-0.1,0.1-0.1,0      c-0.1-0.2-0.3-0.4-0.3-0.6c-0.1-0.3-0.3-0.5-0.4-0.7c-0.1-0.1-0.1-0.3-0.2-0.3c-0.1-0.1-0.1-0.3-0.3-0.5      C142.9,75.2,142.9,75,142.8,75C142.9,75,142.9,75,142.8,75z"/>
			</g>
		</g>
		<g>
			<path class="st0" d="M128,53.6C128,53.7,128,53.7,128,53.6c0,0.1,0,0.1,0,0.2s0,0.1,0,0.1c0,0.1,0,0.1,0,0.1     c0,0.1,0.1,0.3,0.1,0.3s0.1,0.1,0.1,0.1c0.1,0.1,0.1,0.2,0.1,0.3c0.1,0.1,0.2,0.1,0.3,0.3c0.1,0.1,0.1,0.1,0.2,0.1     c0.1,0.1,0.2,0.1,0.3,0.1c0.1,0,0.1,0.1,0.1,0.1c0.1,0,0.1,0,0.1,0c0.1,0,0.1,0,0.1,0h0.1h0.1l0,0l0,0c-0.1,0-0.1,0-0.1,0     c-0.1,0-0.1,0-0.1,0c-0.1,0-0.1,0-0.1,0c-0.1,0-0.1,0-0.1,0.1c-0.1,0-0.2,0.1-0.3,0.1c-0.1,0.1-0.3,0.1-0.4,0.2     c-0.1,0.1-0.1,0.1-0.2,0.2c-0.1,0.1-0.1,0.2-0.1,0.3c-0.1,0.1-0.1,0.2-0.1,0.3c0,0.1,0,0.1-0.1,0.1c0,0.1,0,0.1,0,0.1     s0,0.1,0,0.1c0,0.1,0,0.1,0,0.1l0,0l0,0c0-0.1,0-0.1,0-0.2c0-0.1,0-0.1,0-0.1c0-0.1,0-0.1-0.1-0.1c0-0.1-0.1-0.2-0.1-0.3     c-0.1-0.1-0.1-0.3-0.2-0.4c-0.1-0.1-0.1-0.1-0.2-0.2s-0.2-0.1-0.3-0.1c-0.1-0.1-0.2-0.1-0.3-0.1c-0.1,0-0.1,0-0.1-0.1     c-0.1,0-0.1,0-0.1,0h-0.1c-0.1,0-0.1,0-0.1,0h-0.1l0,0l0,0c0.1,0,0.1,0,0.1,0c0.1,0,0.1,0,0.1,0s0.1,0,0.1,0s0.1,0,0.1,0     c0.1,0,0.3-0.1,0.4-0.1c0.1,0,0.1-0.1,0.1-0.1c0.1-0.1,0.2-0.1,0.3-0.1c0.1-0.1,0.1-0.1,0.2-0.3c0.1-0.1,0.1-0.2,0.1-0.3     c0.1-0.1,0.1-0.2,0.1-0.3c0-0.1,0-0.1,0.1-0.1c0-0.1,0-0.1,0-0.1c0-0.1,0-0.1,0-0.1c0-0.1,0-0.1,0-0.1     C128,53.7,128,53.7,128,53.6L128,53.6z"/>
		</g>
		<g>
			<path class="st0" d="M149.8,91.6C149.8,91.7,149.8,91.7,149.8,91.6c-0.1,0.1-0.1,0.1-0.1,0.2c0,0.1-0.1,0.1-0.1,0.1     c-0.1,0.1-0.1,0.1-0.1,0.1c-0.1,0.1-0.1,0.3-0.2,0.3c-0.1,0.1-0.1,0.1-0.1,0.1c-0.1,0.1-0.1,0.3-0.1,0.3c0,0.1,0.1,0.3,0.1,0.4     c0.1,0.1,0.1,0.1,0.1,0.2c0.1,0.1,0.1,0.1,0.2,0.3c0.1,0.1,0.1,0.1,0.1,0.1c0.1,0.1,0.1,0.1,0.1,0.1c0.1,0.1,0.1,0.1,0.1,0.1     C150,94,150,94,150,94l0.1,0.1l0,0l0,0C150,94,150,94,149.9,94c-0.1-0.1-0.1-0.1-0.1-0.1c-0.1,0-0.1-0.1-0.1-0.1     c-0.1-0.1-0.1-0.1-0.1-0.1c-0.1-0.1-0.2-0.1-0.3-0.1c-0.1-0.1-0.3-0.1-0.5-0.1c-0.1,0-0.2,0-0.3,0.1s-0.3,0.1-0.3,0.1     s-0.2,0.1-0.3,0.2c-0.1,0.1-0.1,0.1-0.1,0.1c-0.1,0.1-0.1,0.1-0.1,0.1c-0.1,0.1-0.1,0.1-0.1,0.1l-0.1,0.1l0,0l0,0     c0.1-0.1,0.1-0.1,0.1-0.2c0-0.1,0.1-0.1,0.1-0.1c0.1-0.1,0.1-0.1,0.1-0.1c0.1-0.1,0.1-0.2,0.1-0.3c0.1-0.1,0.1-0.3,0.1-0.5     c0-0.1,0-0.2-0.1-0.3c-0.1-0.1-0.1-0.3-0.1-0.3s-0.1-0.2-0.2-0.3s-0.1-0.1-0.1-0.1l-0.1-0.1c-0.1-0.1-0.1-0.1-0.1-0.1     c-0.1-0.1-0.1-0.1-0.1-0.1l-0.1-0.1l0,0l0,0c0.1,0.1,0.1,0.1,0.1,0.1c0.1,0.1,0.1,0.1,0.1,0.1c0.1,0,0.1,0.1,0.1,0.1     c0.1,0.1,0.1,0.1,0.1,0.1c0.1,0.1,0.3,0.1,0.3,0.2c0.1,0.1,0.1,0.1,0.1,0.1c0.1,0.1,0.3,0.1,0.3,0.1s0.2,0,0.3-0.1     c0.1-0.1,0.3-0.1,0.3-0.1s0.1-0.1,0.3-0.2c0.1-0.1,0.1-0.1,0.1-0.1l0.1-0.1c0.1-0.1,0.1-0.1,0.1-0.1l0.1-0.1     C149.8,91.6,149.8,91.6,149.8,91.6L149.8,91.6z"/>
		</g>
		<g>
			<path class="st0" d="M77.8,57.3C77.8,57.4,77.8,57.4,77.8,57.3c-0.1,0.1-0.1,0.1-0.1,0.1l-0.1,0.1c-0.1,0.1-0.1,0.1-0.1,0.1     c-0.1,0.1-0.1,0.1-0.1,0.3c-0.1,0.1-0.1,0.1-0.1,0.1c-0.1,0.1-0.1,0.1-0.1,0.3c0,0.1,0.1,0.2,0.1,0.3c0.1,0.1,0.1,0.1,0.1,0.1     c0.1,0.1,0.1,0.1,0.1,0.2c0.1,0.1,0.1,0.1,0.1,0.1l0.1,0.1l0.1,0.1l0.1,0.1c0,0,0,0.1,0.1,0.1l0,0l0,0c-0.1-0.1-0.1-0.1-0.1-0.1     c-0.1,0-0.1-0.1-0.1-0.1L77.7,59C77.6,59,77.6,59,77.6,59c-0.1-0.1-0.1-0.1-0.3-0.1c-0.1-0.1-0.3-0.1-0.4-0.1     c-0.1,0-0.1,0-0.3,0.1c-0.1,0.1-0.1,0.1-0.3,0.1c-0.1,0.1-0.1,0.1-0.2,0.1c-0.1,0.1-0.1,0.1-0.1,0.1l-0.1,0.1     C76,59.3,76,59.3,76,59.3L76,59.4l0,0l0,0c0.1-0.1,0.1-0.1,0.1-0.1s0.1-0.1,0.1-0.1c0.1-0.1,0.1-0.1,0.1-0.1     c0.1-0.1,0.1-0.1,0.1-0.3c0.1-0.1,0.1-0.3,0.1-0.3c0-0.1,0-0.1-0.1-0.3c-0.1-0.1-0.1-0.1-0.1-0.3c-0.1-0.1-0.1-0.1-0.1-0.2     C76,57.7,76,57.7,76,57.7l-0.1-0.1l-0.1-0.1l-0.1-0.1l-0.1-0.1l0,0l0,0c0.1,0,0.1,0.1,0.1,0.1c0.1,0,0.1,0.1,0.1,0.1l0.1,0.1     c0.1,0.1,0.1,0.1,0.1,0.1c0.1,0.1,0.1,0.1,0.3,0.1c0.1,0,0.1,0.1,0.1,0.1c0.1,0.1,0.1,0.1,0.3,0.1c0.1,0,0.1,0,0.3-0.1     c0.1-0.1,0.1-0.1,0.3-0.1c0.1-0.1,0.1-0.1,0.2-0.1c0.1-0.1,0.1-0.1,0.1-0.1l0.1-0.1l0.1-0.1l0.1-0.1     C77.8,57.4,77.8,57.3,77.8,57.3L77.8,57.3z"/>
		</g>
		<g>
			<path class="st0" d="M98.6,51.8C98.5,51.8,98.5,51.8,98.6,51.8c-0.1,0.1-0.1,0.1-0.2,0.1c-0.1,0-0.1,0-0.1,0.1     c-0.1,0-0.1,0.1-0.1,0.1c-0.1,0.1-0.2,0.1-0.3,0.1c0,0.1,0,0.1-0.1,0.1c-0.1,0.1-0.1,0.1-0.3,0.2s-0.1,0.2-0.1,0.3     c0,0.1-0.1,0.1-0.1,0.2s0,0.2,0,0.3s0,0.1,0,0.1c0,0.1,0,0.1,0,0.1c0,0.1,0,0.1,0,0.1c0,0.1,0,0.1,0,0.1v0.1l0,0l0,0     c0-0.1-0.1-0.1-0.1-0.1s0-0.1,0-0.1c0-0.1,0-0.1-0.1-0.1c0-0.1-0.1-0.1-0.1-0.1C97,53.2,97,53,97,53c-0.1-0.1-0.1-0.3-0.3-0.4     c-0.1-0.1-0.1-0.1-0.3-0.1c-0.1-0.1-0.2-0.1-0.3-0.1s-0.2,0-0.3,0c-0.1,0-0.1,0-0.1,0h-0.1c-0.1,0-0.1,0-0.1,0h-0.1l0,0l0,0     c0.1,0,0.1-0.1,0.2-0.1s0.1,0,0.1-0.1c0.1,0,0.1-0.1,0.1-0.1c0.1-0.1,0.2-0.1,0.3-0.1c0.1-0.1,0.3-0.1,0.4-0.3     c0.1-0.1,0.1-0.1,0.1-0.3c0.1-0.1,0.1-0.2,0.1-0.3c0-0.1,0-0.2,0-0.3c0-0.1,0-0.1,0-0.1v-0.1c0-0.1,0-0.1,0-0.1     c0-0.1,0-0.1,0-0.1v-0.1l0,0l0,0c0,0.1,0,0.1,0.1,0.1c0,0.1,0.1,0.1,0.1,0.1c0,0.1,0,0.1,0.1,0.1c0,0.1,0.1,0.1,0.1,0.1     C97,51,97,51.1,97,51.2c0,0.1,0.1,0.1,0.1,0.1c0.1,0.1,0.1,0.1,0.2,0.3c0.1,0.1,0.1,0.1,0.3,0.1c0.1,0.1,0.2,0.1,0.3,0.1     c0.1,0,0.2,0,0.3,0c0.1,0,0.1,0,0.1,0c0.1,0,0.1,0,0.1,0h0.1c0.1,0,0.1,0,0.1,0C98.5,51.8,98.5,51.8,98.6,51.8L98.6,51.8z"/>
		</g>
		<g>
			<path class="st0" d="M125.2,76.1C125.2,76.1,125.2,76.1,125.2,76.1c-0.1,0.1-0.1,0.1-0.1,0.1H125c-0.1,0-0.1,0.1-0.1,0.1     c-0.1,0.1-0.1,0.1-0.3,0.1c-0.1,0-0.1,0.1-0.1,0.1c-0.1,0.1-0.1,0.1-0.2,0.1c-0.1,0.1-0.1,0.1-0.1,0.3c0,0.1-0.1,0.1-0.1,0.1     c0,0.1,0,0.1,0,0.3c0,0.1,0,0.1,0,0.1s0,0.1,0,0.1c0,0.1,0,0.1,0,0.1c0,0.1,0,0.1,0,0.1v0.1l0,0l0,0c0-0.1,0-0.1-0.1-0.1     c0-0.1,0-0.1-0.1-0.1v-0.1c0-0.1-0.1-0.1-0.1-0.1c-0.1-0.1-0.1-0.1-0.1-0.3c-0.1-0.1-0.1-0.2-0.2-0.3c-0.1-0.1-0.1-0.1-0.2-0.1     s-0.1-0.1-0.3-0.1c-0.1,0-0.1,0-0.3,0c-0.1,0-0.1,0-0.1,0s-0.1,0-0.1,0c-0.1,0-0.1,0-0.1,0h0.1l0,0l0,0c0.1,0,0.1-0.1,0.1-0.1     c0.1,0,0.1,0,0.1-0.1c0.1,0,0.1-0.1,0.1-0.1c0.1-0.1,0.1-0.1,0.3-0.1s0.2-0.1,0.3-0.2c0.1-0.1,0.1-0.1,0.1-0.2     c0.1-0.1,0.1-0.1,0.1-0.3c0-0.1,0-0.1,0-0.3c0-0.1,0-0.1,0-0.1v-0.1c0-0.1,0-0.1,0-0.1c0-0.1,0-0.1,0-0.1V75l0,0l0,0     c0,0.1,0,0.1,0.1,0.1c0,0.1,0,0.1,0.1,0.1v0.1c0,0.1,0.1,0.1,0.1,0.1c0.1,0.1,0.1,0.1,0.1,0.3c0,0.1,0.1,0.1,0.1,0.1     c0.1,0.1,0.1,0.1,0.1,0.2c0.1,0.1,0.1,0.1,0.2,0.1s0.1,0.1,0.3,0.1c0.1,0,0.1,0,0.3,0c0.1,0,0.1,0,0.1,0L125.2,76.1     C125.2,76,125.2,76,125.2,76.1L125.2,76.1C125.1,76.2,125.1,76.1,125.2,76.1L125.2,76.1z"/>
		</g>
		<g>
			<path class="st0" d="M53.8,88C53.8,88,53.8,88,53.8,88c-0.1,0.1-0.1,0.1-0.1,0.1h-0.1c-0.1,0-0.1,0.1-0.1,0.1     c-0.1,0.1-0.1,0.1-0.3,0.1c-0.1,0-0.1,0.1-0.1,0.1c-0.1,0.1-0.1,0.1-0.2,0.1c-0.1,0.1-0.1,0.1-0.1,0.3c0,0.1-0.1,0.1-0.1,0.2     s0,0.1,0,0.3c0,0.1,0,0.1,0,0.1s0,0.1,0,0.1c0,0.1,0,0.1,0,0.1v0.1v0.1l0,0l0,0c0-0.1,0-0.1-0.1-0.1c0-0.1,0-0.1-0.1-0.1v-0.1     c0-0.1-0.1-0.1-0.1-0.1c-0.1-0.1-0.1-0.1-0.1-0.3c-0.1-0.1-0.1-0.2-0.3-0.3c-0.1-0.1-0.1-0.1-0.2-0.1c-0.1-0.1-0.1-0.1-0.3-0.1     c-0.1,0-0.1,0-0.3,0c-0.1,0-0.1,0-0.1,0c-0.1,0-0.1,0-0.1,0c-0.1,0-0.1,0-0.1,0H51l0,0l0,0c0.1,0,0.1-0.1,0.1-0.1     c0.1,0,0.1,0,0.1-0.1c0.1,0,0.1-0.1,0.1-0.1c0.1-0.1,0.1-0.1,0.3-0.1s0.2-0.1,0.3-0.3c0.1-0.1,0.1-0.1,0.1-0.2     c0.1-0.1,0.1-0.1,0.1-0.3c0-0.1,0-0.1,0-0.3c0-0.1,0-0.1,0-0.1v-0.1c0-0.1,0-0.1,0-0.1c0-0.1,0-0.1,0-0.1v-0.1l0,0l0,0     c0,0.1,0,0.1,0.1,0.1c0,0.1,0,0.1,0.1,0.1v0.1c0,0.1,0.1,0.1,0.1,0.1c0.1,0.1,0.1,0.1,0.1,0.3c0,0.1,0.1,0.1,0.1,0.1     c0.1,0.1,0.1,0.1,0.1,0.2c0.1,0.1,0.1,0.1,0.2,0.1C52.8,88,52.9,88,53,88c0.1,0,0.1,0,0.3,0c0.1,0,0.1,0,0.1,0h0.1     c0.1,0,0.1,0,0.1,0h0.1C53.8,88,53.8,88,53.8,88L53.8,88z"/>
		</g>
		<g>
			<path class="st0" d="M95,75.4C94.9,75.4,94.9,75.4,95,75.4c-0.1-0.1-0.1-0.1-0.2-0.1c-0.1,0-0.1,0-0.1,0c-0.1,0-0.1,0-0.1-0.1     c-0.1,0-0.2-0.1-0.3-0.1c-0.1,0-0.1,0-0.1,0c-0.1,0-0.2,0.1-0.3,0.1c-0.1,0.1-0.2,0.1-0.3,0.2c-0.1,0.1-0.1,0.1-0.1,0.1     c-0.1,0.1-0.1,0.1-0.1,0.3c-0.1,0.1-0.1,0.1-0.1,0.1c0,0.1-0.1,0.1-0.1,0.1c0,0.1-0.1,0.1-0.1,0.1c0,0.1-0.1,0.1-0.1,0.1v0.1l0,0     l0,0c0-0.1,0-0.1,0.1-0.1c0-0.1,0-0.1,0.1-0.1c0-0.1,0-0.1,0-0.1c0-0.1,0-0.1,0.1-0.1c0-0.1,0.1-0.2,0.1-0.3c0-0.1,0-0.3-0.1-0.4     c-0.1-0.1-0.1-0.1-0.1-0.3c-0.1-0.1-0.1-0.1-0.3-0.2c-0.1-0.1-0.1-0.1-0.3-0.1c-0.1-0.1-0.1-0.1-0.1-0.1c-0.1,0-0.1-0.1-0.1-0.1     s-0.1-0.1-0.1-0.1h-0.1l0,0l0,0c0.1,0,0.1,0.1,0.2,0.1s0.1,0,0.1,0s0.1,0,0.1,0.1c0.1,0,0.2,0.1,0.3,0.1c0.1,0,0.3,0,0.4-0.1     c0.1-0.1,0.1-0.1,0.3-0.1c0.1-0.1,0.1-0.1,0.2-0.3c0.1-0.1,0.1-0.1,0.1-0.3c0.1-0.1,0.1-0.1,0.1-0.1s0-0.1,0.1-0.1     c0-0.1,0.1-0.1,0.1-0.1c0-0.1,0.1-0.1,0.1-0.1v-0.1l0,0l0,0c0,0.1,0,0.1-0.1,0.1c0,0.1,0,0.1-0.1,0.1c0,0.1,0,0.1,0,0.1     c0,0.1,0,0.1-0.1,0.1c0,0.1-0.1,0.2-0.1,0.3c0,0.1,0,0.1,0,0.1c0,0.1,0.1,0.2,0.1,0.3c0.1,0.1,0.1,0.1,0.1,0.3     c0.1,0.1,0.1,0.1,0.3,0.2c0.1,0.1,0.1,0.1,0.3,0.1c0.1,0.1,0.1,0.1,0.1,0.1c0,0,0.1,0,0.1,0.1c0.1,0,0.1,0.1,0.1,0.1     C95,75.4,95,75.4,95,75.4C94.8,75.4,95,75.4,95,75.4L95,75.4z"/>
		</g>
		<g>
			<path class="st0" d="M145.7,67.3C145.7,67.3,145.7,67.3,145.7,67.3c-0.1,0.1-0.1,0.1-0.2,0.1c-0.1,0-0.1,0-0.1,0     c-0.1,0-0.1,0.1-0.1,0.1c-0.1,0.1-0.2,0.1-0.3,0.1c-0.1,0-0.1,0.1-0.1,0.1c-0.1,0.1-0.1,0.1-0.2,0.2c-0.1,0.1-0.1,0.2-0.1,0.3     c0,0.1-0.1,0.1-0.1,0.2s0,0.1,0,0.3c0,0.1,0,0.1,0,0.1s0,0.1,0,0.1c0,0.1,0,0.1,0,0.1c0,0.1,0,0.1,0,0.1V69l0,0l0,0     c0-0.1-0.1-0.1-0.1-0.1c0-0.1-0.1-0.1-0.1-0.1c0-0.1,0-0.1,0-0.1c0-0.1-0.1-0.1-0.1-0.1c-0.1-0.1-0.1-0.1-0.1-0.3     c-0.1-0.1-0.1-0.3-0.3-0.3c-0.1-0.1-0.1-0.1-0.3-0.1c-0.1-0.1-0.2-0.1-0.3-0.1s-0.2,0-0.3,0c-0.1,0-0.1,0-0.1,0s-0.1,0-0.1,0     c-0.1,0-0.1,0-0.1,0h-0.1l0,0l0,0c0.1,0,0.1-0.1,0.1-0.1c0.1,0,0.1,0,0.1-0.1c0.1,0,0.1-0.1,0.1-0.1c0.1-0.1,0.1-0.1,0.3-0.1     c0.1-0.1,0.3-0.1,0.3-0.3c0.1-0.1,0.1-0.1,0.1-0.3c0.1-0.1,0.1-0.2,0.1-0.3c0-0.1,0-0.2,0-0.3s0-0.1,0-0.1s0-0.1,0-0.1     c0-0.1,0-0.1,0-0.1c0-0.1,0-0.1,0-0.1v-0.1l0,0l0,0c0,0.1,0,0.1,0.1,0.1c0,0.1,0.1,0.1,0.1,0.1c0,0.1,0,0.1,0.1,0.1     c0,0.1,0.1,0.1,0.1,0.1c0.1,0.1,0.1,0.2,0.1,0.3c0,0.1,0.1,0.1,0.1,0.1c0.1,0.1,0.1,0.1,0.2,0.2s0.1,0.1,0.3,0.1     c0.1,0.1,0.2,0.1,0.3,0.1c0.1,0,0.1,0,0.3,0c0.1,0,0.1,0,0.1,0h0.1c0.1,0,0.1,0,0.1,0L145.7,67.3     C145.6,67.3,145.6,67.3,145.7,67.3L145.7,67.3z"/>
		</g>
		<g>
			<g>
				<path class="st0" d="M107.1,77.3L107.1,77.3L107.1,77.3L107.1,77.3C107.1,77.3,107.1,77.3,107.1,77.3L107.1,77.3z"/>
			</g>
			<g>
				<path class="st0" d="M107.1,77.3L107.1,77.3L107.1,77.3L107.1,77.3z"/>
			</g>
		</g>
		<g>
			<path class="st0" d="M107,42.4c-35.7,0-64.8,29.2-64.8,65c0,4.4,0.5,8.8,1.3,13c0.1,0.8,0.3,1.7,0.6,2.6c0.5,1.8,1,3.7,1.6,5.4     c0.4,1.2,0.8,2.4,1.3,3.5c1.3,3.1,2.7,6.1,4.4,8.9c0.6,1,1.2,2,1.8,2.9c1.5,2.2,3.2,4.4,4.9,6.4c0.6,0.7,1.2,1.4,1.8,2     c1.6,1.6,3.3,3.3,4.9,4.7c1,0.8,2,1.6,2.9,2.4c10.9,8.2,24.4,13.2,39.1,13.2s28.2-4.9,39.1-13.2c1-0.8,2-1.6,3-2.4     c1.8-1.5,3.4-3.1,4.9-4.7c0.7-0.7,1.2-1.3,1.8-2c1.8-2,3.4-4.2,4.9-6.3c0.7-0.9,1.2-1.9,1.8-2.9c1.7-2.8,3.2-5.7,4.4-8.8     c0.5-1.2,1-2.4,1.4-3.6c0.6-1.8,1.2-3.6,1.6-5.5c0.2-0.8,0.4-1.7,0.6-2.6c0.8-4.2,1.3-8.6,1.3-13C171.8,71.5,142.8,42.4,107,42.4     z M107,169.7c-10.2,0-19.8-2.5-28.3-6.8c0.6,0.1,1.3,0.1,2,0.1c3.6,0,5.6-1.1,7.2-2.1c1.6-1,3-1.8,5.9-1.8c2.9,0,4.4,0.8,5.9,1.8     c1.7,1,3.6,2.1,7.2,2.1c3.6,0,5.6-1.1,7.2-2.1c1.6-1,3-1.8,5.9-1.8s4.4,0.8,5.9,1.8c1.7,1,3.6,2.1,7.2,2.1c0.7,0,1.2-0.1,1.8-0.1     C126.9,167.3,117.2,169.7,107,169.7z M145.1,156.6c-2.7,0.3-4.2,1.2-5.7,2c-1.6,1-3,1.8-5.9,1.8s-4.4-0.8-5.9-1.8     c-1.7-1-3.6-2.1-7.2-2.1s-5.6,1.1-7.2,2.1c-1.6,1-3,1.8-5.9,1.8c-2.9,0-4.4-0.8-5.9-1.8c-1.7-1-3.6-2.1-7.2-2.1     c-3.6,0-5.6,1.1-7.2,2.1c-1.6,1-3,1.8-5.9,1.8c-2.9,0-4.4-0.8-5.9-1.8c-1.5-0.8-3.1-1.8-5.9-2.1c-2.3-1.8-4.5-3.7-6.5-5.9     c1.3-0.7,2.7-1.3,5.1-1.3c2.9,0,4.4,0.8,5.9,1.8c1.7,1,3.6,2.1,7.2,2.1c3.6,0,5.6-1.1,7.2-2.1c1.6-1,3-1.8,5.9-1.8     s4.4,0.8,5.9,1.8c1.7,1,3.6,2.1,7.2,2.1c3.6,0,5.6-1.1,7.2-2.1c1.6-1,3-1.8,5.9-1.8s4.4,0.8,5.9,1.8c1.7,1,3.6,2.1,7.2,2.1     c3.6,0,5.6-1.1,7.2-2.1c1.6-1,3-1.8,5.9-1.8c2.4,0,3.7,0.5,5,1.2C149.6,152.8,147.4,154.9,145.1,156.6z M153.5,148.8     c-1.6-0.9-3.4-1.9-6.8-1.9c-3.6,0-5.6,1.1-7.2,2.1c-1.6,1-3,1.8-5.9,1.8s-4.4-0.8-5.9-1.8c-1.7-1-3.6-2.1-7.2-2.1     s-5.6,1.1-7.2,2.1c-1.6,1-3,1.8-5.9,1.8c-2.9,0-4.4-0.8-5.9-1.8c-1.7-1-3.6-2.1-7.2-2.1s-5.6,1.1-7.2,2.1c-1.6,1-3,1.8-5.9,1.8     c-2.9,0-4.4-0.8-5.9-1.8c-1.7-1-3.6-2.1-7.2-2.1c-3.4,0-5.3,1-7,2c-1.5-1.7-2.9-3.5-4.2-5.3c2.4-0.3,3.8-1.2,5.2-2     c1.6-1,3-1.8,5.9-1.8c2.9,0,4.4,0.8,5.9,1.8c1.7,1,3.6,2.1,7.2,2.1c3.6,0,5.6-1.1,7.2-2.1c1.6-1,3-1.8,5.9-1.8     c2.9,0,4.4,0.8,5.9,1.8c1.7,1,3.6,2.1,7.2,2.1s5.6-1.1,7.2-2.1c1.6-1,3-1.8,5.9-1.8c2.9,0,4.4,0.8,5.9,1.8c1.7,1,3.6,2.1,7.2,2.1     c3.6,0,5.6-1.1,7.2-2.1c1.6-1,3-1.8,5.9-1.8s4.4,0.8,5.9,1.8c1.3,0.8,2.7,1.6,5.1,2C156.3,145.3,155,147.1,153.5,148.8z      M159.4,141.1c-2.6-0.1-3.9-0.8-5.4-1.8c-1.7-1-3.6-2.1-7.2-2.1s-5.6,1.1-7.2,2.1c-1.6,1-3,1.8-5.9,1.8s-4.4-0.8-5.9-1.8     c-1.7-1-3.6-2.1-7.2-2.1s-5.6,1.1-7.2,2.1c-1.6,1-3,1.8-5.9,1.8c-2.9,0-4.4-0.8-5.9-1.8c-1.7-1-3.6-2.1-7.2-2.1s-5.6,1.1-7.2,2.1     c-1.6,1-3,1.8-5.9,1.8c-2.9,0-4.4-0.8-5.9-1.8c-1.7-1-3.6-2.1-7.2-2.1c-3.6,0-5.6,1.1-7.2,2.1c-1.6,0.9-2.9,1.7-5.6,1.8     c-1.6-2.4-2.9-5-4.2-7.6c1,0.3,2.3,0.5,3.8,0.5c3.6,0,5.6-1.1,7.2-2.1c1.6-1,3-1.8,5.9-1.8c2.9,0,4.4,0.8,5.9,1.8     c1.7,1,3.6,2.1,7.2,2.1c3.6,0,5.6-1.1,7.2-2.1c1.6-1,3-1.8,5.9-1.8c2.9,0,4.4,0.8,5.9,1.8c1.7,1,3.6,2.1,7.2,2.1     c3.6,0,5.6-1.1,7.2-2.1c1.6-1,3-1.8,5.9-1.8c2.9,0,4.4,0.8,5.9,1.8c1.7,1,3.6,2.1,7.2,2.1c3.6,0,5.6-1.1,7.2-2.1     c1.6-1,3-1.8,5.9-1.8c2.9,0,4.4,0.8,5.9,1.8c1.7,1,3.6,2.1,7.2,2.1c1.4,0,2.6-0.1,3.6-0.5C162.3,136.2,160.9,138.7,159.4,141.1z      M164.9,130.2c-1.3,0.7-2.7,1.2-5.1,1.2c-2.9,0-4.4-0.8-5.9-1.8c-1.7-1-3.6-2.1-7.2-2.1s-5.6,1.1-7.2,2.1c-1.6,1-3,1.8-5.9,1.8     c-2.9,0-4.4-0.8-5.9-1.8c-1.7-1-3.6-2.1-7.2-2.1s-5.6,1.1-7.2,2.1c-1.6,1-3,1.8-5.9,1.8c-2.9,0-4.4-0.8-5.9-1.8     c-1.7-1-3.6-2.1-7.2-2.1c-3.6,0-5.6,1.1-7.2,2.1c-1.6,1-3,1.8-5.9,1.8c-2.9,0-4.4-0.8-5.9-1.8c-1.7-1-3.6-2.1-7.2-2.1     s-5.6,1.1-7.2,2.1c-1.6,1-3,1.8-5.9,1.8c-2.5,0-3.9-0.6-5.3-1.4c-0.9-2.3-1.7-4.7-2.3-7.1h120.5     C166.6,125.4,165.9,127.8,164.9,130.2z M67,120.3l2.3-11l1.2,11H67z M116.6,87.9l-9.8,9.7l-9.8-9.7H116.6L116.6,87.9z M98.4,85.4     l8.5-5.3l8.5,5.3H98.4z M86.2,103.5l18-2.4l-10.7,17.8L86.2,103.5z M91.4,120.3H74.3l9.8-15.2L91.4,120.3z M106.9,102l11,18.4     H95.8L106.9,102z M109.3,101l18,2.4l-7.3,15.4L109.3,101z M129.5,105.1l9.8,15.2h-17.1L129.5,105.1z M131.6,103.5l11.2-0.8     l-1.9,15.2L131.6,103.5z M130,101l-6.5-10.8l17.2,10L130,101z M123.3,87.2l4.4-1.1l7.9,8.2L123.3,87.2z M126.9,100.8l-17.2-2.3     l9.9-9.7L126.9,100.8z M120,85.2L120,85.2l-4.7-2.9l7.6,2.2L120,85.2z M93.7,85.2l-2.9-0.7l7.7-2.2L93.7,85.2z M94.1,88.8     l9.9,9.7l-17.2,2.3L94.1,88.8z M90.1,90.3L83.6,101l0,0L73,100.3L90.1,90.3z M78.3,94.2l7.7-8l4.4,1L78.3,94.2z M82.1,103.5     l-9.2,14.4l-1.7-15.2L82.1,103.5z M143.1,120.3l1.4-11.4l2.5,11.4H143.1z M167.9,120.3h-18.2l-4.2-19.3c0-0.1,0-0.1-0.1-0.1l0,0     v-0.1v-0.1c-0.1-0.1-0.1-0.3-0.3-0.4l0,0L129,83.8l-0.1-0.1c-0.1-0.1-0.1-0.1-0.1-0.1c-0.1-0.1-0.1-0.1-0.1-0.1     c-0.1,0-0.1-0.1-0.1-0.1l-0.1-0.1c-0.1-0.1-0.1-0.1-0.2-0.1l-21.2-6.1h-0.1c0,0,0,0-0.1,0c0,0,0,0-0.1,0l0,0l0,0     c-0.1,0-0.1,0-0.1,0c-0.1,0-0.1,0-0.1,0h-0.1c-0.1,0-0.1,0-0.1,0h-0.1h-0.1l0,0c0,0,0,0-0.1,0h-0.1l-21.2,6.1h-0.1     c-0.1,0-0.1,0.1-0.1,0.1c-0.1,0-0.1,0.1-0.1,0.1c-0.1,0-0.1,0.1-0.1,0.1c-0.1,0.1-0.1,0.1-0.1,0.1l-0.1,0.1     c-0.1,0.1-0.1,0.1-0.1,0.1l-0.1,0.1l-15.8,16.6l-0.1,0.1l-0.1,0.1l-0.1,0.1c-0.1,0.1-0.1,0.2-0.1,0.3c0,0.1-0.1,0.1-0.1,0.1v0.1     l-4.2,19.3H46c-0.8-4.2-1.4-8.5-1.4-13c0-34.4,27.9-62.4,62.2-62.4c34.3,0,62.2,28,62.2,62.4     C169.2,111.8,168.7,116.1,167.9,120.3z"/>
		</g>
		<g>
			<g>
				<path class="st0" d="M157.4,101.4c0,0.1,0,0.3,0,0.5V101.4C157.4,101.4,157.4,101.4,157.4,101.4z"/>
			</g>
			<g>
				<path class="st0" d="M165.9,114.1c-0.1,0.5-0.5,0.7-0.8,0.7c-0.1,0-0.1,0-0.2-0.1c-0.2-0.1-3.4-0.8-5.6-2.9v8.7      c0,0.5-0.4,0.9-0.9,0.9c-0.5,0-0.9-0.4-0.9-0.9v-8.7c-2.1,2.1-5.3,2.8-5.6,2.9c-0.1,0-0.1,0.1-0.2,0.1c-0.4,0-0.8-0.3-0.8-0.7      c-0.1-0.5,0.2-1,0.7-1.1c0.1,0,1.5-0.3,3-1.2s3-2.1,3-4v-1.7c-1.5,1.5-3.5,2.1-4.9,2.3c-0.1,0-0.1,0-0.1,0      c-0.5,0-0.8-0.4-0.9-0.8c-0.1-0.5,0.3-1,0.8-1c0.2-0.1,4.9-0.7,5.1-4.8l0,0c0-0.1,0-0.3,0-0.5c0-0.1,0-0.1,0-0.1v-0.8      c-1.5,1.7-3.3,2-3.3,2c-0.5,0.1-1-0.3-1-0.8c-0.1-0.5,0.3-1,0.8-1c0.1-0.1,3.6-0.7,3.6-5.7V95c0-0.5,0.4-0.9,0.9-0.9      c0.3,0,0.5,0.1,0.7,0.3c0.2,0.1,0.3,0.4,0.3,0.7v0.1c0,5.1,3.4,5.7,3.6,5.7c0.5,0.1,0.8,0.6,0.8,1s-0.5,0.8-0.8,0.8      c-0.1,0-0.1,0-0.1,0c-0.1,0-1.8-0.3-3.3-2v0.7c0,0.1,0,0.1,0,0.1s0,0.1,0,0.1v0.3c0-0.1,0-0.1,0-0.1c0.1,4.2,4.9,4.8,5.1,4.8      c0.5,0.1,0.8,0.5,0.8,1c-0.1,0.5-0.5,0.8-0.9,0.8c-0.1,0-0.1,0-0.1,0c-1.4-0.1-3.4-0.8-4.9-2.3v1.6c0,0.1,0,0.1,0,0.1      c0,3.9,5.9,5.2,6,5.2C165.7,113.1,166.1,113.6,165.9,114.1z"/>
			</g>
			<g>
				<path class="st0" d="M159.3,101.8L159.3,101.8c0,0.1,0,0.1,0,0.1v-0.3C159.3,101.7,159.3,101.8,159.3,101.8z"/>
			</g>
			<g>
				<path class="st0" d="M157.4,101.4c0,0.1,0,0.3,0,0.5V101.4L157.4,101.4z"/>
				<path class="st0" d="M159.3,101.8L159.3,101.8c0,0.1,0,0.1,0,0.1v-0.3C159.3,101.7,159.3,101.8,159.3,101.8z"/>
			</g>
			<g>
				<path class="st1" d="M158.4,95"/>
			</g>
		</g>
		<g>
			<g>
				<path class="st0" d="M54.8,101.8L54.8,101.8C54.8,101.9,54.8,101.9,54.8,101.8v-0.2C54.8,101.7,54.8,101.8,54.8,101.8z"/>
				<path class="st0" d="M56.1,107c0.1,0.1,0.1,0.1,0.1,0.1C56.2,107,56.1,107,56.1,107z"/>
				<path class="st0" d="M63.3,114.1c-0.1,0.5-0.5,0.7-0.8,0.7c-0.1,0-0.1,0-0.2-0.1c-0.2-0.1-3.4-0.8-5.6-2.9v8.7      c0,0.5-0.4,0.9-0.9,0.9c-0.5,0-0.9-0.4-0.9-0.9v-8.7c-2.1,2.1-5.3,2.8-5.6,2.9c-0.1,0-0.1,0.1-0.2,0.1c-0.4,0-0.8-0.3-0.8-0.7      c-0.1-0.5,0.2-1,0.7-1.1c0.1,0,1.5-0.3,3-1.2s2.9-2.1,2.9-4v-1.7c-1.5,1.4-3.5,2.1-4.9,2.3c-0.1,0-0.1,0-0.1,0      c-0.5,0-0.8-0.4-0.9-0.8c-0.1-0.5,0.3-1,0.8-1c0.2-0.1,4.9-0.6,5.1-4.7v-0.1l0,0c0-0.1,0-0.1,0-0.3v-1c-1.5,1.7-3.3,2-3.3,2      c-0.5,0.1-1-0.3-1-0.8c-0.1-0.5,0.3-1,0.8-1c0.1-0.1,3.6-0.7,3.6-5.7V95c0-0.5,0.4-0.9,0.9-0.9l0,0c0.5,0,0.9,0.4,0.9,0.9v0.1      c0,5.1,3.4,5.7,3.6,5.7c0.5,0.1,0.8,0.6,0.8,1s-0.5,0.8-0.8,0.8c-0.1,0-0.1,0-0.1,0c-0.1,0-1.8-0.3-3.3-2v0.6c0,0.1,0,0.1,0,0.3      c0,0.1,0,0.2,0,0.3l0,0c0.1,4.2,4.9,4.8,5.1,4.8c0.5,0.1,0.8,0.5,0.8,1c-0.1,0.5-0.5,0.8-0.9,0.8c-0.1,0-0.1,0-0.1,0      c-1.4-0.1-3.4-0.8-4.9-2.3v1.6c0,0.1,0,0.1,0,0.1c0,3.9,5.9,5.2,6,5.2C63.1,113.1,63.4,113.6,63.3,114.1z"/>
			</g>
			<g>
				<path class="st0" d="M56.1,107c0.1,0.1,0.1,0.1,0.1,0.1C56.2,107,56.1,107,56.1,107z"/>
			</g>
			<g>
				<path class="st1" d="M55.7,95"/>
			</g>
		</g>
	</g>
	<g class="st2">
		<path class="st3" d="M94.7-26.1c-0.2-3.1-0.3-5.2-0.7-7.5c0.6,0,1.4,0.1,2.2,0c0.9-0.1,1.6-0.2,2.2-0.3c0,2.4,0.1,4.5,0.2,7.6    l0.2,3.7c0.1,2,0.3,4.1,0.4,5.5c2-0.1,4.1-0.3,6.2-0.7c0,0.4-0.1,0.7-0.1,1.2c0.1,0.6,0.1,0.8,0.2,1.2c-1,0-2.3,0-4.8,0.1    c-4.4,0.3-5.1,0.4-5.7,0.5c0-2.4-0.1-4.5-0.2-7.6L94.7-26.1z"/>
		<path class="st3" d="M108.2-27.1c1.5-1.2,3.4-1.8,5.1-1.7c2.9,0.1,4.9,1.4,4.8,4.7c-0.1,2.3-0.3,4.2-0.4,6.2    c-0.1,1.7,0.4,1.9,1.5,2v0.7c-1,0.5-1.7,0.7-2.5,0.6c-1.3-0.1-2.1-0.8-2.5-2.1c-0.9,1.1-2,1.9-3.6,1.8c-2.7-0.1-3.8-2-3.7-3.8    c0.1-2.4,1.8-3.3,4.2-3.8c3.1-0.6,3.4-0.8,3.4-1.8c0.1-1.3-0.8-2.4-2.5-2.5c-1.2-0.1-2.7,0.6-3.3,1.4h-0.2L108.2-27.1z     M114.4-22.3c-1.6,0.8-3.6,0.6-3.8,3.3c-0.1,1.3,0.5,2.1,1.4,2.2c1.2,0.1,2.1-0.8,2.1-2.6C114.3-21,114.4-21.6,114.4-22.3z"/>
		<path class="st3" d="M122.5-25.8c0.5-3.5,0.9-6.3,1.2-9.3c0.5,0.1,1.2,0.3,2,0.5c0.8,0.1,1.6,0.2,2,0.2c-0.6,3-1.1,5.7-2.1,12.7    c-0.1,0.5-0.1,0.6,0.1,0.6c0.3,0.1,2.7-2,6-5.2c0.4,0.1,0.8,0.3,1.2,0.3c0.4,0.1,0.8,0.1,1.5,0.1c-1.1,0.9-4.6,3.5-5.5,4.2    c0.3,0.8,3.3,7.8,3.6,8.8c-0.7-0.2-1.4-0.3-2.1-0.5c-0.7-0.1-1.4-0.1-2.1-0.2c-0.3-0.9-2.5-6.8-2.9-6.9c-0.2,0-0.2,0.1-0.6,2.6    c-0.1,1-0.4,2.9-0.4,3.6c-0.7-0.1-1.3-0.3-1.9-0.5c-0.7-0.1-1.3-0.1-2-0.2c0.6-3,1.1-5.7,1.6-9.3L122.5-25.8z"/>
		<path class="st3" d="M138.6-18.1c-0.8,2.9-0.3,5.3,2.2,5.9c1.2,0.3,2.4,0.2,3.6-0.3l0.3,0.3l-1,1.3c-1,0.5-2.3,0.7-4.3,0.1    c-3.4-0.9-5.9-3.8-4.6-8.4c1.2-4.6,4.4-6.1,7.9-5.2c3.4,0.9,4.8,3.7,3.8,7.3c-0.1,0.5-0.2,0.7-0.3,0.8L138.6-18.1z M142.9-18.1    c0.7-2.7,0.6-4.5-0.8-4.9c-1.6-0.4-2.7,1.8-3.3,3.8L142.9-18.1z"/>
		<path class="st3" d="M171.2-18.9c0.3,0.3,0.7,0.5,1,0.7c0.4,0.2,0.8,0.3,1.2,0.4c-3.4,3.1-10,9.2-14.6,14c-0.3-0.2-0.7-0.5-1-0.7    c-0.4-0.2-0.8-0.3-1.2-0.4c0.4-5,1-15.7,1-20.2c0.7,0.5,1.4,0.8,2.1,1.1c0.7,0.3,1.5,0.6,2.2,0.8c-0.6,4.2-0.8,9.7-1.2,14.5    C164.4-11.9,168.2-15.7,171.2-18.9z"/>
		<path class="st3" d="M170.7-5.7c1.1-1.9,2-3.6,2.9-5.4c0.4,0.3,1,0.7,1.7,1.2c0.7,0.5,1.4,0.7,1.8,0.9c-1.1,1.6-2.1,3.2-3.3,5.1    L173.3-3c-1.1,1.9-2,3.6-2.9,5.4c-0.4-0.3-1-0.7-1.7-1.2s-1.4-0.7-1.8-0.9c1.1-1.6,2.1-3.2,3.3-5.1L170.7-5.7z M178.9-16.4    c1,0.6,1.4,1.9,0.8,2.9s-1.9,1.4-2.9,0.8c-1-0.6-1.4-1.9-0.8-2.9C176.6-16.6,178-17,178.9-16.4z"/>
		<path class="st3" d="M179.4,0.3c-1.7,2.4-2,4.9,0,6.3c1,0.7,2.1,1,3.4,0.9L183,8l-1.4,0.9c-1.1,0.1-2.4-0.2-4.1-1.4    c-2.9-2-4.2-5.6-1.4-9.5c2.7-3.9,6.2-4.2,9.2-2.1c2.9,2,3.3,5,1,8.2c-0.3,0.4-0.4,0.6-0.5,0.7L179.4,0.3z M183.5,1.8    c1.5-2.3,2.1-4,0.9-4.8c-1.3-0.9-3.1,0.7-4.4,2.4L183.5,1.8z"/>
		<path class="st3" d="M196.4,18c2.9-1.6,5.7-3.3,8.4-5.1c0.2,0.3,0.5,0.6,0.7,0.8c0.3,0.3,0.6,0.4,0.9,0.7    c-1.5,0.5-8.5,4.3-12.3,6.6c-0.3-0.4-0.7-0.8-1-1.1c-0.4-0.3-0.8-0.7-1.2-0.9c1.4-2.8,2.9-6,4.1-8.4l-0.1-0.1    c-2.7,1.6-5.4,3.1-8.1,4.8c-0.3-0.4-0.7-0.8-1-1.2c-0.4-0.4-0.8-0.7-1.3-1c2.1-4,5.4-11.4,5.9-12.6c0.5,0.6,1,1.1,1.5,1.6    c0.5,0.5,1,0.8,1.6,1.2c-1.5,2.9-3.1,6.2-4.4,8.8l0.1,0.1c2.9-1.6,5.7-3.3,8.4-5.1c0.3,0.4,0.7,0.8,1,1.1c0.4,0.3,0.8,0.7,1.2,0.9    C199.3,12.1,197.8,15,196.4,18L196.4,18z"/>
		<path class="st3" d="M224.3,35.9c0.7-1.9,0.7-3.9-0.8-6c-1.9-2.8-6.2-4.1-10.9-0.8c-3.6,2.5-4.9,6.3-2.5,9.8    c0.5,0.8,1.6,2,2.1,2.2c0.4-0.2,1-0.6,1.6-1c2.4-1.6,3.3-2.5,3.8-2.8c0.1,0.3,0.4,0.8,1,1.8c0.7,1.1,1.1,1.5,1.4,1.8    c-0.5,0.2-2.5,1.4-3.9,2.4c-1,0.7-2.1,1.5-2.4,1.8c-1.9-1.6-3.7-3.3-5.1-5.4c-3.5-5.2-3.1-10.9,1.4-14c5.7-3.9,11.3-1.8,14.9,3.5    c1.6,2.3,2.1,4.2,2.3,6.3c-0.9,0.3-1.9,0.5-2.7,0.9L224.3,35.9z"/>
		<path class="st3" d="M224.2,43.2c3.1-1.7,5.6-3.1,8.2-4.6c0.1,0.5,0.5,1.2,0.8,1.9s0.8,1.4,1.1,1.8c-2.8,1.3-5.3,2.5-8.4,4.2    l-1.6,0.8c-3.1,1.7-5.6,3.1-8.2,4.6c-0.1-0.5-0.5-1.2-0.8-1.9s-0.8-1.4-1.1-1.8c2.8-1.3,5.3-2.5,8.4-4.2L224.2,43.2z"/>
		<path class="st3" d="M228.2,49.9c1.7,0.8,3.1,2.4,3.8,3.9c1.1,2.7,0.8,5.1-2.1,6.3c-2.1,0.9-3.9,1.6-5.7,2.4    c-1.6,0.7-1.6,1.2-1.1,2.2l-0.6,0.3c-0.9-0.7-1.3-1.2-1.6-2c-0.5-1.2-0.1-2.3,0.8-3.2c-1.4-0.3-2.5-1-3.2-2.5    c-1.1-2.5,0.1-4.3,1.8-5c2.1-0.9,3.7,0.1,5.2,2.2c1.9,2.5,2.1,2.7,3.1,2.3c1.2-0.5,1.8-1.8,1.2-3.3c-0.5-1.2-1.8-2.2-2.7-2.4    l-0.1-0.2L228.2,49.9z M226.5,57.7c-1.4-1.1-2.1-3-4.6-2c-1.2,0.5-1.7,1.4-1.3,2.2c0.5,1.1,1.6,1.5,3.3,0.8    C225.3,58.1,226,57.9,226.5,57.7z"/>
		<path class="st3" d="M234.5,67L234.5,67c1.7,0.7,2.9,1.8,3.4,3.4c0.4,1.6-0.2,3-1.6,4c1.9,0.7,3.2,1.9,3.6,3.4    c0.7,2.6-0.4,4.5-3.8,5.4c-1.8,0.5-3.1,0.7-4.4,1c-1.1,0.3-2.5,0.7-3.8,1.1c-0.1-0.5-0.2-1.2-0.4-2c-0.2-0.8-0.5-1.5-0.7-2    c2-0.3,4.5-0.9,7.6-1.7c2.2-0.6,3-1.6,2.7-2.9c-0.5-1.7-2.3-1.6-3.6-1.3l-1.9,0.5c-2.1,0.6-4,1.1-5.8,1.8c-0.1-0.5-0.2-1.2-0.4-2    c-0.2-0.8-0.5-1.5-0.7-2c1.9-0.3,3.8-0.8,5.9-1.4l1.6-0.5c2.1-0.6,3.2-1.3,2.8-2.8c-0.4-1.6-2.1-1.9-4.5-1.2l-1,0.3    c-2.1,0.6-4,1.1-5.8,1.8c-0.1-0.5-0.2-1.2-0.4-2c-0.2-0.8-0.5-1.5-0.7-2c1.9-0.3,3.8-0.8,5.9-1.4l1-0.3c2.1-0.6,4-1.1,5.8-1.8    c0.1,0.7,0.2,1.3,0.4,1.9c0.2,0.7,0.4,1.2,0.7,1.9L234.5,67z"/>
		<path class="st3" d="M231.7,87.5c3.5-0.4,6.3-0.8,9.3-1.2c0,0.7,0,1.3,0.1,1.9c0.1,0.7,0.2,1.2,0.3,1.8c-0.6,0-1.6,0-2.3,0.1v0.1    c1.6,0.3,2.9,1.6,3.1,3.5c0.3,2.7-1.4,5.5-6.1,6c-5.1,0.6-7.4-1.9-7.7-4.6c-0.2-1.6,0.4-2.9,1.6-3.7v-0.1    c-2.6,0.3-7.4,0.8-8.7,1.2c0-0.5,0-1.2-0.1-2s-0.2-1.6-0.3-2c3.1-0.2,5.9-0.4,9.4-0.8L231.7,87.5z M240.3,92.7    c-0.1-1.4-1.8-2.4-5.8-2c-3.3,0.4-4.7,1.4-4.6,3c0.2,1.6,2,2.4,5.5,2C239.1,95.3,240.5,94.1,240.3,92.7z"/>
		<path class="st3" d="M236.4,102.7c2.2-0.1,4.2-0.1,6.1-0.3c-0.1,0.5-0.1,1.2-0.1,2c0,0.8,0.1,1.6,0.2,2c-1.9-0.1-3.8-0.1-6.1-0.1    h-1.1c-2.2,0.1-4.2,0.1-6.1,0.3c0.1-0.5,0.1-1.2,0.1-2c0-0.8-0.1-1.6-0.2-2c1.9,0.1,3.8,0.1,6.1,0.1H236.4z M249.7,104.3    c0,1.2-0.9,2.2-2.1,2.2c-1.2,0-2.1-0.9-2.2-2.1c-0.1-1.2,0.9-2.2,2.1-2.2C248.6,102.1,249.7,103.1,249.7,104.3z"/>
		<path class="st3" d="M240.3,114.1L240.3,114.1c1.4,1.2,2.2,2.6,2.1,4.3c-0.2,2.7-1.8,4.2-5.3,3.9c-1.8-0.1-3.1-0.3-4.6-0.4    c-1.2-0.1-2.5-0.1-4-0.1c0.1-0.5,0.2-1.2,0.3-2s0.1-1.6,0-2c2,0.4,4.6,0.6,7.7,0.8c2.3,0.1,3.4-0.6,3.4-2c0.1-1.6-1.4-2.5-3.8-2.6    l-1.1-0.1c-2.2-0.1-4.1-0.2-6.1-0.2c0.1-0.5,0.2-1.2,0.3-2c0.1-0.8,0-1.6,0-2c1.9,0.3,3.8,0.5,6,0.7l1.1,0.1    c2.2,0.1,4.1,0.2,6.1,0.2c-0.1,0.7-0.2,1.2-0.3,1.9c-0.1,0.7,0,1.3,0,2L240.3,114.1z"/>
		<path class="st3" d="M238.6,135.6L238.6,135.6c-0.8,0.7-2,1.1-3.3,0.8c-2.7-0.5-4-2.9-3.5-6c0.1-0.4,0.2-0.7,0.3-1.2    s-0.3-0.8-0.8-1c-0.8-0.1-1.5,0.4-1.8,1.8l-0.4,2c-0.6,2.9-1.9,4.2-4.3,3.7c-4.2-0.8-5-5-4.4-8.2c0.6-3.3,2.5-5.1,4.6-4.7    c1.7,0.3,2.5,1.6,2.9,3.3h0.1c0.6-0.8,1.4-1.3,2.3-1.2c1.2,0.2,2.3,1.4,2.4,3h0.1c0.5-1,1.1-1.8,1.9-2.3c0.8-0.5,1.8-0.6,2.9-0.4    c2.7,0.5,3.9,3.1,3.3,6.5c-0.1,0.7-0.3,1.3-0.5,2c-0.1,0.5-0.2,0.9-0.3,1.5c-0.1,0.9-0.3,1.9-0.5,2.9c-0.2-0.1-0.4-0.1-0.7-0.2    c-0.2-0.1-0.5-0.1-0.7-0.1L238.6,135.6z M227.1,128.9c0.2-0.9,0.2-1.6,0.1-2c-0.1-0.5-0.9-1.2-2.1-1.5c-2-0.4-3.4,1-3.7,2.9    c-0.4,2.1,0.8,3.7,2.6,3.9C226,132.7,226.6,131.3,227.1,128.9z M236.4,129.1c-2.3-0.5-3.3,0.4-3.4,1.2c-0.2,1.2,0.7,1.9,3.1,2.4    c2.4,0.5,3.4-0.1,3.6-1.1C239.8,130.3,238.7,129.5,236.4,129.1z"/>
		<path class="st3" d="M226.8,147.7c-0.4,1.2-1.7,1.8-2.8,1.4c-1.1-0.4-1.8-1.7-1.4-2.8c0.4-1.2,1.7-1.8,2.8-1.4    C226.5,145.3,227.3,146.6,226.8,147.7z"/>
		<path class="st3" d="M228.2,163.7c2.7,1.4,4.6,2.3,6.8,3.2c-0.3,0.5-0.7,1.1-1.1,2c-0.4,0.8-0.7,1.5-0.9,2.1    c-2.1-1.2-3.9-2.2-6.6-3.6l-3.3-1.7c-1.8-0.9-3.6-1.8-4.9-2.4c-0.9,1.8-1.8,3.7-2.5,5.7c-0.3-0.2-0.5-0.4-1-0.7s-0.8-0.3-1.1-0.5    c0.5-0.8,1.2-2,2.3-4.2c2-4,2.3-4.6,2.5-5.2c2.1,1.2,3.9,2.2,6.6,3.6L228.2,163.7z"/>
		<path class="st3" d="M222.3,175.9c0.3,1.9-0.3,3.9-1.2,5.4c-1.6,2.4-3.7,3.5-6.4,1.8c-2-1.2-3.5-2.4-5.1-3.5    c-1.4-0.9-1.8-0.6-2.5,0.3l-0.5-0.3c0.1-1.2,0.3-1.8,0.7-2.5c0.7-1.1,1.8-1.4,3.1-1.1c-0.5-1.3-0.7-2.7,0.3-4    c1.5-2.3,3.6-2.3,5.1-1.3c2,1.3,2,3.2,1.2,5.6c-1,2.9-1,3.3-0.2,3.9c1.1,0.7,2.5,0.5,3.4-0.9c0.7-1,0.8-2.7,0.5-3.6l0.1-0.1    L222.3,175.9z M214.9,178.9c0.1-1.8,1.4-3.4-1-4.9c-1.1-0.7-2.1-0.7-2.6,0.2c-0.7,1-0.3,2.2,1.2,3.1    C213.9,178.2,214.4,178.6,214.9,178.9z"/>
		<path class="st3" d="M213.9,187.7c2.8,2.3,4.9,3.9,7.4,5.8c-0.3,0.3-0.9,0.9-1.4,1.5c-0.5,0.6-1,1.2-1.2,1.7    c-2.3-2-4.4-3.9-9.8-8.3c-0.4-0.3-0.5-0.4-0.5-0.3c-0.2,0.3,0.4,3.3,1.4,7.8c-0.3,0.3-0.7,0.6-0.9,0.9c-0.3,0.3-0.5,0.7-0.8,1.2    c-0.2-1.4-0.7-5.7-0.8-6.9c-0.8-0.1-8.3-1-9.4-1.4c0.5-0.6,1-1,1.4-1.6c0.5-0.5,0.8-1.1,1.2-1.7c1,0.1,7.1,1.3,7.4,1    c0.1-0.1,0.1-0.2-2-1.8c-0.8-0.6-2.3-1.8-2.9-2.2c0.5-0.5,0.9-0.9,1.4-1.4c0.4-0.5,0.8-1,1.1-1.6c2.3,2,4.4,3.9,7.2,6.1    L213.9,187.7z"/>
		<path class="st3" d="M199.1,197.7c-2.1-2.1-4.4-2.9-6.2-1.1c-0.9,0.9-1.4,2-1.5,3.3l-0.4,0.1l-0.7-1.5c0.1-1.1,0.7-2.4,2.1-3.8    c2.5-2.5,6.2-3.1,9.6,0.2c3.3,3.3,3.1,6.9,0.5,9.5c-2.5,2.5-5.5,2.3-8.2-0.4c-0.3-0.3-0.5-0.5-0.6-0.7L199.1,197.7z M197,201.5    c2,1.9,3.6,2.7,4.6,1.8c1.2-1.1-0.1-3.2-1.6-4.8L197,201.5z"/>
		<path class="st3" d="M183.5,226.4c-0.3,0.1-0.7,0.3-1,0.6c-0.3,0.3-0.7,0.5-0.9,0.8c-1-4.5-2.9-13.4-4.8-19.7    c0.4-0.2,0.7-0.3,1-0.6c0.3-0.3,0.6-0.5,0.9-0.8c4.1,2.8,13,8.7,16.9,11c-0.7,0.4-1.4,0.8-2.1,1.3c-0.7,0.5-1.3,1-1.9,1.5    c-3.3-2.6-7.9-5.6-11.8-8.4C180.9,217,182.2,222.1,183.5,226.4z"/>
		<path class="st3" d="M172.4,219.4c1.1,1.9,2.1,3.6,3.2,5.2c-0.5,0.2-1.1,0.5-1.8,0.9c-0.7,0.5-1.3,0.8-1.7,1.1    c-0.8-1.8-1.7-3.5-2.8-5.4l-0.5-1c-1.1-1.9-2.1-3.6-3.2-5.2c0.5-0.2,1.1-0.5,1.8-0.9s1.3-0.8,1.7-1.1c0.8,1.8,1.7,3.5,2.8,5.4    L172.4,219.4z M177.4,231.9c-1,0.6-2.3,0.3-2.9-0.8c-0.6-1-0.3-2.4,0.8-2.9c1-0.6,2.3-0.3,2.9,0.8    C178.8,230,178.5,231.3,177.4,231.9z"/>
		<path class="st3" d="M162.7,223.9c-1.2-2.7-3.2-4.2-5.5-3.2c-1.1,0.5-2,1.4-2.5,2.5l-0.4-0.1l-0.1-1.6c0.5-1,1.4-2,3.3-2.9    c3.2-1.5,6.9-0.8,8.9,3.5c2,4.3,0.5,7.5-2.8,9c-3.2,1.5-6,0.3-7.6-3.1c-0.2-0.4-0.3-0.7-0.3-0.8L162.7,223.9z M159.4,226.8    c1.2,2.5,2.4,3.9,3.7,3.3c1.4-0.7,0.9-3.1,0.1-5L159.4,226.8z"/>
		<path class="st3" d="M139,229.8c-0.1,3.3,0,6.6,0.1,9.9c-0.3,0.1-0.7,0.1-1,0.2c-0.3,0.1-0.7,0.3-1,0.5c0.3-1.6,0.5-9.5,0.5-14    c0.5-0.1,1-0.2,1.5-0.3c0.5-0.1,0.9-0.4,1.4-0.6c1.7,2.6,3.7,5.6,5.2,7.8h0.1c0-3.1,0.1-6.3,0-9.4c0.5-0.1,1-0.2,1.5-0.3    c0.5-0.1,1-0.4,1.5-0.6c2.4,3.8,7.1,10.4,7.9,11.4c-0.8,0.2-1.4,0.3-2.1,0.5c-0.7,0.2-1.2,0.5-1.9,0.7c-1.8-2.7-3.8-5.8-5.3-8.2    h-0.1c-0.1,3.3,0.1,6.6,0.1,9.9c-0.5,0.1-1,0.2-1.5,0.3s-0.9,0.4-1.4,0.6C142.7,235.2,140.9,232.4,139,229.8L139,229.8z"/>
		<path class="st3" d="M109.5,244.9c1.2,1.6,3.1,2.5,5.5,2.4c3.4-0.3,6.6-3.3,6.2-9c-0.3-4.3-2.9-7.4-7.2-7.1    c-0.9,0.1-2.5,0.4-2.9,0.7c-0.1,0.5,0,1.1,0.1,1.9c0.2,2.9,0.5,4.2,0.5,4.7c-0.3,0-0.9-0.1-2,0c-1.3,0.1-1.8,0.2-2.2,0.3    c0.1-0.6,0-2.9-0.1-4.6c-0.1-1.2-0.2-2.6-0.3-3c2.3-0.8,4.8-1.6,7.2-1.7c6.2-0.5,11,2.8,11.4,8.4c0.5,6.9-4.1,10.7-10.5,11.2    c-2.7,0.2-4.6-0.3-6.6-1.2c0.3-1,0.5-1.9,0.6-2.8L109.5,244.9z"/>
		<path class="st3" d="M103.3,241.2c-0.1,3.6-0.2,6.3-0.2,9.5c-0.5-0.1-1.2-0.2-2-0.2s-1.6,0-2,0.1c0.3-3.1,0.5-5.9,0.6-9.4l0.1-1.8    c0.1-3.6,0.2-6.3,0.2-9.5c0.5,0.1,1.2,0.2,2,0.2s1.6,0,2-0.1c-0.3,3.1-0.5,5.9-0.6,9.4L103.3,241.2z"/>
		<path class="st3" d="M95.6,241.3c-1.6,1-3.6,1.5-5.3,1.2c-2.9-0.3-4.8-1.8-4.4-5c0.3-2.3,0.6-4.2,0.8-6.1c0.2-1.7-0.3-2-1.4-2.1    l0.1-0.7c1.1-0.4,1.8-0.5,2.6-0.4c1.3,0.2,2,1,2.3,2.3c1-1,2.1-1.8,3.8-1.6c2.7,0.3,3.6,2.3,3.4,4c-0.3,2.4-2,3.1-4.5,3.5    c-3.1,0.3-3.4,0.5-3.5,1.5c-0.1,1.3,0.7,2.5,2.3,2.7c1.2,0.1,2.8-0.4,3.4-1.1h0.2L95.6,241.3z M89.8,236c1.6-0.7,3.6-0.3,4-3    c0.2-1.3-0.3-2.2-1.3-2.2c-1.2-0.1-2.1,0.7-2.3,2.4C89.9,234.7,89.8,235.3,89.8,236z"/>
		<path class="st3" d="M77.6,238.1L77.6,238.1c-1.4,1.1-3,1.7-4.6,1.2c-1.6-0.5-2.5-1.6-2.7-3.4c-1.5,1.3-3.2,1.8-4.8,1.4    c-2.6-0.7-3.7-2.6-2.8-5.9c0.5-1.8,0.9-3,1.3-4.4c0.3-1.1,0.6-2.5,0.9-3.9c0.5,0.2,1.2,0.5,2,0.7c0.8,0.2,1.6,0.4,2,0.4    c-0.8,1.8-1.5,4.4-2.3,7.5c-0.6,2.2-0.1,3.5,1.2,3.8c1.7,0.5,2.5-1.2,2.9-2.5l0.5-1.9c0.6-2.2,1-4,1.4-5.9c0.5,0.2,1.1,0.5,2,0.7    c0.8,0.2,1.5,0.3,2,0.4c-0.7,1.8-1.2,3.7-1.8,5.8l-0.5,1.6c-0.6,2.1-0.5,3.5,1,3.9c1.6,0.5,2.7-0.8,3.3-3.3l0.3-1    c0.6-2.2,1-4,1.4-5.9c0.5,0.2,1.1,0.5,2,0.7c0.8,0.2,1.5,0.3,2,0.4c-0.7,1.8-1.2,3.7-1.8,5.8l-0.3,1c-0.6,2.2-1,4-1.4,5.9    c-0.6-0.2-1.2-0.5-1.8-0.7c-0.7-0.2-1.2-0.3-2-0.4L77.6,238.1z"/>
		<path class="st3" d="M61.4,225.4c-1.4,3.3-2.5,5.9-3.6,8.8c-0.5-0.3-1.1-0.7-1.7-0.9c-0.6-0.3-1.2-0.5-1.8-0.7    c0.3-0.5,0.8-1.4,1.1-2.1h-0.1c-1.1,1.2-2.9,1.7-4.6,0.9c-2.5-1.1-4-4-2.1-8.3c2.1-4.8,5.3-5.5,7.8-4.4c1.5,0.7,2.3,1.8,2.4,3.3    H59c1-2.4,3.1-6.9,3.4-8.2c0.4,0.3,1.1,0.7,1.8,1c0.7,0.3,1.5,0.6,2,0.7c-1.4,2.7-2.5,5.3-4,8.6L61.4,225.4z M52.5,230.3    c1.2,0.5,3-0.3,4.6-4c1.3-3,1.1-4.8-0.3-5.5c-1.4-0.7-3,0.5-4.4,3.8C51,227.9,51.2,229.7,52.5,230.3z"/>
		<path class="st3" d="M37.9,232.6c-1-0.6-1.4-1.9-0.8-2.9c0.6-1,1.9-1.4,2.9-0.8c1,0.6,1.4,1.9,0.8,2.9    C40.2,232.8,38.8,233.2,37.9,232.6z M45.9,221.8c-1,2-2,3.7-2.7,5.4c-0.4-0.3-1-0.7-1.7-1.1c-0.7-0.4-1.4-0.7-1.8-0.8    c1-1.6,2.1-3.3,3.1-5.2l0.5-1c1-2,2-3.7,2.7-5.4c0.4,0.3,1,0.7,1.7,1.1c0.7,0.4,1.4,0.7,1.8,0.8c-1,1.6-2.1,3.3-3.1,5.2    L45.9,221.8z"/>
		<path class="st3" d="M34.1,219.4L34.1,219.4c-1.7,0.7-3.4,0.6-4.8-0.3c-2.3-1.5-2.7-3.7-0.7-6.5c1-1.6,1.9-2.5,2.7-3.7    c0.7-1,1.4-2.2,2.1-3.3c0.3,0.3,1,0.8,1.6,1.2c0.7,0.5,1.4,0.8,1.8,1c-1.3,1.5-2.8,3.7-4.6,6.3c-1.2,1.9-1.2,3.2,0,4    c1.4,0.9,2.8,0.1,4.2-2l0.6-0.9c1.2-1.8,2.3-3.5,3.2-5.2c0.3,0.3,0.9,0.8,1.6,1.2c0.7,0.5,1.3,0.8,1.8,1c-1.2,1.5-2.3,3.1-3.6,4.9    l-0.6,0.9c-1.2,1.8-2.3,3.5-3.2,5.2c-0.5-0.4-1-0.8-1.5-1.2c-0.5-0.4-1.1-0.7-1.7-1L34.1,219.4z"/>
		<path class="st3" d="M16.5,207.2L16.5,207.2c-0.2-1.1,0-2.2,0.9-3.3c1.8-2,4.6-2,7,0c0.3,0.3,0.6,0.5,0.9,0.8    c0.3,0.3,0.9,0.1,1.2-0.3c0.6-0.7,0.5-1.5-0.7-2.5l-1.5-1.3c-2.3-2-2.7-3.7-1-5.6c2.8-3.3,6.8-1.8,9.2,0.3    c2.5,2.2,3.1,4.7,1.8,6.3c-1.1,1.3-2.6,1.4-4.2,0.8l-0.1,0.1c0.5,0.9,0.5,1.8-0.2,2.6c-0.8,0.9-2.4,1.2-3.8,0.5l-0.1,0.1    c0.7,0.9,1,1.8,1,2.8c0,1-0.4,1.9-1.2,2.7c-1.8,2.1-4.6,1.8-7.2-0.5c-0.5-0.5-1-1-1.4-1.4c-0.3-0.3-0.7-0.7-1.1-1    c-0.7-0.6-1.4-1.2-2.2-1.8c0.1-0.1,0.3-0.3,0.5-0.5c0.1-0.1,0.3-0.3,0.4-0.5L16.5,207.2z M23.2,208.5c1.6-1.8,1.4-3.1,0.7-3.6    c-0.9-0.8-2-0.4-3.6,1.5s-1.6,3-0.8,3.7C20.4,210.9,21.7,210.4,23.2,208.5z M28.1,200.5c0.7,0.7,1.2,1,1.7,1    c0.5,0.1,1.5-0.1,2.3-1.1c1.4-1.6,0.8-3.5-0.7-4.7c-1.6-1.4-3.6-1.1-4.7,0.3C25.3,197.6,26.2,198.9,28.1,200.5z"/>
		<path class="st3" d="M12,190.9c-0.8-0.9-0.7-2.4,0.2-3.1c0.9-0.8,2.3-0.7,3.1,0.2c0.8,0.9,0.7,2.4-0.2,3.1    C14.2,191.9,12.7,191.8,12,190.9z"/>
		<path class="st3" d="M-2.5,184c-2.5,1.7-4.3,2.9-6.2,4.3c-0.3-0.5-0.6-1.2-1.1-2c-0.5-0.8-1-1.3-1.3-1.8c2.1-1.2,3.9-2.3,6.4-3.9    l3.1-2c1.7-1.1,3.4-2.3,4.6-3.1c-1.1-1.7-2.3-3.4-3.7-5c0.3-0.1,0.6-0.3,1.1-0.6c0.5-0.3,0.7-0.5,0.9-0.7c0.5,0.8,1.1,2,2.5,4    c2.4,3.7,2.9,4.3,3.3,4.8c-2.1,1.2-3.9,2.3-6.4,3.9L-2.5,184z"/>
		<path class="st3" d="M-10,172.7c-1.8-0.8-3.3-2.2-4-3.7c-1.3-2.6-1.2-5,1.7-6.5c2.1-1,3.8-1.8,5.5-2.7c1.5-0.8,1.4-1.3,1-2.3    l0.6-0.3c1,0.7,1.4,1.2,1.8,1.9c0.6,1.2,0.3,2.3-0.6,3.2c1.4,0.3,2.6,0.8,3.4,2.3c1.2,2.5,0.1,4.3-1.4,5.1c-2.1,1-3.7,0.1-5.3-1.8    c-2-2.4-2.3-2.5-3.3-2.1c-1.2,0.6-1.7,2-0.9,3.4c0.6,1.1,1.9,2.1,2.8,2.2l0.1,0.2L-10,172.7z M-8.9,164.9c1.5,1,2.3,2.9,4.8,1.6    C-3,166-2.6,165-3,164.2c-0.5-1-1.8-1.4-3.3-0.6C-7.8,164.3-8.3,164.6-8.9,164.9z"/>
		<path class="st3" d="M-16,159.6c-3.3,1.2-5.9,2.4-8.7,3.5c-0.1-0.5-0.3-1.2-0.6-2c-0.3-0.7-0.6-1.4-0.8-1.9c2.9-1,5.5-1.9,12-4.4    c0.5-0.2,0.6-0.2,0.5-0.3c-0.1-0.3-3.1-1.3-7.4-2.7c-0.1-0.5-0.2-0.8-0.3-1.2s-0.4-0.8-0.7-1.4c1.3,0.5,5.3,2.4,6.4,2.7    c0.5-0.7,5.1-6.7,5.9-7.5c0.2,0.7,0.4,1.4,0.7,2.1c0.3,0.7,0.6,1.2,0.8,1.9c-0.6,0.8-4.7,5.5-4.6,5.9c0.1,0.2,0.1,0.1,2.6-0.8    c0.9-0.3,2.7-1.1,3.3-1.4c0.2,0.7,0.3,1.3,0.6,1.9c0.3,0.6,0.5,1.2,0.8,1.8c-2.9,1-5.5,1.9-8.9,3.1L-16,159.6z"/>
		<path class="st3" d="M-17.3,141.8c2.9-0.7,4.7-2.4,4.1-4.8c-0.3-1.2-1-2.2-2-2.9l0.1-0.4l1.6,0.2c0.9,0.7,1.7,1.7,2.2,3.7    c0.9,3.5-0.4,7-5,8.2c-4.6,1.2-7.4-0.8-8.3-4.4c-0.9-3.5,0.8-5.9,4.4-6.9c0.5-0.1,0.7-0.2,0.8-0.2L-17.3,141.8z M-19.4,138    c-2.6,0.7-4.2,1.7-3.8,3.1c0.4,1.6,2.8,1.4,4.9,1L-19.4,138z"/>
		<path class="st3" d="M-34.1,113.7c0.1-0.4,0.1-0.8,0-1.2c-0.1-0.4-0.1-0.8-0.3-1.2c4.4,1.4,13,4.2,19.4,5.7c0,0.4-0.1,0.8,0,1.2    c0.1,0.4,0.1,0.8,0.3,1.2c-4.5,2.1-14.1,6.9-18,9.1c0-0.8,0-1.7-0.1-2.5c-0.1-0.8-0.2-1.6-0.3-2.4c3.9-1.6,8.8-4,13.1-6.1    C-24.6,116.2-29.7,114.8-34.1,113.7z"/>
		<path class="st3" d="M-35.7,105.7c0-1.2,1-2.2,2.2-2.1c1.2,0.1,2.1,1,2.1,2.2c0,1.2-1,2.2-2.2,2.1    C-34.8,107.8-35.7,106.9-35.7,105.7z M-22.4,107.7c-2.2-0.1-4.2,0-6.1,0.1c0.1-0.5,0.1-1.2,0.2-2c0-0.8-0.1-1.6-0.1-2    c1.9,0.2,3.8,0.3,6.1,0.3h1.1c2.2,0.1,4.2,0,6.1-0.1c-0.1,0.5-0.1,1.2-0.2,2c0,0.8,0.1,1.6,0.1,2c-1.9-0.2-3.8-0.3-6.1-0.3H-22.4z    "/>
		<path class="st3" d="M-21.5,97c2.9,0.3,5.3-0.7,5.5-3.1c0.1-1.2-0.2-2.4-0.9-3.5l0.3-0.3l1.4,0.7c0.6,1,1,2.2,0.8,4.2    c-0.3,3.5-2.7,6.4-7.5,5.9c-4.7-0.5-6.7-3.3-6.4-7c0.3-3.5,2.7-5.4,6.5-5c0.5,0.1,0.7,0.1,0.9,0.1L-21.5,97z M-22.3,92.7    c-2.7-0.2-4.6,0.2-4.7,1.6c-0.1,1.6,2.1,2.4,4.3,2.6L-22.3,92.7z"/>
		<path class="st3" d="M-14.6,73.5c-2.9-1.7-5.7-3.3-8.5-4.8c0.1-0.3,0.3-0.7,0.4-1c0.1-0.3,0.1-0.7,0.1-1.2    c1.2,1.1,7.9,5.2,11.8,7.4c-0.2,0.5-0.4,1-0.5,1.4c-0.1,0.5-0.1,1-0.2,1.5c-3.1,0.1-6.6,0.4-9.3,0.6v0.1c2.7,1.6,5.4,3.2,8.1,4.7    c-0.2,0.5-0.4,1-0.5,1.5c-0.1,0.5-0.1,1-0.3,1.6c-4.5,0.2-12.6,0.9-13.8,1.1c0.3-0.8,0.5-1.4,0.6-2c0.1-0.7,0.2-1.3,0.3-2    c3.3-0.1,6.9-0.3,9.8-0.5v-0.1c-2.8-1.7-5.7-3.3-8.5-4.8c0.2-0.5,0.4-1,0.5-1.4c0.1-0.5,0.1-1,0.2-1.5    C-21.2,73.9-17.8,73.8-14.6,73.5L-14.6,73.5z"/>
		<path class="st3" d="M-12.8,40.2c-2,0.3-3.7,1.4-4.8,3.7c-1.5,3.1-0.5,7.4,4.6,9.9c3.9,1.9,7.9,1.2,9.7-2.6    c0.4-0.8,0.9-2.4,0.8-2.9c-0.3-0.3-1-0.6-1.7-0.9c-2.7-1.3-3.8-1.7-4.3-1.9c0.2-0.3,0.5-0.7,1-1.8c0.6-1.2,0.7-1.7,0.8-2    c0.5,0.4,2.5,1.4,4,2.2c1,0.5,2.3,1.1,2.7,1.2c-0.5,2.4-1,4.9-2.1,7.1c-2.7,5.6-7.9,8.1-12.9,5.7c-6.2-3.1-7.1-8.9-4.4-14.8    c1.2-2.5,2.5-3.9,4.4-5.2c0.7,0.7,1.4,1.4,2.1,1.9L-12.8,40.2z"/>
		<path class="st3" d="M-6.4,36.8c-3-2-5.4-3.3-8.1-4.9c0.3-0.3,0.8-1,1.2-1.6c0.5-0.7,0.8-1.4,1-1.8c2.5,1.8,4.8,3.3,7.8,5.3l1.5,1    c3,2,5.4,3.3,8.1,4.9c-0.3,0.3-0.8,1-1.2,1.6s-0.8,1.4-1,1.8c-2.5-1.8-4.8-3.3-7.8-5.3L-6.4,36.8z"/>
		<path class="st3" d="M-2.6,30c-0.1-1.9,0.5-3.9,1.6-5.2c1.8-2.3,4-3.2,6.6-1.2c1.8,1.4,3.3,2.6,4.9,3.9c1.4,1,1.8,0.8,2.5-0.1    l0.5,0.4c-0.2,1.2-0.5,1.8-0.9,2.4c-0.8,1-1.9,1.2-3.1,0.8c0.4,1.4,0.5,2.7-0.6,4c-1.7,2.2-3.8,2-5.2,0.9    c-1.9-1.4-1.7-3.3-0.7-5.6c1.2-2.9,1.2-3.2,0.5-3.9c-1-0.8-2.5-0.7-3.4,0.7c-0.8,1-1,2.6-0.8,3.5l-0.1,0.1L-2.6,30z M4.9,27.6    c-0.3,1.8-1.6,3.3,0.6,5c1,0.8,2,0.8,2.6,0c0.7-1,0.5-2.2-0.9-3.3C6,28.4,5.4,28,4.9,27.6z"/>
		<path class="st3" d="M9.2,16.1L9.2,16.1c-0.3-1.8,0.1-3.5,1.3-4.6c1.2-1.2,2.7-1.3,4.3-0.6c-0.4-2,0.1-3.7,1.2-4.8    c2-1.9,4.1-1.9,6.5,0.6C23.8,8,24.7,9,25.6,10c0.8,0.8,1.8,1.8,2.9,2.7c-0.4,0.3-1,0.8-1.6,1.3c-0.6,0.5-1.1,1.2-1.4,1.5    c-1.2-1.6-3-3.5-5.3-5.8c-1.6-1.6-2.9-1.8-3.9-0.8c-1.2,1.2-0.3,2.8,0.7,3.7l1.4,1.4c1.6,1.6,2.9,2.9,4.4,4.2    c-0.4,0.3-1,0.7-1.6,1.3c-0.6,0.6-1,1.2-1.4,1.5c-1.2-1.5-2.5-2.9-4.1-4.5l-1.2-1.2c-1.5-1.6-2.7-2.2-3.8-1    c-1.2,1.2-0.7,2.7,1.1,4.5l0.8,0.8c1.6,1.6,2.9,2.9,4.4,4.2c-0.4,0.3-1,0.7-1.6,1.3c-0.6,0.6-1,1.2-1.4,1.5    C12.9,25,11.6,23.6,10,22l-0.8-0.8c-1.6-1.6-2.9-2.9-4.4-4.2c0.5-0.4,1-0.8,1.5-1.2c0.5-0.5,0.8-1,1.3-1.5L9.2,16.1z"/>
		<path class="st3" d="M28.2,8.4c-2.1-2.9-3.8-5.1-5.7-7.5c0.5-0.3,1.1-0.7,1.6-1c0.5-0.4,1-0.8,1.4-1.2c0.3,0.5,0.8,1.4,1.2,2h0.1    c-0.5-1.6,0-3.3,1.6-4.4c2.3-1.6,5.5-1.5,8.3,2.4c3.1,4.2,2,7.4-0.1,8.9c-1.3,0.9-2.7,1.1-4,0.5h-0.1c1.6,2.1,4.4,6.1,5.3,7    c-0.4,0.2-1.1,0.7-1.8,1.1c-0.7,0.5-1.2,1-1.6,1.3c-1.7-2.5-3.3-4.9-5.3-7.8L28.2,8.4z M28.4-1.8C27.3-1,27.2,1,29.6,4.3    c2,2.7,3.6,3.4,4.9,2.5c1.2-0.9,1-2.9-1-5.7C31.4-2,29.6-2.6,28.4-1.8z"/>
		<path class="st3" d="M33.8-15.7c1-0.6,2.3-0.3,2.9,0.7c0.6,1,0.3,2.4-0.7,2.9c-1,0.6-2.3,0.3-2.9-0.7C32.5-13.7,32.8-15,33.8-15.7    z M39.2-3.3c-1.1-1.9-2.1-3.5-3.3-5.1c0.5-0.2,1.1-0.5,1.8-0.9c0.7-0.5,1.3-0.9,1.7-1.2c0.8,1.7,1.8,3.4,2.9,5.3l0.6,0.9    c1.1,1.9,2.1,3.5,3.3,5.1c-0.5,0.2-1.1,0.5-1.8,0.9c-0.7,0.5-1.3,0.8-1.7,1.2c-0.8-1.7-1.8-3.4-2.9-5.3L39.2-3.3z"/>
		<path class="st3" d="M47.1-12.3L47.1-12.3c0.3-1.8,1.2-3.2,2.7-4c2.5-1.2,4.5-0.5,6,2.7c0.8,1.7,1.3,2.9,1.9,4.2    c0.5,1,1.2,2.3,1.8,3.5c-0.5,0.1-1.2,0.4-1.9,0.8c-0.7,0.3-1.4,0.7-1.8,1c-0.7-1.9-1.7-4.2-3.1-7.2c-1-2-2.1-2.6-3.4-2    c-1.5,0.7-1.5,2.4-0.4,4.6l0.5,1c1,2,1.8,3.7,2.8,5.4C51.7-2.2,51-2,50.3-1.6c-0.7,0.4-1.4,0.7-1.8,1c-0.7-1.8-1.5-3.6-2.4-5.6    l-0.5-1c-1-2-1.8-3.7-2.8-5.4c0.6-0.3,1.2-0.5,1.8-0.7c0.6-0.3,1.1-0.7,1.8-1L47.1-12.3z"/>
		<path class="st3" d="M66.5-21.4L66.5-21.4c1,0.4,1.9,1.2,2.3,2.4c0.9,2.5-0.5,5-3.5,6c-0.4,0.1-0.7,0.2-1.2,0.4    c-0.4,0.1-0.6,0.7-0.4,1.2c0.3,0.8,1.1,1.1,2.5,0.7l1.9-0.7c2.9-1,4.6-0.4,5.4,2c1.4,4.1-1.8,6.9-4.9,7.9    c-3.2,1.1-5.6,0.4-6.3-1.6c-0.6-1.6,0.1-3,1.4-4v-0.1c-1-0.1-1.8-0.5-2.1-1.5c-0.4-1.1,0.1-2.7,1.4-3.6v-0.1    C62-12.3,61-12.5,60.1-13c-0.8-0.5-1.4-1.2-1.8-2.4c-0.9-2.6,0.8-4.9,4-6.1c0.6-0.2,1.3-0.4,2-0.6c0.5-0.1,0.9-0.3,1.4-0.5    c0.8-0.3,1.8-0.7,2.7-1c0.1,0.2,0.1,0.5,0.2,0.7c0.1,0.2,0.2,0.4,0.3,0.6L66.5-21.4z M62-16.3c0.8,2.2,2,2.7,2.7,2.5    c1.1-0.4,1.4-1.6,0.5-3.9c-0.8-2.4-1.8-2.9-2.7-2.6C61.3-19.8,61.1-18.5,62-16.3z M66.4-8c-0.9,0.3-1.4,0.6-1.8,0.9    c-0.3,0.3-0.7,1.4-0.2,2.6c0.7,2,2.6,2.4,4.4,1.8c2-0.7,2.7-2.5,2.1-4.2C70.2-8.9,68.7-8.9,66.4-8z"/>
		<path class="st3" d="M82.8-17.2c1.2-0.3,2.4,0.6,2.6,1.8c0.3,1.2-0.6,2.4-1.8,2.6s-2.4-0.6-2.6-1.8C80.8-15.7,81.6-16.9,82.8-17.2    z"/>
	</g>
</g>
</svg>