<?xml version="1.0" encoding="utf-8"?>
<!-- Generator: Adobe Illustrator 27.4.1, SVG Export Plug-In . SVG Version: 6.00 Build 0)  -->
<svg version="1.1" id="Layer_1" xmlns="http://www.w3.org/2000/svg" xmlns:xlink="http://www.w3.org/1999/xlink" x="0px" y="0px"
	 width="450px" height="450px" viewBox="0 0 450 450" style="enable-background:new 0 0 450 450;" xml:space="preserve">
<style type="text/css">
	.st0{display:none;}
	.st1{display:inline;}
	.st2{fill:#100E51;}
	.st3{fill:#100E51;stroke:#070707;stroke-width:5.9472;stroke-linecap:round;stroke-miterlimit:9.9119;}
	.st4{fill:#100E51;stroke:#070707;stroke-width:6;stroke-linecap:round;stroke-miterlimit:10;}
</style>
<g>
	<g class="st0">
		<g class="st1">
			<g>
				<path class="st2" d="M216.8,152.4c0.2-0.2,0.2-0.2,0.4-0.2c0.5-0.2,1.1-0.2,1.4-0.2c0.5-0.2,1.2-0.2,1.8-0.2
					c0.7-0.2,1.4-0.2,2.1-0.4c0.2-0.2,0.5-0.2,0.7-0.2c0.2,0,0.2-0.2,0.2-0.2c-0.5-0.7-1.2-1.4-1.8-2.1c-0.4-0.4-0.7-0.7-0.9-1.1
					l-0.2-0.2c0.2-0.2,0.2,0,0.2,0.2c0.4,0.2,0.7,0.5,1.1,0.7c0.5,0.4,1.1,0.7,1.4,1.2c0.4,0.2,0.5,0.4,0.9,0.7
					c0.2,0.2,0.2,0.2,0.2-0.2c0.2-0.5,0.2-1.1,0.2-1.6c0.2-0.5,0.2-1.2,0.2-1.8c0.2-0.4,0.2-0.7,0.2-1.1c0.2-0.4,0.2-0.7,0.2-1.2
					c0-0.4,0.2-0.5,0.2-0.9c0-0.2,0-0.2,0.2-0.2c0.2,0.2,0.2,0.2,0.2,0.4c0.2,0.5,0.2,1.1,0.2,1.4c0.2,0.4,0.2,0.7,0.2,1.1
					c0.2,0.4,0.2,0.7,0.2,1.1c0.2,0.5,0.2,1.1,0.2,1.4c0.2,0.4,0.2,0.7,0.2,1.2c0,0.2,0.2,0.2,0.2,0.2c0.7-0.5,1.4-1.1,2.1-1.6
					c0.4-0.4,0.7-0.7,1.2-1.1l0.2-0.2c0.2,0.2,0,0.2-0.2,0.2c-0.2,0.4-0.5,0.7-0.7,1.1c-0.4,0.5-0.7,1.1-1.2,1.4
					c-0.2,0.4-0.4,0.5-0.7,0.9c-0.2,0.2-0.2,0.2,0.2,0.2c0.5,0.2,1.1,0.2,1.6,0.2c0.5,0.2,1.2,0.2,1.8,0.2c0.4,0.2,0.7,0.2,1.1,0.2
					c0.4,0.2,0.7,0.2,1.2,0.2c0.4,0,0.5,0.2,0.9,0.2c0.2,0,0.2,0,0.2,0.2c-0.2,0.2-0.2,0.2-0.4,0.2c-0.5,0.2-1.1,0.2-1.4,0.2
					c-0.4,0.2-0.7,0.2-1.1,0.2c-0.4,0.2-0.7,0.2-1.1,0.2c-0.5,0.2-1.1,0.2-1.4,0.2c-0.4,0.2-0.7,0.2-1.2,0.2c-0.2,0-0.2,0.2-0.2,0.2
					c0.5,0.7,1.1,1.4,1.6,2.1c0.4,0.4,0.7,0.7,1.1,1.2l0.2,0.2c-0.2,0.2-0.2,0-0.2-0.2c-0.4-0.2-0.7-0.5-1.1-0.7
					c-0.5-0.4-1.1-0.7-1.4-1.2c-0.4-0.2-0.5-0.4-0.9-0.7c-0.2-0.2-0.2-0.2-0.2,0.2c-0.2,0.5-0.2,1.1-0.2,1.6
					c-0.2,0.5-0.2,1.2-0.2,1.8c-0.2,0.4-0.2,0.7-0.2,1.1c-0.2,0.4-0.2,0.7-0.2,1.2c0,0.4-0.2,0.5-0.2,0.9c0,0.2,0,0.2-0.2,0.2
					c-0.2-0.2-0.2-0.2-0.2-0.4c-0.2-0.5-0.2-1.1-0.2-1.4c-0.2-0.4-0.2-0.7-0.2-1.1c-0.2-0.4-0.2-0.7-0.2-1.1
					c-0.2-0.5-0.2-1.1-0.2-1.4c-0.2-0.4-0.2-0.7-0.2-1.2c0-0.2-0.2-0.2-0.2-0.2c-0.7,0.5-1.4,1.1-2.1,1.6c-0.4,0.4-0.7,0.7-1.2,1.1
					l-0.2,0.2c-0.2-0.2,0-0.2,0.2-0.2c0.2-0.4,0.5-0.7,0.7-1.1c0.4-0.5,0.7-1.1,1.2-1.4c0.2-0.4,0.4-0.5,0.7-0.9
					c0.2-0.2,0.2-0.2-0.2-0.2c-0.5-0.2-1.1-0.2-1.6-0.2c-0.5-0.2-1.2-0.2-1.8-0.2c-0.4-0.2-0.7-0.2-1.1-0.2
					c-0.4-0.2-0.7-0.2-1.2-0.2C217.5,152.6,217.2,152.4,216.8,152.4L216.8,152.4z"/>
			</g>
		</g>
		<g class="st1">
			<g>
				<path class="st2" d="M171.1,175.8c0,0.2-0.2,0.2-0.2,0.2c-0.2,0.4-0.2,0.5-0.4,0.9c-0.2,0.4-0.4,0.7-0.4,1.2
					c-0.2,0.5-0.2,1.1-0.4,1.4c-0.2,0.2-0.2,0.4-0.2,0.5c0,0.2,0,0.2,0.2,0.2c0.5-0.2,1.2-0.4,1.8-0.5c0.4-0.2,0.5-0.2,0.9-0.4
					c0,0,0.2-0.2,0.2,0c0,0.2,0,0.2-0.2,0.2c-0.2,0.2-0.5,0.2-0.7,0.4c-0.4,0.2-0.7,0.4-1.2,0.5c-0.2,0.2-0.4,0.2-0.5,0.4
					c-0.2,0.2-0.2,0.2,0,0.2c0.4,0.2,0.5,0.4,0.9,0.5c0.4,0.2,0.7,0.4,1.1,0.5c0.2,0.2,0.4,0.2,0.5,0.4c0.2,0.2,0.5,0.2,0.7,0.4
					c0.2,0.2,0.4,0.2,0.5,0.4c0,0,0.2,0,0.2,0.2c-0.2,0-0.2-0.2-0.2-0.2c-0.4-0.2-0.7-0.2-1.1-0.4c-0.2-0.2-0.4-0.2-0.7-0.2
					s-0.5-0.2-0.7-0.2c-0.4-0.2-0.5-0.2-1.1-0.2c-0.2-0.2-0.5-0.2-0.7-0.2c-0.2,0-0.2,0-0.2,0.2c0.2,0.5,0.4,1.2,0.5,1.8
					c0.2,0.4,0.2,0.7,0.4,1.1c0,0,0.2,0.2,0,0.2s-0.2,0-0.2-0.2c-0.2-0.2-0.2-0.5-0.4-0.7c-0.2-0.4-0.4-0.7-0.5-1.2
					c-0.2-0.2-0.2-0.4-0.4-0.5c-0.2-0.2-0.2-0.2-0.2,0c-0.2,0.4-0.4,0.5-0.5,0.9c-0.2,0.4-0.4,0.7-0.5,1.1c-0.2,0.2-0.2,0.4-0.4,0.5
					c-0.2,0.2-0.2,0.5-0.4,0.7c-0.2,0.2-0.2,0.4-0.4,0.5c0,0,0,0.2-0.2,0.2c0-0.2,0.2-0.2,0.2-0.2c0.2-0.4,0.2-0.7,0.4-1.1
					c0.2-0.2,0.2-0.4,0.2-0.7s0.2-0.5,0.2-0.7c0.2-0.4,0.2-0.5,0.2-1.1c0.2-0.2,0.2-0.5,0.2-0.7c0-0.2,0-0.2-0.2-0.2
					c-0.5,0.2-1.2,0.4-1.8,0.5c-0.4,0.2-0.7,0.2-1.1,0.4c0,0-0.2,0.2-0.2,0c0-0.2,0-0.2,0.2-0.2c0.2-0.2,0.5-0.2,0.7-0.4
					c0.4-0.2,0.7-0.4,1.2-0.5c0.2-0.2,0.4-0.2,0.5-0.4s0.2-0.2,0-0.2c-0.4-0.2-0.5-0.4-0.9-0.5c-0.4-0.2-0.7-0.4-1.1-0.5
					c-0.2-0.2-0.4-0.2-0.5-0.4c-0.2-0.2-0.5-0.2-0.7-0.4c-0.2-0.2-0.4-0.2-0.5-0.4c0,0-0.2,0-0.2-0.2c0.2,0,0.2,0.2,0.2,0.2
					c0.4,0.2,0.7,0.2,1.1,0.4c0.2,0.2,0.4,0.2,0.7,0.2c0.2,0.2,0.5,0.2,0.7,0.2c0.4,0.2,0.5,0.2,1.1,0.2c0.2,0.2,0.5,0.2,0.7,0.2
					s0.2,0,0.2-0.2c-0.2-0.5-0.4-1.2-0.5-1.8c-0.2-0.4-0.2-0.7-0.4-1.1c0,0-0.2-0.2,0-0.2c0.2,0,0.2,0,0.2,0.2
					c0.2,0.2,0.2,0.5,0.4,0.7c0.2,0.4,0.4,0.7,0.5,1.2c0.2,0.2,0.2,0.4,0.4,0.5c0.2,0.2,0.2,0.2,0.2,0c0.2-0.4,0.4-0.5,0.5-0.9
					c0.2-0.4,0.4-0.7,0.5-1.1c0.2-0.2,0.2-0.4,0.4-0.5s0.2-0.5,0.4-0.7C170.8,176,171,175.8,171.1,175.8
					C171,175.8,171,175.8,171.1,175.8z"/>
			</g>
		</g>
		<g class="st1">
			<g>
				<path class="st2" d="M279,175.8c0,0.2,0.2,0.2,0.2,0.2c0.2,0.4,0.2,0.5,0.4,0.9s0.4,0.7,0.4,1.2c0.2,0.5,0.2,1.1,0.4,1.4
					c0.2,0.2,0.2,0.4,0.2,0.5c0,0.2,0,0.2-0.2,0.2c-0.5-0.2-1.2-0.4-1.8-0.5c-0.4-0.2-0.5-0.2-0.9-0.4c0,0-0.2-0.2-0.2,0
					c0,0.2,0,0.2,0.2,0.2c0.2,0.2,0.5,0.2,0.7,0.4c0.4,0.2,0.7,0.4,1.2,0.5c0.2,0.2,0.4,0.2,0.5,0.4c0.2,0.2,0.2,0.2,0,0.2
					c-0.4,0.2-0.5,0.4-0.9,0.5c-0.4,0.2-0.7,0.4-1.1,0.5c-0.2,0.2-0.4,0.2-0.5,0.4c-0.2,0.2-0.5,0.2-0.7,0.4
					c-0.2,0.2-0.4,0.2-0.5,0.4c0,0-0.2,0-0.2,0.2c0.2,0,0.2-0.2,0.2-0.2c0.4-0.2,0.7-0.2,1.1-0.4c0.2-0.2,0.4-0.2,0.7-0.2
					c0.2-0.2,0.5-0.2,0.7-0.2c0.4-0.2,0.5-0.2,1.1-0.2c0.2-0.2,0.5-0.2,0.7-0.2s0.2,0,0.2,0.2c-0.2,0.5-0.4,1.2-0.5,1.8
					c-0.2,0.4-0.2,0.7-0.4,1.1c0,0-0.2,0.2,0,0.2c0.2,0,0.2,0,0.2-0.2c0.2-0.2,0.2-0.5,0.4-0.7c0.2-0.4,0.4-0.7,0.5-1.2
					c0.2-0.2,0.2-0.4,0.4-0.5c0.2-0.2,0.2-0.2,0.2,0c0.2,0.4,0.4,0.5,0.5,0.9c0.2,0.4,0.4,0.7,0.5,1.1c0.2,0.2,0.2,0.4,0.4,0.5
					c0.2,0.2,0.2,0.5,0.4,0.7c0.2,0.2,0.2,0.4,0.4,0.5c0,0,0,0.2,0.2,0.2c0-0.2-0.2-0.2-0.2-0.2c-0.2-0.4-0.2-0.7-0.4-1.1
					c-0.2-0.2-0.2-0.4-0.2-0.7c-0.2-0.2-0.2-0.5-0.2-0.7c-0.2-0.4-0.2-0.5-0.2-1.1c-0.2-0.2-0.2-0.5-0.2-0.7c0-0.2,0-0.2,0.2-0.2
					c0.5,0.2,1.2,0.4,1.8,0.5c0.4,0.2,0.7,0.2,1.1,0.4c0,0,0.2,0.2,0.2,0c0-0.2,0-0.2-0.2-0.2c-0.2-0.2-0.5-0.2-0.7-0.4
					c-0.4-0.2-0.7-0.4-1.2-0.5c-0.2-0.2-0.4-0.2-0.5-0.4c-0.2-0.2-0.2-0.2,0-0.2c0.4-0.2,0.5-0.4,0.9-0.5c0.4-0.2,0.7-0.4,1.1-0.5
					c0.2-0.2,0.4-0.2,0.5-0.4c0.2-0.2,0.5-0.2,0.7-0.4c0.2-0.2,0.4-0.2,0.5-0.4c0,0,0.2,0,0.2-0.2c-0.2,0-0.2,0.2-0.2,0.2
					c-0.4,0.2-0.7,0.2-1.1,0.4c-0.2,0.2-0.4,0.2-0.7,0.2c-0.2,0.2-0.5,0.2-0.7,0.2c-0.4,0.2-0.5,0.2-1.1,0.2
					c-0.2,0.2-0.5,0.2-0.7,0.2c-0.2,0-0.2,0-0.2-0.2c0.2-0.5,0.4-1.2,0.5-1.8c0.2-0.4,0.2-0.7,0.4-1.1c0,0,0.2-0.2,0-0.2
					c-0.2,0-0.2,0-0.2,0.2c-0.2,0.2-0.2,0.5-0.4,0.7c-0.2,0.4-0.4,0.7-0.5,1.2c-0.2,0.2-0.2,0.4-0.4,0.5c-0.2,0.2-0.2,0.2-0.2,0
					c-0.2-0.4-0.4-0.5-0.5-0.9s-0.4-0.7-0.5-1.1c-0.2-0.2-0.2-0.4-0.4-0.5c-0.2-0.2-0.2-0.5-0.4-0.7
					C279.2,176,279.2,175.8,279,175.8L279,175.8z"/>
			</g>
		</g>
		<g class="st1">
			<path class="st2" d="M256.7,143.7L256.7,143.7c0,0.2,0,0.2,0,0.4s0,0.2,0,0.2c0,0.2,0,0.2,0,0.2c0,0.2,0.2,0.4,0.2,0.5
				c0,0.2,0.2,0.2,0.2,0.2c0.2,0.2,0.2,0.4,0.2,0.4s0.4,0.2,0.4,0.4c0.2,0.2,0.2,0.2,0.4,0.2c0.2,0.2,0.4,0.2,0.4,0.2l0.2,0.2
				c0.2,0,0.2,0,0.2,0c0.2,0,0.2,0,0.2,0h0.2h0.2l0,0l0,0c-0.2,0-0.2,0-0.2,0h-0.2h-0.2c-0.2,0-0.2,0-0.2,0.2
				c-0.2,0-0.4,0.2-0.5,0.2c-0.2,0.2-0.4,0.2-0.5,0.4c-0.2,0.2-0.2,0.2-0.4,0.4c-0.2,0.2-0.2,0.4-0.2,0.5c-0.2,0.2-0.2,0.4-0.2,0.5
				s0,0.2-0.2,0.2c0,0.2,0,0.2,0,0.2v0.2v0.2l0,0l0,0c0-0.2,0-0.2,0-0.4c0-0.2,0-0.2,0-0.2c0-0.2,0-0.2-0.2-0.2
				c0-0.2-0.2-0.4-0.2-0.5c-0.2-0.2-0.2-0.4-0.4-0.5c-0.2-0.2-0.2-0.2-0.4-0.4c-0.2-0.2-0.4-0.2-0.5-0.2c-0.2-0.2-0.4-0.2-0.5-0.2
				c-0.2,0-0.2,0-0.2-0.2c-0.2,0-0.2,0-0.2,0h-0.2c-0.2,0-0.2,0-0.2,0h-0.2l0,0l0,0c0.2,0,0.2,0,0.2,0c0.2,0,0.2,0,0.2,0
				c0.2,0,0.2,0,0.2,0h0.2c0.2,0,0.4-0.2,0.5-0.2c0.2,0,0.2-0.2,0.2-0.2c0.2-0.2,0.4-0.2,0.4-0.2c0.2-0.2,0.2-0.2,0.4-0.4
				c0.2-0.2,0.2-0.4,0.2-0.5c0.2-0.2,0.2-0.4,0.2-0.4s0-0.2,0.2-0.2c0-0.2,0-0.2,0-0.2c0-0.2,0-0.2,0-0.2c0-0.2,0-0.2,0-0.2
				C256.7,143.7,256.7,143.7,256.7,143.7L256.7,143.7z"/>
		</g>
		<g class="st1">
			<path class="st2" d="M289.6,200.7C289.6,200.9,289.6,200.9,289.6,200.7c-0.2,0.2-0.2,0.2-0.2,0.4s-0.2,0.2-0.2,0.2
				c-0.2,0.2-0.2,0.2-0.2,0.2c-0.2,0.2-0.2,0.4-0.4,0.5s-0.2,0.2-0.2,0.2c-0.2,0.2-0.2,0.4-0.2,0.5s0.2,0.4,0.2,0.5
				c0.2,0.2,0.2,0.2,0.2,0.4c0,0.2,0.2,0.2,0.4,0.4c0.2,0.2,0.2,0.2,0.2,0.2l0.2,0.2c0.2,0.2,0.2,0.2,0.2,0.2
				c0.2,0.2,0.2,0.2,0.2,0.2l0.2,0.2l0,0l0,0c-0.2-0.2-0.2-0.2-0.2-0.2c-0.2-0.2-0.2-0.2-0.2-0.2c-0.2,0-0.2-0.2-0.2-0.2
				c-0.2-0.2-0.2-0.2-0.2-0.2c-0.2-0.2-0.4-0.2-0.5-0.2c-0.2-0.2-0.5-0.2-0.7-0.2s-0.4,0-0.5,0.2c-0.2,0.2-0.4,0.2-0.5,0.2
				c-0.2,0.2-0.4,0.2-0.4,0.4c0,0.2-0.2,0.2-0.2,0.2l-0.2,0.2C286,205,286,205,286,205l-0.2,0.2l0,0l0,0c0.2-0.2,0.2-0.2,0.2-0.4
				c0-0.2,0.2-0.2,0.2-0.2c0.2-0.2,0.2-0.2,0.2-0.2c0.2-0.2,0.2-0.4,0.2-0.5c0.2-0.2,0.2-0.5,0.2-0.7c0-0.2,0-0.4-0.2-0.5
				c-0.2-0.2-0.2-0.4-0.2-0.5c0-0.2-0.2-0.4-0.4-0.4c-0.2-0.2-0.2-0.2-0.2-0.2l-0.2-0.2c-0.2-0.2-0.2-0.2-0.2-0.2
				c-0.2-0.2-0.2-0.2-0.2-0.2l-0.2-0.2l0,0l0,0c0.2,0.2,0.2,0.2,0.2,0.2c0.2,0.2,0.2,0.2,0.2,0.2l0.2,0.2c0.2,0.2,0.2,0.2,0.2,0.2
				c0.2,0.2,0.4,0.2,0.5,0.4c0.2,0.2,0.2,0.2,0.2,0.2c0.2,0.2,0.4,0.2,0.5,0.2s0.4,0,0.5-0.2c0.2-0.2,0.4-0.2,0.5-0.2
				c0.2-0.2,0.2-0.2,0.4-0.4s0.2-0.2,0.2-0.2l0.2-0.2c0.2-0.2,0.2-0.2,0.2-0.2l0.2-0.2C289.6,200.7,289.6,200.7,289.6,200.7
				L289.6,200.7z"/>
		</g>
		<g class="st1">
			<path class="st2" d="M180.9,149.2L180.9,149.2c-0.2,0.2-0.2,0.2-0.2,0.2l-0.2,0.2c-0.2,0.2-0.2,0.2-0.2,0.2
				c-0.2,0.2-0.2,0.2-0.2,0.4c0,0,0,0,0,0c-0.2,0.2-0.2,0.2-0.2,0.4c0,0.2,0.2,0.4,0.2,0.4c0.2,0.2,0.2,0.2,0.2,0.2
				c0.2,0.2,0.2,0.2,0.2,0.4c0.2,0.2,0.2,0.2,0.2,0.2l0.2,0.2l0.2,0.2l0.2,0.2c0,0,0,0.2,0.2,0.2l0,0l0,0c-0.2-0.2-0.2-0.2-0.2-0.2
				c-0.2,0-0.2-0.2-0.2-0.2l-0.2-0.2c-0.2-0.2-0.2-0.2-0.2-0.2c-0.2-0.2-0.2-0.2-0.4-0.2c-0.2-0.2-0.4-0.2-0.5-0.2
				c-0.2,0-0.2,0-0.4,0.2c-0.2,0.2-0.2,0.2-0.4,0.2c-0.4,0.2-0.5,0.4-0.5,0.4c-0.2,0-0.2,0-0.2,0l-0.2,0.2c-0.2,0.2-0.2,0.2-0.2,0.2
				l-0.2,0.2l0,0l0,0c0.2-0.2,0.2-0.2,0.2-0.2l0.2-0.2c0.2-0.2,0.2-0.2,0.2-0.2c0.2-0.2,0.2-0.2,0.2-0.4c0.2-0.2,0.2-0.4,0.2-0.5
				c0-0.2,0-0.2-0.2-0.4c0-0.4,0-0.4-0.2-0.5c-0.2-0.2-0.2-0.2-0.2-0.4c-0.2-0.2-0.2-0.2-0.2-0.2l-0.2-0.2l-0.2-0.2l-0.2-0.2
				l-0.2-0.2l0,0l0,0c0.2,0,0.2,0.2,0.2,0.2c0.2,0,0.2,0.2,0.2,0.2l0.2,0.2c0.2,0.2,0.2,0.2,0.2,0.2c0.2,0.2,0.2,0.2,0.4,0.2
				c0.2,0,0.2,0.2,0.2,0.2c0.2,0.2,0.2,0.2,0.4,0.2c0.2,0,0.2,0,0.4-0.2c0.2-0.2,0.2-0.2,0.4-0.2s0.2-0.2,0.4-0.2
				c0.2-0.2,0.2-0.2,0.2-0.2l0.2-0.2l0.2-0.2l0.2-0.2C180.9,149.2,180.9,149.2,180.9,149.2L180.9,149.2z"/>
		</g>
		<g class="st1">
			<path class="st2" d="M212.3,140.8C212.2,140.8,212.2,140.8,212.3,140.8c-0.2,0.2-0.2,0.2-0.4,0.2c-0.2,0-0.2,0-0.2,0.2
				c-0.2,0-0.2,0.2-0.2,0.2c-0.2,0.2-0.4,0.2-0.5,0.2c-0.2,0.2-0.2,0.2-0.2,0.2c-0.2,0.2-0.2,0.2-0.4,0.4c-0.2,0.2-0.2,0.4-0.2,0.5
				s-0.2,0.2-0.2,0.4c0,0.2,0,0.4,0,0.4v0.2c0,0.2,0,0.2,0,0.2c0,0.2,0,0.2,0,0.2c0,0.2,0,0.2,0,0.2v0.2l0,0l0,0
				c0-0.2-0.2-0.2-0.2-0.2l-0.2-0.2c0-0.2,0-0.2-0.2-0.2c0-0.2-0.2-0.2-0.2-0.2c-0.2-0.2-0.2-0.4-0.2-0.4c-0.2-0.2-0.2-0.4-0.4-0.5
				c-0.2-0.2-0.2-0.2-0.4-0.2c-0.2-0.2-0.4-0.2-0.5-0.2c-0.2,0-0.4,0-0.5,0c-0.2,0-0.2,0-0.2,0h-0.2c-0.2,0-0.2,0-0.2,0h-0.2l0,0
				l0,0c0.2,0,0.2-0.2,0.4-0.2s0.2,0,0.2-0.2c0.2,0,0.2-0.2,0.2-0.2c0.2-0.2,0.4-0.2,0.4-0.2c0.2-0.2,0.4-0.2,0.5-0.4
				c0.2-0.2,0.2-0.2,0.2-0.4c0.2-0.2,0.2-0.4,0.2-0.5c0-0.2,0-0.4,0-0.5s0-0.2,0-0.2v-0.2c0-0.2,0-0.2,0-0.2c0-0.2,0-0.2,0-0.2v-0.2
				l0,0l0,0c0,0.2,0,0.2,0.2,0.2c0,0.2,0.2,0.2,0.2,0.2s0,0.2,0.2,0.2c0,0.2,0.2,0.2,0.2,0.2c0.2,0.2,0.2,0.4,0.2,0.5
				c0,0.2,0.2,0.2,0.2,0.2c0.2,0.2,0.2,0.2,0.4,0.4c0.2,0.2,0.2,0.2,0.4,0.2c0.2,0.2,0.4,0.2,0.5,0.2s0.4,0,0.4,0c0.2,0,0.2,0,0.2,0
				c0.2,0,0.2,0,0.2,0h0.2c0.2,0,0.2,0,0.2,0C212.2,140.8,212.2,140.8,212.3,140.8L212.3,140.8z"/>
		</g>
		<g class="st1">
			<path class="st2" d="M252.5,177.4L252.5,177.4c-0.2,0.2-0.2,0.2-0.2,0.2h-0.2c-0.2,0-0.2,0.2-0.2,0.2c-0.2,0.2-0.2,0.2-0.4,0.2
				c-0.2,0-0.2,0.2-0.2,0.2c-0.2,0.2-0.2,0.2-0.4,0.2c-0.2,0.2-0.2,0.2-0.2,0.4c0,0.2-0.2,0.2-0.2,0.2c0,0.2,0,0.2,0,0.4
				c0,0.2,0,0.2,0,0.2v0.2c0,0.2,0,0.2,0,0.2c0,0.2,0,0.2,0,0.2v0.2l0,0l0,0c0-0.2,0-0.2-0.2-0.2c0-0.2,0-0.2-0.2-0.2v-0.2
				c0-0.2-0.2-0.2-0.2-0.2c-0.2-0.2-0.2-0.2-0.2-0.4c-0.2-0.2-0.2-0.4-0.4-0.4c-0.2,0-0.2-0.2-0.4-0.2s-0.2-0.2-0.4-0.2
				c-0.2,0-0.2,0-0.4,0c-0.2,0-0.2,0-0.2,0c-0.2,0-0.2,0-0.2,0c-0.2,0-0.2,0-0.2,0h0.2l0,0l0,0c0.2,0,0.2-0.2,0.2-0.2
				c0.2,0,0.2,0,0.2-0.2c0.2,0,0.2-0.2,0.2-0.2c0.2-0.2,0.2-0.2,0.4-0.2c0.2-0.2,0.4-0.2,0.4-0.4c0.2-0.2,0.2-0.2,0.2-0.4
				c0-0.2,0.2-0.2,0.2-0.4s0-0.2,0-0.4c0-0.2,0-0.2,0-0.2v-0.2c0-0.2,0-0.2,0-0.2c0-0.2,0-0.2,0-0.2v-0.2l0,0l0,0
				c0,0.2,0,0.2,0.2,0.2c0,0.2,0,0.2,0.2,0.2v0.2c0,0.2,0.2,0.2,0.2,0.2c0.2,0.2,0.2,0.2,0.2,0.4c0,0.2,0.2,0.2,0.2,0.2
				c0.2,0.2,0.2,0.2,0.2,0.4c0.2,0.2,0.2,0.2,0.4,0.2s0.2,0.2,0.4,0.2c0.2,0,0.2,0,0.4,0c0.2,0,0.2,0,0.2,0L252.5,177.4
				C252.5,177.2,252.5,177.2,252.5,177.4L252.5,177.4C252.3,177.4,252.3,177.4,252.5,177.4L252.5,177.4z"/>
		</g>
		<g class="st1">
			<path class="st2" d="M144.7,195.4L144.7,195.4c-0.2,0.2-0.2,0.2-0.2,0.2h-0.2c-0.2,0-0.2,0.2-0.2,0.2c-0.2,0.2-0.2,0.2-0.4,0.2
				c-0.2,0-0.2,0.2-0.2,0.2c-0.2,0.2-0.2,0.2-0.4,0.2c-0.2,0.2-0.2,0.2-0.2,0.4c0,0.2-0.2,0.2-0.2,0.4c0,0.2,0,0.2,0,0.4
				c0,0.2,0,0.2,0,0.2v0.2c0,0.2,0,0.2,0,0.2v0.2v0.2l0,0l0,0c0-0.2,0-0.2-0.2-0.2c0-0.2,0-0.2-0.2-0.2v-0.2c0-0.2-0.2-0.2-0.2-0.2
				c-0.2-0.2-0.2-0.2-0.2-0.4c-0.2-0.2-0.2-0.4-0.4-0.4c-0.2-0.2-0.2-0.2-0.4-0.2c-0.2-0.2-0.2-0.2-0.4-0.2s-0.2,0-0.4,0
				c-0.2,0-0.2,0-0.2,0h-0.2c-0.2,0-0.2,0-0.2,0h-0.2l0,0l0,0c0.2,0,0.2-0.2,0.2-0.2c0.2,0,0.2,0,0.2-0.2c0.2,0,0.2-0.2,0.2-0.2
				c0.2-0.2,0.2-0.2,0.4-0.2c0.2-0.2,0.4-0.2,0.4-0.4c0.2-0.2,0.2-0.2,0.2-0.4c0.2-0.2,0.2-0.2,0.2-0.4c0-0.2,0-0.2,0-0.4
				c0-0.2,0-0.2,0-0.2V194c0-0.2,0-0.2,0-0.2c0-0.2,0-0.2,0-0.2v-0.2l0,0l0,0c0,0.2,0,0.2,0.2,0.2c0,0.2,0,0.2,0.2,0.2v0.2
				c0,0.2,0.2,0.2,0.2,0.2c0.2,0.2,0.2,0.2,0.2,0.4s0.2,0.2,0.2,0.2c0.2,0.2,0.2,0.2,0.2,0.4c0.2,0.2,0.2,0.2,0.4,0.2
				c0.2,0.2,0.2,0.2,0.4,0.2s0.2,0,0.4,0c0.2,0,0.2,0,0.2,0h0.2c0.2,0,0.2,0,0.2,0h0.2C144.7,195.4,144.7,195.4,144.7,195.4
				L144.7,195.4z"/>
		</g>
		<g class="st1">
			<path class="st2" d="M206.8,176.3L206.8,176.3c-0.2-0.2-0.2-0.2-0.4-0.2c-0.2,0-0.2,0-0.2,0c-0.2,0-0.2,0-0.2-0.2
				c-0.2,0-0.4-0.2-0.5-0.2s-0.2,0-0.2,0c-0.2,0-0.4,0.2-0.4,0.2c-0.2,0.2-0.4,0.2-0.4,0.4c-0.2,0.2-0.2,0.2-0.2,0.2
				c-0.2,0.2-0.2,0.2-0.2,0.4c-0.2,0.2-0.2,0.2-0.2,0.2l-0.2,0.2c0,0.2-0.2,0.2-0.2,0.2c0,0.2-0.2,0.2-0.2,0.2v0.2l0,0l0,0
				c0-0.2,0-0.2,0.2-0.2c0-0.2,0-0.2,0.2-0.2c0-0.2,0-0.2,0-0.2c0-0.2,0-0.2,0.2-0.2c0-0.2,0.2-0.4,0.2-0.4c0-0.2,0-0.4-0.2-0.5
				c-0.2-0.2-0.2-0.2-0.2-0.4c-0.2-0.2-0.2-0.2-0.4-0.4c-0.2-0.2-0.2-0.2-0.4-0.2c-0.2-0.2-0.2-0.2-0.2-0.2c-0.2,0-0.2-0.2-0.2-0.2
				l-0.2-0.2h-0.2l0,0l0,0c0.2,0,0.2,0.2,0.4,0.2c0.2,0,0.2,0,0.2,0s0.2,0,0.2,0.2c0.2,0,0.4,0.2,0.4,0.2c0.2,0,0.4,0,0.5-0.2
				c0.2-0.2,0.2-0.2,0.4-0.2c0.2-0.2,0.2-0.2,0.4-0.4c0.2-0.2,0.2-0.2,0.2-0.4c0.2-0.2,0.2-0.2,0.2-0.2c0-0.2,0-0.2,0.2-0.2
				c0-0.2,0.2-0.2,0.2-0.2c0-0.2,0.2-0.2,0.2-0.2v-0.2l0,0l0,0c0,0.2,0,0.2-0.2,0.2c0,0.2,0,0.2-0.2,0.2c0,0.2,0,0.2,0,0.2
				c0,0.2,0,0.2-0.2,0.2c0,0.2-0.2,0.4-0.2,0.5s0,0.2,0,0.2l0.2,0.4c0.2,0.2,0.2,0.2,0.2,0.4c0.2,0.2,0.2,0.2,0.4,0.4
				c0.2,0.2,0.2,0.2,0.4,0.2c0.2,0.2,0.2,0.2,0.2,0.2s0.2,0,0.2,0.2c0.2,0,0.2,0.2,0.2,0.2C206.8,176.3,206.8,176.3,206.8,176.3
				C206.6,176.3,206.8,176.3,206.8,176.3L206.8,176.3z"/>
		</g>
		<g class="st1">
			<path class="st2" d="M283.5,164.2C283.3,164.2,283.3,164.2,283.5,164.2c-0.2,0.2-0.2,0.2-0.4,0.2c-0.2,0-0.2,0-0.2,0
				c-0.2,0-0.2,0.2-0.2,0.2c-0.2,0.2-0.4,0.2-0.4,0.2c-0.2,0-0.2,0.2-0.2,0.2c-0.2,0.2-0.2,0.2-0.4,0.4c-0.2,0.2-0.2,0.4-0.2,0.5
				c0,0.2-0.2,0.2-0.2,0.4c0,0.2,0,0.2,0,0.4s0,0.2,0,0.2v0.2c0,0.2,0,0.2,0,0.2c0,0.2,0,0.2,0,0.2v0.2l0,0l0,0
				c0-0.2-0.2-0.2-0.2-0.2l-0.2-0.2c0-0.2,0-0.2,0-0.2c0-0.2-0.2-0.2-0.2-0.2c-0.2-0.2-0.2-0.2-0.2-0.4c0-0.2-0.2-0.4-0.4-0.5
				c-0.2-0.2-0.2-0.2-0.4-0.2c-0.2-0.2-0.4-0.2-0.4-0.2c-0.2,0-0.4,0-0.4,0h-0.2H279c-0.2,0-0.2,0-0.2,0h-0.2l0,0l0,0
				c0.2,0,0.2-0.2,0.2-0.2c0.2,0,0.2,0,0.2-0.2c0.2,0,0.2-0.2,0.2-0.2c0.2-0.2,0.2-0.2,0.4-0.2s0.4-0.2,0.5-0.4
				c0.2-0.2,0.2-0.2,0.2-0.4c0-0.2,0.2-0.4,0.2-0.4c0-0.2,0-0.4,0-0.4v-0.2v-0.2c0-0.2,0-0.2,0-0.2c0-0.2,0-0.2,0-0.2v-0.2l0,0l0,0
				c0,0.2,0,0.2,0.2,0.2c0,0.2,0.2,0.2,0.2,0.2c0,0.2,0,0.2,0.2,0.2c0,0.2,0.2,0.2,0.2,0.2c0.2,0.2,0.2,0.4,0.2,0.4
				c0,0.2,0.2,0.2,0.2,0.2c0.2,0.2,0.2,0.2,0.4,0.4c0.2,0.2,0.2,0.2,0.4,0.2c0.2,0.2,0.4,0.2,0.4,0.2s0.2,0,0.4,0c0.2,0,0.2,0,0.2,0
				h0.2c0.2,0,0.2,0,0.2,0L283.5,164.2C283.3,164.2,283.3,164.2,283.5,164.2L283.5,164.2z"/>
		</g>
		<g class="st1">
			<g>
				<path class="st2" d="M225.2,179.2L225.2,179.2L225.2,179.2L225.2,179.2L225.2,179.2L225.2,179.2z"/>
			</g>
			<g>
				<path class="st2" d="M225.2,179.2L225.2,179.2L225.2,179.2L225.2,179.2z"/>
			</g>
		</g>
		<g class="st1">
			<path class="st2" d="M225,126.7c-53.9,0-97.7,43.9-97.7,97.7c0,6.6,0.7,13.2,2,19.6c0.2,1.2,0.5,2.5,0.9,3.9
				c0.7,2.7,1.4,5.5,2.3,8c0.5,1.8,1.2,3.6,2,5.4c2,4.6,4.1,9.1,6.6,13.4c0.9,1.4,1.8,3,2.7,4.5c2.3,3.4,4.8,6.6,7.5,9.6
				c0.9,1.1,1.8,2.1,2.7,3c2.3,2.5,5,5,7.5,7.1c1.4,1.2,3,2.5,4.5,3.6c16.4,12.3,36.7,19.8,58.9,19.8c22.1,0,42.4-7.3,58.9-19.8
				c1.6-1.2,3-2.3,4.5-3.6c2.7-2.3,5.2-4.6,7.5-7.1c1.1-1.1,1.8-2,2.7-3c2.7-3,5.2-6.2,7.3-9.5c1.1-1.4,1.8-2.9,2.7-4.3
				c2.5-4.3,4.8-8.6,6.6-13.2c0.7-1.8,1.4-3.6,2.1-5.4c0.9-2.7,1.8-5.4,2.3-8.2c0.4-1.2,0.5-2.5,0.9-3.9c1.2-6.2,2-12.8,2-19.6
				C322.7,170.4,279,126.7,225,126.7z M225,318.3c-15.3,0-29.8-3.7-42.8-10.2c0.9,0.2,2,0.2,3,0.2c5.5,0,8.4-1.6,10.9-3.2
				c2.3-1.4,4.5-2.7,8.9-2.7s6.6,1.2,8.9,2.7c2.5,1.4,5.4,3.2,10.9,3.2c5.5,0,8.4-1.6,10.9-3.2c2.3-1.4,4.5-2.7,8.9-2.7
				s6.6,1.2,8.9,2.7c2.5,1.4,5.5,3.2,10.9,3.2c1.1,0,1.8-0.2,2.7-0.2C255,314.5,240.3,318.3,225,318.3z M282.4,298.5
				c-4.1,0.4-6.4,1.8-8.6,3c-2.3,1.4-4.5,2.7-8.9,2.7s-6.6-1.2-8.9-2.7c-2.5-1.4-5.4-3.2-10.9-3.2s-8.4,1.6-10.9,3.2
				c-2.3,1.4-4.5,2.7-8.9,2.7s-6.6-1.2-8.9-2.7c-2.5-1.4-5.4-3.2-10.9-3.2c-5.5,0-8.4,1.6-10.9,3.2c-2.3,1.4-4.5,2.7-8.9,2.7
				s-6.6-1.2-8.9-2.7c-2.3-1.2-4.6-2.7-8.9-3.2c-3.4-2.7-6.8-5.5-9.8-8.9c2-1.1,4.1-2,7.8-2c4.5,0,6.6,1.2,8.9,2.7
				c2.5,1.4,5.5,3.2,10.9,3.2c5.5,0,8.4-1.6,10.9-3.2c2.3-1.4,4.5-2.7,8.9-2.7s6.6,1.2,8.9,2.7c2.5,1.4,5.4,3.2,10.9,3.2
				c5.5,0,8.4-1.6,10.9-3.2c2.3-1.4,4.5-2.7,8.9-2.7s6.6,1.2,8.9,2.7c2.5,1.4,5.5,3.2,10.9,3.2c5.5,0,8.4-1.6,10.9-3.2
				c2.3-1.4,4.5-2.7,8.9-2.7c3.6,0,5.5,0.7,7.5,1.8C289.4,292.8,286,295.8,282.4,298.5z M295.3,286.7c-2.3-1.4-5.2-2.9-10.3-2.9
				c-5.5,0-8.4,1.6-10.9,3.2c-2.3,1.4-4.5,2.7-8.9,2.7s-6.6-1.2-8.9-2.7c-2.5-1.4-5.4-3.2-10.9-3.2c-5.5,0-8.4,1.6-10.9,3.2
				c-2.3,1.4-4.5,2.7-8.9,2.7s-6.6-1.2-8.9-2.7c-2.5-1.4-5.4-3.2-10.9-3.2c-5.5,0-8.4,1.6-10.9,3.2c-2.3,1.4-4.5,2.7-8.9,2.7
				s-6.6-1.2-8.9-2.7c-2.5-1.4-5.4-3.2-10.9-3.2c-5.2,0-8,1.4-10.5,3c-2.3-2.5-4.5-5.2-6.4-8c3.6-0.5,5.7-1.8,7.8-3
				c2.3-1.4,4.5-2.7,8.9-2.7s6.6,1.2,8.9,2.7c2.5,1.4,5.5,3.2,10.9,3.2c5.5,0,8.4-1.6,10.9-3.2c2.3-1.4,4.5-2.7,8.9-2.7
				s6.6,1.2,8.9,2.7c2.5,1.4,5.4,3.2,10.9,3.2c5.5,0,8.4-1.6,10.9-3.2c2.3-1.4,4.5-2.7,8.9-2.7s6.6,1.2,8.9,2.7
				c2.5,1.4,5.5,3.2,10.9,3.2c5.5,0,8.4-1.6,10.9-3.2c2.3-1.4,4.5-2.7,8.9-2.7s6.6,1.2,8.9,2.7c2,1.2,4.1,2.5,7.7,3
				C299.4,281.5,297.4,284,295.3,286.7z M304,275.1c-3.9-0.2-5.9-1.2-8.2-2.7c-2.5-1.4-5.4-3.2-10.9-3.2c-5.5,0-8.4,1.6-10.9,3.2
				c-2.3,1.4-4.5,2.7-8.9,2.7s-6.6-1.2-8.9-2.7c-2.5-1.4-5.4-3.2-10.9-3.2c-5.5,0-8.4,1.6-10.9,3.2c-2.3,1.4-4.5,2.7-8.9,2.7
				s-6.6-1.2-8.9-2.7c-2.5-1.4-5.4-3.2-10.9-3.2c-5.5,0-8.4,1.6-10.9,3.2c-2.3,1.4-4.5,2.7-8.9,2.7s-6.6-1.2-8.9-2.7
				c-2.5-1.4-5.4-3.2-10.9-3.2s-8.4,1.6-10.9,3.2c-2.3,1.4-4.3,2.5-8.4,2.7c-2.3-3.6-4.5-7.5-6.2-11.4c1.6,0.5,3.4,0.7,5.7,0.7
				c5.5,0,8.4-1.6,10.9-3.2c2.3-1.4,4.5-2.7,8.9-2.7s6.6,1.2,8.9,2.7c2.5,1.4,5.5,3.2,10.9,3.2c5.5,0,8.4-1.6,10.9-3.2
				c2.3-1.4,4.5-2.7,8.9-2.7s6.6,1.2,8.9,2.7c2.5,1.4,5.4,3.2,10.9,3.2s8.4-1.6,10.9-3.2c2.3-1.4,4.5-2.7,8.9-2.7
				c4.5,0,6.6,1.2,8.9,2.7c2.5,1.4,5.5,3.2,10.9,3.2c5.5,0,8.4-1.6,10.9-3.2c2.3-1.4,4.5-2.7,8.9-2.7s6.6,1.2,8.9,2.7
				c2.5,1.4,5.5,3.2,10.9,3.2c2.1,0,3.9-0.2,5.4-0.7C308.5,267.8,306.3,271.4,304,275.1z M312.4,258.7c-2,1.1-4.1,1.8-7.7,1.8
				c-4.5,0-6.6-1.2-8.9-2.7c-2.5-1.4-5.4-3.2-10.9-3.2c-5.5,0-8.4,1.6-10.9,3.2c-2.3,1.4-4.5,2.7-8.9,2.7s-6.6-1.2-8.9-2.7
				c-2.5-1.4-5.4-3.2-10.9-3.2c-5.5,0-8.4,1.6-10.9,3.2c-2.3,1.4-4.5,2.7-8.9,2.7s-6.6-1.2-8.9-2.7c-2.5-1.4-5.4-3.2-10.9-3.2
				c-5.5,0-8.4,1.6-10.9,3.2c-2.3,1.4-4.5,2.7-8.9,2.7s-6.6-1.2-8.9-2.7c-2.5-1.4-5.4-3.2-10.9-3.2s-8.4,1.6-10.9,3.2
				c-2.3,1.4-4.5,2.7-8.9,2.7c-3.7,0-5.9-0.9-8-2.1c-1.4-3.4-2.5-7.1-3.4-10.7h181.7C314.9,251.6,313.8,255.1,312.4,258.7z
				 M164.5,243.9l3.6-16.6l1.8,16.6H164.5z M239.4,195.2l-14.8,14.4l-14.8-14.4H239.4L239.4,195.2z M212,191.3l12.8-8l12.8,8H212z
				 M193.6,218.6l27.3-3.6l-16.1,26.8L193.6,218.6z M201.5,243.9h-25.7l14.8-22.8L201.5,243.9z M224.8,216.3l16.6,27.6h-33.4
				L224.8,216.3z M228.4,214.8l27.3,3.6l-11.1,23.2L228.4,214.8z M258.9,220.9l14.8,22.8h-25.9L258.9,220.9z M262.1,218.6l16.9-1.2
				l-2.9,22.8L262.1,218.6z M259.6,214.8l-9.8-16.2l26,15L259.6,214.8z M249.6,194.1l6.6-1.6l11.9,12.3L249.6,194.1z M255,214.5
				l-25.9-3.4l15-14.6L255,214.5z M244.6,191.1L244.6,191.1l-7.1-4.5l11.4,3.4L244.6,191.1z M204.8,191.1l-4.5-1.1l11.6-3.4
				L204.8,191.1z M205.6,196.5l15,14.6l-25.9,3.4L205.6,196.5z M199.5,198.6l-9.8,16.2l0,0l-16.1-1.2L199.5,198.6z M181.7,204.5
				l11.6-12.1l6.6,1.6L181.7,204.5z M187.5,218.6l-13.9,21.6l-2.5-22.8L187.5,218.6z M279.6,243.9l2.1-17.1l3.7,17.1H279.6z
				 M316.9,243.9h-27.5L283,215c0-0.2,0-0.2-0.2-0.2l0,0v-0.2v-0.2c-0.2-0.2-0.2-0.4-0.4-0.5l0,0L258,189l-0.2-0.2
				c-0.2-0.2-0.2-0.2-0.2-0.2l-0.2-0.2c-0.2,0-0.2-0.2-0.2-0.2l-0.2-0.2c-0.2-0.2-0.2-0.2-0.4-0.2l-31.9-9.1h-0.2c0,0,0,0-0.2,0
				c0,0,0,0-0.2,0l0,0l0,0c-0.2,0-0.2,0-0.2,0c-0.2,0-0.2,0-0.2,0h-0.2c-0.2,0-0.2,0-0.2,0h-0.2h-0.2l0,0c0,0,0,0-0.2,0h-0.2
				l-31.9,9.1h-0.2c-0.2,0-0.2,0.2-0.2,0.2l-0.2,0.2l-0.2,0.2c-0.2,0.2-0.2,0.2-0.2,0.2l-0.2,0.2c-0.2,0.2-0.2,0.2-0.2,0.2l-0.2,0.2
				l-23.9,25l-0.2,0.2l-0.2,0.2l-0.2,0.2c-0.2,0.2-0.2,0.4-0.2,0.5c0,0.2-0.2,0.2-0.2,0.2v0.2l-6.2,28.9H133
				c-1.2-6.2-2.1-12.8-2.1-19.6c0-51.7,42.1-93.8,93.8-93.8s93.8,42.1,93.8,93.8C318.8,231.1,318.1,237.5,316.9,243.9z"/>
		</g>
		<g class="st1">
			<g>
				<path class="st2" d="M301.2,215.5c0,0.2,0,0.4,0,0.7V215.5C301.2,215.4,301.2,215.4,301.2,215.5z"/>
			</g>
			<g>
				<path class="st2" d="M313.8,234.5c-0.2,0.7-0.7,1.1-1.2,1.1c-0.2,0-0.2,0-0.4-0.2c-0.4-0.2-5.2-1.2-8.4-4.3v13
					c0,0.7-0.5,1.4-1.4,1.4s-1.4-0.5-1.4-1.4v-13c-3.2,3.2-8,4.3-8.4,4.3c-0.2,0-0.2,0.2-0.4,0.2c-0.5,0-1.2-0.4-1.2-1.1
					c-0.2-0.7,0.4-1.4,1.1-1.6c0.2,0,2.3-0.5,4.5-1.8c2.3-1.2,4.5-3.2,4.5-6.1v-2.5c-2.3,2.3-5.4,3.2-7.3,3.4c-0.2,0-0.2,0-0.2,0
					c-0.7,0-1.2-0.5-1.4-1.2c-0.2-0.7,0.5-1.4,1.2-1.4c0.4-0.2,7.3-1.1,7.7-7.1l0,0c0-0.2,0-0.4,0-0.7c0-0.2,0-0.2,0-0.2v-1.2
					c-2.3,2.5-5,3-5,3c-0.7,0.2-1.4-0.4-1.6-1.2c-0.2-0.7,0.4-1.4,1.2-1.6c0.2-0.2,5.4-1.1,5.4-8.6v0.2c0-0.7,0.5-1.4,1.4-1.4
					c0.4,0,0.7,0.2,1.1,0.4c0.4,0.2,0.4,0.5,0.4,1.1v0.2c0,7.7,5.2,8.6,5.4,8.6c0.7,0.2,1.2,0.9,1.2,1.6c-0.2,0.7-0.7,1.2-1.2,1.2
					c-0.2,0-0.2,0-0.2,0s-2.7-0.5-5-3v1.1c0,0.2,0,0.2,0,0.2c0,0.2,0,0.2,0,0.2v0.5c0-0.2,0-0.2,0-0.2c0.2,6.2,7.3,7.1,7.7,7.1
					c0.7,0.2,1.2,0.7,1.2,1.4c-0.2,0.7-0.7,1.2-1.4,1.2c-0.2,0-0.2,0-0.2,0c-2.1-0.2-5.2-1.2-7.3-3.4v2.3c0,0.2,0,0.2,0,0.2
					c0,5.7,8.9,7.8,9.1,7.8C313.6,233,314.2,233.9,313.8,234.5z"/>
			</g>
			<g>
				<path class="st2" d="M303.8,216.1L303.8,216.1c0,0.2,0,0.2,0,0.2v-0.5C303.8,215.9,303.8,215.9,303.8,216.1z"/>
			</g>
			<g>
				<path class="st2" d="M301.2,215.5c0,0.2,0,0.4,0,0.7V215.5L301.2,215.5z"/>
				<path class="st2" d="M303.8,216.1L303.8,216.1c0,0.2,0,0.2,0,0.2v-0.5C303.8,215.9,303.8,215.9,303.8,216.1z"/>
			</g>
			<g>
				<path class="st3" d="M302.6,205.9"/>
			</g>
		</g>
		<g class="st1">
			<g>
				<path class="st2" d="M146.2,216.1L146.2,216.1L146.2,216.1v-0.4C146.2,215.9,146.2,215.9,146.2,216.1z"/>
				<path class="st2" d="M148.1,223.8c0.2,0.2,0.2,0.2,0.2,0.2L148.1,223.8z"/>
				<path class="st2" d="M159,234.5c-0.2,0.7-0.7,1.1-1.2,1.1c-0.2,0-0.2,0-0.4-0.2c-0.4-0.2-5.2-1.2-8.4-4.3v13
					c0,0.7-0.5,1.4-1.4,1.4s-1.4-0.5-1.4-1.4v-13c-3.2,3.2-8,4.3-8.4,4.3c-0.2,0-0.2,0.2-0.4,0.2c-0.5,0-1.2-0.4-1.2-1.1
					c-0.2-0.7,0.4-1.4,1.1-1.6c0.2,0,2.3-0.5,4.5-1.8c2.3-1.2,4.5-3.2,4.5-6.1v-2.5c-2.3,2.1-5.4,3.2-7.3,3.4c-0.2,0-0.2,0-0.2,0
					c-0.7,0-1.2-0.5-1.4-1.2c-0.2-0.7,0.5-1.4,1.2-1.4c0.4-0.2,7.3-0.9,7.7-7.1v0l0,0c0-0.2,0-0.2,0-0.4v-1.6c-2.3,2.5-5,3-5,3
					c-0.7,0.2-1.4-0.4-1.6-1.2c-0.2-0.7,0.4-1.4,1.2-1.6c0.2-0.2,5.4-1.1,5.4-8.6v0.2c0-0.7,0.5-1.4,1.4-1.4l0,0
					c0.7,0,1.4,0.5,1.4,1.4v0.2c0,7.7,5.2,8.6,5.4,8.6c0.7,0.2,1.2,0.9,1.2,1.6c-0.2,0.7-0.7,1.2-1.2,1.2c-0.2,0-0.2,0-0.2,0
					s-2.7-0.5-5-3v0.9c0,0.2,0,0.2,0,0.4c0,0.2,0,0.4,0,0.5l0,0c0.2,6.2,7.3,7.1,7.7,7.1c0.7,0.2,1.2,0.7,1.2,1.4s-0.7,1.2-1.4,1.2
					c-0.2,0-0.2,0-0.2,0c-2.1-0.2-5.2-1.2-7.3-3.4v2.3c0,0.2,0,0.2,0,0.2c0,5.7,8.9,7.8,9.1,7.8C158.7,233,159.2,233.9,159,234.5z"
					/>
			</g>
			<g>
				<path class="st2" d="M148.1,223.8c0.2,0.2,0.2,0.2,0.2,0.2L148.1,223.8z"/>
			</g>
			<g>
				<path class="st3" d="M147.6,205.9"/>
			</g>
		</g>
	</g>
	<g>
		<path class="st2" d="M206.5,23.6c-0.4-4.6-0.5-7.8-1.1-11.2c0.9,0,2.1,0.2,3.4,0c1.4-0.2,2.5-0.4,3.4-0.4c0,3.6,0.2,6.8,0.4,11.4
			l0.4,5.5c0.2,3,0.4,6.2,0.5,8.2c3-0.2,6.2-0.5,9.3-1.1c0,0.5-0.2,1.1-0.2,1.8c0.2,0.9,0.2,1.2,0.4,1.8c-1.4,0-3.4,0-7.1,0.2
			c-6.6,0.4-7.8,0.5-8.6,0.7c0-3.6-0.2-6.8-0.4-11.4L206.5,23.6z"/>
		<path class="st2" d="M226.8,22.2c2.3-1.8,5.2-2.7,7.8-2.5c4.3,0.2,7.5,2.1,7.1,7.1c-0.2,3.4-0.4,6.4-0.5,9.3
			c-0.2,2.5,0.5,2.9,2.3,3v1.1c-1.6,0.7-2.5,1.1-3.7,0.9c-2-0.2-3.2-1.2-3.7-3.2c-1.4,1.6-3,2.9-5.5,2.7c-4.1-0.2-5.7-3-5.5-5.7
			c0.2-3.6,2.7-5,6.4-5.7c4.6-0.9,5.2-1.2,5.2-2.7c0.2-2-1.2-3.6-3.7-3.7c-1.8-0.2-4.1,0.9-5,2.1h-0.4L226.8,22.2z M236.1,29.5
			c-2.3,1.2-5.5,0.9-5.7,5c-0.2,2,0.7,3.2,2.1,3.2c1.8,0.2,3.2-1.2,3.2-3.9C236.1,31.5,236.1,30.4,236.1,29.5z"/>
		<path class="st2" d="M248.4,24.2c0.7-5.4,1.4-9.5,1.8-14.1c0.7,0.2,1.8,0.5,3,0.7c1.2,0.2,2.3,0.4,3,0.4
			c-0.9,4.5-1.6,8.6-3.2,19.1c-0.2,0.7-0.2,0.9,0.2,0.9c0.5,0.2,4.1-3,9.1-7.8c0.5,0.2,1.2,0.4,1.8,0.5c0.5,0.2,1.2,0.2,2.3,0.2
			c-1.6,1.4-7,5.2-8.4,6.4c0.5,1.2,5,11.8,5.4,13.2c-1.1-0.4-2.1-0.5-3.2-0.7c-1.1-0.2-2.1-0.2-3.2-0.4c-0.5-1.4-3.7-10.2-4.3-10.3
			c-0.4,0-0.4,0.2-0.9,3.9c-0.2,1.4-0.5,4.5-0.5,5.4c-1.1-0.2-2-0.5-2.9-0.7c-1.1-0.2-2-0.2-3-0.4c0.9-4.5,1.6-8.6,2.5-13.9
			L248.4,24.2z"/>
		<path class="st2" d="M272.6,35.8c-1.2,4.3-0.4,8,3.4,8.9c1.8,0.5,3.6,0.4,5.4-0.5l0.4,0.5l-1.4,2c-1.6,0.7-3.6,1.1-6.4,0.2
			c-5.2-1.4-8.9-5.7-7-12.5s6.6-9.1,11.9-7.8c5.2,1.4,7.1,5.5,5.7,11.1c-0.2,0.7-0.4,1.1-0.4,1.2L272.6,35.8z M279.2,35.6
			c1.1-4.1,0.9-6.8-1.2-7.3c-2.3-0.5-4.1,2.7-5,5.7L279.2,35.6z"/>
		<path class="st2" d="M321.8,34.5c0.5,0.4,1.1,0.7,1.6,1.1c0.5,0.4,1.2,0.4,1.8,0.5c-5.2,4.6-15.2,13.9-21.9,21
			c-0.5-0.4-1.1-0.7-1.6-1.1c-0.5-0.4-1.2-0.4-1.8-0.5c0.5-7.5,1.4-23.5,1.6-30.3c1.1,0.7,2.1,1.2,3.2,1.6c1.1,0.5,2.3,0.9,3.4,1.2
			c-0.9,6.2-1.2,14.4-1.8,21.8C311.7,45,317.4,39.3,321.8,34.5z"/>
		<path class="st2" d="M321.1,54.3c1.6-2.9,3-5.4,4.3-8c0.5,0.5,1.4,1.1,2.5,1.8c1.1,0.7,2.1,1.1,2.7,1.4c-1.6,2.3-3.2,4.8-5,7.7
			l-0.7,1.4c-1.6,2.9-3,5.4-4.3,8c-0.5-0.4-1.4-1.1-2.5-1.8c-1.1-0.7-2.1-1.1-2.7-1.4c1.6-2.3,3.2-4.8,5-7.7L321.1,54.3z
			 M333.4,38.3c1.6,0.9,2.1,2.9,1.2,4.5c-0.9,1.6-2.9,2.1-4.5,1.2s-2.1-2.9-1.2-4.5C330.1,37.9,332,37.4,333.4,38.3z"/>
		<path class="st2" d="M334.3,63.4c-2.5,3.6-3,7.3,0,9.5c1.6,1.1,3.2,1.6,5.2,1.4l0.2,0.5l-2.1,1.4c-1.6,0.2-3.6-0.4-6.2-2.1
			c-4.3-3-6.2-8.4-2.1-14.3c4.1-5.7,9.3-6.2,13.9-3.2c4.3,3,5,7.5,1.6,12.3c-0.4,0.5-0.5,0.9-0.7,1.1L334.3,63.4z M340.6,65.5
			c2.3-3.4,3.2-6.1,1.4-7.3c-2-1.4-4.6,1.1-6.6,3.6L340.6,65.5z"/>
		<path class="st2" d="M359.8,90c4.3-2.5,8.6-5,12.7-7.7c0.4,0.4,0.7,0.9,1.1,1.2c0.4,0.4,0.9,0.5,1.4,1.1
			c-2.3,0.7-12.8,6.4-18.5,10c-0.5-0.5-1.1-1.2-1.4-1.6c-0.5-0.5-1.2-1.1-1.8-1.4c2.1-4.3,4.5-9.1,6.2-12.7l-0.2-0.2
			c-4.1,2.3-8.2,4.6-12.1,7.1c-0.5-0.5-1.1-1.2-1.6-1.8c-0.5-0.5-1.2-1.1-2-1.4c3.2-6.1,8.2-17.1,8.9-18.9c0.7,0.9,1.4,1.6,2.3,2.3
			c0.7,0.7,1.6,1.2,2.3,1.8c-2.3,4.3-4.6,9.3-6.6,13.2l0.2,0.2c4.3-2.5,8.6-5,12.7-7.7c0.5,0.5,1.1,1.2,1.6,1.6
			c0.5,0.5,1.2,1.1,1.8,1.4C364.3,81.1,362,85.5,359.8,90L359.8,90z"/>
		<path class="st2" d="M401.9,116.9c1.1-2.9,1.1-5.9-1.2-9.1c-2.9-4.3-9.3-6.2-16.4-1.2c-5.4,3.7-7.3,9.5-3.7,14.8
			c0.7,1.2,2.3,3,3.2,3.2c0.5-0.4,1.4-0.9,2.5-1.4c3.6-2.5,5-3.7,5.7-4.3c0.2,0.5,0.5,1.2,1.6,2.7c1.1,1.6,1.6,2.3,2.1,2.7
			c-0.7,0.4-3.7,2.1-5.9,3.6c-1.4,1.1-3.2,2.3-3.6,2.7c-2.9-2.3-5.5-5-7.7-8c-5.4-7.8-4.6-16.4,2.1-21c8.6-5.9,17.1-2.7,22.5,5.2
			c2.3,3.4,3.2,6.2,3.6,9.5c-1.4,0.4-2.9,0.7-4.1,1.4L401.9,116.9z"/>
		<path class="st2" d="M401.8,127.8c4.6-2.5,8.4-4.6,12.3-7c0.2,0.7,0.7,1.8,1.2,2.9c0.5,1.1,1.2,2.1,1.6,2.7c-4.3,2-8,3.7-12.7,6.4
			l-2.3,1.2c-4.6,2.5-8.4,4.6-12.3,7c-0.2-0.7-0.7-1.8-1.2-2.9c-0.5-1.1-1.2-2.1-1.6-2.7c4.3-2,8-3.7,12.7-6.4L401.8,127.8z"/>
		<path class="st2" d="M407.8,138c2.5,1.2,4.6,3.6,5.7,5.9c1.6,4.1,1.2,7.7-3.2,9.5c-3.2,1.4-5.9,2.3-8.6,3.6
			c-2.3,1.1-2.3,1.8-1.6,3.4l-0.9,0.4c-1.4-1.1-2-1.8-2.5-3c-0.7-1.8-0.2-3.4,1.2-4.8c-2.1-0.5-3.7-1.4-4.8-3.7
			c-1.6-3.7,0.2-6.4,2.7-7.5c3.2-1.4,5.5,0.2,7.8,3.2c2.9,3.7,3.2,4.1,4.6,3.4c1.8-0.7,2.7-2.7,1.8-5c-0.7-1.8-2.7-3.4-4.1-3.6
			l-0.2-0.4L407.8,138z M405.3,149.7c-2.1-1.6-3.2-4.5-7-3c-1.8,0.7-2.5,2.1-2,3.4c0.7,1.6,2.5,2.3,5,1.2
			C403.5,150.3,404.6,150.1,405.3,149.7z"/>
		<path class="st2" d="M417.3,163.6L417.3,163.6c2.5,1.1,4.5,2.7,5.2,5.2c0.5,2.3-0.4,4.5-2.5,6.1c2.9,1.1,4.8,2.9,5.4,5.2
			c1.1,3.9-0.5,6.8-5.7,8.2c-2.7,0.7-4.6,1.1-6.6,1.6c-1.6,0.4-3.7,1.1-5.7,1.6c-0.2-0.7-0.4-1.8-0.5-3c-0.4-1.2-0.7-2.3-1.1-3
			c3-0.4,6.8-1.4,11.4-2.5c3.4-0.9,4.5-2.5,4.1-4.5c-0.7-2.5-3.6-2.5-5.4-2l-2.9,0.7c-3.2,0.9-6.1,1.6-8.7,2.7
			c-0.2-0.7-0.4-1.8-0.5-3c-0.4-1.2-0.7-2.3-1.1-3c2.9-0.5,5.7-1.2,8.9-2.1l2.5-0.7c3.2-0.9,4.8-2,4.3-4.3c-0.5-2.3-3.2-2.9-6.8-1.8
			l-1.6,0.4c-3.2,0.9-6.1,1.6-8.7,2.7c-0.2-0.7-0.4-1.8-0.5-3c-0.4-1.2-0.7-2.3-1.1-3c2.9-0.5,5.7-1.2,8.9-2.1l1.6-0.4
			c3.2-0.9,6.1-1.6,8.7-2.7c0.2,1.1,0.4,2,0.5,2.9c0.4,1.1,0.5,1.8,1.1,2.9L417.3,163.6z"/>
		<path class="st2" d="M413.2,194.5c5.4-0.5,9.5-1.2,14.1-1.8c0,1.1,0,2,0.2,2.9c0.2,1.1,0.4,1.8,0.5,2.7c-0.9,0-2.3,0-3.6,0.2v0.2
			c2.3,0.5,4.3,2.5,4.6,5.4c0.5,4.1-2.1,8.2-9.3,9.1c-7.8,0.9-11.2-2.9-11.6-7c-0.4-2.5,0.5-4.5,2.3-5.5v-0.2
			c-3.9,0.4-11.2,1.2-13.2,1.8c0-0.7,0-1.8-0.2-3c-0.2-1.2-0.4-2.3-0.5-3c4.6-0.4,8.9-0.5,14.1-1.2L413.2,194.5z M426.2,202.3
			c-0.2-2.1-2.7-3.6-8.7-3c-5,0.5-7.1,2.1-7,4.5c0.4,2.3,3,3.6,8.4,3C424.4,206.3,426.4,204.5,426.2,202.3z"/>
		<path class="st2" d="M420.3,217.5c3.4-0.2,6.2-0.2,9.1-0.5c-0.2,0.7-0.2,1.8-0.2,3s0.2,2.3,0.4,3c-2.9-0.2-5.7-0.2-9.1-0.2h-1.6
			c-3.4,0.2-6.2,0.2-9.1,0.5c0.2-0.7,0.2-1.8,0.2-3s-0.2-2.3-0.4-3c2.9,0.2,5.7,0.2,9.1,0.2H420.3z M440.3,219.8
			c0,1.8-1.4,3.2-3.2,3.4c-1.8,0-3.2-1.4-3.4-3.2c-0.2-1.8,1.4-3.2,3.2-3.4C438.7,216.6,440.3,217.9,440.3,219.8z"/>
		<path class="st2" d="M426.2,234.5L426.2,234.5c2.1,1.8,3.4,3.9,3.2,6.4c-0.4,4.1-2.7,6.2-8,5.9c-2.7-0.2-4.6-0.5-7-0.5
			c-1.8-0.2-3.7-0.2-6.1-0.2c0.2-0.7,0.4-1.8,0.4-3c0.2-1.2,0.2-2.3,0-3c3,0.5,7,0.9,11.8,1.2c3.4,0.2,5.2-0.9,5.2-3
			c0.2-2.5-2.1-3.7-5.7-3.9l-1.6-0.2c-3.4-0.2-6.2-0.4-9.1-0.4c0.2-0.7,0.4-1.8,0.4-3c0.2-1.2,0-2.3,0-3c2.9,0.4,5.7,0.7,9.1,1.1
			l1.6,0.2c3.4,0.2,6.2,0.4,9.1,0.4c-0.2,1.1-0.4,1.8-0.4,2.9c0,1.1,0,2,0,3L426.2,234.5z"/>
		<path class="st2" d="M423.5,266.9L423.5,266.9c-1.2,1.1-3,1.6-5,1.2c-4.1-0.7-6.1-4.5-5.4-9.1c0.2-0.5,0.4-1.1,0.4-1.8
			c0.2-0.7-0.5-1.2-1.2-1.4c-1.2-0.2-2.3,0.5-2.7,2.7l-0.5,3c-0.9,4.5-2.9,6.2-6.4,5.5c-6.4-1.2-7.5-7.5-6.6-12.3
			c0.9-5,3.7-7.7,7-7.1c2.5,0.5,3.7,2.3,4.3,5h0.2c0.9-1.2,2.1-2,3.6-1.8c1.8,0.4,3.4,2.1,3.6,4.5h0.2c0.7-1.6,1.6-2.7,2.9-3.4
			c1.2-0.7,2.7-0.9,4.5-0.5c4.1,0.7,5.9,4.6,5,9.8c-0.2,1.1-0.5,2-0.7,3c-0.2,0.7-0.4,1.4-0.5,2.3c-0.2,1.4-0.5,2.9-0.7,4.3
			c-0.4-0.2-0.5-0.2-1.1-0.4c-0.4-0.2-0.7-0.2-1.1-0.2L423.5,266.9z M406.2,256.7c0.4-1.4,0.4-2.3,0.2-3c-0.2-0.7-1.4-1.8-3.2-2.3
			c-3-0.5-5.2,1.6-5.5,4.5c-0.5,3.2,1.2,5.5,3.9,5.9C404.6,262.5,405.5,260.5,406.2,256.7z M420.3,257.1c-3.6-0.7-5,0.5-5.2,1.8
			c-0.4,1.8,1.1,2.9,4.6,3.6s5.2-0.2,5.4-1.6C425.3,258.9,423.7,257.6,420.3,257.1z"/>
		<path class="st2" d="M405.9,285.1c-0.5,1.8-2.5,2.7-4.3,2.1s-2.7-2.5-2.1-4.3c0.5-1.8,2.5-2.7,4.3-2.1
			C405.5,281.4,406.6,283.3,405.9,285.1z"/>
		<path class="st2" d="M407.8,309.2c4.1,2.1,7,3.4,10.3,4.8c-0.5,0.7-1.1,1.6-1.6,3c-0.5,1.2-1.1,2.3-1.4,3.2
			c-3.2-1.8-5.9-3.4-10-5.4l-5-2.5c-2.7-1.4-5.5-2.7-7.5-3.6c-1.4,2.7-2.7,5.5-3.7,8.6c-0.5-0.4-0.7-0.5-1.6-1.1
			c-0.9-0.5-1.2-0.5-1.6-0.7c0.7-1.2,1.8-3,3.4-6.2c3-6.1,3.4-7,3.7-7.8c3.2,1.8,5.9,3.4,10,5.4L407.8,309.2z"/>
		<path class="st2" d="M398.9,327.6c0.4,2.9-0.4,5.7-1.8,8c-2.3,3.6-5.5,5.4-9.8,2.7c-3-1.8-5.4-3.6-7.8-5.2
			c-2.1-1.4-2.7-0.9-3.7,0.5l-0.7-0.5c0.2-1.8,0.4-2.7,1.1-3.7c1.1-1.6,2.7-2.1,4.6-1.6c-0.7-2-1.1-4.1,0.4-6.1
			c2.3-3.4,5.5-3.4,7.7-2c3,2,3,4.8,1.8,8.4c-1.6,4.5-1.4,5-0.4,5.7c1.6,1.1,3.7,0.7,5.2-1.4c1.1-1.6,1.2-4.1,0.7-5.4l0.2-0.2
			L398.9,327.6z M387.8,332c0.2-2.7,2.1-5.2-1.4-7.3c-1.6-1.1-3.2-1.1-3.9,0.4c-1.1,1.4-0.5,3.4,1.8,4.6
			C386.2,330.9,387.1,331.5,387.8,332z"/>
		<path class="st2" d="M386.2,345.2c4.3,3.4,7.5,5.9,11.2,8.7c-0.5,0.5-1.4,1.4-2.1,2.3s-1.4,1.8-1.8,2.5c-3.4-3-6.6-5.7-14.8-12.5
			c-0.5-0.5-0.7-0.5-0.7-0.4c-0.4,0.4,0.5,5,2.1,11.8c-0.5,0.5-1.1,0.9-1.4,1.4c-0.4,0.5-0.7,1.1-1.2,1.8c-0.4-2.1-1.1-8.6-1.2-10.3
			c-1.2-0.2-12.5-1.6-14.3-2.1c0.7-0.9,1.6-1.6,2.1-2.3c0.7-0.7,1.2-1.6,1.8-2.5c1.4,0.2,10.7,2,11.1,1.4c0.2-0.2,0.2-0.4-3-2.7
			c-1.2-0.9-3.6-2.7-4.5-3.2c0.7-0.7,1.4-1.4,2.1-2.1c0.5-0.7,1.2-1.6,1.6-2.5c3.4,3,6.6,5.7,10.9,9.3L386.2,345.2z"/>
		<path class="st2" d="M363.9,360.2c-3.2-3.2-6.6-4.3-9.5-1.6c-1.4,1.4-2.1,3-2.3,5l-0.5,0.2l-1.1-2.3c0.2-1.6,1.1-3.6,3.2-5.7
			c3.7-3.7,9.3-4.6,14.4,0.4c5,5,4.6,10.3,0.7,14.3c-3.7,3.7-8.4,3.4-12.3-0.5c-0.5-0.5-0.7-0.7-0.9-1.1L363.9,360.2z M360.9,366.1
			c3,2.9,5.4,4.1,7,2.7c1.8-1.6-0.2-4.8-2.5-7.1L360.9,366.1z"/>
		<path class="st2" d="M340.4,403.5c-0.5,0.2-1.1,0.5-1.6,0.9c-0.5,0.4-1.1,0.7-1.4,1.2c-1.6-6.8-4.5-20.2-7.3-29.6
			c0.5-0.4,1.1-0.5,1.6-0.9c0.5-0.4,0.9-0.7,1.4-1.2c6.2,4.3,19.6,13,25.5,16.6c-1.1,0.5-2.1,1.2-3.2,2c-1.1,0.7-2,1.4-2.9,2.3
			c-5-3.9-11.9-8.4-17.8-12.5C336.5,389.3,338.4,396.9,340.4,403.5z"/>
		<path class="st2" d="M323.6,392.8c1.6,2.9,3.2,5.4,4.8,7.8c-0.7,0.4-1.6,0.7-2.7,1.4s-2,1.2-2.5,1.6c-1.2-2.7-2.5-5.2-4.3-8
			l-0.7-1.4c-1.6-2.9-3.2-5.4-4.8-7.8c0.7-0.4,1.6-0.7,2.7-1.4s2-1.2,2.5-1.6c1.2,2.7,2.5,5.2,4.3,8L323.6,392.8z M331.3,411.7
			c-1.6,0.9-3.6,0.4-4.5-1.2c-0.9-1.6-0.4-3.6,1.2-4.5c1.6-0.9,3.6-0.4,4.5,1.2C333.3,408.9,332.9,410.8,331.3,411.7z"/>
		<path class="st2" d="M309,399.8c-1.8-4.1-4.8-6.4-8.2-4.8c-1.6,0.7-3,2.1-3.7,3.7l-0.5-0.2l-0.2-2.3c0.7-1.4,2.1-3,5-4.3
			c4.8-2.3,10.3-1.2,13.4,5.2c3,6.4,0.7,11.2-4.3,13.6c-4.8,2.3-9.1,0.4-11.4-4.6c-0.4-0.5-0.5-1.1-0.5-1.2L309,399.8z M304,404.1
			c1.8,3.7,3.6,5.7,5.5,5c2.1-1.1,1.4-4.6,0.2-7.5L304,404.1z"/>
		<path class="st2" d="M273.3,408.5c-0.2,5,0,10,0.2,14.8c-0.5,0.2-1.1,0.2-1.6,0.4s-1.1,0.4-1.6,0.7c0.5-2.3,0.7-14.3,0.7-21
			c0.7-0.2,1.4-0.4,2.3-0.5c0.9-0.2,1.4-0.5,2.1-0.9c2.5,3.9,5.5,8.4,7.8,11.8h0.2c0-4.6,0.2-9.5,0-14.1c0.7-0.2,1.6-0.4,2.3-0.5
			c0.7-0.2,1.4-0.5,2.3-0.9c3.6,5.7,10.7,15.7,11.9,17.1c-1.2,0.4-2.1,0.5-3.2,0.7c-1.1,0.4-1.8,0.7-2.9,1.1
			c-2.7-4.1-5.7-8.7-8-12.3h-0.2c-0.2,5,0.2,10,0.2,14.8c-0.7,0.2-1.4,0.4-2.3,0.5c-0.9,0.2-1.4,0.5-2.1,0.9
			C278.9,416.7,276.2,412.5,273.3,408.5L273.3,408.5z"/>
		<path class="st2" d="M228.7,431.2c1.8,2.3,4.6,3.7,8.4,3.6c5.2-0.4,10-5,9.5-13.6c-0.5-6.4-4.5-11.2-10.9-10.7
			c-1.4,0.2-3.7,0.5-4.5,1.1c-0.2,0.7,0,1.6,0.2,2.9c0.4,4.5,0.7,6.2,0.7,7.1c-0.5,0-1.4-0.2-3,0c-2,0.2-2.7,0.4-3.4,0.4
			c0.2-0.9,0-4.3-0.2-7c-0.2-1.8-0.4-3.9-0.5-4.5c3.6-1.2,7.1-2.3,10.9-2.5c9.5-0.7,16.6,4.3,17.1,12.5c0.7,10.3-6.2,16.1-15.9,16.8
			c-4.1,0.4-7-0.4-10-1.8c0.4-1.4,0.7-2.9,0.9-4.3L228.7,431.2z"/>
		<path class="st2" d="M219.5,425.7c-0.2,5.4-0.4,9.5-0.4,14.3c-0.7-0.2-1.8-0.4-3-0.4s-2.3,0-3,0.2c0.4-4.6,0.7-8.9,0.9-14.1
			l0.2-2.7c0.2-5.4,0.4-9.5,0.4-14.3c0.7,0.2,1.8,0.4,3,0.4c1.2,0,2.3,0,3-0.2c-0.4,4.6-0.7,8.9-0.9,14.1L219.5,425.7z"/>
		<path class="st2" d="M207.9,425.8c-2.5,1.6-5.4,2.3-8,1.8c-4.3-0.5-7.3-2.7-6.6-7.5c0.4-3.4,0.9-6.2,1.2-9.3
			c0.4-2.5-0.4-3-2.1-3.2l0.2-1.1c1.6-0.5,2.7-0.7,3.9-0.5c2,0.4,3,1.6,3.6,3.4c1.4-1.6,3.2-2.7,5.7-2.3c4.1,0.5,5.5,3.4,5.2,6.1
			c-0.4,3.6-3,4.6-6.8,5.2c-4.6,0.5-5.2,0.7-5.4,2.3c-0.2,2,1.1,3.7,3.4,4.1c1.8,0.2,4.3-0.5,5.2-1.6h0.4L207.9,425.8z M199,417.8
			c2.5-1.1,5.5-0.4,6.1-4.5c0.4-2-0.5-3.2-2-3.4c-1.8-0.2-3.2,1.1-3.6,3.6C199.3,415.8,199,416.7,199,417.8z"/>
		<path class="st2" d="M180.8,421L180.8,421c-2.1,1.6-4.5,2.5-7,1.8c-2.3-0.7-3.7-2.5-4.1-5.2c-2.3,2-4.8,2.7-7.1,2.1
			c-3.9-1.1-5.5-3.9-4.3-8.9c0.7-2.7,1.4-4.5,2-6.6c0.5-1.6,0.9-3.7,1.4-5.7c0.7,0.4,1.8,0.7,3,1.1c1.2,0.4,2.3,0.5,3,0.5
			c-1.2,2.7-2.3,6.6-3.6,11.2c-0.9,3.2-0.2,5.2,1.8,5.7c2.5,0.7,3.7-1.8,4.5-3.7l0.7-2.9c0.9-3.2,1.6-6.1,2.1-8.9
			c0.7,0.4,1.6,0.7,3,1.1c1.2,0.4,2.3,0.5,3,0.5c-1.1,2.7-1.8,5.5-2.7,8.7l-0.7,2.5c-0.9,3.2-0.7,5.2,1.4,5.7c2.3,0.7,4.1-1.2,5-5
			l0.4-1.6c0.9-3.2,1.6-6.1,2.1-8.9c0.7,0.4,1.6,0.7,3,1.1c1.2,0.4,2.3,0.5,3,0.5c-1.1,2.7-1.8,5.5-2.7,8.7l-0.4,1.6
			c-0.9,3.2-1.6,6.1-2.1,8.9c-0.9-0.4-1.8-0.7-2.7-1.1c-1.1-0.4-1.8-0.4-3-0.5L180.8,421z"/>
		<path class="st2" d="M156.3,401.9c-2.1,5-3.7,8.9-5.5,13.2c-0.7-0.5-1.6-1.1-2.5-1.4s-1.8-0.7-2.7-1.1c0.4-0.7,1.2-2.1,1.6-3.2
			h-0.2c-1.6,1.8-4.3,2.5-7,1.4c-3.7-1.6-6.1-6.1-3.2-12.5c3.2-7.1,8-8.2,11.8-6.6c2.3,1.1,3.6,2.7,3.6,5h0.2
			c1.6-3.6,4.6-10.3,5.2-12.3c0.5,0.4,1.6,1.1,2.7,1.4c1.1,0.5,2.3,0.9,3,1.1c-2.1,4.1-3.7,8-6.1,12.8L156.3,401.9z M142.8,409.2
			c1.8,0.7,4.5-0.4,7-6.1c2-4.5,1.6-7.3-0.5-8.2c-2.1-1.1-4.5,0.7-6.6,5.7C140.5,405.7,140.8,408.4,142.8,409.2z"/>
		<path class="st2" d="M120.7,412.8c-1.6-0.9-2.1-2.9-1.2-4.5s2.9-2.1,4.5-1.2c1.6,0.9,2.1,2.9,1.2,4.5
			C124.2,413.2,122.1,413.5,120.7,412.8z M132.8,396.4c-1.6,3-3,5.5-4.1,8.2c-0.5-0.4-1.4-1.1-2.5-1.6c-1.1-0.5-2.1-1.1-2.7-1.2
			c1.6-2.3,3.2-5,4.6-7.8l0.7-1.4c1.6-3,3-5.5,4.1-8.2c0.5,0.4,1.4,1.1,2.5,1.6c1.1,0.5,2.1,1.1,2.7,1.2c-1.6,2.3-3.2,5-4.6,7.8
			L132.8,396.4z"/>
		<path class="st2" d="M115,393L115,393c-2.5,1.1-5.2,0.9-7.3-0.5c-3.4-2.3-4.1-5.5-1.1-9.8c1.6-2.3,2.9-3.7,4.1-5.5
			c1.1-1.4,2.1-3.2,3.2-5c0.5,0.5,1.4,1.2,2.5,1.8c1.1,0.7,2.1,1.2,2.7,1.6c-2,2.3-4.3,5.5-7,9.5c-1.8,2.9-1.8,4.8,0,6.1
			c2.1,1.4,4.3,0.2,6.4-3l0.9-1.4c1.8-2.7,3.4-5.2,4.8-7.8c0.5,0.5,1.4,1.2,2.5,1.8c1.1,0.7,2,1.2,2.7,1.6c-1.8,2.3-3.6,4.6-5.4,7.3
			l-0.9,1.4c-1.8,2.7-3.4,5.2-4.8,7.8c-0.7-0.5-1.4-1.2-2.3-1.8c-0.7-0.5-1.6-1.1-2.5-1.4L115,393z"/>
		<path class="st2" d="M88.6,374.5L88.6,374.5c-0.4-1.6,0-3.4,1.4-5c2.7-3,7-3,10.5,0c0.4,0.4,0.9,0.7,1.4,1.2
			c0.5,0.4,1.4,0.2,1.8-0.4c0.9-1.1,0.7-2.3-1.1-3.7l-2.3-2c-3.4-3-4.1-5.5-1.6-8.4c4.3-5,10.3-2.7,13.9,0.4
			c3.7,3.4,4.6,7.1,2.7,9.5c-1.6,2-3.9,2.1-6.4,1.2l-0.2,0.2c0.7,1.4,0.7,2.7-0.4,3.9c-1.2,1.4-3.6,1.8-5.7,0.7l-0.2,0.2
			c1.1,1.4,1.4,2.7,1.4,4.3c0,1.4-0.5,2.9-1.8,4.1c-2.7,3.2-7,2.7-10.9-0.7c-0.7-0.7-1.4-1.4-2.1-2.1c-0.5-0.5-1.1-1.1-1.6-1.6
			c-1.1-0.9-2.1-1.8-3.4-2.7c0.2-0.2,0.5-0.5,0.7-0.7c0.2-0.2,0.4-0.5,0.5-0.7L88.6,374.5z M98.5,376.6c2.3-2.7,2.1-4.6,1.1-5.4
			c-1.4-1.2-3-0.5-5.4,2.3c-2.3,2.9-2.5,4.5-1.2,5.5C94.4,380,96.2,379.3,98.5,376.6z M106,364.5c1.1,1.1,1.8,1.4,2.5,1.6
			c0.7,0.2,2.3-0.2,3.6-1.6c2.1-2.3,1.2-5.2-1.1-7.1c-2.3-2.1-5.4-1.6-7.1,0.4C101.8,360.2,103.2,362.2,106,364.5z"/>
		<path class="st2" d="M81.6,350c-1.2-1.4-1.1-3.6,0.4-4.6c1.4-1.2,3.6-1.1,4.6,0.4c1.2,1.4,1.1,3.6-0.4,4.6
			C85,351.5,82.8,351.5,81.6,350z"/>
		<path class="st2" d="M59.8,339.7c-3.7,2.5-6.4,4.3-9.3,6.4c-0.4-0.7-0.9-1.8-1.6-3c-0.7-1.2-1.4-2-2-2.7c3.2-1.8,5.9-3.4,9.8-5.9
			l4.6-3c2.5-1.6,5.2-3.4,7-4.6c-1.6-2.5-3.6-5.2-5.5-7.5c0.5-0.2,0.9-0.4,1.6-0.9c0.7-0.5,1.1-0.7,1.4-1.1c0.7,1.2,1.6,3,3.7,6.1
			c3.6,5.5,4.3,6.4,5,7.1c-3.2,1.8-5.9,3.4-9.8,5.9L59.8,339.7z"/>
		<path class="st2" d="M48.4,322.7c-2.7-1.2-5-3.2-6.1-5.5c-2-3.9-1.8-7.5,2.5-9.8c3.2-1.6,5.7-2.7,8.4-4.1c2.3-1.2,2.1-2,1.4-3.4
			l0.9-0.5c1.4,1.1,2.1,1.8,2.7,2.9c0.9,1.8,0.5,3.4-0.9,4.8c2.1,0.4,3.9,1.2,5.2,3.4c1.8,3.7,0.2,6.4-2.1,7.7
			c-3.2,1.6-5.5,0.2-8-2.7c-3-3.6-3.6-3.7-5-3.2c-1.8,0.9-2.5,3-1.4,5.2c0.9,1.6,2.9,3.2,4.3,3.4l0.2,0.4L48.4,322.7z M50,311
			c2.3,1.4,3.4,4.3,7.1,2.5c1.8-0.9,2.3-2.3,1.8-3.6c-0.7-1.6-2.7-2.1-5-0.9C51.8,310.1,50.9,310.6,50,311z"/>
		<path class="st2" d="M39.3,302.9c-5,1.8-8.9,3.6-13.2,5.4c-0.2-0.7-0.5-1.8-0.9-3c-0.4-1.1-0.9-2.1-1.2-2.9
			c4.5-1.4,8.4-2.9,18.2-6.6c0.7-0.4,0.9-0.4,0.7-0.5c-0.2-0.4-4.6-2-11.2-4.1c-0.2-0.7-0.4-1.2-0.5-1.8c-0.2-0.5-0.5-1.2-1.1-2.1
			c2,0.7,8,3.6,9.6,4.1c0.7-1.1,7.8-10.2,8.9-11.2c0.4,1.1,0.5,2.1,1.1,3.2c0.4,1.1,0.9,1.8,1.2,2.9c-0.9,1.2-7.1,8.2-7,8.9
			c0.2,0.4,0.2,0.2,3.9-1.2c1.4-0.5,4.1-1.6,5-2.1c0.4,1.1,0.5,2,0.9,2.9c0.4,0.9,0.7,1.8,1.2,2.7c-4.5,1.4-8.4,2.9-13.4,4.6
			L39.3,302.9z"/>
		<path class="st2" d="M37.5,276.2c4.3-1.1,7.1-3.6,6.2-7.3c-0.5-1.8-1.4-3.4-3-4.5l0.2-0.5l2.5,0.4c1.4,1.1,2.5,2.5,3.4,5.5
			c1.4,5.2-0.5,10.5-7.5,12.3s-11.2-1.2-12.5-6.6c-1.4-5.2,1.2-8.9,6.6-10.3c0.7-0.2,1.1-0.4,1.2-0.4L37.5,276.2z M34.3,270.5
			c-3.9,1.1-6.2,2.5-5.7,4.6c0.5,2.3,4.3,2.1,7.3,1.4L34.3,270.5z"/>
		<path class="st2" d="M12.2,233.9c0.2-0.5,0.2-1.2,0-1.8c-0.2-0.5-0.2-1.2-0.4-1.8c6.6,2.1,19.6,6.2,29.3,8.6c0,0.5-0.2,1.2,0,1.8
			c0.2,0.5,0.2,1.2,0.4,1.8c-6.8,3.2-21.2,10.3-27.3,13.7c0-1.2,0-2.5-0.2-3.7c-0.2-1.2-0.4-2.3-0.5-3.6c5.9-2.3,13.2-6.1,19.8-9.1
			C26.5,237.7,18.8,235.5,12.2,233.9z"/>
		<path class="st2" d="M9.7,221.8c0-1.8,1.4-3.2,3.4-3.2s3.2,1.4,3.2,3.4c0,1.8-1.4,3.2-3.4,3.2S9.7,223.6,9.7,221.8z M29.7,224.8
			c-3.4-0.2-6.2,0-9.1,0.2c0.2-0.7,0.2-1.8,0.4-3c0-1.2-0.2-2.3-0.2-3c2.9,0.4,5.7,0.4,9.1,0.5h1.6c3.4,0.2,6.2,0,9.1-0.2
			c-0.2,0.7-0.2,1.8-0.4,3c0,1.2,0.2,2.3,0.2,3c-2.9-0.4-5.7-0.4-9.1-0.5H29.7z"/>
		<path class="st2" d="M31.1,208.8c4.5,0.4,8-1.1,8.2-4.6c0.2-1.8-0.4-3.6-1.4-5.2l0.4-0.5l2.1,1.1c0.9,1.4,1.6,3.4,1.2,6.4
			c-0.5,5.4-4.1,9.6-11.2,8.9c-7.1-0.7-10.2-5-9.6-10.5c0.5-5.4,4.1-8,9.8-7.5c0.7,0.2,1.1,0.2,1.4,0.2L31.1,208.8z M29.9,202.3
			c-4.1-0.4-7,0.4-7.1,2.3c-0.2,2.5,3.2,3.6,6.4,3.9L29.9,202.3z"/>
		<path class="st2" d="M41.5,173.5c-4.3-2.5-8.6-5-12.8-7.3c0.2-0.5,0.4-1.1,0.5-1.4c0.2-0.5,0.2-1.1,0.2-1.8
			c1.8,1.6,11.9,7.8,17.8,11.2c-0.4,0.7-0.5,1.4-0.7,2.1c-0.2,0.7-0.2,1.4-0.4,2.3c-4.6,0.2-10,0.5-14.1,0.9v0.2
			c4.1,2.5,8.2,4.8,12.3,7.1c-0.4,0.7-0.5,1.4-0.7,2.3c-0.2,0.7-0.2,1.6-0.4,2.3c-6.8,0.4-18.9,1.4-20.9,1.6c0.4-1.2,0.7-2.1,0.9-3
			c0.2-1.1,0.4-2,0.5-3c5-0.2,10.3-0.5,14.8-0.7v-0.2c-4.3-2.5-8.6-5-12.8-7.3c0.4-0.7,0.5-1.4,0.7-2.1c0.2-0.7,0.2-1.4,0.4-2.3
			C31.7,174.2,36.7,174,41.5,173.5L41.5,173.5z"/>
		<path class="st2" d="M44.1,123.5c-3,0.5-5.5,2.1-7.3,5.5c-2.3,4.6-0.7,11.2,7,15c5.9,2.9,11.9,1.8,14.6-3.9
			c0.5-1.2,1.4-3.6,1.2-4.3c-0.5-0.4-1.4-0.9-2.5-1.4c-4.1-2-5.7-2.5-6.4-2.9c0.4-0.5,0.7-1.1,1.4-2.7c0.9-1.8,1.1-2.5,1.2-3
			c0.7,0.5,3.7,2.1,6.1,3.4c1.6,0.7,3.6,1.6,4.1,1.8c-0.7,3.6-1.6,7.3-3.2,10.5c-3.9,8.4-11.9,12.1-19.3,8.6
			c-9.3-4.6-10.9-13.4-6.6-22.1c1.8-3.7,3.7-5.7,6.6-7.8c1.1,1.1,2.1,2.1,3.2,2.9L44.1,123.5z"/>
		<path class="st2" d="M54,118.2c-4.5-3-8.2-5-12.1-7.3c0.5-0.5,1.2-1.4,1.8-2.5c0.7-1.1,1.2-2.1,1.4-2.7c3.7,2.7,7.3,5,11.8,8
			l2.3,1.4c4.5,3,8.2,5,12.1,7.3c-0.5,0.5-1.2,1.4-1.8,2.5c-0.7,1.1-1.2,2.1-1.4,2.7c-3.7-2.7-7.3-5-11.8-8L54,118.2z"/>
		<path class="st2" d="M59.7,108c-0.2-2.9,0.7-5.7,2.3-7.8c2.7-3.4,6.1-4.8,10-1.8c2.7,2.1,5,3.9,7.3,5.7c2.1,1.6,2.7,1.2,3.7-0.2
			l0.7,0.5c-0.4,1.8-0.7,2.7-1.4,3.6c-1.2,1.6-2.9,1.8-4.6,1.2c0.5,2.1,0.7,4.1-0.9,6.1c-2.5,3.4-5.7,3-7.8,1.4
			c-2.9-2.1-2.5-5-1.1-8.4c1.8-4.3,1.8-4.8,0.7-5.7c-1.6-1.2-3.7-1.1-5.2,1.1c-1.2,1.4-1.6,3.9-1.2,5.4H62L59.7,108z M71.1,104.4
			c-0.4,2.7-2.5,5,0.9,7.5c1.6,1.2,3,1.2,3.9,0c1.1-1.4,0.7-3.2-1.4-5C72.5,105.7,71.6,105,71.1,104.4z"/>
		<path class="st2" d="M77.5,87.1L77.5,87.1c-0.4-2.7,0.2-5.2,2-7s4.1-2,6.4-0.9c-0.5-3,0.2-5.5,1.8-7.3c3-2.9,6.2-2.9,9.8,0.9
			c2,2,3.2,3.6,4.6,5c1.2,1.2,2.7,2.7,4.3,4.1c-0.5,0.4-1.4,1.2-2.3,2s-1.6,1.8-2.1,2.3c-1.8-2.3-4.5-5.2-8-8.7
			c-2.3-2.5-4.5-2.7-5.9-1.2c-1.8,1.8-0.4,4.3,1.1,5.5l2.1,2.1c2.3,2.3,4.5,4.5,6.6,6.2c-0.5,0.4-1.4,1.1-2.3,2
			c-0.9,0.9-1.6,1.8-2.1,2.3c-1.8-2.3-3.7-4.3-6.2-6.8l-1.8-1.8c-2.3-2.3-4.1-3.2-5.7-1.6c-1.8,1.8-1.1,4.1,1.6,6.8l1.2,1.2
			c2.3,2.3,4.5,4.5,6.6,6.2c-0.5,0.4-1.4,1.1-2.3,2c-0.9,0.9-1.6,1.8-2.1,2.3c-1.8-2.3-3.7-4.3-6.2-6.8l-0.9-1.2
			c-2.3-2.3-4.5-4.5-6.6-6.2c0.7-0.5,1.4-1.2,2.3-1.8c0.7-0.7,1.2-1.4,2-2.3L77.5,87.1z"/>
		<path class="st2" d="M106.2,75.5c-3.2-4.3-5.7-7.7-8.6-11.2c0.7-0.5,1.6-1.1,2.5-1.4c0.7-0.5,1.4-1.2,2.1-1.8
			c0.5,0.7,1.2,2.1,1.8,3h0.2c-0.7-2.3,0-5,2.3-6.6c3.4-2.5,8.2-2.3,12.3,3.6c4.6,6.2,3,11.1-0.2,13.4c-2,1.4-4.1,1.6-6.1,0.7h-0.2
			c2.3,3.2,6.6,9.1,8,10.5c-0.5,0.4-1.6,1.1-2.7,1.6c-1.1,0.7-1.8,1.4-2.3,2c-2.5-3.7-5-7.3-8-11.8L106.2,75.5z M106.4,60.4
			c-1.6,1.2-1.8,4.1,1.8,9.1c3,4.1,5.4,5.2,7.3,3.7c1.8-1.4,1.6-4.3-1.6-8.6C110.9,60,108.2,58.9,106.4,60.4z"/>
		<path class="st2" d="M114.6,39.3c1.6-0.9,3.6-0.4,4.5,1.1c0.9,1.6,0.4,3.6-1.1,4.5c-1.6,0.9-3.6,0.4-4.5-1.1
			C112.5,42.4,113,40.4,114.6,39.3z M122.6,58.1c-1.6-2.9-3.2-5.4-5-7.7c0.7-0.4,1.6-0.7,2.7-1.4c1.1-0.7,2-1.4,2.5-1.8
			c1.2,2.5,2.7,5.2,4.5,8l0.9,1.4c1.6,2.9,3.2,5.4,5,7.7c-0.7,0.4-1.6,0.7-2.7,1.4c-1.1,0.7-2,1.2-2.5,1.8c-1.2-2.5-2.7-5.2-4.5-8
			L122.6,58.1z"/>
		<path class="st2" d="M134.6,44.5L134.6,44.5c0.5-2.7,1.8-4.8,4.1-6.1c3.7-1.8,6.8-0.7,9.1,4.1c1.2,2.5,2,4.3,2.9,6.2
			c0.7,1.6,1.8,3.4,2.7,5.4c-0.7,0.2-1.8,0.5-2.9,1.2c-1.1,0.5-2.1,1.1-2.7,1.4c-1.1-2.9-2.5-6.4-4.6-10.9c-1.4-3-3.2-3.9-5.2-3
			c-2.3,1.1-2.3,3.6-0.5,7l0.7,1.4c1.4,3,2.7,5.5,4.3,8c-0.7,0.2-1.6,0.5-2.9,1.2c-1.2,0.5-2.1,1.1-2.7,1.4
			c-1.1-2.7-2.3-5.4-3.6-8.4l-0.7-1.4c-1.4-3-2.7-5.5-4.3-8c0.9-0.4,1.8-0.7,2.7-1.1c0.9-0.4,1.6-1.1,2.7-1.4L134.6,44.5z"/>
		<path class="st2" d="M163.8,30.8L163.8,30.8c1.4,0.5,2.9,1.8,3.6,3.6c1.4,3.7-0.7,7.5-5.4,9.1c-0.5,0.2-1.1,0.4-1.8,0.5
			c-0.5,0.2-0.9,1.1-0.5,1.8c0.4,1.2,1.6,1.6,3.7,1.1l2.9-1.1c4.3-1.4,7-0.5,8.2,3c2.1,6.2-2.7,10.3-7.3,11.9
			c-4.8,1.6-8.4,0.5-9.5-2.5c-0.9-2.5,0.2-4.5,2.1-6.1V52c-1.4-0.2-2.7-0.7-3.2-2.3c-0.5-1.6,0.2-4.1,2.1-5.4v-0.2
			c-1.6,0.2-3.2-0.2-4.5-0.7c-1.2-0.7-2.1-1.8-2.7-3.6c-1.4-3.9,1.2-7.3,6.1-9.1c0.9-0.4,2-0.5,3-0.9c0.7-0.2,1.4-0.4,2.1-0.7
			c1.2-0.5,2.7-1.1,4.1-1.4c0.2,0.4,0.2,0.7,0.4,1.1c0.2,0.4,0.4,0.5,0.4,0.9L163.8,30.8z M157,38.4c1.2,3.4,3,4.1,4.1,3.7
			c1.6-0.5,2.1-2.3,0.7-5.7c-1.2-3.6-2.7-4.5-4.1-3.9C156,33.1,155.8,35.2,157,38.4z M163.6,50.9c-1.4,0.5-2.1,0.9-2.7,1.4
			c-0.5,0.5-1.1,2.1-0.4,3.9c1.1,3,3.9,3.6,6.6,2.7c3-1.1,4.1-3.7,3.2-6.2C169.5,49.5,167.2,49.7,163.6,50.9z"/>
		<path class="st2" d="M188.4,37.2c1.8-0.4,3.6,0.9,3.9,2.7c0.4,1.8-0.9,3.6-2.7,3.9c-1.8,0.4-3.6-0.9-3.9-2.7
			C185.6,39.3,186.7,37.5,188.4,37.2z"/>
	</g>
</g>
<g>
	<g>
		<g>
			<path class="st2" d="M212.5,113.6c0.2-0.2,0.2-0.2,0.5-0.2c0.7-0.2,1.6-0.2,2.3-0.2c0.9-0.2,1.9-0.2,2.8-0.2
				c1.2-0.2,2.3-0.2,3.2-0.5c0.2-0.2,0.7-0.2,1.2-0.2c0.2,0,0.2-0.2,0.2-0.2c-0.7-1.2-1.9-2.3-2.8-3.2c-0.5-0.7-1.2-1.2-1.4-1.6
				l-0.2-0.2c0.2-0.2,0.2,0,0.2,0.2c0.7,0.2,1.2,0.9,1.6,1.2c0.7,0.7,1.6,1.2,2.3,1.9c0.5,0.2,0.7,0.7,1.4,1.2
				c0.2,0.2,0.2,0.2,0.2-0.2c0.2-0.7,0.2-1.6,0.2-2.3c0.2-0.9,0.2-1.9,0.2-2.8c0.2-0.5,0.2-1.2,0.2-1.6c0.2-0.7,0.2-1.2,0.2-1.9
				c0-0.5,0.2-0.9,0.2-1.4c0-0.2,0-0.2,0.2-0.2c0.2,0.2,0.2,0.2,0.2,0.7c0.2,0.7,0.2,1.6,0.2,2.3c0.2,0.7,0.2,1.2,0.2,1.6
				c0.2,0.7,0.2,1.2,0.2,1.6c0.2,0.7,0.2,1.6,0.2,2.3c0.2,0.7,0.2,1.2,0.2,1.9c0,0.2,0.2,0.2,0.2,0.2c1.2-0.7,2.1-1.6,3.2-2.3
				c0.7-0.7,1.2-1.2,1.9-1.6l0.2-0.2c0.2,0.2,0,0.2-0.2,0.2c-0.2,0.7-0.9,1.2-1.2,1.6c-0.7,0.7-1.2,1.6-1.9,2.3
				c-0.2,0.5-0.7,0.9-1.2,1.4c-0.2,0.2-0.2,0.2,0.2,0.2c0.9,0.2,1.6,0.2,2.3,0.2c0.9,0.2,1.9,0.2,2.8,0.2c0.5,0.2,1.2,0.2,1.6,0.2
				c0.7,0.2,1.2,0.2,1.9,0.2c0.5,0,0.9,0.2,1.4,0.2c0.2,0,0.2,0,0.2,0.2c-0.2,0.2-0.2,0.2-0.7,0.2c-0.7,0.2-1.6,0.2-2.3,0.2
				c-0.7,0.2-1.2,0.2-1.6,0.2c-0.7,0.2-1.2,0.2-1.6,0.2c-0.7,0.2-1.6,0.2-2.3,0.2c-0.7,0.2-1.2,0.2-1.9,0.2c-0.2,0-0.2,0.2-0.2,0.2
				c0.7,1.2,1.6,2.1,2.3,3.2c0.7,0.7,1.2,1.2,1.6,1.9l0.2,0.2c-0.2,0.2-0.2,0-0.2-0.2c-0.7-0.2-1.2-0.9-1.6-1.2
				c-0.7-0.7-1.6-1.2-2.3-1.9c-0.5-0.2-0.7-0.7-1.4-1.2c-0.2-0.2-0.2-0.2-0.2,0.2c-0.2,0.7-0.2,1.6-0.2,2.3
				c-0.2,0.9-0.2,1.9-0.2,2.8c-0.2,0.5-0.2,1.2-0.2,1.6c-0.2,0.7-0.2,1.2-0.2,1.9c0,0.5-0.2,0.9-0.2,1.4c0,0.2,0,0.2-0.2,0.2
				c-0.2-0.2-0.2-0.2-0.2-0.7c-0.2-0.7-0.2-1.6-0.2-2.3c-0.2-0.7-0.2-1.2-0.2-1.6c-0.2-0.7-0.2-1.2-0.2-1.6
				c-0.2-0.7-0.2-1.6-0.2-2.3c-0.2-0.7-0.2-1.2-0.2-1.9c0-0.2-0.2-0.2-0.2-0.2c-1.2,0.7-2.1,1.6-3.2,2.3c-0.7,0.7-1.2,1.2-1.9,1.6
				l-0.2,0.2c-0.2-0.2,0-0.2,0.2-0.2c0.2-0.7,0.9-1.2,1.2-1.6c0.7-0.7,1.2-1.6,1.9-2.3c0.2-0.5,0.7-0.9,1.2-1.4
				c0.7-0.5,0.7-0.5,0.2-0.5c-0.9-0.2-1.6-0.2-2.3-0.2c-0.9-0.2-1.9-0.2-2.8-0.2c-0.5-0.2-1.2-0.2-1.6-0.2c-0.7-0.2-1.2-0.2-1.9-0.2
				C213.6,114.1,213.2,113.9,212.5,113.6L212.5,113.6z"/>
		</g>
	</g>
	<g>
		<g>
			<path class="st2" d="M142.4,149.8c0,0.2-0.2,0.2-0.2,0.2c-0.2,0.5-0.2,0.9-0.5,1.4c-0.2,0.7-0.5,1.2-0.7,1.9
				c-0.2,0.7-0.2,1.6-0.7,2.1c-0.2,0.2-0.2,0.5-0.2,0.7s0,0.2,0.2,0.2c0.9-0.2,1.9-0.5,2.8-0.7c0.5-0.2,0.9-0.2,1.4-0.5
				c0,0,0.2-0.2,0.2,0s0,0.2-0.2,0.2c-0.2,0.2-0.7,0.2-1.2,0.7c-0.7,0.2-1.2,0.7-1.9,0.9c-0.2,0.2-0.7,0.2-0.9,0.7
				c-0.2,0.2-0.2,0.2,0,0.2c0.5,0.2,0.9,0.7,1.4,0.7c0.7,0.2,1.2,0.7,1.6,0.9c0.2,0.2,0.7,0.2,0.7,0.5c0.2,0.2,0.7,0.2,1.2,0.7
				c0.2,0.2,0.7,0.2,0.7,0.5c0,0,0.2,0,0.2,0.2c-0.2,0-0.2-0.2-0.2-0.2c-0.5-0.2-1.2-0.2-1.6-0.5c-0.2-0.2-0.7-0.2-1.2-0.2
				c-0.5,0-0.7-0.2-1.2-0.2c-0.5-0.2-0.9-0.2-1.6-0.2c0-0.9-0.2-0.9-0.7-0.9c-0.2,0-0.2,0-0.2,0.2c0.2,0.9,0.5,1.9,0.7,2.8
				c0.2,0.5,0.2,1.2,0.5,1.6c0,0,0.2,0.2,0,0.2s-0.2,0-0.2-0.2c-0.2-0.2-0.2-0.7-0.7-1.2c-0.2-0.7-0.7-1.2-0.9-1.9
				c-0.2-0.2-0.2-0.7-0.7-0.9c-0.2-0.2-0.2-0.2-0.2,0c-0.2,0.5-0.7,0.9-0.7,1.4c-0.2,0.7-0.7,1.2-0.9,1.6c-0.2,0.2-0.2,0.7-0.5,0.9
				c-0.2,0.2-0.2,0.7-0.7,1.2c-0.2,0.2-0.2,0.7-0.5,0.7c0,0,0,0.2-0.2,0.2c0-0.2,0.2-0.2,0.2-0.2c0.2-0.5,0.2-1.2,0.5-1.6
				c0.2-0.2,0.2-0.7,0.2-1.2c0-0.5,0.2-0.7,0.2-1.2c0.2-0.5,0.2-0.9,0.2-1.6c0.2-0.2,0.2-0.7,0.2-1.2c0-0.2,0-0.2-0.2-0.2
				c-0.9,0.2-1.9,0.5-2.8,0.7c-0.5,0.2-1.2,0.2-1.6,0.5c0,0-0.2,0.2-0.2,0s0-0.2,0.2-0.2c0.2-0.2,0.7-0.2,1.2-0.7
				c0.7-0.2,1.2-0.7,1.9-0.9c0.2-0.2,0.7-0.2,0.9-0.7c0.2-0.2,0.2-0.2,0-0.2c-0.5-0.2-0.9-0.7-1.4-0.7c-0.7-0.2-1.2-0.7-1.6-0.9
				c-0.2-0.2-0.7-0.2-0.9-0.5c-0.2-0.2-0.7-0.2-1.2-0.7c-0.2-0.2-0.7-0.2-0.7-0.5c0,0-0.2,0-0.2-0.2c0.2,0,0.2,0.2,0.2,0.2
				c0.5,0.2,1.2,0.2,1.6,0.5c0.2,0.2,0.7,0.2,1.2,0.2c0.2,0.2,0.7,0.2,1.2,0.2c0.5,0.2,0.9,0.2,1.6,0.2c0.2,0.2,0.7,0.2,1.2,0.2
				c0.2,0,0.2,0,0.2-0.2c-0.2-0.9-0.5-1.9-0.7-2.8c-0.2-0.5-0.2-1.2-0.5-1.6c0,0-0.2-0.2,0-0.2s0.2,0,0.2,0.2
				c0.2,0.2,0.2,0.7,0.7,1.2c0.2,0.7,0.7,1.2,0.9,1.9c0.2,0.2,0.2,0.7,0.7,0.9c0.2,0.2,0.2,0.2,0.2,0c0.2-0.5,0.7-0.9,0.7-1.4
				c0.2-0.7,0.7-1.2,0.9-1.6c0.2-0.2,0.2-0.7,0.5-0.7c0.2-0.2,0.2-0.7,0.7-1.2C141.9,150.3,141.9,149.8,142.4,149.8
				C142.2,149.8,142.2,149.8,142.4,149.8z"/>
		</g>
	</g>
	<g>
		<g>
			<path class="st2" d="M308.3,149.8c0,0.2,0.2,0.2,0.2,0.2c0.2,0.5,0.2,0.9,0.5,1.4c0.2,0.7,0.5,1.2,0.7,1.9s0.2,1.6,0.7,2.1
				c0.2,0.2,0.2,0.5,0.2,0.7s0,0.2-0.2,0.2c-0.9-0.2-1.9-0.5-2.8-0.7c-0.5-0.2-0.9-0.2-1.4-0.5c0,0-0.2-0.2-0.2,0s0,0.2,0.2,0.2
				c0.2,0.2,0.7,0.2,1.2,0.7c0.7,0.2,1.2,0.7,1.9,0.9c0.2,0.2,0.7,0.2,0.9,0.7c0.2,0.2,0.2,0.2,0,0.2c-0.5,0.2-0.9,0.7-1.4,0.7
				c-0.7,0.2-1.2,0.7-1.6,0.9c-0.2,0.2-0.7,0.2-0.9,0.5c-0.2,0.2-0.7,0.2-1.2,0.7c-0.2,0.2-0.7,0.2-0.7,0.5c0,0-0.2,0-0.2,0.2
				c0.2,0,0.2-0.2,0.2-0.2c0.5-0.2,1.2-0.2,1.6-0.5c0.2-0.2,0.7-0.2,1.2-0.2c0.2-0.2,0.7-0.2,1.2-0.2c0.5-0.2,0.9-0.2,1.6-0.2
				c0.2-0.2,0.7-0.2,1.2-0.2c0.2,0,0.2,0,0.2,0.2c-0.2,0.9-0.5,1.9-0.7,2.8c-0.2,0.5-0.2,1.2-0.5,1.6c0,0-0.2,0.2,0,0.2
				c0.2,0,0.2,0,0.2-0.2c0.2-0.2,0.2-0.7,0.7-1.2c0.2-0.7,0.7-1.2,0.9-1.9c0.2-0.2,0.2-0.7,0.7-0.9c0.2-0.2,0.2-0.2,0.2,0
				c0.2,0.5,0.7,0.9,0.7,1.4c0.2,0.7,0.7,1.2,0.9,1.6c0.2,0.2,0.2,0.7,0.5,0.9s0.2,0.7,0.7,1.2c0.2,0.2,0.2,0.7,0.5,0.7
				c0,0,0,0.2,0.2,0.2c0-0.2-0.2-0.2-0.2-0.2c-0.2-0.5-0.2-1.2-0.5-1.6c-0.2-0.2-0.2-0.7-0.2-1.2c-0.2-0.2-0.2-0.7-0.2-1.2
				c-0.2-0.5-0.2-0.9-0.2-1.6c-0.2-0.2-0.2-0.7-0.2-1.2c0-0.2,0-0.2,0.2-0.2c0.9,0.2,1.9,0.5,2.8,0.7c0.5,0.2,1.2,0.2,1.6,0.5
				c0,0,0.2,0.2,0.2,0s0-0.2-0.2-0.2c-0.2-0.2-0.7-0.2-1.2-0.7c-0.7-0.2-1.2-0.7-1.9-0.9c-0.2-0.2-0.7-0.2-0.9-0.7
				c-0.2-0.2-0.2-0.2,0-0.2c0.5-0.2,0.9-0.7,1.4-0.7c0.7-0.2,1.2-0.7,1.6-0.9c0.2-0.2,0.7-0.2,0.9-0.5s0.7-0.2,1.2-0.7
				c0.2-0.2,0.7-0.2,0.7-0.5c0,0,0.2,0,0.2-0.2c-0.2,0-0.2,0.2-0.2,0.2c-0.5,0.2-1.2,0.2-1.6,0.5c-0.2,0.2-0.7,0.2-1.2,0.2
				c-0.2,0.2-0.7,0.2-1.2,0.2c-0.5,0.2-0.9,0.2-1.6,0.2c-0.2,0.2-0.7,0.2-1.2,0.2c-0.2,0-0.2,0-0.2-0.2c0.2-0.9,0.5-1.9,0.7-2.8
				c0.2-0.5,0.2-1.2,0.5-1.6c0,0,0.2-0.2,0-0.2s-0.2,0-0.2,0.2c-0.2,0.2-0.2,0.7-0.7,1.2c-0.2,0.7-0.7,1.2-0.9,1.9
				c-0.2,0.2-0.2,0.7-0.7,0.9c-0.2,0.2-0.2,0.2-0.2,0c-0.2-0.5-0.7-0.9-0.7-1.4c-0.2-0.7-0.7-1.2-0.9-1.6c-0.2-0.2-0.2-0.7-0.5-0.7
				c-0.2-0.2-0.2-0.7-0.7-1.2C308.5,150.3,308.5,149.8,308.3,149.8C308.5,149.8,308.5,149.8,308.3,149.8z"/>
		</g>
	</g>
	<g>
		<path class="st2" d="M273.9,100.2C273.9,100.4,273.9,100.4,273.9,100.2c0,0.2,0,0.2,0,0.5s0,0.2,0,0.2c0,0.2,0,0.2,0,0.2
			c0,0.2,0.2,0.7,0.2,0.7l0.2,0.2c0.2,0.2,0.2,0.5,0.2,0.7c0.2,0.2,0.5,0.2,0.7,0.7c0.2,0.2,0.2,0.2,0.5,0.2
			c0.2,0.2,0.5,0.2,0.7,0.2c0.2,0,0.2,0.2,0.2,0.2c0.2,0,0.2,0,0.2,0c0.2,0,0.2,0,0.2,0h0.2h0.2l0,0l0,0c-0.2,0-0.2,0-0.2,0
			c-0.2,0-0.2,0-0.2,0c-0.2,0-0.2,0-0.2,0c-0.2,0-0.2,0-0.2,0.2c-0.2,0-0.5,0.2-0.7,0.2c-0.2,0.2-0.7,0.2-0.9,0.5
			c-0.2,0.2-0.2,0.2-0.5,0.5c-0.2,0.2-0.2,0.5-0.2,0.7c-0.2,0.2-0.2,0.5-0.2,0.7c0,0.2,0,0.2-0.2,0.2c0,0.2,0,0.2,0,0.2v0.2
			c0,0.2,0,0.2,0,0.2l0,0l0,0c0-0.2,0-0.2,0-0.5c0-0.2,0-0.2,0-0.2c0-0.2,0-0.2-0.2-0.2c0-0.2-0.2-0.5-0.2-0.7
			c-0.2-0.2-0.2-0.7-0.5-0.9c-0.2-0.2-0.2-0.2-0.5-0.5c-0.2-0.2-0.5-0.2-0.7-0.2c-0.2-0.2-0.5-0.2-0.7-0.2c-0.2,0-0.2,0-0.2-0.2
			c-0.2,0-0.2,0-0.2,0h-0.2c-0.2,0-0.2,0-0.2,0H270l0,0l0,0c0.2,0,0.2,0,0.2,0c0.2,0,0.2,0,0.2,0h0.2h0.2c0.2,0,0.7-0.2,0.9-0.2
			c0.2,0,0.2-0.2,0.2-0.2c0.2-0.2,0.5-0.2,0.7-0.2c0.2-0.2,0.2-0.2,0.5-0.7c0.2-0.2,0.2-0.5,0.2-0.7c0.2-0.2,0.2-0.5,0.2-0.7
			c0-0.2,0-0.2,0.2-0.2c0-0.2,0-0.2,0-0.2c0-0.2,0-0.2,0-0.2c0-0.2,0-0.2,0-0.2C273.9,100.4,273.9,100.4,273.9,100.2L273.9,100.2z"
			/>
	</g>
	<g>
		<path class="st2" d="M324.5,188.3C324.5,188.6,324.5,188.6,324.5,188.3c-0.2,0.2-0.2,0.2-0.2,0.5c0,0.2-0.2,0.2-0.2,0.2
			c-0.2,0.2-0.2,0.2-0.2,0.2c-0.2,0.2-0.2,0.7-0.5,0.7c-0.2,0.2-0.2,0.2-0.2,0.2c-0.2,0.2-0.2,0.7-0.2,0.7c0,0.2,0.2,0.7,0.2,0.9
			c0.2,0.2,0.2,0.2,0.2,0.5c0.2,0.2,0.2,0.2,0.5,0.7c0.2,0.2,0.2,0.2,0.2,0.2c0.2,0.2,0.2,0.2,0.2,0.2c0.2,0.2,0.2,0.2,0.2,0.2
			c0.5,0.2,0.5,0.2,0.5,0.2l0.2,0.2l0,0l0,0c-0.2-0.2-0.2-0.2-0.5-0.2c-0.2-0.2-0.2-0.2-0.2-0.2c-0.2,0-0.2-0.2-0.2-0.2
			c-0.2-0.2-0.2-0.2-0.2-0.2c-0.2-0.2-0.5-0.2-0.7-0.2c-0.2-0.2-0.7-0.2-1.2-0.2c-0.2,0-0.5,0-0.7,0.2c-0.2,0.2-0.7,0.2-0.7,0.2
			s-0.5,0.2-0.7,0.5c-0.2,0.2-0.2,0.2-0.2,0.2c-0.2,0.2-0.2,0.2-0.2,0.2c-0.2,0.2-0.2,0.2-0.2,0.2l-0.2,0.2l0,0l0,0
			c0.2-0.2,0.2-0.2,0.2-0.5s0.2-0.2,0.2-0.2c0.2-0.2,0.2-0.2,0.2-0.2c0.2-0.2,0.2-0.5,0.2-0.7c0.2-0.2,0.2-0.7,0.2-1.2
			c0-0.2,0-0.5-0.2-0.7c-0.2-0.2-0.2-0.7-0.2-0.7s-0.2-0.5-0.5-0.7c-0.2-0.2-0.2-0.2-0.2-0.2l-0.2-0.2c-0.2-0.2-0.2-0.2-0.2-0.2
			c-0.2-0.2-0.2-0.2-0.2-0.2l-0.2-0.2l0,0l0,0c0.2,0.2,0.2,0.2,0.2,0.2c0.2,0.2,0.2,0.2,0.2,0.2c0.2,0,0.2,0.2,0.2,0.2
			c0.2,0.2,0.2,0.2,0.2,0.2c0.2,0.2,0.7,0.2,0.7,0.5c0.2,0.2,0.2,0.2,0.2,0.2c0.2,0.2,0.7,0.2,0.7,0.2s0.5,0,0.7-0.2
			c0.2-0.2,0.7-0.2,0.7-0.2s0.2-0.2,0.7-0.5c0.2-0.2,0.2-0.2,0.2-0.2l0.2-0.2c0.2-0.2,0.2-0.2,0.2-0.2l0.2-0.2
			C324.5,188.3,324.5,188.3,324.5,188.3L324.5,188.3z"/>
	</g>
	<g>
		<path class="st2" d="M157.5,108.8C157.5,109,157.5,109,157.5,108.8c-0.2,0.2-0.2,0.2-0.2,0.2l-0.2,0.2c-0.2,0.2-0.2,0.2-0.2,0.2
			c-0.2,0.2-0.2,0.2-0.2,0.7c-0.2,0.2-0.2,0.2-0.2,0.2c-0.2,0.2-0.2,0.2-0.2,0.7c0,0.2,0.2,0.5,0.2,0.7c0.2,0.2,0.2,0.2,0.2,0.2
			c0.2,0.2,0.2,0.2,0.2,0.5c0.2,0.2,0.2,0.2,0.2,0.2l0.2,0.2l0.2,0.2l0.2,0.2c0,0,0,0.2,0.2,0.2l0,0l0,0c-0.2-0.2-0.2-0.2-0.2-0.2
			c-0.2,0-0.2-0.2-0.2-0.2l-0.2-0.5c-0.2,0-0.2,0-0.2,0c-0.2-0.2-0.2-0.2-0.7-0.2c-0.2-0.2-0.7-0.2-0.9-0.2c-0.2,0-0.2,0-0.7,0.2
			c-0.2,0.2-0.2,0.2-0.7,0.2c-0.2,0.2-0.2,0.2-0.5,0.2c-0.2,0.2-0.2,0.2-0.2,0.2l-0.2,0.2c0.2,0,0.2,0,0.2,0v0.2l0,0l0,0
			c0.2-0.2,0.2-0.2,0.2-0.2l0.2-0.2c0.2-0.2,0.2-0.2,0.2-0.2c0.2-0.2,0.2-0.2,0.2-0.7c0.2-0.2,0.2-0.7,0.2-0.7c0-0.2,0-0.2-0.2-0.7
			c-0.2-0.2-0.2-0.2-0.2-0.7c-0.2-0.2-0.2-0.2-0.2-0.5c-0.5,0-0.5,0-0.5,0l-0.2-0.2l-0.2-0.2l-0.2-0.2l-0.2-0.2l0,0l0,0
			c0.2,0,0.2,0.2,0.2,0.2c0.2,0,0.2,0.2,0.2,0.2l0.2,0.2c0.2,0.2,0.2,0.2,0.2,0.2c0.2,0.2,0.2,0.2,0.7,0.2c0.2,0,0.2,0.2,0.2,0.2
			c0.2,0.2,0.2,0.2,0.7,0.2c0.2,0,0.2,0,0.7-0.2c0.2-0.2,0.2-0.2,0.7-0.2c0.2-0.2,0.2-0.2,0.5-0.2c0.2-0.2,0.2-0.2,0.2-0.2l0.2-0.2
			l0.2-0.2l0.2-0.2C157.5,109,157.5,108.8,157.5,108.8L157.5,108.8z"/>
	</g>
	<g>
		<path class="st2" d="M205.7,96C205.5,96,205.5,96,205.7,96c-0.2,0.2-0.2,0.2-0.5,0.2s-0.2,0-0.2,0.2c-0.2,0-0.2,0.2-0.2,0.2
			c-0.2,0.2-0.5,0.2-0.7,0.2c0,0.2,0,0.2-0.2,0.2c-0.2,0.2-0.2,0.2-0.7,0.5c-0.5,0.2-0.2,0.5-0.2,0.7c0,0.2-0.2,0.2-0.2,0.5
			s0,0.5,0,0.7c0,0.2,0,0.2,0,0.2c0,0.2,0,0.2,0,0.2c0,0.2,0,0.2,0,0.2c0,0.2,0,0.2,0,0.2v0.2l0,0l0,0c0-0.2-0.2-0.2-0.2-0.2v-0.2
			c0-0.2,0-0.2-0.2-0.2c0-0.2-0.2-0.2-0.2-0.2c0-0.5,0-0.9,0-0.9c-0.2-0.2-0.2-0.7-0.7-0.9c-0.2-0.2-0.2-0.2-0.7-0.2
			c-0.2-0.2-0.5-0.2-0.7-0.2c-0.2,0-0.5,0-0.7,0c-0.2,0-0.2,0-0.2,0h-0.2c-0.2,0-0.2,0-0.2,0h-0.2l0,0l0,0c0.2,0,0.2-0.2,0.5-0.2
			s0.2,0,0.2-0.2c0.2,0,0.2-0.2,0.2-0.2c0.2-0.2,0.5-0.2,0.7-0.2c0.2-0.2,0.7-0.2,0.9-0.7c0.2-0.2,0.2-0.2,0.2-0.7
			c0.2-0.2,0.2-0.5,0.2-0.7c0-0.2,0-0.5,0-0.7c0-0.2,0-0.2,0-0.2v-0.2c0-0.2,0-0.2,0-0.2c0-0.2,0-0.2,0-0.2v-0.2l0,0l0,0
			c0,0.2,0,0.2,0.2,0.2c0,0.2,0.2,0.2,0.2,0.2c0,0.2,0,0.2,0.2,0.2c0,0.2,0.2,0.2,0.2,0.2c-0.2,0.7-0.2,0.9-0.2,1.2
			c0,0.2,0.2,0.2,0.2,0.2c0.2,0.2,0.2,0.2,0.5,0.7c0.2,0.2,0.2,0.2,0.7,0.2c0.2,0.2,0.5,0.2,0.7,0.2c0.2,0,0.5,0,0.7,0
			c0.2,0,0.2,0,0.2,0c0.2,0,0.2,0,0.2,0h0.2C205.7,96,205.7,96,205.7,96C205.5,96,205.5,96,205.7,96L205.7,96z"/>
	</g>
	<g>
		<path class="st2" d="M267.5,152.4L267.5,152.4c-0.2,0.2-0.2,0.2-0.2,0.2H267c-0.2,0-0.2,0.2-0.2,0.2c-0.2,0.2-0.2,0.2-0.7,0.2
			c-0.2,0-0.2,0.2-0.2,0.2c-0.2,0.2-0.2,0.2-0.5,0.2c-0.2,0.2-0.2,0.2-0.2,0.7c0,0.2-0.2,0.2-0.2,0.2c0,0.2,0,0.2,0,0.7
			c0,0.2,0,0.2,0,0.2v0.2c0,0.2,0,0.2,0,0.2c0,0.2,0,0.2,0,0.2v0.2l0,0l0,0c0-0.2,0-0.2-0.2-0.2c0-0.2,0-0.2-0.2-0.2v-0.2
			c0-0.2-0.2-0.2-0.2-0.2c-0.2-0.2-0.2-0.2-0.2-0.7c-0.2-0.2-0.2-0.5-0.5-0.7c-0.2-0.2-0.2-0.2-0.5-0.2s-0.2-0.2-0.7-0.2
			c-0.2,0-0.2,0-0.7,0c-0.2,0-0.2,0-0.2,0h-0.2c-0.2,0-0.2,0-0.2,0h0.2l0,0l0,0c0.2,0,0.2-0.2,0.2-0.2c0.2,0,0.2,0,0.2-0.2
			c0.2,0,0.2-0.2,0.2-0.2c0.2-0.2,0.2-0.2,0.7-0.2s0.5-0.2,0.7-0.5c0.2-0.2,0.2-0.2,0.2-0.5c0.2-0.2,0.2-0.2,0.2-0.7
			c0-0.2,0-0.2,0-0.7c0-0.2,0-0.2,0-0.2v-0.2c0-0.2,0-0.2,0-0.2c0-0.2,0-0.2,0-0.2v0.5l0,0l0,0c0,0.2,0,0.2,0.2,0.2
			c0,0.2,0,0.2,0.2,0.2v0.2c0,0.2,0.2,0.2,0.2,0.2c0.2,0.2,0.2,0.2,0.2,0.7c0,0.2,0.2,0.2,0.2,0.2c0.2,0.2,0.2,0.2,0.2,0.5
			c0.2,0.2,0.2,0.2,0.5,0.2s0.2,0.2,0.7,0.2c0.2,0,0.2,0,0.7,0c0.2,0,0.2,0,0.2,0L267.5,152.4C267.5,152.2,267.5,152.2,267.5,152.4
			L267.5,152.4C267.2,152.6,267.2,152.4,267.5,152.4L267.5,152.4z"/>
	</g>
	<g>
		<path class="st2" d="M101.8,180L101.8,180c-0.2,0.2-0.2,0.2-0.2,0.2h-0.2c-0.2,0-0.2,0.2-0.2,0.2c-0.2,0.2-0.2,0.2-0.7,0.2
			c-0.2,0-0.2,0.2-0.2,0.2c-0.2,0.2-0.2,0.2-0.5,0.2c-0.2,0.2-0.2,0.2-0.2,0.7c0,0.2-0.2,0.2-0.2,0.5s0,0.2,0,0.7c0,0.2,0,0.2,0,0.2
			v0.2c0,0.2,0,0.2,0,0.2v0.2v0.2l0,0l0,0c0-0.2,0-0.2-0.2-0.2c0-0.2,0-0.2-0.2-0.2v-0.2c0-0.2-0.2-0.2-0.2-0.2
			c-0.2-0.2-0.2-0.2-0.2-0.7c-0.2-0.2-0.2-0.5-0.7-0.7c-0.2-0.2-0.2-0.2-0.5-0.2c-0.2-0.2-0.2-0.2-0.7-0.2c-0.2,0-0.2,0-0.7,0
			c-0.2,0-0.2,0-0.2,0c-0.2,0-0.2,0-0.2,0c-0.2,0-0.2,0-0.2,0h0.2l0,0l0,0c0.2,0,0.2-0.2,0.2-0.2c0.2,0,0.2,0,0.2-0.2
			c0.2,0,0.2-0.2,0.2-0.2c0.2-0.2,0.2-0.2,0.7-0.2s0.5-0.2,0.7-0.7c0.2-0.2,0.2-0.2,0.2-0.5c0.2-0.2,0.2-0.2,0.2-0.7
			c0-0.2,0-0.2,0-0.7c0-0.2,0-0.2,0-0.2v-0.2c0-0.2,0-0.2,0-0.2c0-0.2,0-0.2,0-0.2v-0.2l0,0l0,0c0,0.2,0,0.2,0.2,0.2
			c0,0.2,0,0.2,0.2,0.2v0.2c0,0.2,0.2,0.2,0.2,0.2c0.2,0.2,0.2,0.2,0.2,0.7c0,0.2,0.2,0.2,0.2,0.2c0.2,0.2,0.2,0.2,0.2,0.5
			c0.2,0.2,0.2,0.2,0.5,0.2c-0.2,0.7,0,0.7,0.2,0.7c0.2,0,0.2,0,0.7,0c0.2,0,0.2,0,0.2,0h0.2c0.2,0,0.2,0,0.2,0h0.2
			C101.8,180,101.8,180,101.8,180L101.8,180z"/>
	</g>
	<g>
		<path class="st2" d="M197.4,150.8C197.2,150.8,197.2,150.8,197.4,150.8c-0.2-0.2-0.2-0.2-0.5-0.2c-0.2,0-0.2,0-0.2,0
			c-0.2,0-0.2,0-0.2-0.2c-0.2,0-0.5-0.2-0.7-0.2c-0.2,0-0.2,0-0.2,0c-0.2,0-0.5,0.2-0.7,0.2c-0.2,0.2-0.5,0.2-0.7,0.5
			c-0.2,0.2-0.2,0.2-0.2,0.2c-0.2,0.2-0.2,0.2-0.2,0.7c-0.2,0.2-0.2,0.2-0.2,0.2c0,0.2-0.2,0.2-0.2,0.2c0,0.2-0.2,0.2-0.2,0.2
			c0,0.2-0.2,0.2-0.2,0.2v0.2l0,0l0,0c0-0.2,0-0.2,0.2-0.2c0-0.2,0-0.2,0.2-0.2c0-0.2,0-0.2,0-0.2c0-0.2,0-0.2,0.2-0.2
			c0-0.2,0.2-0.5,0.2-0.7c0-0.2,0-0.7-0.2-0.9c-0.2-0.2-0.2-0.2-0.2-0.7c-0.2-0.2-0.2-0.2-0.7-0.5c-0.2-0.2-0.2-0.2-0.7-0.2
			c-0.2-0.2-0.2-0.2-0.2-0.2c-0.2,0-0.2-0.2-0.2-0.2l-0.2-0.2h-0.2l0,0l0,0c0.2,0,0.2,0.2,0.5,0.2c0.2,0,0.2,0,0.2,0s0.2,0,0.2,0.2
			c0.2,0,0.5,0.2,0.7,0.2c0.2,0,0.7,0,0.9-0.2c0.2-0.2,0.2-0.2,0.7-0.2c0.2-0.2,0.2-0.2,0.5-0.7c0.2-0.2,0.2-0.2,0.2-0.7
			c0.2-0.2,0.2-0.2,0.2-0.2s0-0.2,0.2-0.2c0-0.2,0.2-0.2,0.2-0.2c0-0.2,0.2-0.2,0.2-0.2v-0.2l0,0l0,0c0,0.2,0,0.2-0.2,0.2
			c0,0.2,0,0.2-0.2,0.2c0,0.2,0,0.2,0,0.2c0,0.2,0,0.2-0.2,0.2c0,0.2-0.2,0.5-0.2,0.7s0,0.2,0,0.2c0,0.2,0.2,0.5,0.2,0.7
			c0.2,0.2,0.2,0.2,0.2,0.7c0.2,0.2,0.2,0.2,0.7,0.5c0.2,0.2,0.2,0.2,0.7,0.2c0.2,0.2,0.2,0.2,0.2,0.2s0.2,0,0.2,0.2
			c0.2,0,0.2,0.2,0.2,0.2C197.4,150.8,197.4,150.8,197.4,150.8C196.9,150.8,197.4,150.8,197.4,150.8L197.4,150.8z"/>
	</g>
	<g>
		<path class="st2" d="M315,132L315,132c-0.2,0.2-0.2,0.2-0.5,0.2c-0.2,0-0.2,0-0.2,0c-0.2,0-0.2,0.2-0.2,0.2
			c-0.2,0.2-0.5,0.2-0.7,0.2c-0.2,0-0.2,0.2-0.2,0.2c-0.2,0.2-0.2,0.2-0.5,0.5c-0.2,0.2-0.2,0.5-0.2,0.7s-0.2,0.2-0.2,0.5
			s0,0.2,0,0.7c0,0.2,0,0.2,0,0.2v0.2c0,0.2,0,0.2,0,0.2c0,0.2,0,0.2,0,0.2v-0.2l0,0l0,0c0-0.2-0.2-0.2-0.2-0.2
			c0-0.2-0.2-0.2-0.2-0.2c0-0.2,0-0.2,0-0.2c0-0.2-0.2-0.2-0.2-0.2c-0.2-0.2-0.2-0.2-0.2-0.7c-0.2-0.2-0.2-0.7-0.7-0.7
			c-0.2-0.2-0.2-0.2-0.7-0.2c-0.2-0.2-0.5-0.2-0.7-0.2s-0.5,0-0.7,0s-0.2,0-0.2,0H308c-0.2,0-0.2,0-0.2,0h-0.2l0,0l0,0
			c0.2,0,0.2-0.2,0.2-0.2c0.2,0,0.2,0,0.2-0.2c0.2,0,0.2-0.2,0.2-0.2c0.2-0.2,0.2-0.2,0.7-0.2c0.2-0.2,0.7-0.2,0.7-0.7
			c0.2-0.2,0.2-0.2,0.2-0.7c0.2-0.2,0.2-0.5,0.2-0.7s0-0.5,0-0.7c0-0.2,0-0.2,0-0.2V129c0-0.2,0-0.2,0-0.2c0-0.2,0-0.2,0-0.2v-0.2
			l0,0l0,0c0,0.2,0,0.2,0.2,0.2c0,0.2,0.2,0.2,0.2,0.2c0,0.2,0,0.2,0.2,0.2c0,0.2,0.2,0.2,0.2,0.2c0.2,0.2,0.2,0.5,0.2,0.7
			s0.2,0.2,0.2,0.2c0.2,0.2,0.2,0.2,0.5,0.5s0.2,0.2,0.7,0.2c0.2,0.2,0.5,0.2,0.7,0.2c0.2,0,0.2,0,0.7,0c0.2,0,0.2,0,0.2,0h0.2
			c0.2,0,0.2,0,0.2,0L315,132C314.8,132,314.8,132,315,132L315,132z"/>
	</g>
	<g>
		<g>
			<path class="st2" d="M225.5,155.2L225.5,155.2L225.5,155.2L225.5,155.2L225.5,155.2L225.5,155.2z"/>
		</g>
		<g>
			<path class="st2" d="M225.5,155.2L225.5,155.2L225.5,155.2L225.5,155.2z"/>
		</g>
	</g>
	<g>
		<path class="st2" d="M225.2,74.2c-82.8,0-150.3,67.7-150.3,150.8c0,10.2,1.2,20.4,3,30.2c0.2,1.9,0.7,3.9,1.4,6
			c1.2,4.2,2.3,8.6,3.7,12.5c0.9,2.8,1.9,5.6,3,8.1c3,7.2,6.3,14.2,10.2,20.6c1.4,2.3,2.8,4.6,4.2,6.7c3.5,5.1,7.4,10.2,11.4,14.8
			c1.4,1.6,2.8,3.2,4.2,4.6c3.7,3.7,7.7,7.7,11.4,10.9c2.3,1.9,4.6,3.7,6.7,5.6c25.3,19,56.6,30.6,90.7,30.6s65.4-11.4,90.7-30.6
			c2.3-1.9,4.6-3.7,7-5.6c4.2-3.5,7.9-7.2,11.4-10.9c1.6-1.6,2.8-3,4.2-4.6c4.2-4.6,7.9-9.7,11.4-14.6c1.6-2.1,2.8-4.4,4.2-6.7
			c3.9-6.5,7.4-13.2,10.2-20.4c1.2-2.8,2.3-5.6,3.2-8.4c1.4-4.2,2.8-8.4,3.7-12.8c0.5-1.9,0.9-3.9,1.4-6c1.9-9.7,3-20,3-30.2
			C375.6,141.7,308.3,74.2,225.2,74.2z M225.2,369.5c-23.7,0-45.9-5.8-65.7-15.8c1.4,0.2,3,0.2,4.6,0.2c8.4,0,13-2.6,16.7-4.9
			c3.7-2.3,7-4.2,13.7-4.2c6.7,0,10.2,1.9,13.7,4.2c3.9,2.3,8.4,4.9,16.7,4.9c8.4,0,13-2.6,16.7-4.9c3.7-2.3,7-4.2,13.7-4.2
			c6.7,0,10.2,1.9,13.7,4.2c3.9,2.3,8.4,4.9,16.7,4.9c1.6,0,2.8-0.2,4.2-0.2C271.4,364,248.9,369.5,225.2,369.5z M313.6,339.1
			c-6.3,0.7-9.7,2.8-13.2,4.6c-3.7,2.3-7,4.2-13.7,4.2s-10.2-1.9-13.7-4.2c-3.9-2.3-8.4-4.9-16.7-4.9c-8.4,0-13,2.6-16.7,4.9
			c-3.7,2.3-7,4.2-13.7,4.2c-6.7,0-10.2-1.9-13.7-4.2c-3.9-2.3-8.4-4.9-16.7-4.9c-8.4,0-13,2.6-16.7,4.9c-3.7,2.3-7,4.2-13.7,4.2
			c-6.7,0-10.2-1.9-13.7-4.2c-3.5-1.9-7.2-4.2-13.7-4.9c-5.3-4.2-10.4-8.6-15.1-13.7c3-1.6,6.3-3,11.8-3c6.7,0,10.2,1.9,13.7,4.2
			c3.9,2.3,8.4,4.9,16.7,4.9c8.4,0,13-2.6,16.7-4.9c3.7-2.3,7-4.2,13.7-4.2c6.7,0,10.2,1.9,13.7,4.2c3.9,2.3,8.4,4.9,16.7,4.9
			c8.4,0,13-2.6,16.7-4.9c3.7-2.3,7-4.2,13.7-4.2c6.7,0,10.2,1.9,13.7,4.2c3.9,2.3,8.4,4.9,16.7,4.9c8.4,0,13-2.6,16.7-4.9
			c3.7-2.3,7-4.2,13.7-4.2c5.6,0,8.6,1.2,11.6,2.8C324.1,330.3,319,335.2,313.6,339.1z M333.1,321c-3.7-2.1-7.9-4.4-15.8-4.4
			c-8.4,0-13,2.6-16.7,4.9c-3.7,2.3-7,4.2-13.7,4.2s-10.2-1.9-13.7-4.2c-3.9-2.3-8.4-4.9-16.7-4.9c-8.4,0-13,2.6-16.7,4.9
			c-3.7,2.3-7,4.2-13.7,4.2c-6.7,0-10.2-1.9-13.7-4.2c-3.9-2.3-8.4-4.9-16.7-4.9c-8.4,0-13,2.6-16.7,4.9c-3.7,2.3-7,4.2-13.7,4.2
			c-6.7,0-10.2-1.9-13.7-4.2c-3.9-2.3-8.4-4.9-16.7-4.9c-7.9,0-12.3,2.3-16.2,4.6c-3.5-3.9-6.7-8.1-9.7-12.3
			c5.6-0.7,8.8-2.8,12.1-4.6c3.7-2.3,7-4.2,13.7-4.2c6.7,0,10.2,1.9,13.7,4.2c3.9,2.3,8.4,4.9,16.7,4.9s13-2.6,16.7-4.9
			c3.7-2.3,7-4.2,13.7-4.2c6.7,0,10.2,1.9,13.7,4.2c3.9,2.3,8.4,4.9,16.7,4.9c8.4,0,13-2.6,16.7-4.9c3.7-2.3,7-4.2,13.7-4.2
			c6.7,0,10.2,1.9,13.7,4.2c3.9,2.3,8.4,4.9,16.7,4.9s13-2.6,16.7-4.9c3.7-2.3,7-4.2,13.7-4.2s10.2,1.9,13.7,4.2
			c3,1.9,6.3,3.7,11.8,4.6C339.6,312.9,336.6,317.1,333.1,321z M346.8,303.2c-6-0.2-9-1.9-12.5-4.2c-3.9-2.3-8.4-4.9-16.7-4.9
			s-13,2.6-16.7,4.9c-3.7,2.3-7,4.2-13.7,4.2s-10.2-1.9-13.7-4.2c-3.9-2.3-8.4-4.9-16.7-4.9c-8.4,0-13,2.6-16.7,4.9
			c-3.7,2.3-7,4.2-13.7,4.2c-6.7,0-10.2-1.9-13.7-4.2c-3.9-2.3-8.4-4.9-16.7-4.9c-8.4,0-13,2.6-16.7,4.9c-3.7,2.3-7,4.2-13.7,4.2
			c-6.7,0-10.2-1.9-13.7-4.2c-3.9-2.3-8.4-4.9-16.7-4.9c-8.4,0-13,2.6-16.7,4.9c-3.7,2.1-6.7,3.9-13,4.2c-3.7-5.6-6.7-11.6-9.7-17.6
			c2.3,0.7,5.3,1.2,8.8,1.2c8.4,0,13-2.6,16.7-4.9c3.7-2.3,7-4.2,13.7-4.2c6.7,0,10.2,1.9,13.7,4.2c3.9,2.3,8.4,4.9,16.7,4.9
			c8.4,0,13-2.6,16.7-4.9c3.7-2.3,7-4.2,13.7-4.2c6.7,0,10.2,1.9,13.7,4.2c3.9,2.3,8.4,4.9,16.7,4.9c8.4,0,13-2.6,16.7-4.9
			c3.7-2.3,7-4.2,13.7-4.2s10.2,1.9,13.7,4.2c3.9,2.3,8.4,4.9,16.7,4.9s13-2.6,16.7-4.9c3.7-2.3,7-4.2,13.7-4.2s10.2,1.9,13.7,4.2
			c3.9,2.3,8.4,4.9,16.7,4.9c3.2,0,6-0.2,8.4-1.2C353.5,291.8,350.3,297.6,346.8,303.2z M359.6,277.9c-3,1.6-6.3,2.8-11.8,2.8
			c-6.7,0-10.2-1.9-13.7-4.2c-3.9-2.3-8.4-4.9-16.7-4.9s-13,2.6-16.7,4.9c-3.7,2.3-7,4.2-13.7,4.2s-10.2-1.9-13.7-4.2
			c-3.9-2.3-8.4-4.9-16.7-4.9c-8.4,0-13,2.6-16.7,4.9c-3.7,2.3-7,4.2-13.7,4.2c-6.7,0-10.2-1.9-13.7-4.2c-3.9-2.3-8.4-4.9-16.7-4.9
			c-8.4,0-13,2.6-16.7,4.9c-3.7,2.3-7,4.2-13.7,4.2c-6.7,0-10.2-1.9-13.7-4.2c-3.9-2.3-8.4-4.9-16.7-4.9s-13,2.6-16.7,4.9
			c-3.7,2.3-7,4.2-13.7,4.2c-5.8,0-9-1.4-12.3-3.2c-2.1-5.3-3.9-10.9-5.3-16.5h279.5C363.5,266.8,361.9,272.3,359.6,277.9z
			 M132.4,254.9l5.3-25.5l2.8,25.5H132.4z M247.5,179.8l-22.7,22.5L202,179.8H247.5L247.5,179.8z M205.3,174l19.7-12.3l19.7,12.3
			H205.3z M177,216l41.8-5.6l-24.8,41.3L177,216z M189,254.9h-39.7l22.7-35.3L189,254.9z M225,212.5l25.5,42.7h-51.3L225,212.5z
			 M230.6,210.2l41.8,5.6l-16.9,35.7L230.6,210.2z M277.4,219.7l22.7,35.3h-39.7L277.4,219.7z M282.3,216l26-1.9l-4.4,35.3
			L282.3,216z M278.6,210.2l-15.1-25.1l39.9,23.2L278.6,210.2z M263,178.1l10.2-2.6l18.3,19L263,178.1z M271.4,209.7l-39.9-5.3
			l23-22.5L271.4,209.7z M255.4,173.5L255.4,173.5l-10.9-6.7l17.6,5.1L255.4,173.5z M194.4,173.5l-6.7-1.6l17.9-5.1L194.4,173.5z
			 M195.3,181.9l23,22.5l-39.9,5.3L195.3,181.9z M186,185.3l-15.1,24.8l0,0l-24.6-1.6L186,185.3z M158.7,194.4l17.9-18.6l10.2,2.3
			L158.7,194.4z M167.5,216l-21.3,33.4l-3.9-35.3L167.5,216z M309,254.9l3.2-26.4l5.8,26.4H309z M366.5,254.9h-42.2l-9.7-44.8
			c0-0.2,0-0.2-0.2-0.2l0,0v-0.2v-0.2c-0.2-0.2-0.2-0.7-0.7-0.9l0,0l-37.3-38.3L276,170c-0.2-0.2-0.2-0.2-0.2-0.2
			c-0.2-0.2-0.2-0.2-0.2-0.2c-0.2,0-0.2-0.2-0.2-0.2l-0.2-0.2c-0.2-0.2-0.2-0.2-0.5-0.2l-49.2-14.2h-0.2c0,0,0,0-0.2,0
			c0,0,0,0-0.2,0l0,0l0,0c-0.2,0-0.2,0-0.2,0c-0.2,0-0.2,0-0.2,0h-0.2c-0.2,0-0.2,0-0.2,0h-0.2h-0.2l0,0c0,0,0,0-0.2,0h-0.2
			l-49.2,14.2h-0.2c-0.2,0-0.2,0.2-0.2,0.2c-0.2,0-0.2,0.2-0.2,0.2c-0.2,0-0.2,0.2-0.2,0.2c-0.2,0.2-0.2,0.2-0.2,0.2l-0.2,0.2
			c-0.2,0.2-0.2,0.2-0.2,0.2l-0.2,0.2L135.2,209l-0.2,0.2l-0.2,0.2l-0.2,0.2c-0.2,0.2-0.2,0.5-0.2,0.7s-0.2,0.2-0.2,0.2v0.2
			l-9.7,44.8H83.7c-1.9-9.7-3.2-19.7-3.2-30.2c0-79.8,64.7-144.8,144.3-144.8s144.3,65,144.3,144.8
			C369.5,235.2,368.4,245.2,366.5,254.9z"/>
	</g>
	<g>
		<g>
			<path class="st2" d="M342.2,211.1c0,0.2,0,0.7,0,1.2V211.1L342.2,211.1z"/>
		</g>
		<g>
			<path class="st2" d="M361.9,240.5c-0.2,1.2-1.2,1.6-1.9,1.6c-0.2,0-0.2,0-0.5-0.2c-0.5-0.2-7.9-1.9-13-6.7v20.2
				c0,1.2-0.9,2.1-2.1,2.1s-2.1-0.9-2.1-2.1v-20.2c-4.9,4.9-12.3,6.5-13,6.7c-0.2,0-0.2,0.2-0.5,0.2c-0.9,0-1.9-0.7-1.9-1.6
				c-0.2-1.2,0.5-2.3,1.6-2.6c0.2,0,3.5-0.7,7-2.8c3.5-2.1,7-4.9,7-9.3V222c-3.5,3.5-8.1,4.9-11.4,5.3c-0.2,0-0.2,0-0.2,0
				c-1.2,0-1.9-0.9-2.1-1.9c-0.2-1.2,0.7-2.3,1.9-2.3c0.5-0.2,11.4-1.6,11.8-11.1l0,0c0-0.2,0-0.7,0-1.2c0-0.2,0-0.2,0-0.2v-1.9
				c-3.5,3.9-7.7,4.6-7.7,4.6c-1.2,0.2-2.3-0.7-2.3-1.9c-0.2-1.2,0.7-2.3,1.9-2.3c0.2-0.2,8.4-1.6,8.4-13.2v0.2
				c0-1.2,0.9-2.1,2.1-2.1c0.7,0,1.2,0.2,1.6,0.7c0.5,0.2,0.7,0.9,0.7,1.6v0.2c0,11.8,7.9,13.2,8.4,13.2c1.2,0.2,1.9,1.4,1.9,2.3
				s-1.2,1.9-1.9,1.9c-0.2,0-0.2,0-0.2,0c-0.2,0-4.2-0.7-7.7-4.6v1.6c0,0.2,0,0.2,0,0.2v0.2v0.7c0-0.2,0-0.2,0-0.2
				c0.2,9.7,11.4,11.1,11.8,11.1c1.2,0.2,1.9,1.2,1.9,2.3c-0.2,1.2-1.2,1.9-2.1,1.9c-0.2,0-0.2,0-0.2,0c-3.2-0.2-7.9-1.9-11.4-5.3
				v3.7c0,0.2,0,0.2,0,0.2c0,9,13.7,12.1,13.9,12.1C361.4,238.2,362.3,239.4,361.9,240.5z"/>
		</g>
		<g>
			<path class="st2" d="M346.6,212L346.6,212c0,0.2,0,0.2,0,0.2v-0.7C346.6,211.8,346.6,212,346.6,212z"/>
		</g>
		<g>
			<path class="st2" d="M342.2,211.1c0,0.2,0,0.7,0,1.2V211.1L342.2,211.1z"/>
			<path class="st2" d="M346.6,212L346.6,212c0,0.2,0,0.2,0,0.2v-0.7C346.6,211.8,346.6,212,346.6,212z"/>
		</g>
		<g>
			<path class="st4" d="M344.5,196.2"/>
		</g>
	</g>
	<g>
		<g>
			<path class="st2" d="M104.1,212L104.1,212C104.1,212.2,104.1,212.2,104.1,212v-0.5C104.1,211.8,104.1,212,104.1,212z"/>
			<path class="st2" d="M107.1,224.1c0.2,0.2,0.2,0.2,0.2,0.2C107.4,224.1,107.1,224.1,107.1,224.1z"/>
			<path class="st2" d="M123.9,240.5c-0.2,1.2-1.2,1.6-1.9,1.6c-0.2,0-0.2,0-0.5-0.2c-0.5-0.2-7.9-1.9-13-6.7v20.2
				c0,1.2-0.9,2.1-2.1,2.1s-2.1-0.9-2.1-2.1v-20.2c-4.9,4.9-12.3,6.5-13,6.7c-0.2,0-0.2,0.2-0.5,0.2c-0.9,0-1.9-0.7-1.9-1.6
				c-0.2-1.2,0.5-2.3,1.6-2.6c0.2,0,3.5-0.7,7-2.8c3.5-2.1,6.7-4.9,6.7-9.3V222c-3.5,3.2-8.1,4.9-11.4,5.3c-0.2,0-0.2,0-0.2,0
				c-1.2,0-1.9-0.9-2.1-1.9c-0.2-1.2,0.7-2.3,1.9-2.3c0.5-0.2,11.4-1.4,11.8-10.9V212l0,0c0-0.2,0-0.2,0-0.7V209
				c-3.5,3.9-7.7,4.6-7.7,4.6c-1.2,0.2-2.3-0.7-2.3-1.9c-0.2-1.2,0.7-2.3,1.9-2.3c0.2-0.2,8.4-1.6,8.4-13.2v0c0-1.2,0.9-2.1,2.1-2.1
				l0,0c1.2,0,2.1,0.9,2.1,2.1v0.2c0,11.8,7.9,13.2,8.4,13.2c1.2,0.2,1.9,1.4,1.9,2.3c0,0.9-1.2,1.9-1.9,1.9c-0.2,0-0.2,0-0.2,0
				c-0.2,0-4.2-0.7-7.7-4.6v1.4c0,0.2,0,0.2,0,0.7c0,0.2,0,0.5,0,0.7l0,0c0.2,9.7,11.4,11.1,11.8,11.1c1.2,0.2,1.9,1.2,1.9,2.3
				c-0.2,1.2-1.2,1.9-2.1,1.9c-0.2,0-0.2,0-0.2,0c-3.2-0.2-7.9-1.9-11.4-5.3v3.7c0,0.2,0,0.2,0,0.2c0,9,13.7,12.1,13.9,12.1
				C123.4,238.2,124.1,239.4,123.9,240.5z"/>
		</g>
		<g>
			<path class="st2" d="M107.1,224.1c0.2,0.2,0.2,0.2,0.2,0.2C107.4,224.1,107.1,224.1,107.1,224.1z"/>
		</g>
		<g>
			<path class="st4" d="M106.2,196.2"/>
		</g>
	</g>
</g>
</svg>
