<?xml version="1.0" encoding="utf-8"?>
<!-- Generator: Adobe Illustrator 27.4.0, SVG Export Plug-In . SVG Version: 6.00 Build 0)  -->
<svg version="1.1" id="Maeve_in_June" xmlns="http://www.w3.org/2000/svg" xmlns:xlink="http://www.w3.org/1999/xlink" x="0px"
	 y="0px" width="199.9px" height="70.7px" viewBox="0 0 199.9 70.7" style="enable-background:new 0 0 199.9 70.7;"
	 xml:space="preserve">
<link  id="dark-mode-custom-link" rel="stylesheet" type="text/css" xmlns=""></link>
<link  id="dark-mode-general-link" rel="stylesheet" type="text/css" xmlns=""></link>
<link  id="dark-mode-custom-link" rel="stylesheet" type="text/css" xmlns=""></link>
<link  id="dark-mode-general-link" rel="stylesheet" type="text/css" xmlns=""></link>
<g id="Logo" style="fill:#100E51">
	<g id="IN_JUNE">
		<path d="M58.4,68.1c-0.2-0.2-0.2-0.3-0.2-0.5V57.3c0-0.2,0.1-0.4,0.2-0.5c0.2-0.2,0.3-0.2,0.5-0.2c0.2,0,0.4,0.1,0.5,0.2
			c0.2,0.2,0.2,0.3,0.2,0.5v10.3c0,0.2-0.1,0.4-0.2,0.5c-0.2,0.2-0.3,0.2-0.5,0.2C58.7,68.3,58.5,68.3,58.4,68.1z"/>
		<path d="M66.4,68.1c-0.2-0.2-0.2-0.3-0.2-0.5v-9.9c0-0.3,0.1-0.5,0.3-0.8c0.2-0.2,0.5-0.3,0.7-0.3h0.2c0.4,0,0.6,0.2,0.9,0.5
			l6.4,9.2v-9c0-0.2,0.1-0.4,0.2-0.5c0.2-0.2,0.3-0.2,0.5-0.2s0.4,0.1,0.5,0.2c0.2,0.2,0.2,0.3,0.2,0.5v9.9c0,0.3-0.1,0.5-0.3,0.7
			c-0.2,0.2-0.5,0.3-0.8,0.3h-0.2c-0.2,0-0.3-0.1-0.5-0.1c-0.2-0.1-0.3-0.2-0.4-0.3l-6.4-9.3v9c0,0.2-0.1,0.4-0.2,0.5
			c-0.2,0.2-0.3,0.2-0.5,0.2C66.8,68.3,66.6,68.3,66.4,68.1z"/>
		<path d="M89.6,67.9c-0.3-0.2-0.4-0.4-0.4-0.6c0-0.2,0.1-0.3,0.2-0.5c0.1-0.2,0.3-0.2,0.5-0.2c0.1,0,0.2,0,0.3,0.1
			c0.5,0.3,1,0.4,1.5,0.4c0.6,0,1.1-0.2,1.4-0.5c0.4-0.3,0.5-1,0.5-2v-7.2c0-0.2,0.1-0.4,0.2-0.5c0.2-0.2,0.3-0.2,0.5-0.2
			s0.4,0.1,0.5,0.2c0.2,0.2,0.2,0.3,0.2,0.5v7.1c0,1.4-0.3,2.5-1,3.1c-0.6,0.6-1.5,0.9-2.4,0.9C91,68.4,90.2,68.2,89.6,67.9z"/>
		<path d="M104.1,67.9c-0.7-0.3-1.3-0.9-1.8-1.5c-0.5-0.7-0.7-1.5-0.7-2.5v-6.6c0-0.2,0.1-0.4,0.2-0.5c0.2-0.2,0.3-0.2,0.5-0.2
			s0.4,0.1,0.5,0.2c0.2,0.2,0.2,0.3,0.2,0.5v6.6c0,0.7,0.2,1.2,0.5,1.7s0.7,0.8,1.2,1.1c0.5,0.2,1,0.4,1.6,0.4
			c0.6,0,1.1-0.1,1.6-0.4c0.5-0.2,0.9-0.6,1.2-1.1s0.5-1,0.5-1.7v-6.6c0-0.2,0.1-0.4,0.2-0.5c0.2-0.2,0.3-0.2,0.5-0.2
			s0.4,0.1,0.5,0.2c0.2,0.2,0.2,0.3,0.2,0.5v6.6c0,1-0.2,1.8-0.7,2.5c-0.5,0.7-1.1,1.2-1.8,1.5c-0.7,0.3-1.5,0.5-2.3,0.5
			C105.6,68.4,104.8,68.2,104.1,67.9z"/>
		<path d="M117.8,68.1c-0.2-0.2-0.2-0.3-0.2-0.5v-9.9c0-0.3,0.1-0.5,0.3-0.8c0.2-0.2,0.5-0.3,0.7-0.3h0.2c0.4,0,0.6,0.2,0.9,0.5
			l6.4,9.2v-9c0-0.2,0.1-0.4,0.2-0.5c0.2-0.2,0.3-0.2,0.5-0.2s0.4,0.1,0.5,0.2c0.2,0.2,0.2,0.3,0.2,0.5v9.9c0,0.3-0.1,0.5-0.3,0.7
			c-0.2,0.2-0.5,0.3-0.8,0.3h-0.2c-0.2,0-0.3-0.1-0.5-0.1c-0.2-0.1-0.3-0.2-0.4-0.3l-6.4-9.3v9c0,0.2-0.1,0.4-0.2,0.5
			c-0.2,0.2-0.3,0.2-0.5,0.2C118.1,68.3,118,68.3,117.8,68.1z"/>
		<path d="M134.5,68c-0.2-0.2-0.2-0.3-0.2-0.5V57.4c0-0.2,0.1-0.4,0.2-0.5c0.2-0.2,0.3-0.2,0.5-0.2h6.6c0.2,0,0.4,0.1,0.5,0.2
			s0.2,0.3,0.2,0.5c0,0.2-0.1,0.4-0.2,0.5c-0.2,0.2-0.3,0.2-0.5,0.2h-5.9v3.7h5.3c0.2,0,0.4,0.1,0.5,0.2c0.2,0.2,0.2,0.3,0.2,0.5
			c0,0.2-0.1,0.4-0.2,0.5c-0.2,0.2-0.3,0.2-0.5,0.2h-5.3v3.7h5.9c0.2,0,0.4,0.1,0.5,0.2s0.2,0.3,0.2,0.5c0,0.2-0.1,0.4-0.2,0.5
			c-0.2,0.2-0.3,0.2-0.5,0.2H135C134.8,68.2,134.6,68.2,134.5,68z"/>
	</g>
	<g id="MAEVE">
		<path d="M3.7,41.4C3.2,41,3,40.4,3,39.7V7.1c0-1,0.3-1.8,1-2.6c0.7-0.7,1.5-1.1,2.5-1.1h1.8c0.7,0,1.4,0.2,2,0.6s1.1,1,1.3,1.6
			l12.4,30.9L36.5,5.8c0.3-0.6,0.7-1.2,1.3-1.6c0.6-0.4,1.3-0.6,2-0.6h1.9c1,0,1.8,0.4,2.5,1.1c0.7,0.7,1.1,1.5,1.1,2.6v32.6
			c0,0.7-0.2,1.3-0.7,1.8c-0.5,0.5-1.1,0.7-1.8,0.7c-0.7,0-1.3-0.2-1.8-0.7c-0.5-0.5-0.7-1.1-0.7-1.8v-31L27.6,39.8
			c-0.3,0.7-0.7,1.2-1.4,1.6c-0.6,0.4-1.3,0.6-2.1,0.6c-0.7,0-1.5-0.2-2.1-0.6c-0.6-0.4-1.1-1-1.4-1.6L8,8.7v31
			c0,0.7-0.3,1.3-0.7,1.8s-1.1,0.7-1.8,0.7S4.2,41.9,3.7,41.4z"/>
		<path d="M53.8,41.4c-0.5-0.5-0.7-1.1-0.7-1.8c0-0.3,0.1-0.6,0.3-1.1L67.3,5.7c0.3-0.6,0.7-1.2,1.2-1.6c0.5-0.4,1.2-0.6,1.9-0.6H71
			c0.7,0,1.4,0.2,1.9,0.6c0.5,0.4,1,1,1.2,1.6l13.9,32.9c0.2,0.4,0.3,0.8,0.3,1.1c0,0.7-0.2,1.3-0.7,1.8s-1.1,0.7-1.8,0.7
			c-0.5,0-1-0.2-1.4-0.4c-0.4-0.3-0.7-0.6-1-1.1L80,32.1H61.4l-3.6,8.5c-0.2,0.5-0.5,0.9-1,1.1c-0.4,0.3-0.9,0.4-1.4,0.4
			C54.9,42.1,54.3,41.9,53.8,41.4z M63.4,27.6h14.7L70.8,9.8L63.4,27.6z"/>
		<path d="M97.1,41.2c-0.5-0.5-0.7-1.1-0.7-1.8V6.3c0-0.7,0.2-1.3,0.7-1.8s1.1-0.7,1.8-0.7h21.9c0.6,0,1.2,0.2,1.6,0.7
			c0.5,0.5,0.7,1,0.7,1.6s-0.2,1.2-0.7,1.6c-0.5,0.4-1,0.6-1.6,0.6h-19.3v12.1h17.4c0.6,0,1.2,0.2,1.6,0.7c0.5,0.5,0.7,1,0.7,1.6
			c0,0.6-0.2,1.2-0.7,1.6s-1,0.6-1.6,0.6h-17.4v12.1h19.3c0.6,0,1.2,0.2,1.6,0.7c0.5,0.5,0.7,1,0.7,1.6s-0.2,1.2-0.7,1.6
			c-0.5,0.4-1,0.6-1.6,0.6H98.9C98.2,41.9,97.6,41.7,97.1,41.2z"/>
		<path d="M142.3,39.6L128.9,6.9c-0.1-0.3-0.2-0.6-0.2-0.9c0-0.7,0.2-1.4,0.6-1.8c0.4-0.5,1.1-0.7,1.8-0.7c0.5,0,1,0.2,1.4,0.5
			c0.4,0.3,0.7,0.7,1,1.2l12.8,31.9l12.8-32c0.2-0.5,0.5-0.9,1-1.2s0.9-0.5,1.4-0.5c0.7,0,1.4,0.2,1.8,0.7s0.6,1.1,0.6,1.8
			c0,0.3-0.1,0.6-0.2,0.9l-13.5,32.7c-0.7,1.6-1.9,2.5-3.4,2.5h-1.2C144.2,42.1,143,41.3,142.3,39.6z"/>
		<path d="M170.4,41.2c-0.5-0.5-0.7-1.1-0.7-1.8V6.3c0-0.7,0.2-1.3,0.7-1.8s1.1-0.7,1.8-0.7h21.9c0.6,0,1.2,0.2,1.6,0.7
			c0.5,0.5,0.7,1,0.7,1.6s-0.2,1.2-0.7,1.6c-0.5,0.4-1,0.6-1.6,0.6h-19.3v12.1h17.3c0.6,0,1.2,0.2,1.6,0.7c0.5,0.5,0.7,1,0.7,1.6
			c0,0.6-0.2,1.2-0.7,1.6s-1,0.6-1.6,0.6h-17.4v12.1H194c0.6,0,1.2,0.2,1.6,0.7c0.5,0.5,0.7,1,0.7,1.6s-0.2,1.2-0.7,1.6
			c-0.5,0.4-1,0.6-1.6,0.6h-21.9C171.4,41.9,170.9,41.7,170.4,41.2z"/>
	</g>
</g>
</svg>
