<?xml version="1.0" encoding="utf-8"?>
<!-- Generator: Adobe Illustrator 27.4.0, SVG Export Plug-In . SVG Version: 6.00 Build 0)  -->
<svg version="1.1" id="Layer_1" xmlns="http://www.w3.org/2000/svg" xmlns:xlink="http://www.w3.org/1999/xlink" x="0px" y="0px"
	 width="124.6px" height="34.9px" viewBox="0 0 124.6 34.9" style="enable-background:new 0 0 124.6 34.9;" xml:space="preserve">
<g style="fill:#100E51">
	<g>
		<path d="M1,19.7h2.8V2.3H1V2h5.7l4.7,13.6h0.1L16.1,2h5.6v0.4h-2.8v17.3h2.8V20h-8.2v-0.4h2.8V2.5h-0.1L10.3,20l-6-17.4H4.2v17H7
			V20H1V19.7z"/>
		<path d="M23.1,19.7H26V2.3h-2.8V2h14.5v4.4h-0.3c-0.2-0.7-0.5-1.2-0.7-1.7c-0.3-0.5-0.6-0.9-0.9-1.3C35.4,3,35,2.7,34.5,2.6
			c-0.5-0.2-1.1-0.3-1.8-0.3h-4.2v7.8h1.6c0.6,0,1-0.1,1.4-0.2c0.4-0.1,0.7-0.3,1-0.6c0.3-0.3,0.5-0.7,0.7-1.1
			c0.2-0.5,0.4-1.1,0.6-1.9h0.3v7.9h-0.3c-0.1-0.5-0.2-1-0.4-1.4c-0.1-0.5-0.3-0.9-0.5-1.2c-0.2-0.4-0.5-0.6-0.9-0.8
			c-0.4-0.2-0.9-0.3-1.5-0.3h-2.1v9.1h4.8c0.9,0,1.7-0.2,2.3-0.6s1.1-0.9,1.5-1.4c0.4-0.5,0.7-1.1,0.9-1.7c0.2-0.6,0.3-1.1,0.4-1.5
			h0.3V20H23.1V19.7z"/>
		<path d="M41,19.7h2.8V2.3H41V2h8.2v0.4h-2.8v17.3h4.5c1.5,0,2.7-0.5,3.5-1.4c0.8-0.9,1.5-2.2,1.8-3.8h0.3V20H41V19.7z"/>
		<path d="M58.3,19.7h2.8V2.3h-2.8V2h8.2v0.4h-2.8v17.3h4.5c1.5,0,2.7-0.5,3.5-1.4c0.8-0.9,1.5-2.2,1.8-3.8h0.3V20H58.3V19.7z"/>
		<path d="M76.7,11c0-1.4,0.3-2.6,0.8-3.7c0.5-1.1,1.2-2.1,2.1-3c0.8-0.8,1.8-1.5,2.8-2c1-0.5,2.1-0.7,3.1-0.7
			c1.1,0,2.2,0.2,3.3,0.7c1.1,0.5,2,1.1,2.8,2c0.8,0.8,1.5,1.8,2,3c0.5,1.1,0.7,2.4,0.7,3.7c0,1.2-0.2,2.3-0.7,3.5
			c-0.5,1.1-1.1,2.1-1.9,3c-0.8,0.9-1.7,1.6-2.8,2.1c-1.1,0.5-2.2,0.8-3.5,0.8c-1.3,0-2.4-0.3-3.5-0.8c-1.1-0.5-2-1.2-2.8-2.1
			c-0.8-0.9-1.4-1.9-1.8-3C76.9,13.4,76.7,12.2,76.7,11z M79.6,11c0,1.5,0.1,2.8,0.3,4c0.2,1.1,0.5,2.1,1,2.8
			c0.5,0.8,1.1,1.3,1.8,1.7c0.7,0.4,1.7,0.6,2.8,0.6c1.1,0,2-0.2,2.7-0.6c0.8-0.4,1.4-0.9,1.8-1.7c0.5-0.8,0.8-1.7,1-2.8
			c0.2-1.1,0.3-2.5,0.3-4c0-1.2-0.1-2.3-0.2-3.4c-0.2-1.1-0.4-2.1-0.9-2.9c-0.4-0.9-1-1.5-1.8-2c-0.8-0.5-1.8-0.8-3-0.8
			c-1.2,0-2.2,0.3-3,0.8c-0.8,0.5-1.4,1.2-1.8,2c-0.4,0.9-0.7,1.8-0.9,2.9C79.6,8.7,79.6,9.8,79.6,11z"/>
		<path d="M95.3,2h7.6v0.4h-2.6l5.2,14.7h0.1l3.4-9.3L107,2.3h-2.1V2h7.6v0.4h-2.8l5.2,14.7h0.1l5.3-14.7h-2.7V2h5.4v0.4h-2.3
			l-6.6,18.1h-0.6l-4.4-12.2h-0.1l-4.4,12.2H104L97.6,2.3h-2.3V2z"/>
	</g>
	<g>
		<path d="M39.6,24.1C39.6,24.1,39.6,24.2,39.6,24.1c-0.4,0.1-0.7,0.1-0.9,0.3c-0.2,0.1-0.3,0.4-0.4,0.8l-1,6.5c0,0.2,0,0.3,0,0.4
			c0,0.2,0.1,0.4,0.2,0.4c0.1,0.1,0.4,0.1,0.7,0.1c0,0,0,0,0,0.1c0,0.1,0,0.1,0,0.1c-0.2,0-0.4,0-0.6,0l-0.9,0l-0.8,0
			c-0.1,0-0.3,0-0.6,0c0,0,0,0,0-0.1c0-0.1,0-0.1,0-0.1c0.3,0,0.5,0,0.7-0.1c0.1,0,0.3-0.1,0.3-0.3c0.1-0.1,0.1-0.3,0.2-0.6l1-6.7
			l-4.1,7.7c0,0-0.1,0.1-0.1,0.1c0,0-0.1,0-0.1-0.1l-1.6-7.5l0-0.1l-1.1,6.1c0,0.3-0.1,0.5-0.1,0.6c0,0.3,0.1,0.5,0.2,0.6
			c0.1,0.1,0.3,0.2,0.6,0.2c0,0,0,0,0,0.1c0,0.1,0,0.1,0,0.1c-0.2,0-0.3,0-0.4,0l-0.6,0l-0.6,0c-0.1,0-0.3,0-0.5,0c0,0,0,0,0-0.1
			c0-0.1,0-0.1,0-0.1c0.3,0,0.6-0.1,0.8-0.3c0.2-0.2,0.3-0.6,0.4-1l1.2-6.6c-0.2-0.3-0.5-0.5-0.9-0.5c0,0,0,0,0-0.1s0-0.1,0-0.1
			l0.4,0c0.1,0,0.2,0,0.4,0c0.2,0,0.3,0,0.4,0c0.1,0,0.2,0,0.2,0c0.1,0,0.2,0,0.2,0.1c0.1,0.1,0.1,0.3,0.2,0.6l1.4,6.7l3.7-7.1
			c0.1-0.2,0.3-0.4,0.4-0.4c0.1,0,0.2,0,0.3,0c0.1,0,0.2,0,0.3,0l0.5,0C39.3,24,39.5,24,39.6,24.1C39.6,24,39.6,24,39.6,24.1z"/>
		<path d="M48.5,32.7C48.5,32.7,48.5,32.8,48.5,32.7c-0.2,0.1-0.4,0.1-0.7,0.1c-0.3,0-0.6,0-0.8,0c-0.2,0-0.4,0-0.7,0
			c-0.3,0-0.5,0-0.6,0c0,0,0,0,0-0.1c0-0.1,0-0.1,0-0.1c0.3,0,0.6,0,0.7-0.1c0.1-0.1,0.2-0.2,0.2-0.5c0-0.2,0-0.3,0-0.4l-0.4-2.7
			h-2.7l-1.1,2c-0.3,0.5-0.4,0.9-0.4,1.2c0,0.2,0.1,0.3,0.2,0.4c0.1,0.1,0.4,0.1,0.7,0.1c0,0,0.1,0,0,0.1c0,0.1,0,0.1-0.1,0.1
			c-0.1,0-0.3,0-0.6,0c-0.4,0-0.6,0-0.8,0s-0.4,0-0.7,0c-0.3,0-0.5,0-0.6,0c0,0-0.1,0-0.1-0.1c0-0.1,0-0.1,0.1-0.1
			c0.3,0,0.6-0.1,0.9-0.4c0.3-0.2,0.6-0.6,1-1.2l4-7.2c0,0,0.1,0,0.1,0c0.1,0,0.1,0,0.2,0.1l1.2,7.7c0,0.3,0.1,0.5,0.2,0.6
			c0.1,0.1,0.2,0.2,0.3,0.3C48,32.6,48.2,32.6,48.5,32.7C48.5,32.6,48.5,32.6,48.5,32.7z M43.6,28.6h2.5l-0.6-3.5L43.6,28.6z"/>
		<path d="M52,32.8c-0.3-0.1-0.6-0.2-0.9-0.4c-0.1,0-0.1-0.1-0.1-0.3l0.2-1.8c0,0,0-0.1,0.1-0.1c0.1,0,0.1,0,0.1,0.1
			c0,0.7,0.2,1.2,0.5,1.7c0.3,0.5,0.8,0.7,1.4,0.7c0.5,0,0.9-0.1,1.2-0.4c0.4-0.3,0.6-0.7,0.7-1.2c0-0.2,0-0.3,0-0.4
			c0-0.5-0.1-0.8-0.4-1.1c-0.3-0.3-0.7-0.6-1.2-1c-0.3-0.3-0.6-0.5-0.8-0.6c-0.2-0.2-0.4-0.4-0.5-0.6c-0.1-0.2-0.2-0.5-0.2-0.8
			c0-0.1,0-0.3,0-0.4c0.1-0.5,0.3-0.9,0.6-1.2c0.3-0.3,0.6-0.6,1-0.7c0.4-0.2,0.8-0.2,1.2-0.2c0.5,0,1,0.1,1.5,0.3
			c0.1,0.1,0.2,0.1,0.2,0.2L56.5,26c0,0,0,0.1-0.1,0.1s-0.1,0-0.1-0.1c0-0.6-0.2-1-0.4-1.4c-0.2-0.4-0.6-0.5-1.1-0.5
			c-0.4,0-0.7,0.1-1,0.3c-0.3,0.2-0.5,0.5-0.6,0.8C53.1,25.4,53,25.7,53,26c0,0.3,0.1,0.5,0.2,0.8c0.1,0.2,0.3,0.4,0.5,0.6
			c0.2,0.2,0.5,0.4,0.8,0.6c0.5,0.4,0.9,0.7,1.2,1c0.3,0.3,0.4,0.7,0.4,1.2c0,0.2,0,0.3,0,0.4c-0.1,0.7-0.5,1.2-1,1.7
			c-0.6,0.5-1.3,0.7-2.2,0.7C52.6,32.9,52.3,32.9,52,32.8z"/>
		<path d="M59.9,32.8c-0.3-0.1-0.6-0.2-0.9-0.4c-0.1,0-0.1-0.1-0.1-0.3l0.2-1.8c0,0,0-0.1,0.1-0.1c0.1,0,0.1,0,0.1,0.1
			c0,0.7,0.2,1.2,0.5,1.7c0.3,0.5,0.8,0.7,1.4,0.7c0.5,0,0.9-0.1,1.2-0.4c0.4-0.3,0.6-0.7,0.7-1.2c0-0.2,0-0.3,0-0.4
			c0-0.5-0.1-0.8-0.4-1.1c-0.3-0.3-0.7-0.6-1.2-1c-0.3-0.3-0.6-0.5-0.8-0.6c-0.2-0.2-0.4-0.4-0.5-0.6C60.1,27,60,26.7,60,26.4
			c0-0.1,0-0.3,0-0.4c0.1-0.5,0.3-0.9,0.6-1.2c0.3-0.3,0.6-0.6,1-0.7c0.4-0.2,0.8-0.2,1.2-0.2c0.5,0,1,0.1,1.5,0.3
			c0.1,0.1,0.2,0.1,0.2,0.2L64.4,26c0,0,0,0.1-0.1,0.1c-0.1,0-0.1,0-0.1-0.1c0-0.6-0.2-1-0.4-1.4c-0.2-0.4-0.6-0.5-1.1-0.5
			c-0.4,0-0.7,0.1-1,0.3c-0.3,0.2-0.5,0.5-0.6,0.8c-0.1,0.3-0.2,0.6-0.2,0.9c0,0.3,0.1,0.5,0.2,0.8c0.1,0.2,0.3,0.4,0.5,0.6
			c0.2,0.2,0.5,0.4,0.8,0.6c0.5,0.4,0.9,0.7,1.2,1c0.3,0.3,0.4,0.7,0.4,1.2c0,0.2,0,0.3,0,0.4c-0.1,0.7-0.5,1.2-1,1.7
			c-0.6,0.5-1.3,0.7-2.2,0.7C60.5,32.9,60.2,32.9,59.9,32.8z"/>
		<path d="M74.1,32.7C74.1,32.7,74,32.8,74.1,32.7c-0.2,0.1-0.4,0.1-0.7,0.1c-0.3,0-0.6,0-0.8,0c-0.2,0-0.4,0-0.7,0
			c-0.3,0-0.5,0-0.6,0c0,0,0,0,0-0.1c0-0.1,0-0.1,0-0.1c0.3,0,0.6,0,0.7-0.1c0.1-0.1,0.2-0.2,0.2-0.5c0-0.2,0-0.3,0-0.4l-0.4-2.7H69
			l-1.1,2c-0.3,0.5-0.4,0.9-0.4,1.2c0,0.2,0.1,0.3,0.2,0.4c0.1,0.1,0.4,0.1,0.7,0.1c0,0,0.1,0,0,0.1c0,0.1,0,0.1-0.1,0.1
			c-0.1,0-0.3,0-0.6,0c-0.4,0-0.6,0-0.8,0c-0.2,0-0.4,0-0.7,0c-0.3,0-0.5,0-0.6,0c0,0-0.1,0-0.1-0.1c0-0.1,0-0.1,0.1-0.1
			c0.3,0,0.6-0.1,0.9-0.4c0.3-0.2,0.6-0.6,1-1.2l4-7.2c0,0,0.1,0,0.1,0c0.1,0,0.1,0,0.2,0.1l1.2,7.7c0,0.3,0.1,0.5,0.2,0.6
			c0.1,0.1,0.2,0.2,0.3,0.3C73.5,32.6,73.7,32.6,74.1,32.7C74,32.6,74.1,32.6,74.1,32.7z M69.2,28.6h2.5l-0.6-3.5L69.2,28.6z"/>
		<path d="M78.3,32.5c-0.6-0.3-1-0.7-1.3-1.3c-0.3-0.5-0.4-1.2-0.4-1.8c0-0.3,0-0.6,0.1-1c0.2-0.9,0.5-1.7,1-2.4
			c0.5-0.7,1.2-1.2,2-1.6c0.8-0.4,1.6-0.6,2.5-0.6c0.4,0,0.8,0,1.1,0.1c0.3,0.1,0.6,0.2,0.8,0.4c0.1,0.1,0.1,0.1,0.1,0.2l0,0.2
			l-0.1,1.6c0,0,0,0.1-0.1,0.1s-0.1,0-0.1-0.1c-0.1-0.7-0.3-1.2-0.7-1.5c-0.4-0.4-0.9-0.5-1.6-0.5c-1,0-1.9,0.3-2.6,1
			c-0.7,0.7-1.2,1.6-1.4,2.7c-0.1,0.4-0.1,0.8-0.1,1.2c0,0.7,0.1,1.3,0.4,1.9c0.3,0.5,0.6,1,1.1,1.3c0.5,0.3,1,0.4,1.6,0.4
			c0.4,0,0.7,0,0.9-0.1c0.2-0.1,0.4-0.3,0.6-0.5c0.1-0.2,0.2-0.6,0.3-1.1c0.1-0.4,0.1-0.7,0.1-0.9c0-0.2,0-0.3-0.1-0.4
			c-0.1-0.1-0.2-0.1-0.4-0.2c-0.2,0-0.4,0-0.8,0c0,0,0,0,0,0c0,0,0,0,0-0.1c0,0,0-0.1,0-0.1c0,0,0,0,0,0c0.6,0,1.1,0.1,1.5,0.1
			s0.8,0,1.2,0c0,0,0,0,0,0.1s0,0.1,0,0.1c-0.2,0-0.3,0-0.4,0.1c-0.1,0.1-0.2,0.2-0.2,0.4c-0.1,0.2-0.1,0.6-0.2,1.1
			c-0.1,0.4-0.1,0.7-0.1,0.9c0,0.2,0,0.3,0,0.4c0,0.1,0,0.1,0,0.1c0,0-0.1,0-0.1,0.1c-1,0.3-1.9,0.4-2.6,0.4
			C79.6,32.9,78.9,32.8,78.3,32.5z"/>
		<path d="M93.2,24.1L93,24.9c0,0.3-0.1,0.6-0.1,0.9c0,0,0,0.1-0.1,0c-0.1,0-0.1,0-0.1-0.1c0-0.1,0-0.2,0-0.3c0-0.4-0.1-0.7-0.3-1
			s-0.5-0.4-0.8-0.4h-1.1c-0.3,0-0.5,0-0.7,0.1c-0.1,0-0.3,0.1-0.3,0.3c-0.1,0.1-0.1,0.3-0.2,0.6l-0.5,2.9h2c0.4,0,0.6-0.1,0.8-0.2
			c0.2-0.1,0.3-0.4,0.4-0.8c0,0,0,0,0.1,0c0,0,0,0,0.1,0c0,0,0,0,0,0c0,0.3-0.1,0.5-0.1,0.7L92,28.2l-0.1,0.5c0,0,0,0.3-0.1,0.8
			c0,0,0,0.1-0.1,0c-0.1,0-0.1,0-0.1-0.1c0-0.2,0-0.3,0-0.4c0-0.3-0.1-0.4-0.2-0.6c-0.1-0.1-0.4-0.2-0.7-0.2h-1.9l-0.6,3.2
			c0,0.2,0,0.3,0,0.4c0,0.2,0.1,0.3,0.2,0.4c0.1,0.1,0.4,0.1,0.7,0.1h1.5c0.4,0,0.7-0.2,1-0.5c0.3-0.3,0.6-0.8,0.8-1.3
			c0,0,0,0,0.1,0c0.1,0,0.1,0,0.1,0.1c-0.1,0.4-0.3,1.1-0.4,1.8c0,0.1,0,0.1-0.1,0.2c0,0-0.1,0-0.1,0h-5.7c0,0,0,0,0-0.1
			c0-0.1,0-0.1,0-0.1c0.3,0,0.5,0,0.7-0.1c0.1,0,0.3-0.1,0.3-0.3c0.1-0.1,0.1-0.3,0.2-0.6l1.1-6.5c0-0.2,0-0.3,0-0.4
			c0-0.2-0.1-0.3-0.2-0.4s-0.4-0.1-0.7-0.1c0,0,0,0,0-0.1s0-0.1,0-0.1h5.4C93.2,24,93.2,24,93.2,24.1z"/>
	</g>
</g>
</svg>
