<?xml version="1.0" encoding="utf-8"?>
<!-- Generator: Adobe Illustrator 27.4.0, SVG Export Plug-In . SVG Version: 6.00 Build 0)  -->
<svg version="1.1" id="Layer_1" xmlns="http://www.w3.org/2000/svg" xmlns:xlink="http://www.w3.org/1999/xlink" x="0px" y="0px"
	 width="315.9px" height="80.2px" viewBox="0 0 315.9 80.2" style="enable-background:new 0 0 315.9 80.2;" xml:space="preserve">
<style type="text/css">
	.st0{fill:#100E51;}
</style>
<g>
	<g>
		<path class="st0" d="M211.1,54.7c0.6-0.1,1.1-0.1,1.7-0.2l0-0.1c-0.4,0-0.8-0.1-1.2-0.1c-4.3-0.3-8.3-1.6-11.8-4.2
			c-4.3-3.2-7-7.4-8.2-12.5c-1.4-5.8-1.5-11.7,0.1-17.5c2.4-8.6,8.2-13.8,16.9-15.8c2.1-0.5,4.3-0.7,6.4-0.6c1.6,0.1,3.3,0,4.9,0
			c10.4,0.5,18.8,6.4,21.4,16.9c0.9,3.8,1,7.6,0.8,11.5c-0.2,4.4-1.3,8.6-3.7,12.4c-2.9,4.6-7.1,7.5-12.2,9c-1.9,0.6-3.9,1-5.9,0.9
			l1.4,0.3C218.3,54.7,214.7,54.7,211.1,54.7L211.1,54.7z M227.1,28.8c-0.1-1.6-0.1-3.2-0.3-4.7c-0.4-2.6-1.3-5-3.3-6.8
			c-2.7-2.5-6-2.9-9.4-2.3c-4,0.7-6.3,3.4-7.4,7.2c-1.1,4.2-1.1,8.5-0.3,12.7c0.5,2.7,1.7,5.1,4.1,6.7c2.1,1.4,4.4,1.7,6.8,1.7
			c4.1-0.1,7.3-2.4,8.6-6.2C226.9,34.4,226.9,31.6,227.1,28.8z"/>
		<path class="st0" d="M24.3,54.7c0.5-0.1,1-0.1,1.6-0.2c0,0,0-0.1,0-0.1c-0.7-0.1-1.5-0.1-2.2-0.2c-6.8-0.8-12.3-3.9-16.1-9.7
			c-2.4-3.8-3.7-7.9-3.7-12.4c0-2.2-0.1-4.4,0-6.6C4.2,16.4,9.6,7.6,20,4.6c2.7-0.8,5.4-1.2,8.2-1c1.7,0.1,3.3,0,5,0.1
			c6.8,0.4,12.6,2.9,17,8.2c2.8,3.4,4.1,7.4,4.8,11.7c0.6,4.1,0.4,8.2-0.2,12.3c-1.6,9.6-8.6,16.6-18.2,18.3c-1,0.2-2,0.2-3.1,0.3
			c0.4,0.1,0.7,0.2,1.1,0.3C31.2,54.7,27.8,54.7,24.3,54.7L24.3,54.7z M40.2,28.7c-0.2-1.7-0.3-3.3-0.5-5c-0.3-2-1-3.9-2.3-5.5
			C34.6,15,30.9,14.3,27,15c-3.7,0.7-6.1,3.1-7.2,6.6c-1.4,4.6-1.4,9.4-0.3,14.1c0.8,3.2,2.6,5.5,5.7,6.9c1.6,0.7,3.4,0.7,5.1,0.7
			c3.8,0,7-2.2,8.4-5.7C39.8,34.8,40.1,31.7,40.2,28.7L40.2,28.7z"/>
		<path class="st0" d="M284.4,54.7c0.7-0.1,1.4-0.1,2.1-0.2c0,0,0-0.1,0-0.1c-0.8-0.1-1.7-0.1-2.5-0.2c-8.5-0.9-13.8-5.2-15.8-13.9
			c-0.2-0.7-0.2-1.4-0.4-2.1c-0.1-0.5,0-0.7,0.6-0.7c2.6-0.1,5.2-0.3,7.9-0.4c1.8-0.1,3.5-0.2,5.3-0.4c0.6,0,0.8,0.1,0.9,0.7
			c0.2,1.1,0.5,2.3,1,3.3c1.2,2.6,3.4,4,6.3,4.4c1.7,0.2,3.4,0.1,5-0.5c1.7-0.7,2.8-1.9,3.3-3.7c0.5-1.9-0.7-4.2-2.7-5.3
			c-2-1-4.3-1.6-6.5-2.1c-4-0.9-8-2-11.7-3.9c-3-1.6-5.4-3.8-6.7-7c-2.3-5.9,0.2-12.8,5.8-16.1c3.7-2.2,7.8-2.9,12-2.9
			c2.4,0,4.7-0.1,7,0.1c4.4,0.3,8.5,1.5,11.8,4.6c2,2,3.2,4.4,3.8,7.1c0.1,0.6,0.3,1.2,0.4,1.9c0.1,0.5-0.1,0.7-0.6,0.7
			c-1.5,0.1-2.9,0.2-4.4,0.3c-2.9,0.2-5.8,0.3-8.7,0.5c-0.5,0-0.6-0.2-0.7-0.6c-0.4-1.8-1.1-3.5-2.7-4.5c-2.6-1.7-5.4-1.9-8.2-0.7
			c-1.6,0.7-2.4,2.4-2,4c0.2,1.1,1,1.8,1.9,2.1c1.5,0.5,3,1,4.5,1.4c4.7,1.1,9.4,2.1,13.8,4.1c4.7,2.1,7.8,5.5,8.6,10.7
			c1,6.2-1.9,12.5-7.4,15.9c-3.2,2-6.7,3.1-10.6,3.1c0.4,0.1,0.7,0.2,1.1,0.3C292.1,54.7,288.2,54.7,284.4,54.7L284.4,54.7z"/>
		<path class="st0" d="M99.9,27.5c0.7,0.2,1.5,0.4,2.2,0.7c3.7,1.3,6.4,3.6,7.5,7.5c1.8,6.2-0.6,12.6-6.1,15.8
			c-2,1.1-4.2,1.4-6.4,1.7c-8.4,1.3-16.9,0.5-25.4,0.7c-2.3,0.1-4.7,0-7,0c-0.6,0-0.7-0.1-0.7-0.7c0-16,0-32,0-48c0-0.3,0-0.5,0-0.9
			c0.3,0,0.5,0,0.8,0c9.5,0,19,0,28.5,0c3.3,0,6.6,0.6,9.4,2.5c3.9,2.7,5.6,6.5,5.1,11.1c-0.4,4.2-2.7,7.1-6.5,8.8
			c-0.4,0.2-0.8,0.4-1.3,0.6C99.9,27.4,99.9,27.5,99.9,27.5L99.9,27.5z M79.5,43.3c3.4,0,6.7,0.1,9.9,0c1,0,2-0.4,2.9-0.8
			c1.8-0.9,2.5-2.6,2.5-4.5c-0.1-1.9-1.1-3.5-3-4.2c-0.8-0.3-1.6-0.5-2.4-0.6c-3.1-0.1-6.2,0-9.4-0.1c-0.4,0-0.5,0.2-0.5,0.6
			c0,0.9,0,1.7,0,2.6C79.5,38.5,79.5,40.9,79.5,43.3L79.5,43.3z M79.5,23.8c3.1-0.1,6.1,0,9.1-0.3c2.8-0.3,4.1-1.9,4.1-4.5
			c0-2.4-0.9-3.8-2.8-4.5c-0.7-0.2-1.5-0.4-2.2-0.4c-2.5,0-5.1,0-7.6,0c-0.6,0-0.7,0.2-0.7,0.7c0,1.4,0,2.9,0,4.3
			C79.5,20.6,79.5,22.1,79.5,23.8L79.5,23.8z"/>
		<path class="st0" d="M118.4,53.9V4.2h15.3c0,0.3,0,0.5,0,0.8c0,11.9,0,23.9,0,35.8c0,0.9,0,0.9,0.9,0.9c7.6,0,15.1,0,22.7,0
			c0.6,0,0.7,0.2,0.7,0.7c0,3.4,0,6.8,0,10.2c0,1.1,0,1.1-1.1,1.1c-10.4,0-20.7,0-31.1,0c-2.2,0-4.4,0-6.6,0
			C118.9,53.9,118.7,53.9,118.4,53.9L118.4,53.9z"/>
		<path class="st0" d="M165.8,4.2c1.1,0,2.1,0,3,0c3.8,0,7.7,0,11.5,0c0.6,0,0.9,0.3,0.9,0.9c0,15.2,0,30.5,0,45.7
			c0,0.8,0,1.6,0,2.4c0,0.5-0.1,0.7-0.7,0.7c-4.7,0-9.4,0-14.2,0c-0.5,0-0.6-0.2-0.6-0.7c0-15.4,0-30.9,0-46.3
			C165.8,6,165.8,5.1,165.8,4.2L165.8,4.2z"/>
		<path class="st0" d="M248.2,3.6c2,0,3.8,0,5.7,0c2.7,0,5.3-0.1,8-0.1c0.6,0,0.8,0.1,0.8,0.8c0,3.4,0,6.7,0,10.1
			c0,2.2-0.2,4.4-0.9,6.6c-1.2,4-4.1,6.4-7.6,8.4c-0.8,0.5-1.7,0.8-2.5,1.3c-0.4,0.2-0.6,0.1-0.7-0.2c-0.9-1.6-1.7-3.3-2.6-4.9
			c-0.2-0.4-0.1-0.5,0.3-0.7c1.3-0.8,2.6-1.5,3.8-2.4c1.6-1.2,2.4-2.9,2.7-4.9c0.1-0.6-0.2-0.6-0.6-0.6c-1.8,0-3.7,0-5.5,0
			c-1,0-0.9,0-0.9-1c0-3.9,0-7.8,0.1-11.7C248.2,4.1,248.2,3.8,248.2,3.6z"/>
		<path class="st0" d="M262,76.5c-0.6,0.7-0.7,0.7-1.3,0c-2.3-2.4-4.6-4.9-6.9-7.3c-0.2-0.2-0.4-0.4-0.7-0.7c0,0.5-0.1,0.8-0.1,1.2
			c0,2.2,0,4.3,0,6.5c0,0.6-0.2,0.8-0.8,0.8c-1.6,0-1.6,0-1.6-1.6c0-3.6,0-7.1,0-10.6c0-0.1,0-0.2,0-0.3c0.1-0.2,0.2-0.5,0.4-0.6
			c0.1-0.1,0.4,0.1,0.6,0.3c1.3,1.3,2.5,2.6,3.8,3.9c1.3,1.3,2.7,2.5,4.1,3.7c0,0.1-0.1,0.1-0.1,0.2c0-0.3,0.1-0.6,0.1-0.8
			c0-2.1,0-4.3-0.1-6.4c0-0.6,0.2-0.8,0.8-0.7c0.2,0,0.3,0,0.5,0c1.2,0,1.1,0.1,1.1,1.2c0,3.6,0,7.1,0.1,10.7c0-1.7,0-3.5,0-5.2
			c0-1.5,0-3,0-4.5c0-0.3,0.1-0.6,0.1-0.9L262,76.5L262,76.5z"/>
		<path class="st0" d="M141.9,68.4c0,0.5-0.1,0.9-0.1,1.2c0,2.2,0,4.3,0.1,6.5c0,0.6-0.2,0.8-0.8,0.8c-1.6,0-1.6,0-1.6-1.6
			c0-3.6,0-7.1,0-10.7c0-0.1,0-0.3,0-0.4c0.1-0.6,0.4-0.7,0.9-0.3c1.3,1.3,2.6,2.7,3.9,3.9c1.3,1.3,2.7,2.5,4.1,3.8
			c0,0.1-0.1,0.1-0.1,0.2c0-0.3,0-0.6,0-0.9c0-2.1,0-4.3-0.1-6.4c0-0.5,0.2-0.6,0.6-0.7c1.8-0.1,1.8-0.1,1.8,1.6c0,3.5,0,7,0,10.5
			c0,0.4-0.2,0.7-0.3,1.1c-0.3-0.2-0.7-0.3-0.9-0.6c-2.3-2.4-4.5-4.8-6.8-7.2C142.4,69,142.3,68.8,141.9,68.4L141.9,68.4z"/>
		<path class="st0" d="M156.7,70.5c0-1.9,0-3.9,0-5.8c0-0.3,0-0.7,0.5-0.7c2,0.1,3.9,0,5.9,0.3c3,0.5,5.2,3.5,5.1,6.4
			c-0.2,3.2-2.6,5.9-5.7,6.2c-1.7,0.2-3.5,0.1-5.2,0.1c-0.6,0-0.5-0.4-0.5-0.7C156.7,74.3,156.7,72.4,156.7,70.5
			C156.7,70.5,156.7,70.5,156.7,70.5L156.7,70.5z M159.1,74.6c0.9,0,1.8,0,2.7,0c2-0.1,3.6-1.6,3.8-3.6c0.3-2.3-0.8-4.2-2.9-4.7
			c-1.1-0.3-2.4-0.2-3.6-0.2V74.6z"/>
		<path class="st0" d="M57.3,72.2c0,1.3,0,2.6,0,3.8c0,0.6-0.1,0.9-0.8,0.9c-1.8-0.1-1.6,0.3-1.6-1.6c0-3.5,0-7,0-10.6
			c0-0.6,0.2-0.8,0.8-0.8c1.3,0,2.6,0,3.8,0c1.9,0,3.5,1.2,4.1,2.8c1,2.6-1.2,5.1-3.3,5.4C59.3,72.2,58.3,72.2,57.3,72.2z
			 M57.2,66.2c0,1.1,0,2.2,0,3.3c0,0.1,0.2,0.4,0.3,0.4c0.9,0,1.7,0.1,2.6-0.1c0.9-0.1,1.4-1,1.3-1.9c-0.1-0.9-0.6-1.6-1.6-1.7
			C59,66.2,58.1,66.2,57.2,66.2L57.2,66.2z"/>
		<path class="st0" d="M122.6,76.6c2-4.3,4.1-8.6,6.1-12.9c0.1,0,0.2,0,0.2,0c0.2,0.3,0.4,0.6,0.6,0.9c1.8,3.8,3.5,7.5,5.3,11.3
			c0.4,0.8,0.3,1-0.6,1c-0.1,0-0.2,0-0.3,0c-0.8,0-1.3-0.4-1.6-1.1c-0.4-1-1.1-1.4-2.1-1.4c-1.2,0-2.5,0-3.7,0
			c-0.2,0-0.5,0.2-0.7,0.5c-0.2,0.2-0.3,0.6-0.4,0.9C124.9,77,123.9,77.3,122.6,76.6z M128.8,68.2c-0.7,1.5-1.3,2.8-2,4.2h3.9
			C130.1,71,129.5,69.7,128.8,68.2z"/>
		<path class="st0" d="M233.7,76.8c2.1-4.5,4.1-8.8,6.2-13.1c0.1,0,0.2,0,0.2,0c0.2,0.3,0.4,0.6,0.6,0.9c1.8,3.8,3.5,7.6,5.3,11.4
			c0.4,0.8,0.3,0.9-0.6,0.9c-1.8,0-1.4,0.1-2-1.3c-0.3-0.8-0.7-1.3-1.7-1.2c-1.4,0.1-2.7,0-4.1,0.1c-0.2,0-0.5,0.2-0.7,0.4
			c-0.2,0.3-0.3,0.7-0.4,1c-0.4,1-0.5,1.1-1.6,1C234.6,76.9,234.2,76.8,233.7,76.8z M240,68.2c-0.7,1.5-1.3,2.8-2,4.2h3.9
			C241.3,71,240.7,69.7,240,68.2z"/>
		<path class="st0" d="M209.1,76.9c-0.7,0.2-1.2-0.2-1.4-1c-0.3-1.2-1-1.7-2.2-1.5c-1.1,0.1-2.3,0-3.5,0c-0.5,0-0.9,0.1-1,0.7
			c0,0.1-0.1,0.2-0.1,0.4c-0.6,1.5-0.6,1.5-2.3,1.5c-0.7,0-0.8-0.1-0.5-0.8c1.7-3.7,3.5-7.4,5.2-11.1c0.1-0.3,0.2-0.6,0.4-0.9
			c0.3-0.6,0.6-0.6,0.9,0c0.8,1.7,1.6,3.4,2.4,5c1,2.2,2,4.3,3,6.4C210.6,76.9,210.5,76.9,209.1,76.9z M204.3,68.4
			c-0.1,0-0.2,0-0.2,0c-0.6,1.3-1.2,2.6-1.8,4h3.9C205.5,71,204.9,69.7,204.3,68.4L204.3,68.4z"/>
		<path class="st0" d="M107.6,63.7c2,4.3,4,8.7,6.2,13.2c-0.9,0-1.5,0-2.1,0c-0.1,0-0.3-0.2-0.4-0.3c-0.1-0.1-0.2-0.2-0.2-0.4
			c-0.3-1.5-1.2-2-2.8-1.8c-1.1,0.1-2.1,0-3.2,0c-0.4,0-0.7,0.1-0.8,0.6c-0.1,0.3-0.2,0.5-0.3,0.8c-0.5,1.2-1.5,1.5-2.7,1
			C101.3,75.8,107,64.1,107.6,63.7L107.6,63.7z M109.3,72.4c-0.6-1.4-1.2-2.7-1.9-4.2c-0.7,1.5-1.3,2.8-2,4.2H109.3L109.3,72.4z"/>
		<path class="st0" d="M92.2,74.6c0.4,0,0.8,0.1,1.1,0.1c1.1,0,2.2,0,3.4,0c0.6,0,0.9,0.2,0.8,0.8c0,0.2,0,0.5,0,0.7
			c0,0.5-0.2,0.7-0.7,0.7c-2.4,0-4.9,0-7.3,0c-0.9,0-1-0.2-0.5-1c1.6-2.9,3.2-5.7,4.8-8.6c0.2-0.3,0.4-0.7,0.6-1.1
			c-1.3,0-2.6,0-3.8,0c-1.3,0-1.4-0.1-1.4-1.5c0-0.6,0.3-0.8,0.9-0.8c1.5,0,2.9,0,4.4,0c0.7,0,1.5,0,2.3,0c1.2,0,1.3,0.1,0.7,1.2
			c-1.1,2.1-2.3,4.2-3.5,6.3C93.4,72.4,92.9,73.4,92.2,74.6L92.2,74.6z"/>
		<path class="st0" d="M85.3,64c-1.9,3.6-3.8,7-5.8,10.6c0.4,0,0.6,0.1,0.9,0.1c1.2,0,2.4,0,3.6,0c0.8,0,0.8,0.5,0.8,1.1
			c0,0.5,0.1,1.2-0.7,1.2c-2.5,0-4.9,0-7.4,0c-0.8,0-0.8-0.2-0.5-1c1.7-3,3.4-6,5.1-9c0.1-0.2,0.2-0.4,0.4-0.7c-0.4,0-0.7,0-1.1,0
			c-1.1,0-2.2,0-3.4,0c-0.4,0-0.6-0.2-0.7-0.6c0,0,0-0.1,0-0.1c-0.2-1.4-0.1-1.6,1.4-1.6c1.9,0,3.9,0,5.8,0C84.2,64,84.6,64,85.3,64
			L85.3,64z"/>
		<path class="st0" d="M192.5,66.2c0,2.9,0,5.8,0,8.6c0,0.5,0,1,0,1.5c0,0.4-0.2,0.6-0.6,0.6c-2.1-0.1-1.8,0.4-1.8-1.8
			c0-3,0-5.9,0-9h-3.1c-0.5-2.1-0.4-2.3,1.7-2.3c2,0,4,0,6,0c1,0,1.1,0.1,1.1,1.1c0,0.1,0,0.2,0,0.3c0,0.6-0.4,0.9-1,0.9
			C194.1,66.2,193.3,66.2,192.5,66.2L192.5,66.2z"/>
		<path class="st0" d="M217.1,74.6c0.6,0,1,0,1.5,0c1,0,2,0,2.9,0c0.6,0,0.9,0.2,0.9,0.9c0,1.4,0,1.4-1.4,1.4c-1.8,0-3.7,0-5.5,0
			c-0.6,0-0.8-0.1-0.8-0.8c0-3.8,0-7.6,0-11.5c0-0.5,0.2-0.8,0.8-0.8c1.6,0,1.6,0,1.6,1.5C217.1,68.5,217.1,71.5,217.1,74.6
			L217.1,74.6z"/>
		<path class="st0" d="M68.8,70.4c0-1.9,0-3.8,0-5.8c0-0.5,0.2-0.7,0.7-0.7c1.8-0.1,1.8-0.1,1.8,1.6c0,3.5,0,7,0,10.6
			c0,0.6-0.2,0.8-0.8,0.8c-1.6,0-1.6,0-1.6-1.6C68.8,73.7,68.8,72,68.8,70.4C68.8,70.4,68.8,70.4,68.8,70.4L68.8,70.4z"/>
		<path class="st0" d="M227.1,70.4c0-1.9,0-3.9,0-5.8c0-0.5,0.2-0.7,0.7-0.7c1.8-0.1,1.8-0.1,1.8,1.7c0,3.5,0,7,0,10.4
			c0,0.9,0,0.9-0.9,0.9c-1,0-1.5-0.5-1.5-1.5C227.1,73.8,227.1,72.1,227.1,70.4L227.1,70.4z"/>
		<path class="st0" d="M179.9,63.9c0.6,0,1.2,0,1.8,0c0.5,0,0.6,0.2,0.6,0.7c0,1.2,0,2.4,0,3.7c0,2.6,0,5.2,0,7.8
			c0,0.8,0,0.9-0.9,0.9c-0.5,0-1,0-1.5,0L179.9,63.9L179.9,63.9z"/>
	</g>
</g>
</svg>
