<?xml version="1.0" encoding="utf-8"?>
<!-- Generator: Adobe Illustrator 27.4.0, SVG Export Plug-In . SVG Version: 6.00 Build 0)  -->
<svg version="1.1" id="Layer_1" xmlns="http://www.w3.org/2000/svg" xmlns:xlink="http://www.w3.org/1999/xlink" x="0px" y="0px"
	 width="50px" height="38.9px" viewBox="0 0 50 38.9" style="enable-background:new 0 0 50 38.9;" xml:space="preserve">
<g style="fill:#100E51">
	<path d="M27.6,1c-0.4,0-0.7,0.1-1.1,0.1c0,0,0,0,0,0c0.6,0.1,1.3,0.1,1.9,0.2c1,0.2,2,0.6,2.7,1.4c0.6,0.7,0.8,1.5,1,2.4
		c0.2,1.3,0.1,2.5-0.1,3.8c-0.3,1.4-0.6,2.8-0.8,4.2c-0.1,0.6-0.2,1.1-0.1,1.7c0.1,0.7,0.6,1.1,1.4,1.2c0.9,0.1,1.7,0,2.5-0.2
		c1.5-0.3,3.1-0.6,4.6-0.8c1.4-0.2,2.8-0.3,4.2-0.2c1.5,0.2,2.9,0.6,4.2,1.3c0.4,0.3,0.8,0.6,1.3,0.9c-0.1,0-0.1,0.1-0.1,0.1
		c-1.2,0.5-2.4,1.2-3.5,1.9c-2.8,1.8-5.5,3.9-8.2,6c-3.4,2.6-6.8,5.3-10.2,7.9c-0.8,0.6-1.7,1.2-2.5,1.7c-0.8,0.5-1.7,0.7-2.6,0.7
		c-1.2,0.1-1.8-0.6-1.9-1.8c0-0.8,0.2-1.6,0.4-2.3c0.6-2,1.7-3.8,2.8-5.6c0.2-0.4,0.5-0.7,0.7-1.1c0,0,0.1-0.1,0.1-0.2
		c-0.2,0-0.5,0-0.7,0.1C18,25.5,13,27.8,8.5,31.1c-2.7,2-5.1,4.2-7.4,6.7c0,0-0.1,0.1-0.2,0.1C1,37.6,1,37.4,1.1,37.1
		c0.3-2,0.7-4,1-6c0.3-2.1,0.7-4.1,1-6.2c0.3-2,0.7-3.9,1-5.9c0.4-2.2,0.7-4.3,1.1-6.5c0.4-2.2,0.7-4.4,1.1-6.7
		c0-0.2,0.1-0.4,0.1-0.6c0-0.2,0.1-0.2,0.3-0.3c2.5-0.7,4.9-1.4,7.4-2c2.3-0.6,4.7-1.1,7.1-1.5c1.2-0.2,2.3-0.4,3.5-0.3
		c0.2,0,0.4,0,0.6-0.1c-0.4,0-0.7,0-1.1-0.1C24,1,24,1,23.9,1C25.1,1,26.3,1,27.6,1z M14,16.3C14,16.3,14,16.3,14,16.3
		c0.1,0.3,0.1,0.5,0.2,0.8c0.3,1.4,0.6,2.8,0.8,4.1c0,0.2,0.1,0.2,0.3,0.1c0.5-0.2,0.9-0.4,1.4-0.5c1.1-0.4,2.2-0.7,3.3-1.1
		c0.2-0.1,0.2-0.1,0.1-0.3c-0.7-1.7-1.3-3.3-2-5c-0.1-0.2,0-0.2,0.1-0.3c0.9-0.5,1.8-1.2,2.4-2c0.8-1.1,1.1-2.4,0.9-3.7
		c-0.1-0.7-0.5-1.3-1.2-1.6c-0.5-0.1-1-0.2-1.5-0.2c-0.9,0.1-1.7,0.2-2.6,0.4c-1.7,0.4-3.3,0.9-5,1.4c-0.5,0.1-0.6,0.3-0.7,0.8
		c-0.2,1.6-0.6,3.2-0.8,4.8c-0.3,1.5-0.5,3-0.8,4.5c-0.3,1.6-0.5,3.1-0.8,4.7c-0.1,0.4-0.1,0.8-0.2,1.3c0.1,0,0.1,0,0.1,0
		c1.5-0.8,3-1.5,4.6-2.2c0.1,0,0.1-0.1,0.1-0.2c0.3-1.5,0.5-2.9,0.8-4.4C13.8,17.3,13.9,16.8,14,16.3z"/>
	<path d="M14.5,13.8c0.1-0.4,0.1-0.7,0.2-1.1c0.1-0.7,0.3-1.5,0.4-2.2c0-0.2,0.1-0.3,0.3-0.3c0.3-0.1,0.6-0.1,1-0.2
		c0.4,0,0.7,0.2,0.7,0.6c0.1,1.2-0.5,2.1-1.5,2.7C15.2,13.6,14.8,13.7,14.5,13.8C14.5,13.9,14.5,13.8,14.5,13.8z"/>
</g>
</svg>
