<?xml version="1.0" encoding="utf-8"?>
<!-- Generator: Adobe Illustrator 23.0.6, SVG Export Plug-In . SVG Version: 6.00 Build 0)  -->
<svg version="1.1" id="Layer_1" xmlns="http://www.w3.org/2000/svg" xmlns:xlink="http://www.w3.org/1999/xlink" x="0px" y="0px"
	 viewBox="0 0 302 100" style="enable-background:new 0 0 302 100;" xml:space="preserve" width="302" height="100">
<style type="text/css">
	.st0{fill:#100E51;}
	.st1{fill:#fff;}
</style>
<g>
	<g id="drop_shadow_1_">
		<g>
			<path class="st0" d="M21.6,44.4c-0.7,0-1.4,0.1-2.1,0.2c-2.3,0.4-4.4,1.5-6,3.3c-0.2,0.2-0.3,0.3-0.5,0.5
				c-0.2,0.2-0.3,0.3-0.5,0.5c-0.2,0.2-0.3,0.3-0.5,0.5c-0.2,0.2-0.3,0.3-0.5,0.5c-0.2,0.2-0.3,0.3-0.5,0.5
				c-0.2,0.2-0.3,0.3-0.5,0.5c-0.2,0.2-0.3,0.3-0.5,0.5c-0.2,0.2-0.3,0.3-0.5,0.5c-0.2,0.2-0.3,0.3-0.5,0.5
				c-0.2,0.2-0.3,0.3-0.5,0.5c-0.2,0.2-0.3,0.3-0.5,0.5c-0.2,0.2-0.3,0.3-0.5,0.5c-0.2,0.2-0.3,0.3-0.5,0.5
				c-0.6,0.6-1.2,1.3-1.8,2.1c-1.4,2.1-2.1,4.9-2.2,7.8c0,1.3,0.2,2.6,0.5,3.8c0.6,2.3,1.7,4.6,3.2,6.7c0.8,1.2,1.6,2.3,2.4,3.4
				L2,85.5c0,0-0.1,0.2-0.1,0.2l0,0.8c-0.1,2.9,0.1,6.6,1.6,9.2C4.8,97.8,6.9,99,9.9,99c0.7,0,1.5-0.1,2.2-0.2
				c2.7-0.4,5-1.6,6.6-3.3c0.2-0.2,0.3-0.3,0.5-0.5c0.2-0.2,0.3-0.3,0.5-0.5c0.2-0.2,0.3-0.3,0.5-0.5c0.2-0.2,0.3-0.3,0.5-0.5
				c0.2-0.2,0.3-0.3,0.5-0.5c0.2-0.2,0.3-0.3,0.5-0.5c0.2-0.2,0.3-0.3,0.5-0.5c0.2-0.2,0.3-0.3,0.5-0.5c0.2-0.2,0.3-0.3,0.5-0.5
				c0.2-0.2,0.3-0.3,0.5-0.5c0.2-0.2,0.3-0.3,0.5-0.5c0.2-0.2,0.3-0.3,0.5-0.5c0.2-0.2,0.3-0.3,0.5-0.5c0.7-0.6,1.2-1.3,1.7-2.1
				c1.4-2.2,2.1-5.1,2.1-8.6c0-2.3-0.6-4.6-1.9-7.1C26,69.1,24.4,66.9,23,65c-0.2-0.3-0.5-0.7-0.7-1l7-7.1c0.1-0.1,0.1-0.2,0.1-0.2
				l0-0.8c0-2.3-0.2-5.5-1.6-8.1C26.5,45.6,24.4,44.4,21.6,44.4z M9.5,78.5L9.5,78.5c0.1-0.1,0.1,0,0.1,0L9.5,78.5z"/>
			<path class="st0" d="M62.9,38.2l-8.4,1.3c-0.1-0.1-4.3,4-4.3,4l0.1-3.3l-8.4,1.3c0,0-6.7,6.8-6.9,7.2c0,0,0,0,0,0L34,94.9
				c0,0,8.2-1.3,8.2-1.3c0.1,0.1,4.4-4.1,4.4-4.1l0.7,3.3l7.7-1.2c0,0,7.3-6.7,7.3-6.7c0.1-0.1,0.1-0.2,0.1-0.2l-6.3-29.5L62.9,38.2
				z"/>
			<path class="st0" d="M167.5,21.6c-0.1-0.1-3.2,3-3.2,3l0-2.5l-8.4,1.3l0,0c-0.1,0-6.9,6.9-6.9,6.9l-0.8,46.4l8.2-1.3c0,0,0,0,0,0
				c0.1,0.1,3.3-3,3.3-3l0,2.5l8.3-1.3c0,0,7.1-7,7-7.1l0.8-46.3L167.5,21.6z"/>
			<path class="st0" d="M211.2,61C211.2,61,211.2,60.9,211.2,61l-6.1-45.3l-9.3,1.5c-0.1-0.1-7.2,6.9-7.2,6.9l0,0l-7.7,47.5l8.3-1.3
				c0,0,0,0,0,0c0.1,0,6.3-5.9,6.3-5.9l0.6,4.8l8.2-1.3c0,0,0.3,0,0.3-0.1C204.6,67.8,211.2,61.1,211.2,61L211.2,61L211.2,61z"/>
			<path class="st0" d="M240.4,32c1.2-1.4,2-2.6,2.6-3.9c0.7-1.5,1-3.2,1-5.6c0.1-4.6-1-7.7-3.2-9.5c-1.4-1.2-3.4-1.7-5.9-1.7
				c-1.1,0-2.3,0.1-3.6,0.3l-6.5,1l0,0c0,0-7,7-6.9,7.1l-0.8,46.2l9.1-1.5c3-0.6,5.4-1.9,7.2-3.9c0.2-0.2,0.3-0.3,0.5-0.5
				c0.2-0.2,0.3-0.3,0.5-0.5c0.2-0.2,0.3-0.3,0.5-0.5c0.2-0.2,0.3-0.3,0.5-0.5c0.2-0.2,0.3-0.3,0.5-0.5c0.2-0.2,0.3-0.3,0.5-0.5
				c0.2-0.2,0.3-0.3,0.5-0.5c0.2-0.2,0.3-0.3,0.5-0.5c0.2-0.2,0.3-0.3,0.5-0.5c0.2-0.2,0.3-0.3,0.5-0.5c0.2-0.2,0.3-0.3,0.5-0.5
				c0.2-0.2,0.3-0.3,0.5-0.5c0.2-0.2,0.3-0.3,0.5-0.5c0.7-0.7,1.4-1.5,1.9-2.3c1.5-2.5,2.3-5.7,2.4-9.4c0-2.4-0.2-4.2-0.7-5.7
				C242.7,34.5,241.7,32.9,240.4,32z"/>
			<path class="st0" d="M251.6,14.2l-0.8,46.4l8.4-1.4l6.9-6.9l0.8-46.4l-8.4,1.3C258.5,7.2,251.5,14.1,251.6,14.2z"/>
			<path class="st0" d="M69.2,43.1l-0.8,46.3l8.3-1.3c0,0,7-6.9,7-6.9l0.8-46.4l-8.3,1.3C76.2,36,69.1,43,69.2,43.1z"/>
			<path class="st0" d="M300,0.6l-20.6,3.3c-0.1-0.1-6.9,6.9-6.9,6.9l0,0l-0.2,8.7l6.1-1l-0.7,37.7c0,0,8.3-1.3,8.4-1.3
				c0.1,0,6.9-7,6.9-7l0.6-32.3c0,0,0,0,0,0l6.2-6.4L300,0.6z"/>
			<path class="st0" d="M112.1,30.4l-4.5,4.4l-0.9-3.6l-7.2,1.1c-0.1,0-7.2,6.9-7.1,7l-0.8,46.3l7.8-1.2c0,0,4.7-4.3,4.7-4.3
				l0.9,3.4l7.4-1.2l6.8-6.6c0.1-0.1,0.1-0.3,0.1-0.3l0.8-46.4l-7.6,1.2C112.3,30.3,112.2,30.3,112.1,30.4z"/>
		</g>
	</g>
	<g id="skin_habit_2_">
		<path class="st1" d="M21.5,58.1c0-1.5,0-3.1-0.4-4.3c-0.4-1.1-1-1.9-2.1-1.7c-1.7,0.3-2.2,2.2-2.3,4.8c0,1.5,0.6,3,1.5,4.5
			c0.9,1.5,2.1,3.1,3.4,4.8c1.5,2,2.9,4.1,4,6.1c1.1,2.1,1.8,4.2,1.8,6.6c-0.1,3-0.6,5.8-2,8.1c-1.4,2.3-3.6,4-7.2,4.5
			c-4.1,0.7-6.4-0.6-7.7-2.8c-1.3-2.2-1.5-5.4-1.5-8.7l6.3-1.6c0,1.9,0,3.7,0.4,5.1c0.4,1.4,1.1,2.2,2.5,2c1.9-0.3,2.7-2.5,2.7-5.3
			c0-1.5-0.7-3-1.6-4.6c-0.5-0.8-1-1.6-1.6-2.4c-1.2-1.6-2.6-3.5-4-5.5c-1.4-2-2.4-4.1-3-6.4c-0.3-1.1-0.5-2.3-0.5-3.5
			c0-2.4,0.6-5.1,2-7.3c1.4-2.2,3.5-3.9,6.6-4.4c3.9-0.7,6.1,0.6,7.3,2.8c1.2,2.2,1.5,5.1,1.5,7.6L21.5,58.1z"/>
		<polygon class="st1" points="48.6,41.9 48.4,57.4 48.6,57.4 48.9,56.6 54.5,41 60.8,40 54.6,55.5 60.8,84.3 54.5,85.3 50.4,66.6 
			50.2,65.8 50.1,65.8 49.7,66.8 48.1,70.6 47.8,86.3 41.4,87.4 42.2,42.9 		"/>
		<polygon class="st1" points="76.5,37.5 83,36.5 82.2,80.9 75.7,81.9 		"/>
		<polygon class="st1" points="106.1,54 105.6,52 105.3,52.1 104.8,77.3 98.9,78.2 99.7,33.8 105.4,32.9 111.3,55.1 111.8,57 
			112.1,57 112.6,31.8 118.5,30.8 117.7,75.3 112,76.2 		"/>
		<path class="st1" d="M203.7,17.3l-7.9,1.2l-7.4,45.5l6.3-1l1.4-9.3l6.2-1l1,8.9l6.3-1L203.7,17.3z M197,46.8l2.1-14.3l0.2-1.2
			l0.4-0.1l0.2,1.1l1.6,13.7L197,46.8z"/>
		<path class="st1" d="M242,37.6c-0.9-2.7-2.1-4.2-3.7-4.8c1.5-1.6,2.6-3,3.2-4.6c0.7-1.6,0.9-3.2,0.9-5.3c0.1-4.4-0.9-7.2-2.8-8.7
			c-1.9-1.6-4.9-1.8-8.7-1.2l-5.7,0.9l-0.8,44.4l7.9-1.3c3.8-0.8,6.4-2.7,8-5.2c1.5-2.5,2.2-5.6,2.2-8.9
			C242.6,40.7,242.4,38.9,242,37.6z M235.9,43.3c-0.1,3.6-0.9,5.5-2,6.5c-1.1,1-2.3,1-2.9,1.1l0.2-13.7c0.5-0.1,1.8-0.4,2.9,0.2
			C235.2,38,236,39.6,235.9,43.3z M236.3,24.5c-0.1,3.1-0.9,4.7-2,5.6c-1.1,0.9-2.3,1-2.9,1.1l0.2-11.8c0.5-0.1,1.8-0.3,2.9,0.2
			C235.5,20.1,236.3,21.5,236.3,24.5z"/>
		<polygon class="st1" points="258.9,8.6 265.4,7.6 264.6,52 258.1,53 		"/>
		<polygon class="st1" points="279.7,12 279.8,5.3 298.4,2.3 298.3,9 292.2,10 291.6,47.7 285.1,48.7 285.8,11 		"/>
		<polygon class="st1" points="167.4,48.1 162.4,48.9 162,68.2 155.6,69.3 156.3,24.8 162.8,23.8 162.5,42.2 167.5,41.4 167.8,23 
			174.3,22 173.5,66.4 167,67.5 		"/>
	</g>
</g>
</svg>
