<?xml version="1.0" encoding="utf-8"?>
<!-- Generator: Adobe Illustrator 27.4.1, SVG Export Plug-In . SVG Version: 6.00 Build 0)  -->
<svg version="1.1" id="Layer_1" xmlns="http://www.w3.org/2000/svg" xmlns:xlink="http://www.w3.org/1999/xlink" x="0px" y="0px"
	 width="428px" height="225px" viewBox="0 0 428 225" style="enable-background:new 0 0 428 225;" xml:space="preserve">
<style type="text/css">
	.st0{fill:#100E51;}
	.st1{fill:#FFFFFF;}
</style>
<g>
	<g>
		<path class="st0" d="M210.3,28.2l48.1-19.9c0,0,4.2-1.8,8.3-0.3c4.1,1.5,3.9,4.9,3.9,5.4v39.4c0,0.6-0.5,4.2-3.6,7.5
			c-3.1,3.3-7.8,6.7-10.9,8.3c-3.1,1.5-39.4,16.8-43.7,18.4c-4.4,1.5-7.8,2.6-11.9,2.1c-4.2-0.5-3.3-6-3.3-6V45.8
			c0-3.6,0.3-5.8,4.6-10.8C205.4,30.9,210.3,28.2,210.3,28.2z"/>
		<path class="st0" d="M196.2,71l48.2-19.9c0,0,4.2-1.8,8.3-0.3c4.2,1.5,3.9,4.9,3.9,5.4v39.4c0,0.5-0.5,4.2-3.6,7.5
			c-3.1,3.3-7.8,6.7-10.9,8.3c-3.1,1.5-39.4,16.8-43.7,18.4c-4.4,1.5-7.8,2.6-11.9,2.1c-4.2-0.5-3.3-6-3.3-6V88.6
			c0-3.6,0.3-5.9,4.6-10.9C191.3,73.6,196.2,71,196.2,71z"/>
		<path class="st0" d="M252.7,50.5c-4.2-1.5-8.3,0.3-8.3,0.3L231,56.4l-34,13.9v12.5c0,0-0.8,5.4,3.3,6c4.2,0.5,7.5-0.5,11.9-2.1
			c1.9-0.7,10-4,18.6-7.6l25.1-10.7c0.2-0.1,0.4-0.2,0.5-0.3V56C256.6,55.5,256.9,52,252.7,50.5z"/>
		<path class="st0" d="M170.6,60.6l48.2-19.9c0,0,4.2-1.8,8.3-0.3c4.2,1.5,3.9,4.9,3.9,5.4v39.4c0,0.5-0.5,4.2-3.6,7.5
			c-3.1,3.3-7.8,6.7-10.9,8.3c-3.1,1.5-39.4,16.8-43.7,18.4c-4.4,1.5-7.8,2.6-11.9,2.1c-4.2-0.5-3.3-6-3.3-6V78.1
			c0-3.6,0.3-5.9,4.6-10.9C165.7,63.2,170.6,60.6,170.6,60.6z"/>
		<path class="st0" d="M227.1,40.5c-4.2-1.6-8.3,0.2-8.3,0.2l-21.8,9v33.5c0,0-0.8,5.4,3.3,6c4.2,0.5,7.5-0.5,11.9-2.1
			c1.9-0.7,10-4,18.6-7.6V46C231,45.4,231.3,42,227.1,40.5z"/>
		<path class="st1" d="M158.2,73.3c0,0,18.8,10.9,30.6,22.6s17.4,22.5,19.2,30l2.8-1.1c0,0,7.8-19.3,22.8-40.2
			c15-21,32.5-30,37-32.4v-1.2c0,0-20.4,6.9-32.8,15.2c-12.4,8.3-22.5,17.1-28.7,25.3c0,0-9.9-7-16.3-9.6l-6-14.2l-2,0.6l3.3,11.4
			c0,0-15.3-6.7-28.2-9.3C159.8,70.3,158.8,71.6,158.2,73.3z M230.8,58.5l-30.4-0.9l-21.6,9.7l14.3,0.5c-0.2,0.7-0.3,1.4-0.3,2.1
			c0,6.2,6.7,11.1,15,11.1s15-4.9,15-11.1c0-2.5-1.1-4.7-2.9-6.5C219.9,63.3,230.8,58.5,230.8,58.5z"/>
	</g>
	<g>
		<path class="st0" d="M46.2,200.8c0-3.3-1.9-5.3-6-6.5l-13-3.5C14.3,187.5,8,181.3,8,172.7c0.3-13.8,8.6-20.6,24.8-20.5
			c15.5,0,23.6,6.8,24.3,20.5h-7.6c-2.9,0-4.8-1.4-6-3.9c-2.2-3.8-6.2-5.6-11.9-5.6c-6.9,0.1-10.5,2.7-10.7,7.7
			c0,4.2,4.2,7.2,12.8,9.1c4.9,1.2,10.2,2.6,15.7,4.6c7.3,2.6,10.9,8,10.5,16.3c-0.8,12.9-9.5,19.3-26.2,19.3
			c-17.5,0-26.3-7.3-26.6-21.6h13c0.5,6.9,4.9,10.5,13.6,10.5S46.4,206,46.2,200.8z M68.2,153.1h13l13.3,50.2l12.9-50.2h20.1v66
			h-12.8v-53.3l-13.4,53.2H87.6l-13.4-53.2v53.2H61.4v-58.8C61.4,156.4,64.4,153.1,68.2,153.1L68.2,153.1z M129.4,160.2
			c0-4.6,2.2-7.1,6.8-7.1h6.7v66h-13.4V160.2z M151.4,153.1h6.7v53.8h32.2v12.1h-45.6v-58.8C144.6,156.4,147.8,153.1,151.4,153.1
			L151.4,153.1z M191.5,160.2c0-4.6,2.2-6.9,6.8-7.1h40.9v11.4h-34.5v14.1h25.8v4.5c0.1,4.6-2.2,6.8-6.9,6.8h-18.7V207h34.5v12.1
			h-47.6v-58.9H191.5z"/>
		<path class="st0" d="M288.5,144.6h-52.1v3.5h24.2V218h3.9v-69.9h24V144.6z M314.9,199.4c0,4.3-1.6,8.1-5,11.4
			c-3.3,3.3-7.2,4.9-11.5,4.9s-8-1.6-11.1-4.9c-3-3.3-4.6-7.1-4.6-11.4v-25.8h-3.8v25.8c0,5.4,1.9,10.2,5.6,14
			c3.8,3.8,8.4,5.7,14,5.7c7.5,0,13-3,16.6-8.8v7.7h3.8v-44.4h-3.8V199.4z M335.2,211.3c-2.6-2.4-3.8-5.7-3.8-9.5v-24.7h13.4v-3.4
			h-13.4v-17.6h-3.8v45.7c0,4.9,1.6,9,5,12.1c3.3,3.1,7.3,4.8,11.9,4.8h0.4v-3.4h-0.4C340.9,215,337.8,213.8,335.2,211.3
			L335.2,211.3z M372.9,172.5c-6.4,0-12.1,2.3-16.6,6.8c-4.6,4.5-6.9,10-6.9,16.2c0,6.2,2.3,11.7,6.8,16.4c4.5,4.6,10,7.1,16.3,7.1
			h0.8c6.4,0,11.8-2.3,16.3-7.1c4.5-4.6,6.7-10.2,6.7-16.4c0-6.2-2.3-11.7-6.8-16.3C385,174.8,379.5,172.5,372.9,172.5L372.9,172.5z
			 M386.8,209.7c-3.8,3.9-8.4,5.8-13.7,5.8s-10-2-13.8-5.8c-3.9-3.9-5.8-8.6-5.8-13.8s2-10,5.8-14c3.9-3.9,8.6-6,13.8-6
			c5.3,0,9.9,2,13.7,5.8c3.8,3.9,5.7,8.6,5.7,14C392.5,201.2,390.6,205.8,386.8,209.7z M413.5,174.7c-2,1.2-3.7,2.7-4.9,4.5v-5.6
			h-3.8V218h3.8v-29.5c0-3.3,1.2-6.2,3.8-8.7c2.4-2.4,5.4-3.7,8.6-3.8v-3.4C418.4,172.7,415.8,173.3,413.5,174.7L413.5,174.7z"/>
	</g>
</g>
</svg>
