<svg width="73" height="45" viewBox="0 0 73 45" fill="none" xmlns="http://www.w3.org/2000/svg">
<g clip-path="url(#clip0_96_36)">
<path d="M25.5668 0.384332C25.5256 0.178304 25.3196 0.0546875 25.0311 0.0546875H14.3589C14.1529 0.095893 13.988 0.301921 14.0292 0.507948C14.0292 1.41447 13.9468 2.32099 13.782 3.18631C13.6172 3.68077 13.4936 4.05162 13.37 4.46368L0.101784 42.4964C-0.021833 42.9908 0.101784 43.2381 0.555044 43.2381H8.30168C8.67253 43.2793 9.00218 43.032 9.08459 42.6612L12.2162 32.9367H27.5447V32.7307L30.9235 42.62C31.0059 42.9084 31.2944 43.1145 31.5828 43.0732H40.1948C40.6068 43.0732 40.7304 42.8672 40.6068 42.414L25.5668 0.384332ZM14.6061 24.7368C15.2242 23.0062 15.8835 21.0695 16.4192 18.968C17.0785 16.9077 17.6965 14.8475 18.3146 12.8696C18.8915 11.0978 19.3448 9.32593 19.7156 7.55409H19.798C20.0865 8.54303 20.3749 9.61437 20.7045 10.7681C21.0342 11.9631 21.405 13.158 21.8171 14.4354C22.2291 15.7128 22.6 16.9489 23.0121 18.2263C23.3829 19.4625 23.7538 20.6574 24.1246 21.77C24.4955 22.8413 24.8251 23.8715 25.0723 24.7368H14.6061Z" fill="white"/>
<path d="M69.2036 14.559C68.0499 13.1168 66.5665 12.0043 64.877 11.2626C62.858 10.3561 60.6741 9.94402 58.4902 9.98523C55.853 9.98523 53.5455 10.3149 51.6089 11.2626C49.6722 12.2103 47.9828 13.5289 46.623 15.1771C45.222 16.8665 44.1919 18.762 43.5326 20.8223C42.8321 22.965 42.5024 25.1489 42.5024 27.374C42.5024 29.4342 42.7909 31.4533 43.3678 33.39C43.9446 35.3678 44.8924 37.1809 46.2109 38.7879C47.6119 40.4773 49.3838 41.8371 51.4028 42.7024C53.5455 43.6501 56.1827 44.1446 59.3143 44.1446C61.2922 44.1858 63.2288 44.021 65.1655 43.6501C66.6077 43.4029 67.9674 42.9908 69.286 42.414C69.4096 42.3316 69.4921 42.2491 69.5745 42.1255C69.6157 41.9607 69.6569 41.7959 69.6569 41.6311V35.3266C69.6569 34.9146 69.5333 34.8322 69.3272 34.997C68.1735 35.4502 66.9373 35.7799 65.6599 35.9447C64.259 36.2331 62.8168 36.3568 61.3746 36.398C59.5615 36.4392 57.7485 36.0683 56.1003 35.3678C54.8641 34.8734 53.834 34.008 53.0923 32.8955C52.3918 31.7829 51.9797 30.5056 51.8149 29.2282H64.877C65.9484 29.2282 66.9373 29.393 67.885 29.393C68.8328 29.393 69.6157 29.3518 70.275 29.2694C70.9342 29.2282 71.3875 29.187 71.6347 29.187C71.9232 29.187 72.1704 28.9398 72.2116 28.6513C72.2528 28.2805 72.294 27.7036 72.3764 26.9207C72.4176 26.1378 72.4589 25.2725 72.4589 24.2835C72.4589 22.5941 72.2116 20.9047 71.6759 19.2565C71.1403 17.5258 70.275 15.96 69.2036 14.559ZM63.8057 22.8413C63.5173 23.0474 63.1876 23.1298 62.858 23.171C62.3635 23.2122 61.5806 23.2122 60.5093 23.2122H51.8149C51.9385 22.1821 52.2269 21.1931 52.7214 20.2454C53.7928 18.1851 55.9354 16.9902 58.2017 17.1138C60.6329 17.0314 62.8168 18.5972 63.5585 20.9047C63.7233 21.3992 63.8057 21.8936 63.8057 22.4293V22.8413Z" fill="white"/>
</g>
<defs>
<clipPath id="clip0_96_36">
<rect width="72.4022" height="44.094" fill="white" transform="translate(0.0566406 0.0546875)"/>
</clipPath>
</defs>
</svg>
