<svg width="70" height="70" viewBox="0 0 70 70" fill="none" xmlns="http://www.w3.org/2000/svg">
<path d="M62.593 38.036C62.0265 38.036 61.5674 37.577 61.5674 37.0105C61.5674 28.14 56.07 11.3628 35.2621 11.3628C15.6979 11.3628 8.59535 26.6179 8.59535 36.8721C8.59535 37.4386 8.13628 37.8977 7.56977 37.8977C7.00326 37.8977 6.54419 37.4386 6.54419 36.8721C6.54419 30.4549 9.01535 23.6958 13.1519 18.7925C16.8016 14.4672 23.5998 9.31161 35.2621 9.31161C44.66 9.31161 52.3144 12.657 57.4 18.9846C61.3526 23.9025 63.6186 30.4728 63.6186 37.0105C63.6186 37.577 63.1595 38.036 62.593 38.036Z" fill="#254EDB"/>
<path d="M10.0116 34.6744H5.04651V39.6395H10.0116V34.6744Z" fill="#254EDB"/>
<path d="M10.0117 40.6163H5.04657C4.50773 40.6163 4.06982 40.1784 4.06982 39.6395V34.6744C4.06982 34.1356 4.50773 33.6977 5.04657 33.6977H10.0117C10.5505 33.6977 10.9884 34.1356 10.9884 34.6744V39.6395C10.9884 40.1784 10.5505 40.6163 10.0117 40.6163ZM6.02331 38.6628H9.03494V35.6512H6.02331V38.6628Z" fill="#254EDB"/>
<path d="M64.9535 34.6744H59.9884V39.6395H64.9535V34.6744Z" fill="#254EDB"/>
<path d="M64.9536 40.6163H59.9885C59.4496 40.6163 59.0117 40.1784 59.0117 39.6395V34.6744C59.0117 34.1356 59.4496 33.6977 59.9885 33.6977H64.9536C65.4924 33.6977 65.9303 34.1356 65.9303 34.6744V39.6395C65.9303 40.1784 65.4924 40.6163 64.9536 40.6163ZM60.9652 38.6628H63.9768V35.6512H60.9652V38.6628Z" fill="#254EDB"/>
<path d="M37.686 13.8046H32.7209C32.1544 13.8046 31.6954 13.3456 31.6954 12.7791V11.3628H12.6651V11.5174C12.6651 12.0839 12.206 12.543 11.6395 12.543H9.11628C8.54977 12.543 8.0907 12.0839 8.0907 11.5174V8.99417C8.0907 8.42766 8.54977 7.96859 9.11628 7.96859H11.6395C12.206 7.96859 12.6651 8.42766 12.6651 8.99417V9.31162H31.6954V7.81394C31.6954 7.24743 32.1544 6.78836 32.7209 6.78836H37.686C38.2526 6.78836 38.7116 7.24743 38.7116 7.81394V9.31162H57.7419V8.99417C57.7419 8.42766 58.2009 7.96859 58.7674 7.96859H61.2907C61.8572 7.96859 62.3163 8.42766 62.3163 8.99417V11.5174C62.3163 12.0839 61.8572 12.543 61.2907 12.543H58.7674C58.2009 12.543 57.7419 12.0839 57.7419 11.5174V11.3628H38.7116V12.7791C38.7116 13.3456 38.2526 13.8046 37.686 13.8046ZM33.7465 11.7535H36.6605V11.3628H33.7465V11.7535ZM33.7465 9.31162H36.6605V8.83952H33.7465V9.31162Z" fill="#254EDB"/>
<path d="M37.6861 7.81393H32.7209V12.7791H37.6861V7.81393Z" fill="#254EDB"/>
<path d="M41.5116 50.107H28.6512C28.1905 50.107 27.7868 49.8009 27.663 49.3565L24.4886 37.9611C24.4089 37.673 24.4577 37.3637 24.6237 37.1163L34.4726 22.3837C34.6647 22.0972 34.9919 21.9279 35.3337 21.9279C35.6789 21.9311 35.9996 22.107 36.1868 22.3984L45.7914 37.2937C45.9542 37.5477 45.9982 37.8602 45.9103 38.1484L42.4916 49.3809C42.3614 49.8123 41.9626 50.107 41.5116 50.107ZM29.4293 48.0558H40.7514L43.8103 38.0051L36.3512 26.4372V39.3139C36.3512 39.8804 35.8921 40.3395 35.3256 40.3395C34.7591 40.3395 34.3 39.8804 34.3 39.3139V26.333L26.5919 37.8651L29.4293 48.0558Z" fill="#254EDB"/>
<path d="M35.2849 41.2349C34.2935 41.2349 33.4861 40.4274 33.4861 39.436C33.4861 38.4446 34.2935 37.6372 35.2849 37.6372C36.2763 37.6372 37.0838 38.4446 37.0838 39.436C37.0838 40.4274 36.2763 41.2349 35.2849 41.2349ZM35.2849 39.1837C35.1465 39.1837 35.0326 39.2977 35.0326 39.436C35.0326 39.5744 35.1465 39.6884 35.2849 39.6884C35.4233 39.6884 35.5372 39.5744 35.5372 39.436C35.5372 39.2977 35.4233 39.1837 35.2849 39.1837Z" fill="#254EDB"/>
<path d="M42.8955 54.9907H26.942C26.3755 54.9907 25.9164 54.5316 25.9164 53.9651V49C25.9164 48.4335 26.3755 47.9744 26.942 47.9744H42.8955C43.462 47.9744 43.921 48.4335 43.921 49V53.9651C43.921 54.5316 43.462 54.9907 42.8955 54.9907ZM27.9675 52.9395H41.8699V50.0256H27.9675V52.9395Z" fill="#254EDB"/>
<path d="M41.7558 63.2116H28.5698C28.0033 63.2116 27.5442 62.7525 27.5442 62.186V53.9651C27.5442 53.3986 28.0033 52.9395 28.5698 52.9395H41.7558C42.3223 52.9395 42.7814 53.3986 42.7814 53.9651V62.186C42.7814 62.7525 42.3223 63.2116 41.7558 63.2116ZM29.5954 61.1604H40.7302V54.9907H29.5954V61.1604Z" fill="#254EDB"/>
</svg>
