<?xml version="1.0" encoding="utf-8"?>
<!-- Generator: Adobe Illustrator 27.4.0, SVG Export Plug-In . SVG Version: 6.00 Build 0)  -->
<svg version="1.1" id="Layer_1" xmlns="http://www.w3.org/2000/svg" xmlns:xlink="http://www.w3.org/1999/xlink" x="0px" y="0px"
	 width="500px" height="229.5px" viewBox="0 0 500 229.5" style="enable-background:new 0 0 500 229.5;" xml:space="preserve">
<style type="text/css">
	.st0{fill:#100E51;}
</style>
<g>
	<g>
		<path class="st0" d="M255.7,14v3.4c0,0.9-0.7,1.4-1.4,1.4h-8.5c-0.9,0-1.4-0.7-1.4-1.4V14c0-0.9,0.7-1.4,1.4-1.4h8.5
			C255,12.6,255.7,13.3,255.7,14z"/>
		<path class="st0" d="M255.7,1.4v3.4c0,0.9-0.7,1.4-1.4,1.4h-8.5c-0.9,0-1.4-0.7-1.4-1.4V1.4c0-0.9,0.7-1.4,1.4-1.4h8.5
			C255,0,255.7,0.7,255.7,1.4z"/>
		<path class="st0" d="M255.7,83.7v3.4c0,0.9-0.7,1.4-1.4,1.4h-8.5c-0.9,0-1.4-0.7-1.4-1.4v-3.4c0-0.9,0.7-1.4,1.4-1.4h8.5
			C255,82.1,255.7,82.8,255.7,83.7z"/>
		<path class="st0" d="M255.7,96.3v3.4c0,0.9-0.7,1.4-1.4,1.4h-8.5c-0.9,0-1.4-0.7-1.4-1.4v-3.4c0-0.9,0.7-1.4,1.4-1.4h8.5
			C255,94.7,255.7,95.4,255.7,96.3z"/>
		<path class="st0" d="M255.7,72v3.4c0,0.9-0.7,1.4-1.4,1.4h-8.5c-0.9,0-1.4-0.7-1.4-1.4V72c0-0.9,0.7-1.4,1.4-1.4h8.5
			C255,70.6,255.7,71.3,255.7,72z"/>
		<path class="st0" d="M255.7,60.4v3.4c0,0.9-0.7,1.4-1.4,1.4h-8.5c-0.9,0-1.4-0.7-1.4-1.4v-3.4c0-0.9,0.7-1.4,1.4-1.4h8.5
			C255,59,255.7,59.6,255.7,60.4z"/>
		<path class="st0" d="M255.7,37.2v3.4c0,0.9-0.7,1.4-1.4,1.4h-8.5c-0.9,0-1.4-0.7-1.4-1.4v-3.4c0-0.9,0.7-1.4,1.4-1.4h8.5
			C255,35.8,255.7,36.5,255.7,37.2z"/>
		<path class="st0" d="M255.7,48.7v3.4c0,0.9-0.7,1.4-1.4,1.4h-8.5c-0.9,0-1.4-0.7-1.4-1.4v-3.4c0-0.9,0.7-1.4,1.4-1.4h8.5
			C255,47.3,255.7,48,255.7,48.7z"/>
		<path class="st0" d="M255.7,25.7v3.4c0,0.9-0.7,1.4-1.4,1.4h-8.5c-0.9,0-1.4-0.7-1.4-1.4v-3.4c0-0.9,0.7-1.4,1.4-1.4h8.5
			C255,24.1,255.7,24.8,255.7,25.7z"/>
		<g>
			<path class="st0" d="M234.9,12.6H228h-0.5h-2c-2.5,0-4.8,0.5-7.1,1.4c-2.1,0.9-4.1,2.3-5.9,3.9c-1.6,1.6-3,3.5-3.9,5.9
				c-0.9,2.1-1.4,4.6-1.4,7.1v39.5c0,2.5,0.5,4.8,1.4,7.1c0.9,2.1,2.3,4.1,3.9,5.7s3.5,3,5.9,3.9c2.1,0.9,4.6,1.4,7.1,1.4h2h0.5h6.9
				c1.1,0,2-0.9,2-2v-2.3c0-1.1-0.9-2-2-2h-7.4c-0.2,0-0.2,0-0.4,0h-1.4c-1.6,0-3.2-0.4-4.6-0.9c-1.4-0.5-2.7-1.4-3.7-2.5
				c-1.1-1.1-2-2.3-2.5-3.7s-0.9-3-0.9-4.6V30.6c0-1.6,0.4-3.2,0.9-4.6c0.5-1.4,1.4-2.7,2.5-3.7c1.1-1.1,2.3-2,3.7-2.5
				s3-0.9,4.6-0.9h2.3l0,0h6.9c1.1,0,2-0.9,2-2v-2.4C236.9,13.5,236,12.6,234.9,12.6z"/>
			<path class="st0" d="M291.3,23.6c-0.9-2.1-2.3-4.1-3.9-5.9c-1.6-1.6-3.5-3-5.9-3.9c-2.1-0.9-4.6-1.4-7.1-1.4h-2H272h-6.9
				c-1.1,0-2,0.9-2,2v2.3c0,1.1,0.9,2,2,2h6.9l0,0h2.3c1.6,0,3.2,0.4,4.6,0.9s2.7,1.4,3.7,2.5c1.1,1.1,2,2.3,2.5,3.7s0.9,3,0.9,4.6
				v40.1c0,1.6-0.4,3.2-0.9,4.6c-0.5,1.4-1.4,2.7-2.5,3.7c-1.1,1.1-2.3,2-3.7,2.5c-1.4,0.5-3,0.9-4.6,0.9h-1.4c-0.2,0-0.2,0-0.4,0
				h-7.4c-1.1,0-2,0.9-2,2v2.3c0,1.1,0.9,2,2,2h6.9h0.5h2c2.5,0,4.8-0.5,7.1-1.4c2.1-0.9,4.1-2.3,5.9-3.9c1.6-1.6,3-3.5,3.9-5.7
				c0.9-2.1,1.4-4.6,1.4-7.1V30.9C292.7,28.2,292.2,25.9,291.3,23.6z"/>
		</g>
	</g>
	<g>
		<path class="st0" d="M54.2,160.3h-2.7c-0.4,0-0.5,0.2-0.5,0.5c-0.9,4.4-4.3,7.1-8.3,7.1c-2.3,0-4.4-0.9-6-2.5
			c-2.3-2.3-2.5-4.8-2.5-11.9s0.2-9.6,2.5-11.9c1.6-1.6,3.7-2.5,6-2.5c4.3,0,7.4,2.7,8.3,7.1c0,0.4,0.4,0.5,0.5,0.5h2.7
			c0.2,0,0.4,0,0.5-0.2c0.2-0.2,0.2-0.4,0.2-0.5c-1.1-6.4-5.9-10.5-12.1-10.5c-3.4,0-6.6,1.2-8.9,3.7c-3.4,3.4-3.4,6.7-3.4,14.2
			c0,7.4,0,10.8,3.4,14.2c2.1,2.3,5.3,3.7,8.7,3.7c6.4,0,11-3.9,12.1-10.5c0-0.2,0-0.4-0.2-0.5C54.6,160.5,54.4,160.3,54.2,160.3z"
			/>
		<path class="st0" d="M88.8,136h-2.7c-0.4,0-0.5,0.4-0.5,0.5v15.1H69.1v-15.1c0-0.4-0.4-0.5-0.5-0.5h-2.7c-0.4,0-0.5,0.4-0.5,0.5
			v33.9c0,0.4,0.4,0.5,0.5,0.5h2.7c0.4,0,0.5-0.4,0.5-0.5V155h16.5v15.4c0,0.4,0.4,0.5,0.5,0.5h2.7c0.4,0,0.5-0.4,0.5-0.5v-33.7
			C89.3,136.4,89.2,136,88.8,136z"/>
		<path class="st0" d="M138.3,170.2l-7.8-14.9c4.8-1.1,7.4-4.6,7.4-9.6c0-5.9-4.1-9.8-10.3-9.8h-12.9c-0.4,0-0.5,0.4-0.5,0.5v33.9
			c0,0.4,0.4,0.5,0.5,0.5h2.7c0.4,0,0.5-0.4,0.5-0.5v-14.8h8.3l8,15.3c0.2,0.2,0.4,0.4,0.5,0.4h3l0,0c0.4,0,0.5-0.4,0.5-0.5
			C138.5,170.4,138.5,170.2,138.3,170.2z M118.1,139.5h9.4c4.4,0,6.9,2.3,6.9,6.2c0,3.9-2.5,6.2-6.9,6.2h-9.4
			C118.1,151.9,118.1,139.5,118.1,139.5z"/>
		<path class="st0" d="M170.2,139.4c-2.3-2.3-5.5-3.7-8.9-3.7s-6.6,1.2-8.9,3.7c-3.4,3.4-3.4,6.7-3.4,14.2c0,7.4,0,10.8,3.4,14.2
			c2.3,2.3,5.5,3.7,8.9,3.7s6.6-1.2,8.9-3.7c3.4-3.4,3.4-6.7,3.4-14.2C173.6,146.1,173.6,142.7,170.2,139.4z M169.7,153.6
			c0,7.1-0.2,9.6-2.5,11.9c-1.6,1.6-3.7,2.5-6,2.5s-4.4-0.9-6-2.5c-2.3-2.3-2.5-4.8-2.5-11.9s0.2-9.6,2.5-11.9
			c1.6-1.6,3.7-2.5,6-2.5s4.4,0.9,6,2.5C169.5,144,169.7,146.5,169.7,153.6z"/>
		<path class="st0" d="M197.2,136h-12.4c-0.4,0-0.5,0.4-0.5,0.5v33.9c0,0.4,0.4,0.5,0.5,0.5h2.7c0.4,0,0.5-0.4,0.5-0.5v-13.8h9.2
			c6.6,0,10.8-4.1,10.8-10.3C208,140.3,203.5,136,197.2,136z M187.9,139.5h9c2.7,0,7.3,0.9,7.3,6.9s-4.6,6.9-7.3,6.9h-9V139.5z"/>
		<path class="st0" d="M242.6,170.2l-7.8-14.9c4.8-1.1,7.4-4.6,7.4-9.6c0-5.9-4.1-9.8-10.3-9.8H219c-0.4,0-0.5,0.4-0.5,0.5v33.9
			c0,0.4,0.4,0.5,0.5,0.5h2.7c0.4,0,0.5-0.4,0.5-0.5v-14.8h8.3l8,15.3c0.2,0.2,0.4,0.4,0.5,0.4h3l0,0c0.4,0,0.5-0.4,0.5-0.5
			C242.7,170.4,242.7,170.2,242.6,170.2z M222.3,139.5h9.4c4.4,0,6.9,2.3,6.9,6.2c0,3.9-2.7,6.2-6.9,6.2h-9.4
			C222.3,152,222.3,139.5,222.3,139.5z"/>
		<path class="st0" d="M281.7,170.2l-12.4-33.7c0-0.2-0.4-0.4-0.5-0.4h-2.3c-0.2,0-0.5,0.2-0.5,0.4l-12.4,33.9c0,0.2,0,0.4,0,0.5
			c0,0.2,0.4,0.2,0.5,0.2h2.8c0.2,0,0.5-0.2,0.5-0.4l2.8-7.8h14.9l2.8,7.8c0,0.2,0.4,0.4,0.5,0.4h2.8l0,0c0.4,0,0.5-0.4,0.5-0.5
			C281.7,170.4,281.7,170.2,281.7,170.2z M273.8,159.4h-12.4l6.2-17.6L273.8,159.4z"/>
		<path class="st0" d="M316.1,160.3h-2.5c-0.4,0-0.5,0.2-0.5,0.5c-0.9,4.4-4.3,7.1-8.3,7.1c-2.3,0-4.4-0.9-6-2.5
			c-2.3-2.3-2.5-4.8-2.5-11.9s0.2-9.6,2.5-11.9c1.6-1.6,3.7-2.5,6-2.5c4.3,0,7.4,2.7,8.3,7.1c0,0.4,0.4,0.5,0.5,0.5h2.7
			c0.2,0,0.4,0,0.5-0.2c0.2-0.2,0.2-0.4,0.2-0.5c-1.1-6.4-5.9-10.5-12.1-10.5c-3.4,0-6.6,1.2-8.9,3.7c-3.4,3.4-3.4,6.7-3.4,14.2
			c0,7.4,0,10.8,3.4,14.2c2.3,2.3,5.5,3.7,8.9,3.7c6.4,0,11-3.9,12.1-10.5c0-0.2,0-0.4-0.2-0.5C316.5,160.5,316.3,160.3,316.1,160.3
			z"/>
		<path class="st0" d="M350.7,136h-22.9c-0.4,0-0.5,0.4-0.5,0.5v2.3c0,0.4,0.4,0.5,0.5,0.5h9.6v31c0,0.4,0.4,0.5,0.5,0.5h2.7
			c0.4,0,0.5-0.4,0.5-0.5v-30.8h9.6c0.4,0,0.5-0.4,0.5-0.5v-2.3C351.3,136.4,351.1,136,350.7,136z"/>
		<path class="st0" d="M436.6,136h-2.7c-0.4,0-0.5,0.4-0.5,0.5V159c0,5.3-3.4,8.7-8.5,8.7s-8.5-3.4-8.5-8.7v-22.3
			c0-0.4-0.4-0.5-0.5-0.5h-2.5c-0.4,0-0.5,0.4-0.5,0.5v22.9c0,6.9,5,11.9,12.2,11.9c7.3,0,12.2-5,12.2-11.9v-22.9
			C437.3,136.4,436.9,136,436.6,136z"/>
		<path class="st0" d="M469,139.5c0.4,0,0.5-0.4,0.5-0.5v-2.3c0-0.4-0.4-0.5-0.5-0.5h-20.6c-0.4,0-0.5,0.4-0.5,0.5v33.9
			c0,0.4,0.4,0.5,0.5,0.5H469c0.4,0,0.5-0.4,0.5-0.5v-2.3c0-0.4-0.4-0.5-0.5-0.5h-17.4v-12.4h14.7c0.4,0,0.5-0.4,0.5-0.5v-2.4
			c0-0.4-0.4-0.5-0.5-0.5h-14.7v-12.5H469z"/>
		<g>
			<path class="st0" d="M104,137.4v1.6c0,0.4-0.4,0.7-0.7,0.7h-3c-0.4,0-0.7-0.4-0.7-0.7v-1.6c0-0.4,0.4-0.7,0.7-0.7h3
				C103.7,136.5,104,136.9,104,137.4z"/>
			<path class="st0" d="M104,162.1v1.6c0,0.4-0.4,0.7-0.7,0.7h-3c-0.4,0-0.7-0.4-0.7-0.7v-1.6c0-0.4,0.4-0.7,0.7-0.7h3
				C103.7,161.2,104,161.5,104,162.1z"/>
			<path class="st0" d="M104,168.1v1.6c0,0.4-0.4,0.7-0.7,0.7h-3c-0.4,0-0.7-0.4-0.7-0.7v-1.6c0-0.4,0.4-0.7,0.7-0.7h3
				C103.7,167.4,104,167.7,104,168.1z"/>
			<path class="st0" d="M104,155.9v1.6c0,0.4-0.4,0.7-0.7,0.7h-3c-0.4,0-0.7-0.4-0.7-0.7v-1.6c0-0.4,0.4-0.7,0.7-0.7h3
				C103.7,155.2,104,155.5,104,155.9z"/>
			<path class="st0" d="M104,149.7v1.6c0,0.4-0.4,0.7-0.7,0.7h-3c-0.4,0-0.7-0.4-0.7-0.7v-1.6c0-0.4,0.4-0.7,0.7-0.7h3
				C103.7,148.9,104,149.3,104,149.7z"/>
			<path class="st0" d="M104,143.4v1.6c0,0.4-0.4,0.7-0.7,0.7h-3c-0.4,0-0.7-0.4-0.7-0.7v-1.6c0-0.4,0.4-0.7,0.7-0.7h3
				C103.7,142.7,104,143.1,104,143.4z"/>
		</g>
		<g>
			<path class="st0" d="M366,137.4v1.6c0,0.4-0.4,0.7-0.7,0.7h-3c-0.4,0-0.7-0.4-0.7-0.7v-1.6c0-0.4,0.4-0.7,0.7-0.7h3
				C365.6,136.5,366,136.9,366,137.4z"/>
			<path class="st0" d="M366,162.1v1.6c0,0.4-0.4,0.7-0.7,0.7h-3c-0.4,0-0.7-0.4-0.7-0.7v-1.6c0-0.4,0.4-0.7,0.7-0.7h3
				C365.6,161.2,366,161.5,366,162.1z"/>
			<path class="st0" d="M366,168.1v1.6c0,0.4-0.4,0.7-0.7,0.7h-3c-0.4,0-0.7-0.4-0.7-0.7v-1.6c0-0.4,0.4-0.7,0.7-0.7h3
				C365.6,167.4,366,167.7,366,168.1z"/>
			<path class="st0" d="M366,155.9v1.6c0,0.4-0.4,0.7-0.7,0.7h-3c-0.4,0-0.7-0.4-0.7-0.7v-1.6c0-0.4,0.4-0.7,0.7-0.7h3
				C365.6,155.2,366,155.5,366,155.9z"/>
			<path class="st0" d="M366,149.7v1.6c0,0.4-0.4,0.7-0.7,0.7h-3c-0.4,0-0.7-0.4-0.7-0.7v-1.6c0-0.4,0.4-0.7,0.7-0.7h3
				C365.6,148.9,366,149.3,366,149.7z"/>
			<path class="st0" d="M366,143.4v1.6c0,0.4-0.4,0.7-0.7,0.7h-3c-0.4,0-0.7-0.4-0.7-0.7v-1.6c0-0.4,0.4-0.7,0.7-0.7h3
				C365.6,142.7,366,143.1,366,143.4z"/>
		</g>
		<path class="st0" d="M398.1,139.4c-2.3-2.3-5.5-3.7-8.9-3.7s-6.6,1.2-8.9,3.7c-3.4,3.4-3.4,6.7-3.4,14.2c0,7.4,0,10.8,3.4,14.2
			c1.2,1.2,2.7,2.1,4.3,2.8v-3.9c-0.5-0.4-0.9-0.7-1.2-1.1c-2.3-2.3-2.5-4.8-2.5-11.9s0.2-9.6,2.5-11.9c1.6-1.6,3.7-2.5,6-2.5
			s4.4,0.9,6,2.5c2.3,2.3,2.5,4.8,2.5,11.9s-0.2,9.6-2.5,11.9c-0.4,0.4-0.9,0.7-1.2,1.1v3.9c1.6-0.5,3-1.6,4.3-2.8
			c3.4-3.4,3.4-6.7,3.4-14.2C401.8,146.1,401.5,142.7,398.1,139.4z"/>
		<path class="st0" d="M389.7,161.2h-1.2c-0.7,0-1.2,0.5-1.2,1.2v4.1v0.4v9.8c0,0.7,0.5,1.2,1.2,1.2h1.4c0.7,0,1.2-0.5,1.2-1.2v-9.8
			v-0.4v-4.1C391,161.7,390.5,161.2,389.7,161.2z"/>
	</g>
	<g>
		<path class="st0" d="M35.9,219.2c-3.4,0-5.5-2.5-5.5-6.4s2.1-6.4,5.5-6.4c1.8,0,2.7,0.4,4.1,2l-0.9,0.9c-1.1-1.2-2-1.6-3.2-1.6
			c-1.4,0-2.5,0.5-3.2,1.6c-0.5,0.9-0.9,2-0.9,3.5c0,1.6,0.2,2.7,0.9,3.5c0.7,1.1,2,1.6,3.2,1.6s2.1-0.4,3.2-1.6l0.9,0.9
			C38.8,218.8,37.7,219.2,35.9,219.2z"/>
		<path class="st0" d="M53.3,219v-7.6c0-2.3-1.2-3.7-3.4-3.7s-3.5,1.4-3.5,3.7v7.6H45v-18.3h1.2v7.3c0.9-1.1,2.1-1.6,3.7-1.6
			c2.8,0,4.6,1.8,4.6,4.6v7.8h-1.2V219z"/>
		<path class="st0" d="M60.4,202.3v-1.6H62v1.6H60.4z M60.6,219v-12.4h1.2V219H60.6z"/>
		<path class="st0" d="M75,208.7c-0.7-0.7-1.2-0.9-2.3-0.9c-2.1,0-3.4,1.8-3.4,3.7v7.6H68v-12.4h1.2v1.6c0.7-1.1,2.1-1.8,3.5-1.8
			c1.2,0,2.1,0.4,3,1.2L75,208.7z"/>
		<path class="st0" d="M86.5,217.8c-0.9,0.9-2.1,1.4-3.4,1.4s-2.5-0.5-3.4-1.4c-1.2-1.2-1.6-3.2-1.6-5s0.2-3.7,1.6-5
			c0.9-0.9,2.1-1.4,3.4-1.4s2.5,0.5,3.4,1.4c1.2,1.2,1.6,3.2,1.6,5C87.9,214.6,87.7,216.5,86.5,217.8z M85.6,208.7
			c-0.7-0.7-1.6-1.1-2.5-1.1s-2,0.4-2.5,1.1c-1.1,1.1-1.1,2.7-1.1,4.1s0,3,1.1,4.1c0.7,0.7,1.6,1.1,2.5,1.1s2-0.4,2.5-1.1
			c1.1-1.1,1.1-2.7,1.1-4.1C86.7,211.4,86.7,209.8,85.6,208.7z"/>
		<path class="st0" d="M101.4,218.1c-0.7,0.7-1.8,1.1-3,1.1c-1.4,0-2.7-0.4-3.7-1.8v7.4h-1.2v-18.3h1.2v1.6c1.1-1.4,2.3-1.8,3.7-1.8
			c1.2,0,2.3,0.4,3,1.1c1.2,1.2,1.6,3.4,1.6,5.3C103,214.7,102.6,216.9,101.4,218.1z M98.2,207.6c-3,0-3.5,2.7-3.5,5.1
			c0,2.5,0.5,5.1,3.5,5.1s3.5-2.7,3.5-5.1C101.7,210.3,101.2,207.6,98.2,207.6z"/>
		<path class="st0" d="M115.4,208.7c-0.7-0.7-1.2-0.9-2.3-0.9c-2.1,0-3.4,1.8-3.4,3.7v7.6h-1.2v-12.4h1.2v1.6
			c0.7-1.1,2.1-1.8,3.5-1.8c1.2,0,2.1,0.4,3,1.2L115.4,208.7z"/>
		<path class="st0" d="M127.1,219v-1.2c-1.1,1.1-2,1.4-3.7,1.4s-2.8-0.4-3.7-1.1c-0.5-0.5-0.9-1.4-0.9-2.5c0-2.3,1.6-3.5,4.3-3.5
			h4.1v-1.4c0-2-0.9-3-3.5-3c-1.8,0-2.7,0.4-3.4,1.6l-0.9-0.9c1.1-1.4,2.3-2,4.4-2c3.2,0,4.8,1.4,4.8,4.1v8.5H127.1L127.1,219z
			 M127.1,213.1h-3.9c-2.1,0-3.2,0.9-3.2,2.5s1.1,2.5,3.2,2.5c1.1,0,2.1-0.2,3-0.9c0.5-0.4,0.7-1.2,0.7-2.3v-1.8L127.1,213.1
			L127.1,213.1z"/>
		<path class="st0" d="M139.2,219.2c-3.4,0-5.5-2.5-5.5-6.4s2.1-6.4,5.5-6.4c1.8,0,2.7,0.4,4.1,2l-0.9,0.9c-1.1-1.2-2-1.6-3.2-1.6
			c-1.4,0-2.5,0.5-3.2,1.6c-0.5,0.9-0.9,2-0.9,3.5c0,1.6,0.2,2.7,0.9,3.5c0.7,1.1,2,1.6,3.2,1.6s2.1-0.4,3.2-1.6l0.9,0.9
			C141.8,218.8,140.8,219.2,139.2,219.2z"/>
		<path class="st0" d="M151.4,219c-2,0-3-1.4-3-3.2v-8.2h-1.8v-0.9h1.8v-3.9h1.2v3.9h3v0.9h-2.8v8.2c0,1.2,0.5,2.1,2,2.1h0.9v1.2
			h-1.2L151.4,219L151.4,219z"/>
		<path class="st0" d="M157.6,202.3v-1.6h1.6v1.6H157.6z M157.8,219v-12.4h1.2V219H157.8z"/>
		<path class="st0" d="M169.8,219.2c-3.4,0-5.5-2.5-5.5-6.4s2.1-6.4,5.5-6.4c1.8,0,2.7,0.4,4.1,2l-0.9,0.9c-1.1-1.2-2-1.6-3.2-1.6
			c-1.4,0-2.5,0.5-3.2,1.6c-0.5,0.9-0.9,2-0.9,3.5c0,1.6,0.2,2.7,0.9,3.5c0.7,1.1,2,1.6,3.2,1.6s2.1-0.4,3.2-1.6l0.9,0.9
			C172.7,218.8,171.6,219.2,169.8,219.2z"/>
		<path class="st0" d="M201.9,219v-1.2c-1.1,1.1-2,1.4-3.7,1.4s-2.8-0.4-3.7-1.1c-0.5-0.5-0.9-1.4-0.9-2.5c0-2.3,1.6-3.5,4.3-3.5
			h4.1v-1.4c0-2-0.9-3-3.5-3c-1.8,0-2.7,0.4-3.4,1.6l-0.9-0.9c1.1-1.4,2.3-2,4.4-2c3.2,0,4.8,1.4,4.8,4.1v8.5H201.9L201.9,219z
			 M201.9,213.1H198c-2.1,0-3.2,0.9-3.2,2.5s1.1,2.5,3.2,2.5c1.1,0,2.1-0.2,3-0.9c0.5-0.4,0.7-1.2,0.7-2.3v-1.8L201.9,213.1
			L201.9,213.1z"/>
		<path class="st0" d="M214,219.2c-3.4,0-5.5-2.5-5.5-6.4s2.1-6.4,5.5-6.4c1.8,0,2.7,0.4,4.1,2l-0.9,0.9c-1.1-1.2-2-1.6-3.2-1.6
			c-1.4,0-2.5,0.5-3.2,1.6c-0.5,0.9-0.9,2-0.9,3.5c0,1.6,0.2,2.7,0.9,3.5c0.7,1.1,2,1.6,3.2,1.6s2.1-0.4,3.2-1.6l0.9,0.9
			C216.7,218.8,215.6,219.2,214,219.2z"/>
		<path class="st0" d="M231,219v-1.4c-0.9,1.1-2.1,1.6-3.7,1.6c-1.4,0-2.5-0.4-3.2-1.2c-0.9-0.7-1.2-2-1.2-3.4v-7.8h1.2v7.6
			c0,2.3,1.2,3.7,3.4,3.7s3.5-1.4,3.5-3.7v-7.6h1.2v12.4H231V219z"/>
		<path class="st0" d="M246.5,218.1c-0.7,0.7-1.8,1.1-3,1.1c-1.4,0-2.7-0.4-3.7-1.8v7.4h-1.2v-18.3h1.2v1.6c1.1-1.4,2.3-1.8,3.7-1.8
			c1.2,0,2.3,0.4,3,1.1c1.2,1.2,1.6,3.4,1.6,5.3C248,214.7,247.7,216.9,246.5,218.1z M243.3,207.6c-3,0-3.5,2.7-3.5,5.1
			c0,2.5,0.5,5.1,3.5,5.1s3.5-2.7,3.5-5.1C246.8,210.3,246.3,207.6,243.3,207.6z"/>
		<path class="st0" d="M261.5,219v-1.4c-0.9,1.1-2.1,1.6-3.7,1.6c-1.4,0-2.5-0.4-3.2-1.2c-0.9-0.7-1.2-2-1.2-3.4v-7.8h1.2v7.6
			c0,2.3,1.2,3.7,3.4,3.7c2.1,0,3.5-1.4,3.5-3.7v-7.6h1.2v12.4h-1.2V219z"/>
		<path class="st0" d="M277.1,219v-7.6c0-2.3-1.2-3.7-3.4-3.7c-2.1,0-3.5,1.4-3.5,3.7v7.6H269v-12.4h1.2v1.4
			c0.9-1.1,2.1-1.6,3.7-1.6c1.4,0,2.5,0.4,3.2,1.2c0.9,0.7,1.2,2,1.2,3.4v7.8h-1.2L277.1,219L277.1,219z"/>
		<path class="st0" d="M289.2,219.2c-3.4,0-5.5-2.5-5.5-6.4s2.1-6.4,5.5-6.4c1.8,0,2.7,0.4,4.1,2l-0.9,0.9c-1.1-1.2-2-1.6-3.2-1.6
			c-1.4,0-2.5,0.5-3.2,1.6c-0.5,0.9-0.9,2-0.9,3.5c0,1.6,0.2,2.7,0.9,3.5c0.7,1.1,2,1.6,3.2,1.6s2.1-0.4,3.2-1.6l0.9,0.9
			C292,218.8,291,219.2,289.2,219.2z"/>
		<path class="st0" d="M301.6,219c-2,0-3-1.4-3-3.2v-8.2h-1.8v-0.9h1.8v-3.9h1.2v3.9h2.8v0.9h-2.8v8.2c0,1.2,0.5,2.1,2,2.1h0.9v1.2
			h-1.1V219z"/>
		<path class="st0" d="M315.8,219v-1.4c-0.9,1.1-2.1,1.6-3.7,1.6c-1.4,0-2.5-0.4-3.2-1.2c-0.9-0.7-1.2-2-1.2-3.4v-7.8h1.2v7.6
			c0,2.3,1.2,3.7,3.4,3.7s3.5-1.4,3.5-3.7v-7.6h1.2v12.4h-1.2L315.8,219L315.8,219z"/>
		<path class="st0" d="M330.2,208.7c-0.7-0.7-1.2-0.9-2.3-0.9c-2.1,0-3.4,1.8-3.4,3.7v7.6h-1.2v-12.4h1.2v1.6
			c0.7-1.1,2.1-1.8,3.5-1.8c1.2,0,2.1,0.4,3,1.2L330.2,208.7z"/>
		<path class="st0" d="M334.6,213.1c0,3.2,1.4,4.8,4.1,4.8c1.4,0,2.3-0.4,3.4-1.4l0.9,0.7c-1.2,1.2-2.5,2-4.4,2
			c-3.4,0-5.3-2.1-5.3-6.4c0-3.9,1.8-6.4,5-6.4c3,0,5,2.3,5,6v0.5h-8.5v0.2H334.6z M341.5,209.8c-0.5-1.2-1.8-2.1-3.2-2.1
			s-2.7,0.7-3.2,2.1c-0.4,0.7-0.4,1.1-0.4,2.3h7.3C341.9,210.8,341.9,210.5,341.5,209.8z"/>
		<path class="st0" d="M380.7,219v-7.6c0-2.3-1.2-3.7-3.4-3.7s-3.5,1.4-3.5,3.4v7.8h-1.2v-7.6c0-2.3-1.2-3.7-3.4-3.7
			s-3.5,1.4-3.5,3.7v7.6h-1.2v-12.4h1.2v1.4c0.9-1.1,2.1-1.6,3.7-1.6c1.8,0,3.2,0.7,3.9,2.3c0.9-1.4,2.3-2.3,4.3-2.3
			c1.4,0,2.5,0.4,3.2,1.2c0.9,0.7,1.2,2,1.2,3.4v7.8h-1.2v0.3H380.7z"/>
		<path class="st0" d="M395.2,219v-1.2c-1.1,1.1-2,1.4-3.7,1.4c-1.8,0-2.8-0.4-3.7-1.1c-0.5-0.5-0.9-1.4-0.9-2.5
			c0-2.3,1.6-3.5,4.3-3.5h4.1v-1.4c0-2-0.9-3-3.5-3c-1.8,0-2.7,0.4-3.4,1.6l-0.9-0.9c1.1-1.4,2.3-2,4.4-2c3.2,0,4.8,1.4,4.8,4.1v8.5
			H395.2L395.2,219z M395.2,213.1h-3.9c-2.1,0-3.2,0.9-3.2,2.5s1.1,2.5,3.2,2.5c1.1,0,2.1-0.2,3-0.9c0.5-0.4,0.7-1.2,0.7-2.3v-1.8
			L395.2,213.1L395.2,213.1z"/>
		<path class="st0" d="M406.2,219.2c-2.1,0-3.7-0.5-5-1.8l0.9-0.9c0.9,1.1,2.3,1.6,4.1,1.6c2.5,0,3.7-0.9,3.7-2.5
			c0-1.2-0.7-2-2.3-2.1l-2.1-0.2c-2.5-0.2-3.7-1.2-3.7-3.2c0-2.1,1.8-3.5,4.4-3.5c1.8,0,3.2,0.5,4.3,1.2l-0.7,0.9
			c-0.9-0.7-2.1-1.1-3.4-1.1c-2,0-3.2,0.9-3.2,2.3c0,1.2,0.7,2,2.5,2.1l2,0.2c2.1,0.2,3.5,0.9,3.5,3.2S409.3,219.2,406.2,219.2z"/>
		<path class="st0" d="M419.7,219.2c-2.1,0-3.7-0.5-5-1.8l0.9-0.9c0.9,1.1,2.3,1.6,4.1,1.6c2.5,0,3.7-0.9,3.7-2.5
			c0-1.2-0.7-2-2.3-2.1l-2.1-0.2c-2.5-0.2-3.7-1.2-3.7-3.2c0-2.1,1.8-3.5,4.4-3.5c1.8,0,3.2,0.5,4.3,1.2l-0.9,0.9
			c-0.9-0.7-2.1-1.1-3.4-1.1c-2,0-3.2,0.9-3.2,2.3c0,1.2,0.7,2,2.5,2.1l2,0.2c2.1,0.2,3.5,0.9,3.5,3.2S422.7,219.2,419.7,219.2z"/>
		<path class="st0" d="M436.9,219v-1.2c-1.1,1.1-2,1.4-3.7,1.4s-2.8-0.4-3.5-1.1c-0.5-0.5-0.9-1.4-0.9-2.5c0-2.3,1.6-3.5,4.3-3.5
			h4.1v-1.4c0-2-0.9-3-3.5-3c-1.8,0-2.7,0.4-3.4,1.6l-0.9-0.9c1.1-1.4,2.3-2,4.4-2c3.2,0,4.8,1.4,4.8,4.1v8.5H436.9L436.9,219z
			 M436.9,213.1H433c-2.1,0-3.2,0.9-3.2,2.5s1.1,2.5,3.2,2.5c1.1,0,2.1-0.2,3-0.9c0.5-0.4,0.7-1.2,0.7-2.3v-1.8L436.9,213.1
			L436.9,213.1z"/>
		<path class="st0" d="M448.1,225c-1.8,0-2.8-0.5-4.1-1.6l0.9-0.9c0.9,0.9,1.6,1.4,3.2,1.4c2.7,0,3.7-1.8,3.7-4.3v-2.1
			c-1.1,1.4-2.3,1.8-3.7,1.8c-1.2,0-2.3-0.4-3-1.1c-1.2-1.2-1.6-3.4-1.6-5.3c0-2,0.4-4.1,1.6-5.3c0.7-0.7,1.8-1.1,3-1.1
			c1.4,0,2.7,0.4,3.7,1.8v-1.6h1.2v12.9C453.1,222.9,451.3,225,448.1,225z M448.3,207.6c-3,0-3.5,2.7-3.5,5.1c0,2.5,0.5,5.1,3.5,5.1
			s3.5-2.7,3.5-5.1C451.8,210.3,451.3,207.6,448.3,207.6z"/>
		<path class="st0" d="M459.8,213.1c0,3.2,1.4,4.8,4.1,4.8c1.4,0,2.3-0.4,3.4-1.4l0.9,0.7c-1.2,1.2-2.5,2-4.4,2
			c-3.4,0-5.3-2.1-5.3-6.4c0-3.9,1.8-6.4,5-6.4c3,0,5,2.3,5,6v0.5H460v0.2H459.8z M466.7,209.8c-0.5-1.2-1.8-2.1-3.2-2.1
			c-1.4,0-2.7,0.7-3.2,2.1c-0.4,0.7-0.4,1.1-0.4,2.3h7.3C467.1,210.8,467.1,210.5,466.7,209.8z"/>
	</g>
</g>
</svg>
