<svg width="65" height="30" viewBox="0 0 65 30" fill="none" xmlns="http://www.w3.org/2000/svg">
<path d="M16.5659 29.3129C16.2443 29.3129 15.9226 29.198 15.6698 28.9682L0.482502 15.7109C0.160834 15.4582 0 15.0905 0 14.677C0 14.2864 0.160834 13.8958 0.482502 13.643L15.6698 0.385692C16.2443 -0.119787 17.1174 -0.0508564 17.6228 0.523551C18.1283 1.09796 18.0594 1.97106 17.485 2.47654L3.46942 14.677L17.462 26.9004C18.0364 27.4058 18.1053 28.2789 17.5999 28.8533C17.3471 29.152 16.9565 29.3129 16.5659 29.3129Z" fill="#254EDB"/>
<path d="M48.4111 29.3129C48.0205 29.3129 47.6529 29.152 47.3772 28.8304C46.8717 28.256 46.9407 27.3829 47.5151 26.8774L61.5076 14.654L47.5151 2.43058C46.9407 1.9251 46.8717 1.052 47.3772 0.47759C47.8827 -0.0968178 48.7558 -0.165745 49.3302 0.339734L64.5175 13.5971C64.8162 13.8498 65 14.2404 65 14.631C65 15.0216 64.8392 15.4122 64.5175 15.6649L49.3302 28.9912C49.0545 29.221 48.7328 29.3129 48.4111 29.3129Z" fill="#254EDB"/>
<path fill-rule="evenodd" clip-rule="evenodd" d="M18.4659 14.9756C18.4659 13.7067 19.4946 12.678 20.7636 12.678H20.8141C22.0831 12.678 23.1118 13.7067 23.1118 14.9756C23.1118 16.2446 22.0831 17.2733 20.8141 17.2733H20.7636C19.4946 17.2733 18.4659 16.2446 18.4659 14.9756Z" fill="#254EDB"/>
<path fill-rule="evenodd" clip-rule="evenodd" d="M30.1426 14.9756C30.1426 13.7067 31.1712 12.678 32.4402 12.678H32.4908C33.7597 12.678 34.7884 13.7067 34.7884 14.9756C34.7884 16.2446 33.7597 17.2733 32.4908 17.2733H32.4402C31.1712 17.2733 30.1426 16.2446 30.1426 14.9756Z" fill="#254EDB"/>
<path fill-rule="evenodd" clip-rule="evenodd" d="M41.8191 14.9756C41.8191 13.7067 42.8477 12.678 44.1167 12.678H44.1673C45.4363 12.678 46.4649 13.7067 46.4649 14.9756C46.4649 16.2446 45.4363 17.2733 44.1673 17.2733H44.1167C42.8477 17.2733 41.8191 16.2446 41.8191 14.9756Z" fill="#254EDB"/>
</svg>
