<svg width="38" height="56" viewBox="0 0 38 56" fill="none" xmlns="http://www.w3.org/2000/svg">
<g clip-path="url(#clip0_96_41)">
<path d="M9.63189 55.8184C14.7492 55.8184 18.9025 51.6625 18.9025 46.5418V37.2651H9.63189C4.51458 37.2654 0.361328 41.4211 0.361328 46.5418C0.361328 51.6625 4.51458 55.8184 9.63189 55.8184Z" fill="white"/>
<path d="M0.361328 27.9886C0.361328 22.8679 4.51458 18.7119 9.63189 18.7119H18.9025V37.265H9.63189C4.51458 37.2652 0.361328 33.1092 0.361328 27.9886Z" fill="white"/>
<path d="M0.361328 9.43559C0.361328 4.31492 4.51458 0.158936 9.63189 0.158936H18.9025V18.712H9.63189C4.51458 18.712 0.361328 14.5563 0.361328 9.43559Z" fill="white"/>
<path d="M18.9023 0.158936H28.1729C33.2902 0.158936 37.4435 4.31492 37.4435 9.43559C37.4435 14.5563 33.2902 18.7122 28.1729 18.7122H18.9023V0.158936Z" fill="white"/>
<path d="M37.4435 27.9886C37.4435 33.1092 33.2902 37.2652 28.1729 37.2652C23.0556 37.2652 18.9023 33.1092 18.9023 27.9886C18.9023 22.8679 23.0556 18.7119 28.1729 18.7119C33.2902 18.7119 37.4435 22.8679 37.4435 27.9886Z" fill="white"/>
</g>
<defs>
<clipPath id="clip0_96_41">
<rect width="37.082" height="55.6595" fill="white" transform="translate(0.361328 0.158936)"/>
</clipPath>
</defs>
</svg>
