<?xml version="1.0" encoding="utf-8"?>
<!-- Generator: Adobe Illustrator 27.4.0, SVG Export Plug-In . SVG Version: 6.00 Build 0)  -->
<svg version="1.1" id="Layer_1" xmlns="http://www.w3.org/2000/svg" xmlns:xlink="http://www.w3.org/1999/xlink" x="0px" y="0px"
	 width="50px" height="42px" viewBox="0 0 50 42" style="enable-background:new 0 0 50 42;" xml:space="preserve">
<style type="text/css">
	.st0{opacity:0.4;fill:#8B89AA;enable-background:new    ;}
</style>
<path class="st0" d="M11.4,41.5c-3.3,0-5.9-1.3-7.8-3.9C1.9,35,1,31.3,1,26.7C1,15,6.5,6.3,17.6,0.5l3.7,6.8
	c-3.7,2.1-6.4,4.5-8.3,7.1s-2.8,5.8-2.8,9.8c0.3-0.1,0.7-0.1,1.2-0.1c2.4,0,4.5,0.8,6.2,2.3c1.8,1.4,2.7,3.4,2.7,6
	c0,2.8-0.8,5-2.5,6.7C16.1,40.7,14,41.5,11.4,41.5z M39.1,41.5c-3.3,0-5.9-1.3-7.8-3.9c-1.8-2.7-2.7-6.3-2.7-11
	c0-11.7,5.5-20.4,16.6-26.2L49,7.3c-3.7,2.1-6.4,4.5-8.3,7.1c-1.9,2.6-2.8,5.8-2.8,9.8c0.3-0.1,0.7-0.1,1.2-0.1
	c2.4,0,4.5,0.8,6.2,2.3c1.8,1.4,2.7,3.4,2.7,6c0,2.8-0.8,5-2.5,6.7C43.8,40.7,41.7,41.5,39.1,41.5z"/>
</svg>
