<?xml version="1.0" encoding="utf-8"?>
<!-- Generator: Adobe Illustrator 27.4.0, SVG Export Plug-In . SVG Version: 6.00 Build 0)  -->
<svg version="1.1" id="Layer_1" xmlns="http://www.w3.org/2000/svg" xmlns:xlink="http://www.w3.org/1999/xlink" x="0px" y="0px"
	 width="382px" height="109.2px" viewBox="0 0 382 109.2" style="enable-background:new 0 0 382 109.2;" xml:space="preserve">
<style type="text/css">
	.st0{clip-path:url(#SVGID_00000005260698457406073620000002955500569525817480_);}
	.st1{fill:#254EDB;}
	.st2{fill:#1D174E;}
</style>
<g>
	<defs>
		<rect id="SVGID_1_" y="0.2" width="382" height="109"/>
	</defs>
	<clipPath id="SVGID_00000099647033968666094850000016340917226133400203_">
		<use xlink:href="#SVGID_1_"  style="overflow:visible;"/>
	</clipPath>
	<g style="clip-path:url(#SVGID_00000099647033968666094850000016340917226133400203_);">
		<path class="st1" d="M2.3,82.9c-7.9-23.2,5.4-43.2,24.4-49.7C49,25.6,65.5,37,72,55.9c1.2,3.6,1.9,7.3,2.3,9.5
			c0.1,0.6-0.2,1.2-0.8,1.4L24.4,83.5c-0.6,0.2-1.3-0.1-1.5-0.8l-4.6-13.5c-0.2-0.6,0.1-1.3,0.8-1.5l30.9-10.6
			c1-0.3,1.9,0.6,1.5,1.6c-0.4,1-1.8,1.1-2.2,0.1c-3.3-7.2-8.3-9.9-15.3-7.5c-9.3,3.2-12.4,10.9-8,23.6c4.4,12.7,12.9,16.4,25.9,12
			c1.7-0.6,3.3-1.3,4.8-2.1c7.4-3.9,16.5-2.7,22.6,3c0.5,0.4,0.5,1.2,0.1,1.7c-6.6,7.8-16.3,14.1-24.7,17
			C32.2,114,10.3,106.3,2.3,82.9L2.3,82.9z"/>
		<path class="st2" d="M123.9,27.6c-11,0-18.8,5.1-23.6,9.8h-0.6l0.4-13.1v-7c0-9.5-7.7-17.2-17.2-17.2h-7.3v46.6
			c1.1,2.2,2.1,4.5,2.9,6.9c1,3,1.9,6.5,2.6,10.5c0.7,3.9-1.6,7.7-5.3,9l-0.2,0.1v4.4c3,1.2,5.7,2.9,8.2,5.1
			c3.2,2.9,3.5,7.8,0.7,11.1c-2.6,3-5.6,5.9-8.9,8.5v1.8h25.7v-49c3.9-3.6,7.2-5.7,11.9-5.7c6.6,0,8.7,3.6,8.7,11.9v42.7h25.7v-46
			C147.4,39.6,140.3,27.6,123.9,27.6L123.9,27.6z"/>
		<path class="st2" d="M152.5,75.4v-46H164c7.9,0,14.2,6.4,14.2,14.2v28.5c0,8.4,1.8,11.9,8.5,11.9c4.3,0,7.3-1.2,11.2-6.6V29.4h8
			c9.8,0,17.7,7.9,17.7,17.7v56.9h-22.8l0.1-9.8h-0.6c-6.3,7.2-13.7,11.6-24.2,11.6C159.4,105.9,152.5,93.9,152.5,75.4z"/>
		<path class="st2" d="M229.8,66.8c0-24.5,19.1-39.1,39.1-39.1c23.6,0,35.5,16.1,35.5,36.1c0,4.5-0.7,8.9-1,10.7h-54.2V57.8h36.4
			l-3.6,4.5c0-9.8-3.9-15.2-12.2-15.2c-9.8,0-15.2,6.3-15.2,19.7s6.9,19.7,20.6,19.7c1.5,0,3-0.1,4.4-0.3c8.8-1.1,17.4,3,21.7,10.8
			l0.1,0.3c-8.9,5.7-20.6,8.7-29.8,8.7C248,105.9,229.8,91.5,229.8,66.8z"/>
		<path class="st2" d="M307.4,94.5l3.9-5.7c3.7-5.5,10.8-7.6,17-5.3c6.3,2.3,12.9,3.5,19.1,3.5c6.6,0,9.3-1.8,9.3-4.5
			c0-3.6-3.9-4.2-16.4-6.9c-20.6-4.5-28.1-12.2-28.1-23.9c0-14.6,13.9-24.2,35.5-24.2c14,0,25.2,5.5,33.1,10.4l-3.4,4.6
			c-4.2,5.6-11.5,8.2-18.2,6c-4.7-1.5-9.4-2.3-13.8-2.3c-4.8,0-7.8,1.5-7.8,4.2c0,3.3,3.9,3.6,15.5,6.3c22.4,5.1,29,11.8,29,24.2
			c0,14-13.3,24.8-38.2,24.8C331,105.9,317,100.8,307.4,94.5L307.4,94.5z"/>
	</g>
</g>
</svg>
