<svg width="80" height="80" viewBox="0 0 80 80" fill="none" xmlns="http://www.w3.org/2000/svg">
<path d="M42.5489 55.7209L38.6791 50.3256C40.6884 48.3349 41.1535 45.3767 39.6837 43.3116C38.8465 42.1581 37.5442 41.4512 36.0186 41.3395C34.9023 41.2651 33.7675 41.4884 32.7256 42.0093L28.8558 36.614C28.614 36.2791 28.2233 36.1116 27.814 36.1488C27.4047 36.2047 27.0698 36.4651 26.9209 36.8372C25.8419 39.5535 22.4558 47.0326 19.9256 48.8558L13.6931 53.3209C12.9303 53.8605 12.4838 54.8279 12.4652 55.9256C12.4466 56.4837 12.5396 57.0419 12.7256 57.5442L9.95354 59.5163C9.45121 59.8698 9.33959 60.5767 9.69308 61.0791L13.2466 66.0279C13.414 66.2698 13.6745 66.4372 13.9721 66.4744C14.028 66.493 14.0838 66.493 14.1582 66.493C14.3814 66.493 14.6233 66.4186 14.8094 66.2884L17.5256 64.3349C18.2698 64.9116 19.2186 65.2837 20.1302 65.2837C20.7442 65.2837 21.3395 65.1163 21.8419 64.7628L22.8279 64.0558L29.2837 70.4186C29.507 70.6233 29.7861 70.7349 30.0651 70.7349C30.2884 70.7349 30.493 70.6791 30.6791 70.5488L35.7768 67.1442C36.0558 66.9581 36.2419 66.6605 36.2605 66.3256C36.2791 65.9907 36.1675 65.6558 35.9256 65.4326L29.9907 59.5721C34.2512 58.1023 41.6 57.507 41.693 57.507C42.1023 57.4698 42.4558 57.2279 42.6233 56.8558C42.7907 56.4837 42.7721 56.0558 42.5489 55.7209ZM35.8326 43.5535C36.6884 43.6279 37.414 44 37.8605 44.614C38.6419 45.7116 38.3814 47.2744 37.3582 48.4837L34.0465 43.8512C34.6047 43.6093 35.2372 43.5163 35.8326 43.5535ZM27.5349 58.1768C27.4977 58.1954 27.4605 58.214 27.4233 58.2326C27.4233 58.2326 27.4233 58.2326 27.4047 58.2326C27.3489 58.2698 27.293 58.3256 27.2372 58.3628C27.1814 58.4186 27.1442 58.4744 27.107 58.5302C27.107 58.5302 27.107 58.5488 27.0884 58.5488C27.0512 58.6047 27.014 58.6605 26.9954 58.7163C26.9954 58.7163 26.9954 58.7349 26.9768 58.7349C26.9582 58.7907 26.9395 58.8465 26.9209 58.9209V58.9395C26.9023 58.9954 26.9023 59.0698 26.9023 59.1256V59.1442C26.9023 59.2 26.9023 59.2744 26.9209 59.3302V59.3488C26.9395 59.4047 26.9582 59.4791 26.9768 59.5349C26.9768 59.5349 26.9768 59.5535 26.9954 59.5535C27.014 59.5721 27.014 59.6093 27.0326 59.6279C27.0512 59.6465 27.0698 59.6837 27.0698 59.7023C27.0698 59.7209 27.0884 59.7395 27.0884 59.7395C27.1256 59.7954 27.1628 59.8512 27.2186 59.8884L33.3768 65.9535L30.1768 68.093L23.7023 61.693C23.6465 61.6372 23.5907 61.6 23.5349 61.5628C23.5349 61.5628 23.5163 61.5628 23.5163 61.5442C23.4605 61.507 23.4047 61.4884 23.3489 61.4512C23.3489 61.4512 23.3302 61.4512 23.3302 61.4326C23.2744 61.414 23.2186 61.3954 23.1442 61.3767H23.1256C23.0698 61.3581 22.9954 61.3581 22.9395 61.3581H22.9209C22.8651 61.3581 22.7907 61.3581 22.7349 61.3767H22.7163C22.6605 61.3954 22.5861 61.414 22.5302 61.4326C22.5302 61.4326 22.5116 61.4326 22.5116 61.4512C22.4558 61.4698 22.4 61.507 22.3442 61.5442L22.3256 61.5628C22.3256 61.5628 22.307 61.5628 22.307 61.5814L20.5395 62.8465C20.1116 63.1442 18.9954 62.7535 18.5489 62.1209C18.5117 62.0651 18.4559 62.0093 18.4001 61.9535C18.0466 61.6372 17.5442 61.5628 17.1163 61.7861C17.0791 61.8047 17.0233 61.8419 16.9861 61.8605L14.4001 63.7209L12.1489 60.5954L14.7349 58.7349C14.8838 58.6233 15.014 58.4744 15.0884 58.307C15.0884 58.2884 15.107 58.2698 15.107 58.2512C15.107 58.2326 15.1256 58.214 15.1256 58.1954C15.1256 58.1767 15.1442 58.1395 15.1442 58.1209V58.1023C15.1814 57.9721 15.2001 57.8233 15.1814 57.6744C15.1814 57.6372 15.1814 57.6186 15.1628 57.5814V57.5628C15.1628 57.5442 15.1442 57.5256 15.1442 57.507C15.1442 57.4884 15.1442 57.4698 15.1256 57.4512C15.1256 57.4326 15.107 57.4326 15.107 57.414C15.107 57.3954 15.0884 57.3767 15.0884 57.3581C15.0884 57.3581 15.0884 57.3395 15.0698 57.3395C15.0326 57.2837 15.014 57.2279 14.9768 57.1721C14.7535 56.8558 14.6047 56.3535 14.6233 55.907C14.6233 55.5163 14.7535 55.2 14.921 55.0698L21.1535 50.6047C23.8698 48.6512 26.7721 42.6047 28.1489 39.4605L39.5721 55.3861C36.5023 55.7954 30.5675 56.614 27.5349 58.1768Z" fill="#254EDB"/>
<path d="M35.386 16.3163H29.1163C28.5023 16.3163 28 15.8139 28 15.2C28 14.586 28.5023 14.0837 29.1163 14.0837H35.386C36 14.0837 36.5023 14.586 36.5023 15.2C36.5023 15.8139 36 16.3163 35.386 16.3163Z" fill="#254EDB"/>
<path d="M35.386 21.2837H29.1163C28.5023 21.2837 28 20.7814 28 20.1674C28 19.5535 28.5023 19.0511 29.1163 19.0511H35.386C36 19.0511 36.5023 19.5535 36.5023 20.1674C36.5023 20.7814 36 21.2837 35.386 21.2837Z" fill="#254EDB"/>
<path d="M32.3349 26.2326H29.1163C28.5023 26.2326 28 25.7302 28 25.1163C28 24.5023 28.5023 24 29.1163 24H32.3349C32.9488 24 33.4512 24.5023 33.4512 25.1163C33.4512 25.7302 32.9674 26.2326 32.3349 26.2326Z" fill="#254EDB"/>
<path d="M39.4418 31.2H25.0604C24.4464 31.2 23.9441 30.6977 23.9441 30.0837V10.2326C23.9441 9.6186 24.4464 9.11627 25.0604 9.11627H39.4418C40.0557 9.11627 40.558 9.6186 40.558 10.2326V30.0837C40.558 30.7163 40.0557 31.2 39.4418 31.2ZM26.1767 28.9674H38.3255V11.3488H26.1767V28.9674Z" fill="#254EDB"/>
<path d="M60.893 65.8791C55.5534 65.8791 51.2 61.5256 51.2 56.186C51.2 50.8465 55.5534 46.493 60.893 46.493C66.2325 46.493 70.586 50.8465 70.586 56.186C70.586 61.5442 66.2325 65.8791 60.893 65.8791ZM60.893 48.7442C56.7813 48.7442 53.4325 52.093 53.4325 56.2046C53.4325 60.3163 56.7813 63.6651 60.893 63.6651C65.0046 63.6651 68.3534 60.3163 68.3534 56.2046C68.3534 52.093 65.0046 48.7442 60.893 48.7442Z" fill="#254EDB"/>
<path d="M58.5675 60.893C58.3814 60.893 58.1768 60.8372 58.0093 60.7442C57.6558 60.5395 57.4512 60.1674 57.4512 59.7767V52.6326C57.4512 52.2419 57.6558 51.8698 58.0093 51.6651C58.3628 51.4605 58.7721 51.4605 59.1256 51.6651L65.3209 55.2372C65.6744 55.4419 65.8791 55.814 65.8791 56.2046C65.8791 56.5953 65.6744 56.9674 65.3209 57.1721L59.1256 60.7442C58.9581 60.8372 58.7721 60.893 58.5675 60.893ZM59.6837 54.5488V57.8419L62.5302 56.2046L59.6837 54.5488Z" fill="#254EDB"/>
<path d="M60.6512 41.6372H48.8745C47.0326 41.6372 45.5256 40.1302 45.5256 38.2884V26.5116C45.5256 24.6698 47.0326 23.1628 48.8745 23.1628H60.6512C62.4931 23.1628 64.0001 24.6698 64.0001 26.5116V38.2884C64.0001 40.1488 62.4931 41.6372 60.6512 41.6372ZM48.8745 25.3953C48.2605 25.3953 47.7582 25.8977 47.7582 26.5116V38.2884C47.7582 38.9023 48.2605 39.4046 48.8745 39.4046H60.6512C61.2652 39.4046 61.7675 38.9023 61.7675 38.2884V26.5116C61.7675 25.8977 61.2652 25.3953 60.6512 25.3953H48.8745Z" fill="#254EDB"/>
<path d="M56.428 29.1721C57.042 29.1721 57.5443 28.6698 57.5443 28.0558C57.5443 27.4419 57.042 26.9395 56.428 26.9395C54.6792 26.9395 53.2652 28.3535 53.2652 30.1023V32.5395H52.8931C52.2792 32.5395 51.7769 33.0419 51.7769 33.6558C51.7769 34.2698 52.2792 34.7721 52.8931 34.7721H53.2652V36.7442C53.2652 37.3581 53.7676 37.8605 54.3815 37.8605C54.9955 37.8605 55.4978 37.3581 55.4978 36.7442V34.7721H55.8699C56.4838 34.7721 56.9862 34.2698 56.9862 33.6558C56.9862 33.0419 56.4838 32.5395 55.8699 32.5395H55.4978V30.1023C55.4978 29.5814 55.9257 29.1721 56.428 29.1721Z" fill="#254EDB"/>
</svg>
