<svg width="60" height="45" viewBox="0 0 60 45" fill="none" xmlns="http://www.w3.org/2000/svg">
<g clip-path="url(#clip0_96_5)">
<path d="M27.2105 4.78932C25.6547 3.27869 23.7713 2.13552 21.7241 1.44144C19.4313 0.584059 16.6472 0.175781 13.2898 0.175781C12.0615 0.175781 10.8332 0.175781 9.56398 0.216609C8.29474 0.257437 7.10739 0.257437 6.00192 0.298265C4.89646 0.339092 3.87288 0.339092 2.89024 0.37992C1.94855 0.420748 1.29345 0.420748 0.59742 0.420748C0.310818 0.420748 0.187988 0.584059 0.187988 0.869854V42.8817C0.187988 43.2491 0.351761 43.4124 0.679307 43.4124H8.62229C8.90889 43.3716 9.1136 43.1266 9.07266 42.8408V29.7351C9.85058 29.7351 10.4238 29.7351 10.8332 29.7759C11.2427 29.8168 11.8977 29.8168 12.8804 29.8168C16.2377 29.8168 19.3085 29.4493 22.0926 28.4286C24.7539 27.4487 27.0467 25.734 28.6845 23.4476C30.3222 21.1613 31.141 18.2625 31.141 14.7513C31.141 12.9141 30.8135 11.1585 30.1994 9.44369C29.5443 7.6881 28.5207 6.09581 27.2105 4.78932ZM20.9462 19.2015C20.0454 20.2222 18.899 20.998 17.5888 21.3654C16.0739 21.8553 14.4772 22.1003 12.8804 22.1003H10.7104C10.2191 22.1003 9.68681 22.0595 9.1136 22.0187V8.30051C9.40021 8.25968 9.97341 8.21886 10.7923 8.25968C11.5702 8.21886 12.5119 8.21886 13.5764 8.21886C15.2551 8.17803 16.8928 8.423 18.4077 9.03541C19.5951 9.48452 20.5777 10.3011 21.2737 11.3626C21.9288 12.4649 22.2564 13.7306 22.2154 14.9963C22.2154 16.7927 21.806 18.1808 20.9462 19.2015Z" fill="white"/>
<path d="M55.1336 26.3055C53.1683 25.0807 51.0393 24.06 48.8284 23.3251C47.8457 22.9168 46.8631 22.4677 45.9214 21.9778C45.3891 21.692 44.8978 21.3245 44.5293 20.8754C44.2837 20.5488 44.1199 20.1814 44.1199 19.8139C44.1199 19.4465 44.2427 19.0382 44.4474 18.7116C44.734 18.3033 45.1844 18.0175 45.7167 17.895C46.4946 17.6909 47.3544 17.5684 48.1733 17.6092C49.7291 17.6092 51.244 17.8133 52.7589 18.14C54.151 18.4258 55.4612 18.8749 56.6894 19.5281C56.8532 19.6098 57.0579 19.6098 57.4264 19.5281C57.5493 19.4465 57.6311 19.2831 57.6311 19.1198V12.4649C57.6311 12.3016 57.5902 12.1383 57.5493 11.975C57.4674 11.8117 57.3036 11.6483 57.1398 11.6075C56.0344 11.1584 54.847 10.8318 53.6187 10.6685C51.94 10.4235 50.2204 10.301 48.5418 10.301C45.6348 10.301 43.2191 10.7501 41.2948 11.73C39.5343 12.5466 38.0194 13.853 36.9958 15.4862C36.095 16.9968 35.6037 18.6707 35.6037 20.4263C35.5628 21.8553 35.8903 23.2843 36.5454 24.5908C37.3233 25.9789 38.3878 27.1629 39.6571 28.0611C41.4586 29.286 43.3829 30.2658 45.471 31.0007C47.4772 31.7764 48.8284 32.3889 49.4834 32.9196C50.1385 33.4504 50.4661 33.9811 50.4661 34.5527C50.4661 35.2876 50.0157 35.9817 49.3606 36.2675C48.6236 36.635 47.5182 36.8391 45.9623 36.8391C44.3246 36.8391 42.6869 36.635 41.131 36.2267C39.3295 35.8184 37.6509 35.1652 36.0541 34.2261C35.9312 34.1445 35.8084 34.1036 35.6856 34.1853C35.5628 34.2669 35.5218 34.4303 35.5218 34.5527V41.6568C35.4809 41.9834 35.6856 42.2692 35.9722 42.4325C37.2824 43.0449 38.7154 43.494 40.1484 43.739C41.9908 44.1064 43.8333 44.2698 45.7167 44.2698C48.6646 44.2698 51.1212 43.8206 53.1274 42.9633C54.9698 42.2284 56.5666 40.9627 57.713 39.3296C58.7776 37.7373 59.3508 35.8184 59.3098 33.8995C59.3508 32.4297 59.0232 31.0007 58.3681 29.6942C57.5902 28.3061 56.4847 27.1629 55.1336 26.3055Z" fill="white"/>
</g>
<defs>
<clipPath id="clip0_96_5">
<rect width="59.1261" height="44.094" fill="white" transform="translate(0.187988 0.175781)"/>
</clipPath>
</defs>
</svg>
