<svg xmlns="http://www.w3.org/2000/svg" xmlns:xlink="http://www.w3.org/1999/xlink" viewBox="0 0 450 140.8"><path d="M64 25.9l50.7-21s4.4-1.9 8.7-.3 4.1 5.2 4.1 5.7v41.5c0 .6-.5 4.4-3.8 7.9s-8.2 7.1-11.5 8.7-41.5 17.7-46.1 19.4c-4.6 1.6-8.2 2.7-12.5 2.2-4.4-.5-3.5-6.3-3.5-6.3V44.4c0-3.8.3-6.1 4.9-11.4 3.8-4.3 9-7.1 9-7.1z" fill="#2b3990"/><path d="M49.2 71L100 50s4.4-1.9 8.7-.3c4.4 1.6 4.1 5.2 4.1 5.7v41.5c0 .5-.5 4.4-3.8 7.9s-8.2 7.1-11.5 8.7-41.5 17.7-46.1 19.4c-4.6 1.6-8.2 2.7-12.5 2.2-4.4-.5-3.5-6.3-3.5-6.3V89.5c0-3.8.3-6.2 4.9-11.5 3.7-4.3 8.9-7 8.9-7z" fill="#1c75bc"/><path d="M108.7 49.4c-4.4-1.6-8.7.3-8.7.3l-14.2 5.9L50 70.3v13.2s-.8 5.7 3.5 6.3c4.4.5 7.9-.5 12.5-2.2 2-.7 10.5-4.2 19.6-8l26.5-11.3c.2-.1.4-.2.5-.3V55.2c.2-.6.5-4.2-3.9-5.8z" fill="#0934c5"/><path d="M22.2 60L73 39s4.4-1.9 8.7-.3c4.4 1.6 4.1 5.2 4.1 5.7v41.5c0 .5-.5 4.4-3.8 7.9s-8.2 7.1-11.5 8.7-41.5 17.7-46.1 19.4c-4.6 1.6-8.2 2.7-12.5 2.2-4.4-.5-3.5-6.3-3.5-6.3V78.5c0-3.8.3-6.2 4.9-11.5 3.7-4.2 8.9-7 8.9-7z" fill="#27aae1"/><path d="M81.7 38.8c-4.4-1.7-8.7.2-8.7.2l-23 9.5v35.3s-.8 5.7 3.5 6.3c4.4.5 7.9-.5 12.5-2.2 2-.7 10.5-4.2 19.6-8V44.6c.2-.6.5-4.2-3.9-5.8z" fill="#0d7be5"/><path d="M9.1 73.4s19.8 11.5 32.3 23.8 18.3 23.7 20.2 31.6l2.9-1.2s8.2-20.3 24-42.4 34.3-31.6 39-34.1v-1.3s-21.5 7.3-34.6 16-23.7 18-30.3 26.7c0 0-10.4-7.4-17.2-10.1l-6.3-15-2.1.6 3.5 12s-16.1-7.1-29.7-9.8c0 0-1.1 1.4-1.7 3.2zm76.5-15.6l-32-.9-22.8 10.2 15.1.5a8.33 8.33 0 0 0-.3 2.2c0 6.5 7.1 11.7 15.8 11.7s15.8-5.2 15.8-11.7c0-2.6-1.2-5-3.1-6.9l11.5-5.1z" fill="#fff"/><g fill="#2b3990"><use xlink:href="#B"/><use xlink:href="#C"/><use xlink:href="#C" x="7.8"/><path d="M231.3 115.5h-3.9v-1.1h1.3V107h-1.3v-1.1h3.9v1.1H230v7.5h1.3v1z"/><use xlink:href="#D"/><path d="M246.9 115.5H243v-1.1h1.3V107H243v-1.1h3.9v1.1h-1.3v7.5h1.3v1zm8.7 0h-5.8v-9.6h5.8v1.1H251v3.2h3.4v1.1H251v3.2h4.6v1zm7.8 0h-1.2l-3.4-7.1v7.1h-1.2v-9.6h1.2l3.4 7.2v-7.2h1.2v9.6zm7.7-8.5h-2.3v8.5h-1.2V107h-2.3v-1.1h5.8v1.1zm4.9 8.5h-1.6v-1.6h1.6v1.6z"/></g><g fill="#1c75bc"><use xlink:href="#B" x="77.7"/><use xlink:href="#C" x="77.8"/><use xlink:href="#C" x="85.5"/><use xlink:href="#B" x="101"/><use xlink:href="#D" x="77.7"/><path d="M325.6 107h-2.3v8.5H322V107h-2.3v-1.1h5.8v1.1zm6.8 8.5h-3.9v-1.1h1.3V107h-1.3v-1.1h3.9v1.1H331v7.5h1.3v1zm9.9-9.6l-3.5 9.6h-1.2l-3.5-9.6h1.3l2.8 8.3 2.8-8.3h1.3zm6.6 9.6H343v-9.6h5.8v1.1h-4.6v3.2h3.4v1.1h-3.4v3.2h4.6v1z"/></g><g fill="#2b3990"><path d="M354.5 115.5h-1.6v-1.6h1.6v1.6z"/><use xlink:href="#B" x="155.4"/><path d="M373.4 115.5H372l-1.1-3.2h-3.2l-1.1 3.2h-1.4l3.5-9.6h1.2l3.5 9.6zm-2.9-4.3l-1.2-4-1.2 4h2.4zm9.5 1.9c0 1.6-1 2.4-2.9 2.4s-2.9-.8-2.9-2.4h1.2c0 .5.1.8.4 1s.7.3 1.3.3 1 0 1.1-.1c.4-.2.6-.6.6-1.2 0-.4-.4-.8-1.2-1.2-1.3-.7-2-1.2-2.2-1.4-.8-.6-1.2-1.4-1.2-2.2 0-1.6 1-2.4 2.9-2.4 1.7 0 2.7.8 2.9 2.4h-1.2c0-.4-.1-.7-.4-.9-.3-.3-.7-.4-1.3-.4s-1 .1-1.3.3-.4.5-.4 1c0 .6.4 1.1 1.2 1.6l2.2 1.3c.8.6 1.2 1.2 1.2 1.9zm7.7-7.2l-2.3 5.3v4.3h-1.2v-4.3l-2.3-5.3h1.2l1.7 3.9 1.7-3.9h1.2zM167.3 83c0-2.4-1.4-3.9-4.4-4.8l-9.6-2.6c-9.5-2.4-14.2-6.9-14.2-13.3.2-10.2 6.3-15.2 18.3-15.1 11.4 0 17.4 5 17.9 15.1h-5.6c-2.1 0-3.5-1-4.4-2.9-1.6-2.8-4.6-4.1-8.8-4.1-5.1.1-7.7 2-7.9 5.7 0 3.1 3.1 5.3 9.4 6.7 3.6.9 7.5 1.9 11.6 3.4 5.4 1.9 8 5.9 7.7 12-.6 9.5-7 14.2-19.3 14.2-12.9 0-19.4-5.4-19.6-15.9h9.6c.4 5.1 3.6 7.7 10 7.7s9.4-2.2 9.3-6.1zm16.2-35.1h9.6l9.8 37 9.5-37h14.8v48.6h-9.4V57.2l-9.9 39.2h-10.1l-9.9-39.2v39.2h-9.4V53.1c0-2.8 2.2-5.2 5-5.2zm45.1 5.2c0-3.4 1.6-5.2 5-5.2h4.9v48.6h-9.9V53.1zm16.2-5.2h4.9v39.6h23.7v8.9h-33.6V53.1c0-2.8 2.3-5.2 5-5.2zm29.5 5.2c0-3.4 1.6-5.1 5-5.2h30.1v8.4H284v10.4h19V70c.1 3.4-1.6 5-5.1 5h-13.8v12.6h25.4v8.9h-35.1V53.1z"/></g><path d="M345.8 41.6h-38.4v2.6h17.8v51.5h2.9V44.2h17.7zM365.2 82c0 3.2-1.2 6-3.7 8.4-2.4 2.4-5.3 3.6-8.5 3.6s-5.9-1.2-8.2-3.6c-2.2-2.4-3.4-5.2-3.4-8.4V63h-2.8v19c0 4 1.4 7.5 4.1 10.3 2.8 2.8 6.2 4.2 10.3 4.2 5.5 0 9.6-2.2 12.2-6.5v5.7h2.8V63h-2.8v19zm15 8.8c-1.9-1.8-2.8-4.2-2.8-7V65.6h9.9v-2.5h-9.9v-13h-2.8v33.7c0 3.6 1.2 6.6 3.7 8.9 2.4 2.3 5.4 3.5 8.8 3.5h.3v-2.5h-.3c-2.7-.2-5-1.1-6.9-2.9zM408 62.2c-4.7 0-8.9 1.7-12.2 5-3.4 3.3-5.1 7.4-5.1 11.9 0 4.6 1.7 8.6 5 12.1 3.3 3.4 7.4 5.2 12 5.2h.6c4.7 0 8.7-1.7 12-5.2 3.3-3.4 4.9-7.5 4.9-12.1s-1.7-8.6-5-12c-3.3-3.2-7.4-4.9-12.2-4.9zm10.2 27.4c-2.8 2.9-6.2 4.3-10.1 4.3s-7.4-1.5-10.2-4.3c-2.9-2.9-4.3-6.3-4.3-10.2s1.5-7.4 4.3-10.3c2.9-2.9 6.3-4.4 10.2-4.4s7.3 1.5 10.1 4.3c2.8 2.9 4.2 6.3 4.2 10.3s-1.4 7.4-4.2 10.3zm19.7-25.8c-1.5.9-2.7 2-3.6 3.3V63h-2.8v32.7h2.8V74c0-2.4.9-4.6 2.8-6.4 1.8-1.8 4-2.7 6.3-2.8v-2.5a10.84 10.84 0 0 0-5.5 1.5z" fill="#1c75bc"/><defs ><path id="B" d="M209 115.5h-5.8v-9.6h5.8v1.1h-4.6v3.2h3.4v1.1h-3.4v3.2h4.6v1z"/><path id="C" d="M216.7 107h-4.6v3.2h3.4v1.1h-3.4v4.3h-1.2V106h5.8v1z"/><path id="D" d="M240.1 113.1c0 .5-.1.9-.4 1.3-.5.7-1.3 1.1-2.6 1.1s-2.1-.6-2.5-1.7c-.2-.7-.4-1.7-.4-3.1s.1-2.4.4-3.1c.4-1.1 1.3-1.7 2.5-1.7s2.1.4 2.6 1.1c.2.4.4.8.4 1.3h-1.2c0-.9-.6-1.3-1.7-1.3-.7 0-1.2.4-1.5 1.3-.2.5-.2 1.3-.2 2.4s.1 1.9.2 2.4c.3.9.7 1.3 1.5 1.3 1.1 0 1.7-.4 1.7-1.3h1.2z"/></defs></svg>