<svg width="65" height="65" viewBox="0 0 65 65" fill="none" xmlns="http://www.w3.org/2000/svg">
<g clip-path="url(#clip0_189_5)">
<path d="M4.62061 32.4974C4.62061 43.5314 11.0341 53.0695 20.3335 57.5892L7.0343 21.1504C5.48529 24.6197 4.62061 28.4551 4.62061 32.4974Z" fill="white"/>
<path d="M51.3191 31.0917C51.3191 27.6488 50.0831 25.2617 49.0221 23.405C47.611 21.108 46.2848 19.1664 46.2848 16.8694C46.2848 14.3072 48.2264 11.92 50.9637 11.92C51.0857 11.92 51.2024 11.936 51.3244 11.9413C46.3644 7.39503 39.7546 4.62061 32.4976 4.62061C22.7579 4.62061 14.1906 9.61775 9.2041 17.1877C9.85659 17.209 10.4773 17.2196 10.9971 17.2196C13.9148 17.2196 18.4292 16.8641 18.4292 16.8641C19.9305 16.774 20.1108 18.9808 18.6096 19.1611C18.6096 19.1611 17.0977 19.3362 15.4214 19.4264L25.5748 49.6214L31.6753 31.3251L27.3307 19.4264C25.8294 19.3362 24.4077 19.1611 24.4077 19.1611C22.9065 19.0709 23.0815 16.774 24.5828 16.8641C24.5828 16.8641 29.1874 17.2196 31.9247 17.2196C34.8423 17.2196 39.3567 16.8641 39.3567 16.8641C40.858 16.774 41.0383 18.9808 39.5371 19.1611C39.5371 19.1611 38.0252 19.3362 36.3489 19.4264L46.4227 49.3933L49.2025 40.0993C50.4067 36.2427 51.3244 33.4735 51.3244 31.0864L51.3191 31.0917Z" fill="white"/>
<path d="M32.9853 34.9375L24.6196 59.2442C27.1182 59.9763 29.76 60.3794 32.4973 60.3794C35.7438 60.3794 38.8578 59.8171 41.7542 58.7986C41.6799 58.6819 41.611 58.5546 41.5579 58.4167L32.9853 34.9375Z" fill="white"/>
<path d="M56.9632 19.124C57.0852 20.0099 57.1489 20.9647 57.1489 21.9886C57.1489 24.816 56.6184 27.9989 55.0269 31.9722L46.5127 56.5919C54.7988 51.7592 60.3742 42.7782 60.3742 32.4921C60.3742 27.6435 59.1382 23.0867 56.9579 19.1187L56.9632 19.124Z" fill="white"/>
<path d="M32.4973 0C14.5777 0 0 14.5777 0 32.4973C0 50.417 14.5777 64.9947 32.4973 64.9947C50.417 64.9947 64.9947 50.417 64.9947 32.4973C65 14.5777 50.417 0 32.4973 0ZM32.4973 63.504C15.3999 63.504 1.49066 49.5948 1.49066 32.492C1.49066 15.3893 15.3999 1.49066 32.4973 1.49066C49.5948 1.49066 63.504 15.3999 63.504 32.4973C63.504 49.5948 49.5948 63.5093 32.4973 63.5093V63.504Z" fill="white"/>
</g>
<defs>
<clipPath id="clip0_189_5">
<rect width="65" height="64.9947" fill="white"/>
</clipPath>
</defs>
</svg>
