<svg width="65" height="45" viewBox="0 0 65 45" fill="none" xmlns="http://www.w3.org/2000/svg">
<g clip-path="url(#clip0_96_16)">
<path d="M23.3966 22.8056L34.8279 3.94412C34.9041 3.86791 34.9803 3.7155 34.9422 3.67739C34.9041 3.48687 34.7136 3.37256 34.523 3.41066H26.4831C26.2926 3.37256 26.1401 3.41066 25.9877 3.48687C25.8734 3.56308 25.7972 3.7155 25.7591 3.86791C24.9208 5.43018 24.0825 7.06865 23.2061 8.66902C22.3297 10.2694 21.4533 11.8698 20.6151 13.4701C19.7768 15.0705 18.9385 16.709 18.1383 18.3856H18.0621C17.2619 16.7471 16.4236 15.1467 15.5091 13.5463C14.5565 11.946 13.6801 10.3456 12.7656 8.70713C11.8892 7.06865 11.0509 5.43018 10.327 3.7917C10.2126 3.63929 10.0983 3.52497 9.94591 3.44877C9.7935 3.41066 9.60298 3.37256 9.41246 3.37256H0.762833C0.610417 3.37256 0.458001 3.41066 0.381793 3.52497C0.305585 3.60118 0.343689 3.7536 0.458001 3.90602L12.0035 23.4534L0.153168 42.8865C0.0769601 43.0008 0.0388561 43.1532 0.0769601 43.3056C0.0769601 43.4961 0.191272 43.4199 0.343689 43.4199H8.72658C9.14573 43.4199 9.45056 43.3818 9.60298 43.0008C10.4794 41.4385 11.3558 39.8 12.2322 38.1997C13.0704 36.5993 13.9468 34.9608 14.8232 33.3224C15.6996 31.6839 16.576 30.0454 17.3762 28.4069H17.4524C18.3669 30.0835 19.2814 31.722 20.1959 33.3605C21.1104 34.9989 21.9868 36.5993 22.787 38.1616C23.5872 39.7619 24.4255 41.3242 25.2256 42.9246C25.4924 43.3056 25.9115 43.3437 26.5212 43.3437H35.247C35.4756 43.3056 35.6281 43.4199 35.6662 43.2675C35.7043 43.1151 35.6662 42.9627 35.59 42.8103L23.3966 22.8056Z" fill="white"/>
<path d="M64.6633 36.6754V0.324164C64.6252 0.171748 64.4728 0.0193316 64.2823 0.0574357H56.5472C56.2804 0.0574357 56.1661 0.209852 56.1661 0.476581V12.5175C55.7089 12.4794 55.3278 12.4794 54.9849 12.4413C54.642 12.4032 54.3752 12.4032 54.1847 12.4032C50.4124 12.4032 47.2117 13.1271 44.5444 14.6132C42.0295 15.9849 39.9338 18.0426 38.4858 20.5193C37.076 22.958 36.352 25.7396 36.3901 28.5593C36.3901 32.0268 37.076 34.9227 38.4858 37.247C39.8576 39.4951 41.839 41.3241 44.2395 42.4292C46.7925 43.6104 49.6122 44.1819 52.4319 44.1438C54.4133 44.1438 56.3566 43.9533 58.2999 43.6104C60.4338 43.2293 62.5295 42.6197 64.5109 41.7814C64.7776 41.6671 64.8919 41.4385 64.8919 41.1717C64.8538 40.524 64.8157 39.7619 64.7395 38.9617C64.7014 38.1234 64.6633 37.3613 64.6633 36.6754ZM56.1661 36.523C55.7089 36.6754 55.2897 36.7517 54.7944 36.7136C54.299 36.7517 53.7656 36.7898 53.194 36.7898C52.1271 36.7898 51.0602 36.6373 50.0314 36.2944C49.0407 35.9896 48.1643 35.4561 47.4403 34.7702C46.6782 34.0082 46.1066 33.0937 45.7256 32.0649C45.2683 30.8074 45.0397 29.4738 45.0778 28.1401C45.0778 26.1587 45.497 24.5202 46.3353 23.3009C47.1736 22.0816 48.2786 21.129 49.5741 20.4812C50.9078 19.7953 52.3938 19.4905 53.8799 19.4905C54.299 19.4905 54.7182 19.5286 55.1373 19.5667C55.4802 19.6048 55.8232 19.681 56.1661 19.7572V36.523Z" fill="white"/>
</g>
<defs>
<clipPath id="clip0_96_16">
<rect width="64.8303" height="44.094" fill="white" transform="translate(0.0615234 0.0498047)"/>
</clipPath>
</defs>
</svg>
