<?xml version="1.0" encoding="utf-8"?>
<!-- Generator: Adobe Illustrator 27.4.1, SVG Export Plug-In . SVG Version: 6.00 Build 0)  -->
<svg version="1.1" id="Layer_1" xmlns="http://www.w3.org/2000/svg" xmlns:xlink="http://www.w3.org/1999/xlink" x="0px" y="0px"
	 width="139.3px" height="72.4px" viewBox="0 0 139.3 72.4" style="enable-background:new 0 0 139.3 72.4;" xml:space="preserve">
<style type="text/css">
	.st0{fill:#100E51;}
</style>
<g>
	<g>
		<path class="st0" d="M30.9,19.1c3.4,2.1,4.2,4.6,2.9,8.3c-1.4,3.8-5.1,6.5-9.2,6.6c-3.9,0.1-7.6,0.1-11.5,0c-2.3,0-3.5-1.5-3-3.8
			c1.3-6.8,2.6-13.5,3.9-20.4c0.4-2.1,2-3.6,4.2-3.7C22,6.1,25.8,6,29.5,6.2c4.5,0.3,6.7,4,5.2,8.3C34,16.5,32.7,18,30.9,19.1z
			 M18.7,27.4c0.5,0,0.8,0,1.2,0c1.2,0,2.4,0.1,3.7-0.1c1.2-0.1,2-0.9,2.4-2.2c0.6-1.6-0.2-2.7-1.9-2.8c-1.3-0.1-2.5,0-3.9,0
			c-0.2,0-0.6,0.3-0.7,0.5C19.3,24.3,19.1,25.8,18.7,27.4z M20.7,17c1.3,0,2.4,0.1,3.6,0c0.7-0.1,1.4-0.6,1.9-1
			c0.6-0.6,0.8-1.4,0.4-2.2c-0.4-0.8-1-0.8-1.8-0.9c-0.8,0-1.7,0-2.5,0c-0.3,0-0.7,0.2-0.7,0.4C21.2,14.4,21,15.6,20.7,17z"/>
		<path class="st0" d="M103.6,25.6c-1.5,0-3.1,0-4.6,0c-0.8,0-0.9,0.3-0.8,0.9c0.1,1.1,0.7,2,1.8,2.2c1.4,0.2,2.9,0,4.4,0
			c0.5,0,0.9-0.2,1.3-0.4c0.9-0.3,1.9-0.6,2.5,0.4c0.8,1,0.8,2.2,0.1,3.1c-0.4,0.6-0.9,1.1-1.6,1.4c-3.8,1.6-7.5,1.9-11.4,0.5
			c-2.5-0.9-3.9-2.9-4.2-5.5C90,20,97.9,12.9,106,14.9c4,1,6.1,4.4,5.1,8.5c-0.4,1.6-1.3,2.3-2.9,2.3
			C106.7,25.6,105.2,25.6,103.6,25.6z M104.4,21.9c-0.1-1.3-0.8-2.1-2-2.2c-1.3-0.1-2.7,0.8-3.1,2.2C101,21.9,102.7,21.9,104.4,21.9
			z"/>
		<path class="st0" d="M49.4,25.6c-1.6,0-3.2,0-4.8,0c-0.7,0-0.8,0.3-0.8,0.8c0,1.2,0.7,2,1.9,2.3c1.7,0.5,3.4,0.2,5-0.2
			c0.2-0.1,0.4-0.1,0.7-0.2c0.9-0.3,1.9-0.6,2.5,0.4c0.8,0.9,0.8,2.2,0.1,3.1c-0.4,0.7-1,1.2-1.8,1.5c-3.6,1.5-7.2,1.8-10.9,0.5
			c-3.2-1.1-4.9-3.9-4.7-7.3c0.3-6.3,4.8-11.2,11.1-11.9c2-0.2,3.9,0.1,5.7,1c3,1.6,4.2,5.1,3,8.3c-0.5,1.1-1.3,1.8-2.5,1.8
			C52.4,25.6,50.9,25.6,49.4,25.6L49.4,25.6z M49.9,21.9c-0.1-1.3-0.8-2.1-2-2.2c-1.3-0.1-2.7,0.8-3,2.2
			C46.6,21.9,48.2,21.9,49.9,21.9z"/>
		<path class="st0" d="M61.3,20.8c-0.4,0-0.7,0-0.9-0.1c-1.4-0.1-2-0.8-2-2.2c0.1-2.2,1.4-3.4,3.6-3.4c0.7,0,0.9-0.2,1.1-0.8
			c0.7-1.5,1.4-3,2.2-4.5c0.7-1.2,1.7-2.1,3.2-2c1.6,0.1,2.3,0.9,2,2.4c-0.2,1.2-0.5,2.4-0.8,3.7c-0.1,0.3-0.1,0.6-0.2,1
			c0.9,0,1.8,0,2.6,0c1.5,0,2.3,0.8,2.1,2.3c-0.2,2.2-1.3,3.2-3.5,3.2c-2.3,0-2.3,0-2.8,2.4c-0.2,1-0.5,2.1-0.6,3.2
			c-0.2,1.3,0.4,1.9,1.7,1.8c0.6,0,1-0.2,1.6-0.2c1.2,0,2.1,0.8,2.2,2c0.1,1.5-0.5,2.7-1.9,3.5c-2.7,1.5-5.7,1.7-8.6,0.6
			c-1.9-0.7-2.7-2.3-2.6-4.2c0.2-2.2,0.7-4.2,0.9-6.4C60.9,22.5,61.1,21.7,61.3,20.8z"/>
		<path class="st0" d="M77.6,20.8c-0.4,0-0.6-0.1-0.8-0.1c-1.5-0.1-2.1-0.7-2-2.2c0.1-2.2,1.4-3.4,3.5-3.4c0.7,0,0.9-0.2,1.2-0.8
			c0.7-1.5,1.4-2.9,2.2-4.4c0.7-1.3,1.7-2.2,3.3-2.1c1.4,0.1,2.2,0.8,1.9,2.3c-0.2,1.4-0.6,2.8-0.8,4.1c0,0.2,0,0.4-0.1,0.7
			c0.8,0,1.7,0,2.5,0c1.6,0,2.4,0.9,2.2,2.5c-0.4,2.1-1.4,2.9-3.4,2.9c-2.4,0-2.4,0-2.9,2.4c-0.2,1.1-0.5,2.2-0.6,3.3
			c-0.2,1.2,0.4,1.8,1.6,1.7c0.6,0,1-0.2,1.6-0.2c1.3,0,2.2,0.8,2.2,2.1c0.1,1.5-0.6,2.6-1.9,3.4c-2.8,1.4-5.7,1.6-8.6,0.6
			c-2-0.8-2.6-2.5-2.5-4.5c0.1-1.7,0.5-3.4,0.8-5C77.2,23.3,77.4,22.1,77.6,20.8z"/>
		<path class="st0" d="M122.1,18.3c0.2-0.3,0.3-0.6,0.6-0.8c1.4-1.4,3-2.3,4.9-2.7c1.9-0.3,3.1,0.7,3.2,2.6c0.1,2-0.9,3.4-2.8,4
			c-0.9,0.3-2,0.6-2.9,0.9c-2.3,0.9-3.9,2.7-4.3,5.2c-0.3,1.2-0.5,2.4-0.8,3.6c-0.3,1.7-1.3,2.7-3,3c-0.8,0.1-1.5,0.2-2.3,0.1
			c-1.7-0.2-2.4-1.2-2.2-2.9c0.7-3.5,1.3-6.9,2-10.3c0.2-1,0.4-2.1,0.7-3.1c0.7-2.3,2.8-3.5,5.2-2.8c0.8,0.2,1.1,0.8,1.2,1.5
			c0.1,0.6,0.2,1,0.3,1.6C121.9,18.2,122,18.2,122.1,18.3z"/>
	</g>
	<g>
		<path class="st0" d="M19.8,50.3c2.5,0,4.8,0,7.1,0c2,0,2.8,0.9,2.6,2.9c-0.3,2.3-1.5,3.5-3.8,3.5c-2.1,0.1-4.2,0.1-6.3,0
			c-0.8,0-1.1,0.3-1.2,1c-0.3,1.8-0.7,3.7-1,5.4c-0.6,3.2-4.5,4.9-7.3,3.1c-1-0.7-1.1-1.7-0.9-2.8c0.4-2,0.8-3.9,1.1-6
			c0.8-3.8,1.4-7.5,2.2-11.2c0.9-4.9,4-7.4,9-7.4c3.1,0,6.3,0,9.4,0c1.7,0,2.4,0.8,2.4,2.4c0,2.7-1.5,4.3-4.2,4.4
			c-2.1,0.1-4.1,0-6.2,0c-1.7,0-2.3,0.6-2.6,2.2C20.1,48.7,20,49.4,19.8,50.3z"/>
		<path class="st0" d="M124.3,58.3c-1.5,0-3.1,0-4.6,0c-0.7,0-0.8,0.3-0.8,0.8c0.1,1.1,0.7,2.1,1.9,2.2c1.5,0.2,3.1,0,4.6-0.1
			c0.4,0,0.8-0.2,1-0.3c0.8-0.3,1.7-0.6,2.3,0.3c0.8,0.8,0.8,1.9,0.4,2.7c-0.4,0.8-1,1.6-1.8,2c-3.7,1.7-7.5,1.9-11.3,0.5
			c-2.9-1.1-4.2-3.4-4.4-6.5c-0.5-7.9,7.1-14.3,14.7-12.4c4.2,1,6.2,4.4,5.2,8.5c-0.4,1.4-1.2,2.2-2.7,2.2
			C127.4,58.3,125.9,58.3,124.3,58.3z M119.9,54.6c1.8,0,3.4,0,5.1,0c0-1.1-0.6-1.8-1.6-2.1C122.1,52.3,120.7,53.1,119.9,54.6z"/>
		<path class="st0" d="M40.1,67.1c-0.9-0.1-2-0.2-2.9-0.4c-4.1-0.8-6.1-3.9-5.4-8c0.5-2.4,0.9-4.9,1.4-7.3c0.7-3.3,2.7-4,5.6-3.7
			c1.5,0.3,2.2,1.2,1.9,2.9c-0.3,1.7-0.7,3.4-0.9,5.1c-0.2,1-0.4,2-0.6,3c-0.2,1.2,0.2,2.1,1,2.4c0.9,0.4,2.3,0.2,2.8-0.7
			c0.5-0.7,0.8-1.6,1-2.4c0.6-2.3,0.9-4.6,1.4-7c0.4-1.7,1.3-3,3.1-3.4c0.3-0.1,0.6-0.1,0.8-0.1c3-0.1,3.9,0.9,3.5,3.9
			c-0.4,2.1-0.8,4.1-1.2,6.2C50.6,63.7,46.4,67,40.1,67.1z"/>
		<path class="st0" d="M80,67.1c-1-0.1-2.1-0.2-3.1-0.5c-3.9-0.8-5.8-3.7-5.3-7.5c0.4-2.7,0.9-5.4,1.6-8.2c0.7-2.8,3.5-4.2,6.2-3.1
			c0.9,0.4,1.4,1.1,1.2,2.1c-0.2,1.7-0.6,3.4-0.8,5.1c-0.2,1.2-0.5,2.4-0.7,3.8c-0.2,1.2,0.2,2.1,1,2.4c0.9,0.5,2.3,0.2,2.9-0.8
			c0.5-0.8,0.8-1.6,1-2.4c0.5-2.3,0.8-4.5,1.3-6.7c0.6-2.8,2.6-4.2,5.5-3.7c1.5,0.3,2.2,1.1,2.1,2.6c-0.1,0.9-0.3,2-0.5,2.9
			c-0.3,1.4-0.6,2.7-0.8,4.1C91,62.6,87.3,67,80,67.1z"/>
		<path class="st0" d="M66,47.9c0.9,0,1.8,0,2.6,0c1.5,0,2.2,0.8,2.1,2.3c-0.1,2.2-1.3,3.3-3.4,3.3c-2.4,0-2.4,0-2.9,2.4
			C64.2,57,64,58,63.9,59.1c-0.2,1.2,0.4,1.8,1.6,1.7c0.6,0,1-0.2,1.6-0.2c1.3-0.1,2.2,0.8,2.3,2.1c0.1,1.5-0.6,2.7-1.9,3.4
			c-2.8,1.5-5.7,1.7-8.6,0.6c-1.9-0.7-2.7-2.3-2.5-4.1c0.2-2.2,0.6-4.3,0.9-6.5c0.1-0.8,0.3-1.6,0.5-2.5c-0.4,0-0.8,0-1.1-0.1
			c-1-0.1-1.7-0.7-1.7-1.7c-0.1-1.6,0.9-4.1,3.4-3.9c0.8,0.1,1.1-0.2,1.4-0.8c0.7-1.5,1.3-2.9,2.1-4.3c0.7-1.3,1.7-2.2,3.3-2.1
			c1.5,0.1,2.2,0.9,1.9,2.4c-0.2,1.3-0.5,2.5-0.8,3.8C66.1,47.2,66.1,47.5,66,47.9z"/>
		<path class="st0" d="M103.8,51c0.2-0.3,0.3-0.7,0.6-0.8c1.4-1.4,3-2.3,4.9-2.7c1.9-0.3,3.1,0.7,3.2,2.6c0.1,2-0.9,3.4-2.8,4
			c-1,0.3-2,0.6-3,0.9c-2.3,0.9-3.8,2.6-4.2,5.1c-0.3,1.2-0.5,2.4-0.8,3.7c-0.6,2.7-4.3,4.1-6.7,2.5c-0.8-0.6-1-1.3-0.8-2.2
			c0.8-4.5,1.7-9,2.6-13.5c0.6-2.3,2.6-3.5,5.1-2.9c0.8,0.2,1.1,0.7,1.3,1.4c0.1,0.6,0.2,1.1,0.3,1.7
			C103.6,50.9,103.7,50.9,103.8,51z"/>
	</g>
</g>
</svg>
