<?xml version="1.0" encoding="utf-8"?>
<!-- Generator: Adobe Illustrator 27.4.0, SVG Export Plug-In . SVG Version: 6.00 Build 0)  -->
<svg version="1.1" id="Layer_1" xmlns="http://www.w3.org/2000/svg" xmlns:xlink="http://www.w3.org/1999/xlink" x="0px" y="0px"
	 width="65.6px" height="33.7px" viewBox="0 0 65.6 33.7" style="enable-background:new 0 0 65.6 33.7;" xml:space="preserve">
<style type="text/css">
	.st0{fill-rule:evenodd;clip-rule:evenodd;fill:#100E51;}
	.st1{fill:#100E51;}
</style>
<g>
	<g>
		<g>
			<g>
				<g>
					<path class="st0" d="M44.2,17.7c-0.2,3.2-3,6-12.8,4.6c-0.3,0.3-0.3,0.5-0.3,0.5s-0.1-0.1-0.3-0.3l0.2,0.2c0,0-1.2,0-1.6,0
						s-0.9,0.1-1.5,0.1s-0.7-0.2-0.6-0.5s0.6-0.3,0.9-0.4c0.3,0,0.4-0.1,0.4-0.4c-0.8-0.5-0.9-1.9-0.9-2.4c0,0,0-0.1-0.1-0.1
						c-0.4,0.7,0,2.9-0.4,3.4c-0.2,0.2-0.4,0.3-0.6,0.4s-0.4,0.1-0.7,0.1c-0.3,0-0.4-0.1-0.5-0.2c-0.4,0.1-1.3,0.1-1.4,0
						c-0.2-0.2-0.1-0.4-0.1-0.4l0.8-0.7c0,0,0-2.7-0.7-4.2c-2.9-3.5-3-7.4-1.7-8.5c-0.1-2.5,1.6-4.8,2.9-5.6C25,1.9,26.8,1,26.8,1
						H27c0,0-0.2,1.6-0.1,2C27.8,2.1,29,1.7,29,1.7l0.2,0.1c0,0-0.9,2.3-0.8,2.6C28.7,4.8,29,5.1,29,5.2c0.1,0.2-0.1,0.9-0.1,0.9
						l2.3,1.1L31,7.5c0,0-1.2,1.1-3.4,0.8c-0.4,0.4-0.3,0.4-0.3,0.4l0.8,1.3c0,0,2.8,0.2,4.9,4.5c1.2,2.5,0.8,4.5-0.4,6.4
						c1.7-1.2,7.1,0.3,7.2-3c0-1.7-1.7-2.2-1.8-3.6c0-1.3,3.1-3.1,4.4-2.2C38.9,13.6,44.4,13.8,44.2,17.7L44.2,17.7z M25.7,22
						c0,0,0.3-0.1,0.5-0.1c0.1-4.4-0.3-5-0.3-5s-0.2,0.7-0.4,1C25.6,18.9,25.7,22,25.7,22L25.7,22z M26.1,9.1
						c-1.1,0.4-1.5,0.3-2.2-0.2c-0.9,0.8-2.6,3.8,0.8,7.1c0.2-0.4,0.5-1.2,0.5-1.2s0.3,0.3,0.3,0.6C27.4,12.7,27.3,11.1,26.1,9.1
						L26.1,9.1z M40.5,12.5c-3.5,1.8-0.2,2.7-0.2,4.1c0.3-0.7,0.5-1,0.5-1s0.5,0.5,0.6,1.1c0.2-0.6,0.4-1.2,0.4-1.2s0.4,0.2,0.5,0.4
						C43.1,14.5,39.8,14,40.5,12.5L40.5,12.5z"/>
				</g>
			</g>
			<g>
				<path class="st1" d="M33.1,29.2L33.1,29.2L33.1,29.2c0,0-0.5,0.5-1,1.1c-0.1-0.1-0.2-0.2-0.3-0.3l-0.1-0.1
					c-0.5-0.6-0.9-1.1-1.2-1.4c0-0.1-0.1-0.1-0.1-0.1c0.7-0.2,1.3-0.9,1.3-1.7c0-0.9-0.8-1.7-1.7-1.7c-0.9,0-1.7,0.8-1.7,1.7
					c0,0.5,0.2,0.9,0.5,1.2c-0.9,0.4-1.5,1.3-1.5,2.3c0,1.3,1.1,2.4,2.5,2.4l0,0c0.6,0,1.2-0.3,1.7-0.7c0.1-0.1,0.3-0.3,0.7-0.7
					c0.5,0.6,0.9,1.1,0.9,1.1c0.1,0.1,0.3,0.1,0.5,0.1c0.1-0.1,0.1-0.3,0.1-0.5l0,0c-0.1-0.1-0.5-0.5-0.9-1.1c0.5-0.5,1-1,1.1-1.1
					c0.1-0.1,0.1-0.3,0-0.5C33.5,29.1,33.3,29.1,33.1,29.2z M29.5,28.4c0.3,0.2,1.1,1.1,1.8,2c0.1,0.1,0.2,0.2,0.3,0.3
					c-0.4,0.4-0.7,0.7-0.7,0.7c-0.3,0.3-0.7,0.5-1.2,0.5c-1,0-1.7-0.8-1.7-1.7C27.8,29.3,28.6,28.5,29.5,28.4z M29.9,27.7
					c-0.6,0-1.1-0.5-1.1-1.1c0-0.6,0.5-1.1,1.1-1.1c0.6,0,1.1,0.5,1.1,1.1S30.5,27.7,29.9,27.7z"/>
				<path class="st1" d="M5.5,25.5H1.6c-0.1,0-0.1,0.1-0.2,0.1c-0.1,0.1-0.1,0.1-0.1,0.3v6.5c0,0.1,0,0.2,0.1,0.3
					c0.1,0.1,0.1,0.1,0.2,0.1s0.1,0,0.3-0.1c0.1-0.1,0.1-0.1,0.1-0.3v-2.9h2.6c0.1,0,0.2,0,0.2-0.1c0.1-0.1,0.1-0.1,0.1-0.3
					c0-0.1-0.1-0.2-0.1-0.3c-0.1-0.1-0.1-0.1-0.2-0.1H1.9v-2.6h3.6c0.1,0,0.1-0.1,0.2-0.1C5.8,26,5.8,26,5.8,25.8
					c0-0.1-0.1-0.1-0.1-0.3C5.7,25.6,5.6,25.5,5.5,25.5z"/>
				<path class="st1" d="M11.1,25.5c-0.9,0-1.8,0.3-2.5,1.1c-0.7,0.7-1.1,1.5-1.1,2.5s0.3,1.8,1.1,2.5s1.5,1,2.5,1
					c0.9,0,1.8-0.3,2.5-1s1-1.5,1-2.5s-0.3-1.8-1-2.5C13,25.8,12.1,25.5,11.1,25.5z M14,29.1c0,0.8-0.3,1.5-0.9,2
					c-0.6,0.5-1.2,0.9-2,0.9c-0.8,0-1.5-0.3-2-0.9c-0.5-0.6-0.9-1.3-0.9-2s0.3-1.5,0.9-2c0.6-0.5,1.3-0.9,2-0.9c0.7,0,1.5,0.3,2,0.9
					C13.8,27.6,14,28.3,14,29.1z"/>
				<path class="st1" d="M22.2,25.8c0-0.1-0.1-0.1-0.1-0.2s-0.1-0.1-0.3-0.1c-0.1,0-0.1,0.1-0.2,0.1l-2,2.8l-2-2.8
					c-0.1-0.1-0.1-0.1-0.2-0.1c-0.1,0-0.2,0-0.3,0.1s-0.1,0.1-0.1,0.2s0,0.2,0.1,0.3l2.2,3l-2.2,3c-0.1,0.1-0.1,0.1-0.1,0.3
					c0,0.1,0.1,0.1,0.1,0.2s0.1,0.1,0.2,0.1c0.1,0,0.2-0.1,0.3-0.1l2-2.8l2,2.8c0.1,0.1,0.1,0.1,0.3,0.1c0.1,0,0.1,0,0.2-0.1
					c0.1-0.1,0.1-0.1,0.1-0.2s0-0.2-0.1-0.3l-2.1-3l2.2-3C22.2,26,22.2,25.8,22.2,25.8z"/>
				<path class="st1" d="M40.5,25.5c-0.1,0-0.2,0.1-0.3,0.1c-0.1,0.1-0.1,0.1-0.1,0.3v4.8c0,0.4-0.1,0.7-0.4,1
					c-0.3,0.3-0.6,0.4-0.9,0.4c-0.1,0-0.1,0-0.2,0.1s-0.1,0.1-0.1,0.3c0,0.1,0,0.2,0.1,0.3c0.1,0.1,0.1,0.1,0.2,0.1
					c0.5,0,1-0.2,1.4-0.6c0.4-0.4,0.6-0.9,0.6-1.4v-4.8c0-0.1,0-0.2-0.1-0.3C40.7,25.5,40.6,25.5,40.5,25.5z"/>
				<path class="st1" d="M46.4,25.7L46.4,25.7l-0.1-0.2v0.1l0,0c-0.1,0-0.1-0.1-0.1-0.1v0.1v-0.1l0,0h-0.1c0,0,0,0-0.1,0H46
					c-0.1,0-0.1,0-0.1,0.1l0,0l0,0l0,0l0,0l0,0l0,0v0.1l-2.7,6.5c0,0.1,0,0.2,0,0.3s0.1,0.1,0.2,0.2h0.1h0.1c0.1,0,0.3-0.1,0.3-0.2
					l0.6-1.4h3.5l0.6,1.4c0.1,0.1,0.1,0.2,0.3,0.2c0.1,0,0.1,0,0.1,0c0.1,0,0.1-0.1,0.2-0.2c0.1-0.1,0.1-0.2,0-0.3L46.4,25.7z
					 M47.7,30.3h-3l1.5-3.6L47.7,30.3z"/>
				<path class="st1" d="M56.7,25.5c-0.1,0-0.1,0.1-0.2,0.1c-0.1,0.1-0.1,0.1-0.1,0.3v5.4L52,25.6c-0.1-0.1-0.2-0.1-0.4-0.1
					c-0.1,0.1-0.2,0.1-0.2,0.3v6.5c0,0.1,0.1,0.2,0.1,0.3s0.1,0.1,0.2,0.1s0.1,0,0.2-0.1c0.1-0.1,0.1-0.1,0.1-0.3v-5.5l4.4,5.7
					l0.1,0.1l0,0c0,0,0,0,0.1,0c0.1,0,0,0,0,0l0,0l0,0c0,0,0,0,0.1,0l0,0h0.1h0.1l0,0c0,0,0,0,0.1,0l0,0c0,0,0,0,0.1,0l0,0H57l0,0
					l0,0l0,0l0,0l0,0l0,0l0,0l0,0l0,0V26c0-0.1-0.1-0.1-0.1-0.3C56.9,25.5,56.8,25.5,56.7,25.5z"/>
				<path class="st1" d="M64.1,32h-3.6v-2.6h2.6c0.1,0,0.1,0,0.2-0.1c0.1-0.1,0.1-0.1,0.1-0.3c0-0.1-0.1-0.2-0.1-0.3
					c-0.1-0.1-0.1-0.1-0.2-0.1h-2.6v-2.6h3.6c0.1,0,0.1-0.1,0.2-0.1c0.1-0.1,0.1-0.1,0.1-0.3c0-0.1-0.1-0.1-0.1-0.3
					c-0.1-0.1-0.1-0.1-0.2-0.1h-3.9c-0.1,0-0.1,0.1-0.2,0.1c-0.1,0.1-0.1,0.1-0.1,0.3v6.5c0,0.1,0.1,0.2,0.1,0.3
					c0.1,0.1,0.1,0.1,0.2,0.1h3.9c0.1,0,0.2,0,0.2-0.1c0.1-0.1,0.1-0.1,0.1-0.3s-0.1-0.2-0.1-0.3C64.2,32,64.1,32,64.1,32z"/>
			</g>
		</g>
	</g>
</g>
</svg>
