<?xml version="1.0" encoding="utf-8"?>
<!-- Generator: Adobe Illustrator 27.4.0, SVG Export Plug-In . SVG Version: 6.00 Build 0)  -->
<svg version="1.1" id="Layer_1" xmlns="http://www.w3.org/2000/svg" xmlns:xlink="http://www.w3.org/1999/xlink" x="0px" y="0px"
	 width="480.5px" height="113.7px" viewBox="0 0 480.5 113.7" style="enable-background:new 0 0 480.5 113.7;" xml:space="preserve"
	>
<style type="text/css">
	.st0{fill:#100E51;}
</style>
<g>
	<path class="st0" d="M474.9,110.9c-0.5,0-1.1-0.1-1.6-0.1c-8.3,0-16.5,0-24.8,0c-0.3,0-0.7,0.1-1,0s-0.5-0.4-0.8-0.7
		c0.3-0.2,0.5-0.5,0.8-0.6c1.4-0.1,2.8-0.1,4.1-0.3c2.6-0.4,3.8-1.8,3.9-4.5c0.1-2.2,0.2-4.4,0.2-6.6c0-13.3,0-26.5,0-39.8
		c0-1.5-0.2-3-0.5-4.5c-0.7-3.3-3.2-5.3-6.6-5.5c-7.5-0.3-12.5,3.8-16.3,9.7c-1.8,2.7-2.6,5.6-2.5,8.9c0.1,12.7,0,25.5,0,38.2
		c0,3.1,1.1,4.3,4.3,4.3c1.1,0,2.3,0,3.4,0c0.4,0,1,0.3,1.1,0.6c0.1,0.9-0.6,0.6-1.1,0.7c-0.2,0-0.5,0-0.7,0c-8,0-16,0-23.9,0
		c-0.6,0-1.9,0.6-1.9-0.6s1.2-0.6,1.8-0.6c1.2-0.2,2.4-0.1,3.7-0.3c2.4-0.4,3.6-1.6,3.8-4.1c0-0.4,0-0.9,0-1.4c0-17.2,0-34.5,0-51.7
		c0-2.4-0.5-3.2-2.9-3.7c-1.8-0.4-3.6-0.5-5.4-0.8c-0.4-0.1-0.7-0.4-1-0.6c0.3-0.3,0.6-0.6,0.9-0.9c0.1-0.1,0.2,0,0.4,0
		c5.4-0.2,10.9-0.3,16.3-0.5c1.1,0,1.4,0.3,1.4,1.4c-0.1,3.6,0,7.3,0,10.9c0,0.4,0,0.9,0,1.3c0.1,0,0.2,0.1,0.3,0.1
		c0.2-0.4,0.4-0.7,0.6-1.1c1.9-3.7,4.3-7.2,7.6-9.8c6.4-5,15.3-5.1,21.3,0c3.7,3.1,5.5,7.1,5.5,11.8c0.1,14.3,0,28.7,0,43
		c0,1,0,2,0.2,2.9c0.4,2.2,1.3,3.1,3.5,3.3c2,0.1,4,0,6,0C474.9,109.9,474.9,110.4,474.9,110.9z"/>
	<path class="st0" d="M3.1,2.6c1.7-0.1,3.4-0.1,5.1-0.2c3.9-0.3,7.7-0.6,11.6-0.9c0.8-0.1,1.6-0.2,2.4-0.2c0.6-0.1,0.9,0.2,0.9,0.8
		c0,0.3,0,0.7,0,1c0,33.6,0,67.2,0,100.8c0,4.1,2.2,5.8,5.7,5.7c1.3,0,2.5-0.1,3.8,0c0.4,0,1,0.3,1.1,0.6c0.1,0.9-0.6,0.7-1.1,0.7
		c-7.3,0-14.6,0-21.9,0c-1.8,0-3.7,0-5.5,0c-0.3,0-0.7-0.4-1-0.7c0.3-0.2,0.7-0.5,1-0.6c1.7-0.1,3.4-0.1,5-0.3
		c2.1-0.3,3-1.4,3.4-3.5c0.1-0.8,0.2-1.6,0.2-2.4c0-30.8,0-61.7,0-92.5c0-0.3,0-0.7,0-1c-0.2-3.7-1.7-5.3-5.4-5.7
		C6.7,4.1,4.9,4.1,3.1,4C3.1,3.6,3.1,3.1,3.1,2.6z"/>
	<path class="st0" d="M348.8,79c0.5-12.5,4.7-22.5,14.3-29.8c4.1-3.1,8.8-4.8,14-4.5c5.7,0.4,10.5,2.9,14.7,6.7
		c6.2,5.8,9.8,12.9,11,21.2c1.6,11.1-1.1,21-8.2,29.7c-3.8,4.6-8.5,7.9-14.4,9.2c-6.2,1.4-11.8-0.3-16.8-3.9
		c-7.6-5.4-11.9-12.9-13.7-21.9C349.2,83.3,349,80.8,348.8,79z M374.9,46.2c-4.2,0-7.9,2.1-10.5,6.7c-1.7,3-2.6,6.3-3.2,9.7
		c-1,6.1-1.3,12.2-1,18.3c0.2,4.4,0.5,8.8,1,13.2c0.5,3.9,1.7,7.5,3.8,10.9c4.3,6.9,14.5,6.8,19.2,2.9c2.6-2.1,4.1-4.9,5.1-7.9
		c2.5-7.4,2.6-15,2.6-22.6c0-4.4-0.4-8.7-0.9-13.1c-0.4-3.7-1.3-7.4-3.1-10.8C385.5,48.6,381.5,46.1,374.9,46.2z"/>
	<path class="st0" d="M180.7,53.7c0,16.7,0,33.5,0,50.2c0,4,1.6,5.6,5.7,5.6c1.4,0,2.7,0,4.1,0c0.3,0,0.5,0.4,0.8,0.6
		c-0.3,0.2-0.5,0.6-0.8,0.6c-2.1,0.1-4.3,0-6.4,0c-6.7,0-13.4,0-20.1,0c-0.3,0-0.6,0-0.9,0c-0.5-0.1-1.3,0.3-1.3-0.6
		c0-1,0.8-0.6,1.3-0.7c1.5-0.1,3.1-0.1,4.6-0.3c2.1-0.3,3.1-1.4,3.4-3.5c0.1-0.8,0.2-1.6,0.2-2.4c0-30.8,0-61.7,0-92.5
		c0-0.9-0.1-1.9-0.3-2.8c-0.4-2.2-2.1-3.6-4.8-3.8c-1.5-0.1-3-0.1-4.5-0.3c-0.3,0-0.6-0.4-0.9-0.6c0.3-0.2,0.6-0.6,0.9-0.6
		c5.5-0.5,10.9-0.9,16.4-1.3c2.6-0.2,2.6-0.2,2.6,2.5C180.7,20.5,180.7,37.1,180.7,53.7z"/>
	<path class="st0" d="M296.9,53.3c0,16.5,0,33,0,49.5c0,0.5,0,0.9,0,1.4c0.1,3.6,1.9,5.4,5.5,5.4c1.4,0,2.7,0,4.1,0
		c0.3,0,0.6,0.4,0.9,0.6c-0.3,0.2-0.6,0.6-1,0.6c-9.2,0-18.4,0-27.6,0c-0.3,0-0.6-0.4-0.9-0.6c0.3-0.2,0.6-0.6,0.9-0.6
		c1.7-0.1,3.4-0.1,5-0.3c2.4-0.3,3.5-1.6,3.6-4c0.1-2,0.2-3.9,0.2-5.9c0-29.2,0-58.5,0-87.7c0-1.1-0.1-2.3-0.2-3.4
		c-0.3-2.3-2.1-3.8-4.8-4c-1.5-0.1-3-0.1-4.5-0.3c-0.3,0-0.6-0.4-0.9-0.7c0.3-0.2,0.6-0.6,0.9-0.6c5.4-0.4,10.8-0.9,16.2-1.3h0.1
		c2.5-0.2,2.5-0.2,2.5,2.4C296.9,20.3,296.9,36.8,296.9,53.3z"/>
	<path class="st0" d="M82.6,47.9c-2.5,0-4.9,0-7.2,0c-0.7,0-1.3,0.1-2,0c-0.3-0.1-0.6-0.5-0.9-0.7c0.3-0.3,0.6-0.8,0.9-0.8
		c2.3-0.1,4.6,0,6.9,0c2.8,0,2.3,0.1,2.3-2.3c0-7.9,0-15.9,0-23.8c0-1.2,0.4-1.5,1.5-1.4c2.3,0.1,4.6,0.1,6.9,0c1,0,1.3,0.3,1.3,1.3
		c0,8.2,0,16.5,0,24.7c0,1.2,0.3,1.6,1.5,1.5c5.2-0.1,10.4,0,15.6,0c0.4,0,1.1,0.1,1.3,0.4c0.4,0.6-0.1,1.1-1.1,1.1c-5,0-10,0-15,0
		c-2.3,0-2.3,0-2.3,2.3c0,15.1,0,30.3,0,45.4c0,2.3,0.4,4.7,1,7c1,3.6,3.5,5.5,7.3,5.7c1.3,0.1,2.7,0.1,4-0.1
		c4.8-0.8,7.1-4.1,8.2-8.6c0.4-1.8,0.5-3.6,0.7-5.4c0.1-0.5-0.1-1.2,0.8-1c0.2,0.1,0.5,0.7,0.5,1.1c-0.4,2.9-0.6,5.8-1.5,8.5
		c-1.8,5.9-6.5,9.2-12.6,9.6c-3.3,0.2-6.4,0-9.5-1.3c-5-2.1-8-5.8-8.4-11.3c-0.1-1.3-0.2-2.5-0.2-3.8c0-15.4,0-30.8,0-46.2
		C82.6,49.2,82.6,48.7,82.6,47.9z"/>
	<path class="st0" d="M135.2,47.9c0,0.6,0,0.9,0,1.3c0,15.8,0,31.6,0,47.4c0,1.8,0.3,3.6,0.7,5.3c0.8,3.5,2.9,5.7,6.6,6.2
		c3.7,0.5,7.3,0.3,10.1-2.6c2-2.1,2.9-4.7,3.3-7.5c0.2-1.4,0.3-2.8,0.5-4.3c0-0.2,0.3-0.5,0.5-0.7c0.2,0.2,0.6,0.4,0.6,0.6
		c-0.1,5.8-0.8,11.3-5.5,15.4c-2,1.8-4.5,2.6-7.1,3c-4.1,0.6-8.1,0.3-11.8-1.6c-5.1-2.5-7.6-6.8-7.6-12.3c-0.1-16.2,0-32.4,0-48.6
		c0-1.7,0-1.7-1.7-1.7c-2.4,0-4.8,0-7.2,0c-0.5,0-1.1,0.1-1.1-0.7c0-0.9,0.5-0.9,1.1-0.9c2.5,0,5,0,7.5,0c1.1,0,1.5-0.3,1.5-1.5
		c0-8.2,0-16.4-0.1-24.6c0-1.2,0.3-1.6,1.5-1.5c2.2,0.1,4.4,0.1,6.6,0c1.3-0.1,1.6,0.4,1.5,1.6c-0.1,8.1,0,16.3-0.1,24.4
		c0,1.2,0.4,1.5,1.5,1.5c4.9-0.1,9.8,0,14.7,0c0.3,0,0.7,0,1,0c0.6,0,1.2,0.1,1,0.9c-0.1,0.3-0.6,0.7-1,0.7c-4.2,0-8.4,0-12.5,0
		C138.4,47.9,136.9,47.9,135.2,47.9z"/>
	<path class="st0" d="M244.2,73.8c-0.7,0-1.2,0-1.7,0c-10.8,0-21.5,0-32.3,0c-1.8,0-1.8,0-1.8,1.7c-0.1,6.6,0.3,13.2,2,19.7
		c1,3.6,2.4,7,5.1,9.8c3.3,3.4,7.3,4.3,11.8,3.7c6.4-0.8,10.7-4.7,14-10c0.5-0.9,1-1.8,1.5-2.7c0.2-0.3,0.5-0.4,0.9-0.7
		c0.1,0.4,0.2,0.5,0.2,0.5c-2.5,6.7-6.4,12.4-13.5,14.8c-8.8,3.1-16.6,0.8-23.2-5.5c-4.8-4.6-7.5-10.4-8.8-16.8
		c-1.9-9.1-1.3-18.1,2.4-26.8c2.4-5.5,5.8-10.3,10.9-13.6c9.3-6.1,20.9-3.5,27,6.2c3,4.8,4.5,10.1,5.2,15.7
		C244,71.1,244.1,72.3,244.2,73.8z M208.6,72.2c1.3,0,2.4,0,3.5,0c6.5,0,13,0,19.5,0c0.6,0,1.3,0.2,1.2-0.9
		c-0.4-3.8-0.6-7.6-1.1-11.4c-0.5-3.6-1.5-7.1-3.6-10.2c-3.3-4.7-9.1-5.1-12.8-0.7c-1.3,1.6-2.4,3.5-3.3,5.4
		c-1.8,4.1-2.5,8.4-3,12.8C208.8,68.9,208.7,70.5,208.6,72.2z"/>
	<path class="st0" d="M58.3,45.7c0,0.5,0,1,0,1.5c0,18.7,0,37.4,0,56.1c0,0.7,0,1.4,0,2.1c0.1,1.9,1,3.3,2.9,3.6
		c2.1,0.4,4.3,0.4,6.4,0.6c0.4,0,0.8-0.1,1.2,0c0.2,0,0.5,0.4,0.5,0.5c0,0.2-0.3,0.5-0.5,0.7c-0.2,0.1-0.5,0-0.7,0
		c-9.3,0-18.7,0-28,0c-0.2,0-0.5,0.1-0.6,0c-0.3-0.2-0.5-0.4-0.7-0.6c0.2-0.2,0.5-0.6,0.7-0.6c1.5-0.1,3-0.1,4.5-0.3
		c3.4-0.4,4.8-2.1,4.8-5.6c0-7.7,0-15.5,0-23.2c0-9.5,0-18.9,0-28.4c0-2.2-0.7-3.2-2.8-3.6c-2-0.4-4-0.5-6.1-0.8
		c-0.4-0.1-1.1-0.4-1.1-0.7c-0.1-0.8,0.6-0.8,1.2-0.8c2-0.1,4-0.2,6-0.2c3.9-0.1,7.8-0.2,11.6-0.3C57.9,45.6,58,45.6,58.3,45.7z"/>
	<path class="st0" d="M332.1,45.7c0,0.6,0,1.1,0,1.7c0,18.3,0,36.5,0,54.8c0,1.2,0.1,2.5,0.2,3.7c0.2,1.7,1.1,2.9,2.8,3.2
		c1.7,0.3,3.6,0.4,5.3,0.6c0.8,0.1,1.6,0,2.3,0c0.2,0,0.5,0.4,0.5,0.6s-0.3,0.5-0.5,0.6s-0.6,0-0.8,0c-9.2,0-18.4,0-27.6,0
		c-0.2,0-0.5,0.1-0.7,0c-0.3-0.2-0.5-0.4-0.8-0.7c0.3-0.2,0.5-0.5,0.8-0.6c1.4-0.1,2.9-0.1,4.3-0.3c3.7-0.6,5-2,5-5.8
		c0-3.3,0-6.5,0-9.8c0-13.6,0-27.3,0-40.9c0-3.1-0.7-4-3.8-4.5c-1.7-0.3-3.4-0.4-5.1-0.5c-0.5-0.1-1.3,0.1-1.1-0.7
		c0.1-0.3,0.8-0.8,1.2-0.8c2-0.2,3.9-0.2,5.9-0.3c3.8-0.1,7.7-0.2,11.5-0.3C331.6,45.6,331.7,45.6,332.1,45.7z"/>
	<path class="st0" d="M52.5,15.9c2.7,0,5,1.6,6.1,4.4c1.1,2.7,0.9,5.4-0.6,8c-2.2,3.7-7.2,4.2-10.1,1.1c-3-3.3-2.7-9.2,0.7-12
		C49.7,16.4,51,16,52.5,15.9z"/>
	<path class="st0" d="M333.2,23.7c-0.3,1.1-0.4,2.3-0.8,3.4c-1,2.6-3.4,4.4-6,4.3c-2.8-0.1-4.8-1.5-5.9-4c-1-2.3-1.1-4.8-0.1-7.2
		c1.1-2.8,3.4-4.4,6.2-4.3c2.6,0,5,1.8,6,4.5C332.9,21.5,333,22.6,333.2,23.7z"/>
</g>
</svg>
