<?xml version="1.0" encoding="utf-8"?>
<!-- Generator: Adobe Illustrator 27.4.1, SVG Export Plug-In . SVG Version: 6.00 Build 0)  -->
<svg version="1.1" id="Layer_1" xmlns="http://www.w3.org/2000/svg" xmlns:xlink="http://www.w3.org/1999/xlink" x="0px" y="0px"
	 width="278px" height="97.3px" viewBox="0 0 278 97.3" style="enable-background:new 0 0 278 97.3;" xml:space="preserve">
<style type="text/css">
	.st0{fill:#100E51;}
</style>
<link  id="dark-mode-custom-link" rel="stylesheet" type="text/css" xmlns=""></link>
<link  id="dark-mode-general-link" rel="stylesheet" type="text/css" xmlns=""></link>
<g>
	<path class="st0" d="M276.5,27.8V28c-0.3,0.6-0.5,1.1-0.8,1.7c-0.2,0.5-0.5,1.1-0.7,1.6c-1,2.1-2,4.3-3,6.4
		c-0.6,1.4-1.3,2.7-1.9,4.1c-0.9,2-1.8,3.9-2.6,5.9c-0.7,1.5-1.3,3.1-2,4.6c-1,2.4-2,4.9-3,7.3c-0.8,2-1.5,4-2.2,6.1
		c-0.1,0.4-0.3,0.9-0.4,1.3c-0.1,0.2-0.1,0.2-0.3,0.2c-1-0.2-2-0.2-2.9-0.2c-0.6,0-1.2,0.1-1.8,0.2h-0.1c-0.1,0-0.1,0-0.1-0.1
		s0-0.1-0.1-0.2c-0.3-1.3-0.7-2.6-1.1-3.9c-0.5-1.7-1.1-3.3-1.7-4.9c-0.8-2.1-1.5-4.3-2.3-6.4c-0.8-2.1-1.6-4.2-2.4-6.2
		c-0.9-2.2-1.7-4.5-2.6-6.7c-0.2-0.4-0.3-0.9-0.5-1.3c0-0.1-0.1-0.2-0.2-0.3c-0.1,0-0.1,0.1-0.1,0.2c-0.9,2-1.7,4-2.6,6
		c-0.9,2-1.7,4.1-2.5,6.2c-0.6,1.6-1.2,3.2-1.8,4.8c-0.7,1.9-1.3,3.8-2,5.7c-0.7,2.2-1.4,4.4-2,6.6c0,0.1,0,0.2-0.1,0.2
		c-0.1,0.2-0.1,0.2-0.3,0.2c-1-0.2-2-0.3-3-0.2c-0.5,0-1.1,0.1-1.6,0.2c-0.2,0-0.2,0-0.3-0.2c-0.1-0.4-0.2-0.9-0.4-1.3
		c-0.2-0.9-0.5-1.8-0.8-2.7c-1-3-2.1-6-3.2-9c-1-2.6-2-5.3-3.1-7.9c-1.2-2.8-2.3-5.7-3.5-8.5c-1-2.5-2.1-4.9-3.1-7.4
		c-0.3-0.7-0.6-1.4-0.9-2.1c0-0.1-0.2-0.2-0.1-0.3c0.1-0.1,0.2,0,0.3,0c1.5,0.2,3,0.3,4.5,0.2c0.9,0,1.7-0.3,2.6-0.1
		c0.4,0.1,0.5,0.4,0.5,0.8c0.5,1.9,1.1,3.8,1.7,5.6c0.7,2,1.4,4,2.1,6.1c0.8,2.3,1.7,4.5,2.5,6.8c1.2,3.1,2.4,6.2,3.7,9.3
		c0.2,0.6,0.5,1.1,0.7,1.7c0,0,0,0,0.1,0h0.1c0-0.1,0.1-0.1,0.1-0.2c0.5-1,0.9-2,1.4-3c0.5-1.2,1-2.3,1.5-3.5
		c0.8-1.8,1.5-3.7,2.3-5.6c1-2.5,1.9-5.1,2.8-7.7c0.6-1.7,1.2-3.4,1.7-5.2c0.5-1.6,1-3.3,1.5-4.9c0-0.1,0.1-0.2,0.1-0.3
		c0.1-0.3,1.5,0,1.7,0c0.3,0,0.6,0.1,0.9,0.1c0.8,0,1.7-0.3,2.5-0.2c0.5,0,0.6,1.5,0.8,1.9c0.2,0.8,0.5,1.6,0.7,2.5
		c0.5,1.6,1,3.2,1.5,4.8c0.4,1.4,0.9,2.7,1.3,4.1c1.3,3.9,2.7,7.7,4.2,11.4c0.8,1.8,1.6,3.6,2.5,5.4c0,0.1,0.1,0.2,0.1,0.2h0.1
		c0.1-0.1,0.1-0.2,0.2-0.3c0.6-1.3,1.2-2.6,1.8-3.9c0.6-1.3,1.2-2.7,1.7-4c1.4-3.4,2.7-6.7,4-10.1c1.1-3,2.2-5.9,3.3-8.9
		c0.3-0.9,0.6-1.8,1-2.7c0-0.1,0-0.1,0.1-0.2c0.1-0.2,0.1-0.2,0.3-0.2c0.2,0,0.3,0,0.5,0s0.4,0,0.5,0.1c0.4,0,0.8,0.1,1.2,0.1
		c0.1,0,0.2,0,0.3,0c0.4,0,0.8-0.1,1.3-0.1C275.7,27.9,276.1,27.8,276.5,27.8z"/>
	<path class="st0" d="M209.7,14c-0.2-0.2-0.5-0.4-0.7-0.5c-0.7-0.3-1.4-0.7-2.1-1c-1.6-0.8-3.3-1.6-4.9-2.4c-1.4-0.7-2.8-1.3-4.1-2
		c-1.9-0.9-3.7-1.8-5.6-2.7c-1.5-0.7-2.9-1.4-4.4-2.1c-0.4-0.2-0.9-0.4-1.4-0.4c-0.1,0-0.1,0-0.1-0.1h-0.7c-0.1,0.1-0.2,0-0.3,0.1
		l0,0c-0.4,0.1-0.8,0.2-1.2,0.4c-1.4,0.7-2.9,1.4-4.3,2.1c-1.7,0.8-3.4,1.6-5.1,2.5c-0.8,0.4-1.6,0.8-2.4,1.2l-5.2,2.5
		c-0.8,0.4-1.5,0.7-2.3,1.1c-0.7,0.3-1.3,0.6-2,1c-0.3,0.1-0.6,0.3-0.8,0.6c-0.7,0.8-0.4,1.8,0.2,2.2c0.2,0.2,0.5,0.3,0.8,0.5
		c0.6,0.3,1.1,0.6,1.7,0.8c0.3,0.1,0.5,0.2,0.8,0.4c0.1,0.1,0.3,0.2,0.4,0.3c0.1,0.1,0.2,0.2,0.2,0.3c0.1,0.5,0.1,1,0.2,1.6
		c0,0.4,0,0.8,0,1.1c0,0.4-0.1,0.8-0.1,1.3c-0.2,1.1-0.5,2.1-0.7,3.2c-0.3,1.1-0.6,2.2-0.9,3.4c-0.2,0.6-0.3,1.3-0.4,1.9
		c-0.1,0.4,0,0.4,0.3,0.6c0.5,0.3,1.1,0.6,1.7,0.7c0.6,0.2,1.2,0.2,1.9,0c0.6-0.2,1.1-0.4,1.7-0.8c0.1-0.1,0.1-0.1,0.2-0.3
		c0-0.5,0-1-0.1-1.5c-0.1-1-0.4-1.9-0.7-2.8c-0.3-1-0.6-1.9-0.8-2.9c-0.3-1-0.4-2-0.5-3c0-0.5,0-1,0.1-1.5c0-0.5,0-0.5,0.5-0.3
		s1,0.5,1.5,0.7c0.6,0.3,1.1,0.5,1.7,0.8c0.1,0,0.1,0.1,0.2,0.1l0,0c0,0,0,0.1,0.1,0.1c0,0.1,0,0.1,0,0.2c0,0.5,0,0.9,0,1.4
		c0,1,0,1.9,0,2.9c0,0.4,0.1,0.9,0.2,1.3c0.3,1,0.9,1.8,1.8,2.5c0.6,0.5,1.3,1,2.1,1.3c1.4,0.8,3,1.3,4.5,1.6
		c1.1,0.2,2.1,0.4,3.2,0.5c0.9,0.1,1.8,0.1,2.7,0.1c0.5,0,1,0,1.5-0.1c0.5,0,0.9,0,1.4-0.1c0.9-0.1,1.8-0.3,2.7-0.5
		c1.7-0.4,3.4-1,5-1.9c0.9-0.5,1.6-1.1,2.3-1.8c0.4-0.4,0.7-0.9,0.9-1.5c0.3-0.8,0.5-1.7,0.5-2.5c0-0.4,0-0.8,0-1.2c0-0.7,0-1.3,0-2
		c0-0.6-0.1-0.5,0.5-0.7c1.7-0.8,3.4-1.7,5.1-2.5c0.9-0.5,1.9-0.9,2.8-1.4c0.2-0.1,0.4-0.2,0.6-0.4c0.3-0.2,0.5-0.4,0.6-0.7
		C210.3,15,210.1,14.4,209.7,14z M167.6,27.1c0.3,0.8,0.4,1.6,0.6,2.4c0,0.2,0.1,0.4,0.1,0.6s0,0.4-0.2,0.5
		c-0.2,0.2-0.6,0.4-0.9,0.4c-0.4,0-0.8,0-1.2-0.3c-0.1-0.1-0.2-0.3-0.2-0.4c0-0.7,0.2-1.4,0.4-2.1c0.2-0.8,0.5-1.6,0.7-2.4
		c0,0,0-0.1,0.1-0.1c0,0,0.1,0,0.1,0.1C167.2,26.2,167.4,26.6,167.6,27.1z M166.6,16.4c-0.6-0.3-1.3-0.6-1.9-0.9
		c-0.1-0.1-0.3-0.1-0.4-0.3c-0.1-0.1-0.1-0.2,0-0.3c0.1-0.2,0.3-0.3,0.4-0.4c0.5-0.2,1-0.4,1.4-0.7c1.2-0.6,2.3-1.1,3.5-1.7
		c1.7-0.8,3.4-1.7,5.1-2.5c0.8-0.4,1.5-0.7,2.3-1.1c2-1,4-1.9,6-2.9c0.4-0.2,0.9-0.4,1.3-0.6c0.5-0.2,1-0.4,1.7-0.4
		c0.5,0,1,0.1,1.5,0.4c0.3,0.1,0.6,0.3,0.9,0.5c1.1,0.5,2.2,1.1,3.4,1.6c1.8,0.9,3.6,1.8,5.4,2.6c1.6,0.8,3.3,1.6,4.9,2.4
		c1.5,0.7,3.1,1.5,4.6,2.2c0.1,0.1,0.3,0.1,0.4,0.2c0.2,0.1,0.3,0.2,0.4,0.4c0.2,0.3,0.2,0.3-0.1,0.5c-0.5,0.3-1,0.5-1.5,0.8
		c-0.9,0.4-1.7,0.9-2.6,1.3c-1.6,0.8-3.3,1.6-4.9,2.4c-1.3,0.6-2.6,1.3-4,1.9c-1.9,0.9-3.9,1.9-5.8,2.8c-0.3,0.2-0.7,0.3-1,0.5
		c-0.5,0.2-1.1,0.4-1.7,0.4c-0.5,0-1-0.1-1.4-0.3c-1.2-0.6-2.3-1.1-3.5-1.7c-1.7-0.8-3.4-1.7-5.1-2.5c-1.1-0.6-2.3-1.1-3.4-1.7
		C170.6,18.3,168.6,17.4,166.6,16.4z M197.5,27.8c-0.4,0.4-0.8,0.7-1.3,0.9c-1.1,0.6-2.4,1-3.6,1.4c-1.1,0.3-2.3,0.6-3.4,0.7
		c-1,0.1-2.1,0.2-3.2,0.2c-0.5,0-0.9,0-1.4,0c-0.7,0-1.3-0.1-2-0.2c-1.1-0.2-2.2-0.4-3.3-0.7c-1.2-0.3-2.4-0.8-3.6-1.4
		c-0.5-0.3-1-0.6-1.5-1c-0.7-0.6-1.1-1.3-1.3-2.2c-0.1-0.5-0.2-0.9-0.2-1.4c0-0.6,0-1.3,0.1-1.9c0-0.1,0-0.1,0-0.2s0.1-0.2,0.2-0.2
		c0.3,0,0.5,0,0.8,0.1c0.4,0.3,0.9,0.5,1.4,0.7c1.5,0.7,3,1.5,4.6,2.2c1.2,0.6,2.5,1.2,3.7,1.8c0.5,0.2,1,0.4,1.5,0.5
		c0.8,0.1,1.5,0.1,2.3-0.2c0.3-0.1,0.5-0.2,0.8-0.3c0.8-0.4,1.5-0.8,2.3-1.1c1.9-0.9,3.8-1.8,5.7-2.7c0.4-0.2,0.9-0.4,1.3-0.7
		c0.3-0.2,0.7-0.3,1.1-0.3c0.2,0,0.3,0,0.3,0.3v0.1c0,0.7,0.1,1.3,0.1,2c-0.1,0.7-0.1,1.4-0.4,2.1C198.3,26.9,197.9,27.4,197.5,27.8
		z"/>
	<path class="st0" d="M31.5,86.4c0,0.1-0.1,0.1-0.2,0.1s-0.2,0-0.3,0H2.9c-0.3,0-0.4,0-0.4-0.3c0-0.1-0.1-0.2-0.2-0.2v-0.3l0,0
		c0.1-0.1,0.1-0.2,0.1-0.3c0-0.1,0.1-0.1,0.2-0.1c0.1,0,0.2,0,0.3,0h28H31c0.4,0,0.5,0.1,0.6,0.4C31.7,85.9,31.6,86.2,31.5,86.4z"/>
	<path class="st0" d="M73.7,67.2c-1-0.2-2-0.2-3-0.2c-0.8,0-1.6,0-2.4,0c-0.7,0-1.4,0.1-2,0.2h-0.1c-0.1,0-0.2,0-0.2-0.1
		c0-0.2-0.1-0.4-0.1-0.7c0-0.5-0.1-1-0.1-1.5c0-0.6-0.1-1.2-0.1-1.8c0-0.4,0-0.7-0.1-1.1c-0.1-0.5-0.1-1-0.1-1.5s-0.1-1-0.1-1.5
		c0-0.3,0-0.7-0.1-1c-0.1-0.5-0.1-1-0.1-1.4c0-0.5-0.1-0.9-0.1-1.4c0-0.3,0-0.7-0.1-1c-0.1-0.4-0.1-0.8-0.1-1.3s-0.1-0.9-0.1-1.4
		c0-0.3,0-0.6-0.1-0.9c-0.1-0.4-0.1-0.8-0.1-1.2s-0.1-0.9-0.1-1.3c0-0.3-0.1-0.6-0.1-0.9c-0.1-0.7-0.1-1.4-0.2-2s-0.1-1.3-0.2-1.9
		c0-0.3-0.1-0.7-0.1-1c0-0.4-0.1-0.8-0.1-1.2c0-0.3-0.1-0.6-0.1-0.9c-0.1-0.6-0.1-1.2-0.2-1.8c-0.1-0.5-0.1-1.1-0.2-1.6
		c-0.1-0.5-0.1-1.1-0.2-1.6c-0.1-0.5-0.1-1-0.2-1.5c-0.1-0.5-0.1-0.9-0.2-1.4c-0.1-0.7-0.2-1.3-0.3-1.9s-0.2-1.2-0.3-1.9
		c-0.1-0.9-0.3-1.7-0.5-2.6v-0.1c-0.1,0.1-0.2,0.2-0.2,0.3c-0.7,1.1-1.4,2.2-2,3.3c-1,1.7-2.1,3.4-3.1,5.1c-1,1.6-1.9,3.2-2.9,4.8
		c-1.2,2.1-2.4,4.2-3.6,6.3c-0.7,1.3-1.4,2.5-2.1,3.8c-0.9,1.6-1.7,3.3-2.6,4.9c-0.7,1.3-1.3,2.6-2,4c-0.9,1.8-1.7,3.6-2.5,5.5
		c-0.4,1-0.9,2-1.3,3.1c0,0.1-0.1,0.2-0.1,0.3c0,0.1-0.1,0.1-0.1,0.1c-0.3,0-0.7,0-1,0c-0.1,0-0.1,0-0.2-0.1c0-0.1,0-0.1-0.1-0.2
		c-0.4-1.4-0.9-2.7-1.5-4.1c-0.8-1.9-1.7-3.8-2.6-5.6c-0.9-1.8-1.9-3.6-2.9-5.3c-1.2-2.1-2.4-4.1-3.5-6.2c-1.1-1.9-2.1-3.8-3.2-5.6
		c-1.1-1.9-2.1-3.7-3.2-5.6c-1.1-1.9-2.1-3.8-3.2-5.6c-0.5-0.9-1.1-1.9-1.6-2.8c-0.1-0.1-0.1,0-0.1,0.1c-0.1,0.8-0.2,1.5-0.3,2.3
		c-0.1,0.9-0.3,1.7-0.4,2.6c-0.1,0.7-0.2,1.4-0.3,2.1c-0.1,0.5-0.1,0.9-0.2,1.4c-0.1,0.5-0.1,0.9-0.2,1.4c-0.1,0.6-0.2,1.1-0.2,1.7
		c-0.1,0.5-0.1,1-0.2,1.5c-0.1,0.5-0.1,1.1-0.2,1.6c-0.1,0.5-0.1,1.1-0.2,1.6c-0.1,0.6-0.1,1.2-0.2,1.8c0,0.3-0.1,0.6-0.1,0.9
		c-0.1,0.8-0.2,1.7-0.3,2.5c-0.1,0.9-0.2,1.8-0.3,2.7c-0.1,0.7-0.1,1.4-0.2,2c-0.1,0.7-0.1,1.4-0.2,2.1c0,0.3,0,0.7-0.1,1
		c-0.4,0.2-0.4,0.6-0.4,1c0,0.6-0.1,1.2-0.1,1.8v0.1c0,0.6,0,1.2-0.1,1.8s0,1.3-0.1,1.9c0,0.2,0,0.4,0,0.6c0,1-0.1,2-0.1,3
		c0,0.5,0,0.9,0,1.4c0,0.2,0,0.2-0.2,0.2C10.4,67,9.6,67,8.8,67c-0.6,0-1.3,0-1.9,0c-0.7,0-1.4,0.1-2.1,0.2c-0.1,0-0.2,0-0.2-0.2
		c0.1-0.6,0.3-1.2,0.4-1.8c0.3-1.5,0.6-2.9,0.9-4.4c0.2-1.1,0.4-2.1,0.6-3.2C6.7,56.8,6.9,55.9,7,55c0.2-0.9,0.3-1.7,0.5-2.6
		c0.2-0.9,0.3-1.8,0.4-2.8C8,48.8,8.2,48,8.3,47.3c0.1-0.8,0.2-1.6,0.4-2.4c0.1-0.8,0.3-1.6,0.4-2.4c0.1-0.6,0.2-1.3,0.3-1.9
		c0.1-0.8,0.2-1.7,0.4-2.5c0.1-0.5,0.1-0.9,0.2-1.4c0.1-0.7,0.2-1.4,0.3-2.1c0.1-0.6,0.2-1.3,0.3-1.9c0.1-0.7,0.2-1.4,0.3-2.2
		c0.1-0.7,0.2-1.4,0.3-2.1s0.2-1.3,0.3-2c0.1-0.5,0.1-1,0.2-1.5c0.1-0.7,0.2-1.5,0.3-2.2c0.1-0.5,0.1-0.9,0.2-1.4
		c0.1-0.5,0.2-1.1,0.2-1.6c0.1-0.5,0.1-1,0.2-1.5c0.1-0.5,0.1-1,0.2-1.5c0.1-0.5,0.1-0.9,0.2-1.4c0.1-0.6,0.2-1.1,0.2-1.7
		c0.1-0.5,0.1-1,0.2-1.5c0.1-0.5,0.1-1,0.2-1.5c0-0.3,0.1-0.6,0.1-0.9c0-0.1,0-0.2,0-0.2c0-0.1,0.1-0.2,0.2-0.2c0.4,0,0.8,0,1.2,0
		c0.1,0,0.2,0.1,0.3,0.2c0.1,0.2,0.3,0.5,0.4,0.7c1.1,2.1,2.1,4.1,3.2,6.2c0.7,1.4,1.5,2.8,2.2,4.2c0.9,1.7,1.8,3.5,2.8,5.2
		c0.8,1.4,1.6,2.9,2.3,4.3c1.3,2.3,2.5,4.7,3.8,7c1.1,2,2.2,3.9,3.3,5.9c1.3,2.3,2.6,4.6,3.9,6.9c0.8,1.4,1.6,2.9,2.4,4.3
		c0,0.1,0.1,0.1,0.1,0.2c0.1,0.1,0.2,0.1,0.2,0l0.1-0.1c1.1-1.8,2.1-3.6,3.2-5.4c1.4-2.4,2.8-4.8,4.2-7.2c1.1-1.9,2.2-3.8,3.3-5.7
		c1.1-2,2.3-3.9,3.4-5.9c1-1.7,1.9-3.4,2.9-5c1.1-2,2.3-4,3.4-6c0.8-1.4,1.6-2.9,2.4-4.3c0.8-1.4,1.6-2.9,2.4-4.3
		c0.2-0.3,0.3-0.6,0.5-0.9c0.1-0.1,0.1-0.2,0.3-0.2c0.3,0,0.5,0,0.8,0c0.1,0,0.2,0.1,0.2,0.1c0,0.1,0,0.2,0,0.2
		c0.1,0.6,0.1,1.3,0.2,1.9c0.1,0.6,0.1,1.2,0.2,1.8c0,0.3,0.1,0.6,0.1,0.9c0.1,0.7,0.2,1.4,0.2,2c0.1,0.6,0.1,1.2,0.2,1.8
		c0.1,0.6,0.1,1.2,0.2,1.8c0.1,0.6,0.1,1.2,0.2,1.8c0,0.3,0.1,0.6,0.1,0.9c0.1,0.7,0.2,1.4,0.2,2.1c0.1,0.8,0.2,1.6,0.3,2.4
		c0.1,0.6,0.1,1.2,0.2,1.8c0.1,0.6,0.1,1.1,0.2,1.7s0.1,1.1,0.2,1.7c0,0.3,0.1,0.6,0.1,0.9c0.1,0.9,0.2,1.8,0.3,2.8
		c0.1,0.9,0.2,1.8,0.3,2.7c0.1,0.9,0.2,1.8,0.3,2.7c0.1,0.8,0.2,1.6,0.3,2.4c0.1,0.8,0.2,1.6,0.3,2.4c0.1,0.8,0.2,1.5,0.3,2.3
		c0.1,0.6,0.1,1.1,0.2,1.7c0.1,0.5,0.1,1.1,0.2,1.6c0.1,0.6,0.1,1.1,0.2,1.7c0.1,0.6,0.1,1.1,0.2,1.7c0.1,0.6,0.1,1.1,0.2,1.7
		c0.1,0.5,0.1,1.1,0.2,1.6c0.1,0.6,0.1,1.1,0.2,1.7c0.1,0.5,0.1,1.1,0.2,1.6c0.1,0.6,0.1,1.1,0.2,1.7c0.1,0.6,0.1,1.1,0.2,1.7
		c0.1,0.5,0.1,1.1,0.2,1.6c0,0.3,0.1,0.5,0.1,0.8C73.9,67.2,73.8,67.2,73.7,67.2z"/>
	<path class="st0" d="M119.6,43.8c0-0.4,0-0.9-0.1-1.4c-0.1-0.8-0.2-1.6-0.3-2.4c-0.3-1.6-0.8-3.2-1.5-4.6c-0.6-1.2-1.3-2.3-2.2-3.3
		c-0.8-0.9-1.7-1.7-2.7-2.3c-1.5-1-3.1-1.7-4.8-2.1c-1.3-0.3-2.6-0.5-3.9-0.6c-0.7-0.1-1.4-0.1-2.1-0.1c-0.2,0-0.5,0-0.7,0
		c-0.5,0-1,0-1.6,0.1c-0.8,0.1-1.6,0.2-2.4,0.3c-2.1,0.4-4.1,1.1-6,2.2c-2,1.1-3.7,2.6-5.2,4.4c-1,1.3-1.9,2.8-2.5,4.3
		c-0.7,1.6-1.1,3.2-1.4,4.9c-0.2,1-0.3,2-0.3,3c0,0.1,0,0.2,0,0.2c-0.1,0.6-0.1,1.3,0,1.9c0,0.6,0,1.1,0.1,1.7
		c0.1,0.5,0.1,1.1,0.2,1.6c0.1,0.8,0.3,1.6,0.5,2.4c0.5,1.6,1.1,3.1,1.9,4.5c1,1.7,2.2,3.2,3.7,4.5c1.1,0.9,2.2,1.7,3.4,2.4
		c1.7,0.9,3.6,1.6,5.5,2c1.2,0.3,2.5,0.4,3.7,0.5s2.4,0.1,3.6,0c0.7-0.1,1.4-0.1,2.2-0.3c1.1-0.2,2.3-0.4,3.4-0.8
		c1.8-0.6,3.5-1.3,5.2-2.3c0.7-0.4,1.3-0.8,2-1.2c0.1-0.1,0.2-0.2,0.2-0.4c0-0.9,0-1.8,0.1-2.6c0-0.2,0-0.4,0.1-0.6
		c0-0.2,0-0.4,0-0.7c-0.1,0.1-0.1,0.1-0.2,0.1c-0.6,0.5-1.2,1-1.8,1.5c-0.9,0.7-1.9,1.3-2.9,1.9c-1.5,0.8-3,1.3-4.6,1.6
		c-0.9,0.2-1.7,0.3-2.6,0.3c-1.1,0-2.2,0.1-3.3-0.1c-0.6-0.1-1.2-0.1-1.8-0.3c-1.5-0.3-3-0.8-4.3-1.6c-1.1-0.7-2.1-1.5-2.9-2.4
		c-0.9-1-1.6-2.2-2.1-3.4c-0.7-1.7-1.2-3.4-1.4-5.2c-0.1-0.6-0.1-1.1-0.2-1.7c-0.1-0.8-0.1-1.6-0.1-2.3s-0.1-0.6,0.6-0.6
		c9.7,0,19.3,0,29,0c0.1,0,0.2,0,0.4,0c0.2,0,0.3,0,0.3-0.3c0-0.4,0-0.8,0.1-1.3C119.6,44.9,119.6,44.4,119.6,43.8z M112.5,42.2
		c0,0.5,0,1.1,0,1.6c0,0.2,0,0.2-0.2,0.2c-0.1,0-0.2,0-0.4,0h-11.1c-3.7,0-7.4,0-11.1,0c-0.1,0-0.3,0.1-0.4,0s0-0.3,0-0.4
		c0.1-1.9,0.5-3.7,1.1-5.4c0.5-1.5,1.3-2.9,2.2-4.1c1.4-1.8,3.1-3.1,5.3-3.9c0.8-0.3,1.7-0.5,2.6-0.5c0.5,0,1.1-0.1,1.6,0
		c1.7,0.1,3.3,0.5,4.8,1.3c1.1,0.6,2,1.4,2.8,2.3c1.1,1.3,1.8,2.9,2.2,4.5c0.2,0.9,0.4,1.8,0.5,2.7C112.5,41,112.6,41.6,112.5,42.2z
		"/>
	<path class="st0" d="M208.7,47.9c-0.1,0.6,0,1.3-0.1,1.9c-0.1,0.6-0.1,1.2-0.3,1.9c-0.2,1.1-0.5,2.2-0.9,3.3
		c-0.5,1.5-1.2,2.9-2.1,4.3c-0.5,0.8-1.1,1.5-1.7,2.2c-1.2,1.3-2.5,2.4-4,3.3c-1.6,1-3.3,1.7-5.1,2.2c-1.1,0.3-2.2,0.5-3.4,0.7
		c-0.4,0.1-0.8,0.1-1.2,0.1c-1.1,0.1-2.2,0.1-3.3,0.1c-0.5,0-1.1-0.1-1.6-0.1c-0.8-0.1-1.6-0.2-2.4-0.4c-1.2-0.2-2.3-0.6-3.4-1
		c-1.4-0.6-2.7-1.2-3.9-2.1c-0.8-0.5-1.5-1.2-2.2-1.8c-1.5-1.4-2.6-3-3.6-4.7c-0.7-1.3-1.3-2.7-1.6-4.2c-0.2-0.8-0.4-1.7-0.5-2.5
		c-0.1-0.7-0.2-1.3-0.2-2s-0.1-1.5,0-2.2c0-0.6,0.1-1.2,0.1-1.8c0.1-0.8,0.2-1.5,0.3-2.3c0.2-1.2,0.6-2.4,1-3.5
		c0.7-1.8,1.6-3.4,2.8-4.9c0.4-0.5,0.9-1.1,1.4-1.6c0.4-0.4,0.9-0.9,1.4-1.2c0.1-0.1,0.2-0.1,0.3,0s0.1,0.1,0.1,0.2
		c0.8,1,1.7,1.6,2.9,1.9c0.1,0,0.3,0.1,0.4,0.1c0.1,0,0.1,0.1,0.1,0.1l-0.1,0.1c-1.2,1.6-1.9,3.4-2.4,5.3c-0.3,1-0.5,1.9-0.6,2.9
		c-0.1,0.6-0.2,1.2-0.2,1.9c0,0.5,0,1-0.1,1.6c-0.1,0.9-0.1,1.9,0,2.8c0,0.6,0,1.3,0.1,1.9c0.1,0.5,0.1,0.9,0.1,1.4
		c0.1,0.7,0.2,1.4,0.3,2.1c0.2,0.9,0.4,1.9,0.7,2.8c0.5,1.3,1,2.6,1.8,3.7c1.6,2.3,3.7,3.8,6.4,4.5c1,0.3,2.1,0.4,3.1,0.4
		c0.3,0,0.5,0.1,0.8,0c0.6-0.1,1.1,0,1.7-0.1c0.7-0.1,1.4-0.2,2.1-0.4c2.1-0.5,3.8-1.6,5.2-3.1c0.8-0.8,1.4-1.8,1.9-2.8
		c0.7-1.4,1.2-3,1.6-4.6c0.2-0.7,0.3-1.5,0.4-2.3c0.1-0.4,0.1-0.8,0.1-1.2c0.1-0.7,0.1-1.4,0.1-2.1c0-0.4,0-0.8,0-1.3
		c0-0.7,0-1.5-0.1-2.2c-0.1-0.8-0.1-1.6-0.2-2.4c-0.3-1.9-0.7-3.8-1.4-5.6c-0.6-1.4-1.3-2.7-2.3-3.9c-0.1-0.2-0.3-0.3-0.5-0.6
		c1.3-0.6,2.2-1.6,2.8-2.9c0.3,0.1,0.5,0.3,0.8,0.5c1.2,0.8,2.2,1.7,3.2,2.7c1.4,1.5,2.5,3.2,3.4,5.1c0.6,1.5,1.1,3,1.4,4.5
		c0.1,0.7,0.2,1.4,0.3,2.1c0.1,0.5,0,1,0.1,1.5C208.7,47.1,208.8,47.5,208.7,47.9z"/>
	<path class="st0" d="M157.3,66.2c0,0.3,0,0.5,0.1,0.8c0,0.2,0,0.2-0.2,0.2c-0.3-0.1-0.6,0-0.9-0.1c-0.2,0-0.5,0-0.7-0.1
		c-1-0.1-2-0.1-3-0.1c-0.5,0-1,0.1-1.5,0.1c-0.3,0-0.5,0.1-0.8,0.1c-0.1,0-0.2,0-0.2-0.1s0-0.3,0-0.4c0.1-0.3,0-0.7,0.1-1
		c0-1,0.1-1.9,0.1-2.9c0.1-1.1,0-2.1,0.1-3.2c0.1-1.6,0.1-3.1,0.1-4.7c0-0.1,0-0.2,0-0.3V34.8l0,0c0-5.9,0-11.8,0-17.7
		c0-2,0-3.9,0-5.9c0-0.9,0-1.9-0.1-2.8c0-0.5,0-1.1-0.1-1.6c-0.1-0.6,0-1.2-0.1-1.8c0-0.1,0-0.2,0-0.3c0-0.1,0.1-0.1,0.1-0.1
		c0.4,0.1,0.8,0.1,1.2,0.1c0.8,0.1,1.7,0.1,2.5,0.1s1.5-0.1,2.3-0.2c0.3,0,0.7,0,1-0.1c0.1,0,0.2,0,0.2,0.1s0,0.2,0,0.4
		c-0.1,0.3,0,0.6-0.1,0.9c0,0.9,0,1.8-0.1,2.7c-0.1,0.8,0,1.7-0.1,2.5c-0.1,1.3,0,2.6-0.1,3.9c-0.1,1.8-0.1,3.5-0.1,5.3
		c0,6.5,0,13,0,19.5c0,2.9,0,5.7,0,8.6c0,0.8,0,1.6,0,2.3c0.1,1.9,0,3.7,0.1,5.6c0,1.6,0,3.2,0.1,4.8c0,1,0,1.9,0.1,2.9
		C157.3,64.8,157.3,65.5,157.3,66.2z"/>
	<path class="st0" d="M136.9,67.1C136.9,67.1,136.8,67.2,136.9,67.1c-0.1,0.1-0.2,0.1-0.2,0.1c-0.6-0.1-1.3-0.1-1.9-0.2
		c-0.8-0.1-1.7-0.1-2.5,0c-0.8,0-1.6,0.1-2.3,0.2c-0.1,0-0.1,0-0.2,0c-0.1,0-0.1-0.1-0.1-0.1V67c0.1-0.2,0-0.4,0.1-0.7
		c0-1,0.1-1.9,0.1-2.9c0.1-1.1,0-2.1,0.1-3.2c0.1-1.1,0.1-2.1,0.1-3.2c0-1,0-2.1,0-3.1c0-1.7,0-3.5,0-5.2c0.1-3.3,0-6.7,0-10
		c0-3.4,0-6.7,0-10.1c0-3.3,0-6.7,0-10c0-2.2,0-4.4-0.1-6.5c0-0.4,0-0.7,0-1.1c0-0.9,0-1.8-0.1-2.7c-0.1-0.8,0-1.6-0.1-2.3
		c0-0.4,0-0.8-0.1-1.1c0-0.2,0.1-0.2,0.2-0.2c0.4,0.1,0.8,0.1,1.1,0.1c0.9,0.1,1.7,0.1,2.6,0.1c0.7,0,1.5-0.1,2.2-0.2
		c0.3,0,0.7-0.1,1-0.1c0.1,0,0.1,0,0.1,0.1s0,0.2,0,0.4c-0.1,0.7,0,1.3-0.1,2c0,0.6,0,1.2-0.1,1.8c-0.1,1,0,2-0.1,3
		c-0.1,1.4,0,2.8-0.1,4.3c-0.1,2.8-0.1,5.6-0.1,8.4s0,5.6,0,8.3c0,2.8,0,5.6,0,8.4c0,1.5,0,3,0,4.6c0,1,0,2,0,3
		c0.1,2.1,0,4.3,0.1,6.4v0.1c0,1.7,0,3.5,0.1,5.2c0,1,0,2,0.1,3c0,0.7,0,1.5,0.1,2.2c0,0.4,0,0.8,0.1,1.1
		C136.9,67,136.9,67,136.9,67.1z"/>
	<path class="st0" d="M202.1,92.6c-0.2,0-0.4,0-0.5,0s-0.3,0-0.5,0s-0.5,0-0.7,0c-0.1,0-0.2,0-0.2-0.1c0-0.2-0.1-0.4-0.1-0.6
		c-0.1-0.6-0.1-1.2-0.2-1.8c0-0.3,0-0.7-0.1-1c-0.1-0.4-0.1-0.8-0.1-1.3c0-0.4-0.1-0.8-0.1-1.2c0-0.3-0.1-0.7-0.1-1
		c-0.1-1-0.2-2-0.4-2.9c-0.1-0.5-0.2-0.9-0.2-1.4c0,0,0,0,0-0.1c-0.1,0-0.1,0.1-0.2,0.2c-1,1.7-2.1,3.4-3.1,5.2
		c-0.6,1.1-1.2,2.1-1.7,3.2c-0.5,0.9-0.9,1.8-1.3,2.8c0,0.1-0.1,0.2-0.2,0.2c-0.2,0-0.2,0-0.3-0.2c-0.1-0.4-0.3-0.7-0.4-1.1
		c-0.3-0.8-0.7-1.6-1.2-2.4c-1.1-2-2.3-4-3.4-6c-0.3-0.5-0.6-1.1-0.9-1.6l-0.1-0.1l-0.1-0.1c-0.1,0-0.1,0-0.1,0.1
		c-0.1,0.4-0.1,0.8-0.2,1.1c-0.1,0.6-0.2,1.1-0.2,1.7c-0.1,0.5-0.1,1.1-0.2,1.6c-0.1,0.6-0.2,1.2-0.2,1.8c0,0.4-0.1,0.8-0.1,1.2
		c0,0.5-0.1,1-0.1,1.4c0,0.1,0,0.2,0,0.3c0,0.6-0.1,1.3-0.1,1.9c0,0.2,0,0.2-0.2,0.2c-0.5-0.1-1,0-1.5,0c-0.1,0-0.1,0-0.2,0
		c0-0.2,0-0.3,0.1-0.4c0.3-1.2,0.5-2.5,0.7-3.7c0.2-1,0.3-1.9,0.4-2.9c0.1-0.8,0.3-1.6,0.4-2.5c0.1-0.5,0.1-1,0.2-1.5
		c0.1-0.5,0.1-0.9,0.2-1.4c0.1-0.5,0.1-1,0.2-1.5c0.1-0.5,0.1-1,0.2-1.5c0-0.2,0-0.3,0.1-0.5c0-0.1,0.1-0.1,0.2-0.2
		c0.2,0,0.3,0,0.4,0.2c0.4,0.7,0.7,1.4,1.1,2.1c1.1,2,2.1,4,3.2,6c0.7,1.3,1.4,2.5,2.1,3.8c0.1,0.2,0.2,0.3,0.3,0.5
		c0.2-0.3,0.3-0.5,0.4-0.7c1.1-1.9,2.3-3.9,3.4-5.8c1.1-1.9,2.2-3.8,3.3-5.8l0.1-0.1c0.1-0.1,0.2-0.1,0.3-0.1s0.1,0.1,0.2,0.2
		c0,0.3,0.1,0.5,0.1,0.8c0.1,0.9,0.2,1.9,0.3,2.8c0.1,0.6,0.1,1.2,0.2,1.8c0.1,0.6,0.1,1.1,0.2,1.7c0.1,0.5,0.1,1.1,0.2,1.6
		c0.1,0.6,0.2,1.2,0.2,1.8c0.1,0.5,0.1,1.1,0.2,1.6c0.1,0.6,0.1,1.1,0.2,1.7c0.1,0.5,0.1,1.1,0.2,1.6c0,0.1,0,0.1,0,0.2
		C202.4,92.6,202.4,92.6,202.1,92.6z"/>
	<path class="st0" d="M144.4,82.3c-0.2-1.1-0.6-2-1.3-2.9c-0.8-1-1.7-1.8-2.9-2.2c-0.9-0.3-1.8-0.4-2.7-0.4c-1.3,0-2.7,0-4,0
		c-0.4,0-0.8,0-1.3,0c-0.6,0-1.1,0-1.7,0c-0.3,0-0.6,0-0.9,0c-0.1,0-0.2,0.1-0.2,0.2s0,0.3,0,0.4c0,0.4,0,0.7,0,1.1
		c0,1.3,0,2.7,0.1,4c0,1.9,0,3.7,0,5.6c0,1.5,0,2.9-0.1,4.4c0,0.1,0,0.2,0.2,0.2c0.6,0,1.2,0,1.7-0.1c0.2,0,0.3,0,0.5,0
		c0.1,0,0.2,0,0.4,0c0.7,0,1.3,0,2,0c1.3,0.1,2.6,0,3.8-0.2c1-0.2,1.9-0.5,2.8-0.9c1.3-0.7,2.3-1.7,3-3c0.5-1,0.8-2.1,0.8-3.2
		C144.6,84.3,144.6,83.3,144.4,82.3z M142.1,85.6c-0.1,1.1-0.3,2.1-0.8,3c-0.4,0.8-1.1,1.4-1.9,1.9c-0.8,0.5-1.6,0.7-2.4,0.9
		c-1.1,0.2-2.2,0.3-3.3,0.3c-0.6,0-1.3,0-1.9-0.1c-0.2,0-0.2,0-0.2-0.3c0-0.4,0-0.8,0-1.1c0-0.5,0-1,0-1.5c-0.1-1.5,0-3,0-4.5
		c0-1.1,0-2.2,0-3.4c0-0.9,0-1.9,0.1-2.8c0-0.1,0-0.1,0-0.2s0-0.2,0.2-0.2s0.5-0.1,0.7-0.1c1.3,0,2.5-0.1,3.8,0
		c0.9,0,1.9,0.2,2.8,0.6c1.1,0.4,1.8,1.2,2.4,2.2c0.3,0.6,0.5,1.3,0.6,2C142.2,83.4,142.2,84.5,142.1,85.6z"/>
	<path class="st0" d="M75.2,82.9c-0.1,0.6-0.2,1.3-0.1,1.9c0,1.2,0.2,2.3,0.6,3.5c0.4,1,1.1,1.9,2,2.6c0.6,0.5,1.3,0.8,2.1,0.9
		c0.6,0.1,1.2,0.2,1.8,0.2c1.1,0,2.1-0.3,3.1-0.7c0.6-0.3,1.2-0.6,1.7-1c0.1-0.1,0.2-0.1,0.3-0.2c0.1,0,0.1,0,0.1,0.1l0,0
		c0,0.4-0.1,0.8-0.1,1.2c0,0.1-0.1,0.2-0.2,0.3c-0.4,0.2-0.8,0.4-1.2,0.6c-0.8,0.3-1.7,0.4-2.5,0.5c-0.7,0.1-1.5,0.1-2.2,0.1
		c-1.4-0.1-2.8-0.3-4.1-1c-1.4-0.8-2.5-1.9-3.1-3.4c-0.3-0.7-0.5-1.4-0.6-2.2c0-0.3-0.1-0.7-0.1-1c0-0.2,0-0.5,0-0.7
		c0-0.4,0-0.7,0.1-1.1c0.1-0.6,0.2-1.2,0.4-1.8c0.7-2.1,2.1-3.6,4.2-4.5c1-0.5,2.1-0.7,3.2-0.8c0.5,0,1.1-0.1,1.6-0.1
		c1.6,0,3.1,0.3,4.5,1c0.1,0,0.1,0,0.1,0.1c0.2,0.1,0.2,0.1,0.1,0.3c-0.1,0.3-0.2,0.7-0.3,1c-0.1,0.3,0,0.6-0.1,0.9
		c-0.2-0.2-0.3-0.4-0.5-0.6c-0.8-0.9-1.7-1.5-2.9-1.7c-0.3-0.1-0.6-0.1-1-0.1c-0.6,0-1.3,0-1.9,0.1c-1.7,0.3-3.1,1.2-4,2.7
		C75.6,81,75.3,81.9,75.2,82.9z"/>
	<path class="st0" d="M114.7,92.4c-0.6-1.4-1.3-2.8-1.9-4.2c-0.7-1.5-1.3-3-2-4.5c-1-2.3-2-4.6-3-6.9c0-0.1-0.1-0.2-0.1-0.3
		l-0.1-0.1c-0.2-0.1-0.4,0-0.5,0.2c-0.1,0.1-0.1,0.2-0.2,0.3c-0.8,1.7-1.5,3.4-2.3,5.1c-0.8,1.8-1.6,3.5-2.5,5.2
		c-0.7,1.5-1.4,3-2.2,4.5c-0.1,0.2-0.2,0.5-0.3,0.7c0.2,0,0.4,0,0.5,0c0.2,0,0.4,0,0.6,0c0.1,0,0.2,0,0.3,0c0.2,0,0.2,0,0.3-0.2
		c0.1-0.2,0.1-0.4,0.2-0.5c0.7-1.7,1.3-3.4,2.1-5.1c0.1-0.3,0.3-0.4,0.5-0.4c0.1,0,0.1,0,0.2,0c1.7,0,3.3,0,5,0c0.1,0,0.2,0,0.3,0
		c0.1,0,0.2,0.1,0.3,0.2c0.1,0.3,0.2,0.5,0.3,0.8c0.5,1.1,1,2.3,1.4,3.5c0.2,0.5,0.4,1.1,0.6,1.6c0,0.1,0.1,0.2,0.2,0.2
		c0.3,0,0.5,0,0.8-0.1c0.2,0,0.4,0,0.6,0C114.1,92.4,114.4,92.4,114.7,92.4C114.8,92.5,114.8,92.4,114.7,92.4z M109.3,85.3
		c-0.1,0-0.2,0-0.2,0c-1.5,0-3,0-4.4,0c-0.1,0-0.1,0-0.2,0s-0.1-0.1-0.1-0.1c0.1-0.1,0.1-0.3,0.2-0.4c0.6-1.3,1.2-2.6,1.8-4
		c0.1-0.3,0.3-0.6,0.4-0.9c0-0.1,0.1-0.2,0.1-0.2c0.3,0.4,2.1,4.6,2.4,5.4C109.3,85.2,109.3,85.3,109.3,85.3z"/>
	<path class="st0" d="M59,92.3c-0.3-0.7-0.6-1.4-0.9-2.1c-1-2.2-2-4.5-3-6.7c-0.9-2.1-1.8-4.2-2.7-6.2c-0.1-0.3-0.2-0.5-0.3-0.8
		c0-0.1-0.1-0.1-0.1-0.1c-0.3-0.1-0.4,0-0.5,0.3c0,0.1,0,0.1-0.1,0.2c-1,2.2-2,4.4-3,6.5c-1.1,2.3-2.1,4.5-3.2,6.8
		c-0.3,0.7-0.7,1.4-1,2.1c0,0.1-0.1,0.2-0.1,0.3c0.2,0,0.5,0,0.7,0s0.5,0,0.7,0.1c0.1,0,0.1,0,0.2-0.1c0-0.1,0-0.1,0.1-0.2
		c0.2-0.6,0.5-1.3,0.7-1.9c0.5-1.2,1-2.4,1.5-3.6c0.1-0.3,0.3-0.4,0.6-0.4h0.1c1.6,0,3.3,0,4.9,0c0.1,0,0.2,0,0.3,0
		c0.2,0,0.3,0.1,0.3,0.3c0.6,1.3,1.2,2.6,1.7,4c0.2,0.6,0.4,1.2,0.6,1.8c0.1,0.2,0.1,0.2,0.3,0.2c0.3,0,0.5,0,0.8-0.1
		c0.2,0,0.4,0,0.6,0c0.3,0,0.5,0,0.8,0C59.1,92.5,59.1,92.4,59,92.3z M53.5,85.4c-0.1,0-0.2,0-0.3,0c-1.4,0-2.8,0-4.2,0
		c-0.1,0-0.2,0-0.3,0s-0.1-0.1-0.1-0.1c0.1-0.3,0.3-0.6,0.4-0.9c0.6-1.4,1.3-2.8,1.9-4.2c0.1-0.1,0.1-0.3,0.2-0.4
		c0.2,0.4,0.3,0.7,0.5,1c0.4,1,0.9,2,1.3,3c0.2,0.5,0.4,0.9,0.6,1.4L53.5,85.4C53.7,85.3,53.6,85.4,53.5,85.4z"/>
	<path class="st0" d="M168.8,91.4c0,0.4,0,0.8,0,1.1c0,0.1,0,0.1-0.1,0.1s-0.1,0-0.2,0c-0.8,0-1.5,0-2.3,0c-0.9-0.1-1.8-0.1-2.7,0
		c-0.9,0-1.8,0-2.7,0.1c-0.2,0-0.4,0-0.6,0c-0.1,0-0.2,0-0.2-0.2s0-0.4,0-0.6c0.1-0.6,0-1.2,0.1-1.8c0.1-2.6,0.1-5.1,0.1-7.7
		c0-0.8,0-1.6,0-2.4s0-1.5-0.1-2.3c0-0.2,0-0.5-0.1-0.7c0-0.1,0-0.1,0.1-0.1c0.4,0,0.9,0,1.3,0c0.2,0,0.3,0,0.5,0h0.1
		c2,0,4.1-0.1,6.1-0.1c0.1,0,0.2,0,0.3,0c0.2,0,0.2,0,0.2,0.2c0,0.3,0,0.6,0,0.9c0,0.1,0,0.2-0.2,0.2s-0.5,0-0.7,0
		c-0.3,0-0.5,0-0.8-0.1c-1.4-0.1-2.8-0.1-4.3-0.1c-0.5,0-0.5,0-0.5,0.5c0,1.6,0,3.2,0,4.9c0,0.5,0,0.5,0.4,0.5c0.9,0,1.8,0,2.7,0
		c0.7,0,1.5,0,2.2-0.1h0.1c0.4,0,0.4,0,0.3,0.4c0,0.3,0,0.5,0,0.8c0,0.1,0,0.2-0.1,0.2c-1.2-0.2-2.3-0.2-3.5-0.2c-0.5,0-1,0-1.6,0
		c-0.5,0-0.5,0-0.5,0.5s0,1.1,0,1.6v1.3c0,1,0,1.9,0,2.9c0,0.1,0,0.2,0,0.3c0,0.1,0,0.1,0.1,0.1s0.2,0,0.3,0c0.8,0,1.6,0,2.4,0
		c0.7,0,1.4,0,2.1-0.1c0.4-0.1,0.9,0,1.3-0.1h0.1C168.7,91.2,168.8,91.3,168.8,91.4z"/>
	<path class="st0" d="M229.1,76.8c-0.1,0.2-0.2,0.3-0.2,0.4c-1.5,2.3-3,4.7-4.4,7.1c-0.2,0.4-0.5,0.8-0.7,1.2
		c-0.1,0.1-0.1,0.3-0.1,0.4c0,1-0.1,2-0.1,3c0,0.9,0,1.8,0.1,2.7c0,0.3,0.1,0.6,0.1,0.9c0,0.1,0,0.2-0.2,0.2c-0.6-0.1-1.2-0.1-1.8,0
		c-0.2,0-0.2,0-0.2-0.2s0-0.5,0-0.7s0-0.3,0-0.5c0-1.2,0-2.5,0-3.7c0-0.4-0.1-0.8-0.1-1.2c0-0.1-0.1-0.2-0.1-0.3
		c-0.3-0.6-0.7-1.1-1-1.7c-1.2-2-2.4-3.9-3.6-5.9c-0.3-0.5-0.6-0.9-0.9-1.4c0-0.1-0.1-0.1-0.1-0.2s0.1-0.1,0.2-0.1
		c0.2,0,0.3,0,0.5,0c0.4,0,0.8,0,1.2,0c0.2,0,0.5-0.1,0.7,0s0.2,0.4,0.3,0.6c0.7,1.4,1.4,2.8,2.2,4.1c0.6,0.9,1.2,1.8,1.8,2.7
		c0.1,0.1,0.2,0.2,0.3,0.4c0.1,0,0.2-0.1,0.2-0.2c0.5-0.8,1-1.6,1.5-2.4c0.8-1.4,1.6-2.9,2.4-4.4c0.1-0.2,0.2-0.4,0.3-0.6
		c0.1-0.1,0.1-0.2,0.3-0.2c0.1,0,0.2,0,0.2,0c0.3,0.1,0.7,0.1,1,0C228.9,76.8,229,76.7,229.1,76.8z"/>
	<path class="st0" d="M266.6,86.4c0,0.1-0.1,0.1-0.2,0.1s-0.2,0-0.4,0h-27.7c-0.1,0-0.2,0-0.3,0c-0.4,0-0.4,0-0.5-0.4
		c-0.1-0.3,0-0.6,0-0.9c0-0.1,0.1-0.2,0.2-0.2c0.1,0,0.2,0,0.3,0h27.9c0.1,0,0.1,0,0.2,0c0.3,0,0.4,0.1,0.5,0.4
		C266.9,85.8,266.8,86.1,266.6,86.4z"/>
</g>
</svg>
