<?xml version="1.0" encoding="utf-8"?>
<!-- Generator: Adobe Illustrator 27.4.0, SVG Export Plug-In . SVG Version: 6.00 Build 0)  -->
<svg version="1.1" id="Layer_1" xmlns="http://www.w3.org/2000/svg" xmlns:xlink="http://www.w3.org/1999/xlink" x="0px" y="0px"
	 width="492px" height="101.8px" viewBox="0 0 492 101.8" style="enable-background:new 0 0 492 101.8;" xml:space="preserve">
<g style="fill:#100E51">
	<path d="M308.8,93.9c0-28.3,0-56.4,0-84.8c0.6,0,1.3-0.1,1.9-0.1c10,0,20,0,30.1,0c5.4,0,10.6,1,15.6,3.3
		c16.1,7.5,14.5,28.6,3.5,36.2c-0.4,0.3-0.8,0.6-1.3,1c8.9,3.4,12.9,10,13,19.1c0.2,10-4,17.6-13.2,21.7c-4.2,1.9-8.9,3.3-13.4,3.5
		C333.1,94.2,321.1,93.9,308.8,93.9z M329.3,58.8c0,5.6,0,10.9,0.1,16.2c0,0.4,0.8,1.1,1.2,1.1c4.4,0,8.7,0.1,13-0.3
		c4.3-0.4,6.9-4.1,6.8-8.9c-0.1-4.5-2.8-7.9-7.1-8.2C338.8,58.6,334.3,58.8,329.3,58.8z M329.3,41.6c4.5,0,8.7,0.4,12.8-0.1
		c3.5-0.4,5.5-4.1,5.1-8.1c-0.3-3.6-2.6-6-6.2-6.2c-3.4-0.2-6.8-0.1-10.2-0.1c-0.5,0-1.4,0.7-1.4,1.1
		C329.3,32.7,329.3,37.2,329.3,41.6z"/>
	<path d="M224.6,94.1c-7.7,0-14.8,0.1-21.9-0.1c-0.7,0-1.7-1.1-2.1-1.9c-4.4-8.2-8.7-16.5-12.9-24.8c-0.7-1.4-1.6-1.9-3.1-1.9
		c-2.4,0.1-4.8,0-7.4,0c0,9.6,0,19,0,28.5c-6.9,0-13.6,0-20.5,0c0-28.2,0-56.4,0-84.8c0.4-0.1,0.9-0.2,1.4-0.2
		c10.9,0,21.8-0.1,32.8,0.1c3.8,0.1,7.7,0.7,11.3,1.9c9.7,3.6,14.4,11.2,15.5,21.2c0.7,7-0.4,13.8-4.6,19.6c-2,2.8-4.8,5.1-7.3,7.7
		C211.6,70.6,218,82.1,224.6,94.1z M177.2,27.2c0,6.8,0,13.4,0,20.2c3.8,0,7.5,0.3,11.1-0.1c3.9-0.4,6.8-2.6,7.7-6.5
		c1.6-7.1-0.2-12.8-8-13.5C184.5,26.9,180.9,27.2,177.2,27.2z"/>
	<path d="M226.8,9.1c6.8,0,13.5,0,20.6,0c0,0.9,0,1.8,0,2.6c0,16.3,0,32.7,0,49c0,1.1,0,2.3,0.1,3.4c0.5,6.6,4.1,10.8,10.7,11.8
		c2.9,0.4,6,0.3,8.9-0.3c5.8-1.2,9.2-5.8,9.3-12c0.1-14.8,0.1-29.5,0.1-44.3c0-3.4,0-6.7,0-10.3c7,0,13.7,0,20.6,0
		c0,0.8,0.1,1.5,0.1,2.2c0,16.9,0,33.8,0,50.6c0,19.8-13.4,33.1-33.1,33.5c-9.1,0.2-17.6-1.3-25-6.9c-8.3-6.2-12.1-14.7-12.3-24.8
		c-0.2-17.9-0.1-35.7-0.1-53.6C226.7,9.9,226.7,9.6,226.8,9.1z"/>
	<path d="M145.1,19.6c-3.2,5.3-6.4,10.5-9.6,15.8c-4.4-3.6-9.1-6.3-14.4-7.7C102,22.5,86.6,38.3,91.6,57.9
		c3.9,15.3,18.3,22.5,32.9,16.4c2.3-1,4.4-2.2,6.5-3.6c2-1.3,3.8-2.9,5.9-4.6c3.5,5,6.9,9.9,10.8,15.5c-1,0.8-2.2,1.7-3.2,2.6
		c-16.6,14.9-44.5,15.3-60.9,0.7c-10.3-9.2-14.5-21.1-14.3-34.6c0.3-19.1,12-35.2,29.9-40.6c15.5-4.7,30.1-2.4,43.2,7.4
		C143.3,17.9,144.1,18.7,145.1,19.6z"/>
	<path d="M4,83.4c3.6-5.3,7.2-10.5,10.7-15.6c2.8,1.8,5.4,3.7,8.3,5.2c4.7,2.5,9.7,4.2,15.2,3c1.3-0.3,2.6-0.9,3.6-1.7
		c2.7-2.2,2.8-6,0-8.2c-1.9-1.5-4.1-2.6-6.2-3.6c-5.8-2.8-11.9-5.1-17.4-8.5C5,46,1.9,30.5,10.8,18.7c5.1-6.8,12.3-10.1,20.6-10.9
		c9.6-1,18.8,0.7,27.1,5.9c1.5,1,2.9,2.1,4.5,3.3c-2.9,5.7-5.8,11.3-8.7,17.1c-1.9-1.2-3.7-2.5-5.6-3.5c-4.8-2.7-9.9-4.5-15.5-3.5
		c-1.4,0.2-2.9,0.9-4.1,1.7c-3.1,2.2-3.2,6.2-0.2,8.5c1.8,1.4,3.8,2.4,5.9,3.3c4,1.8,8.1,3.3,12.1,5.1c5,2.3,9.8,5.1,13.3,9.5
		c9.2,11.8,4.4,30.4-9.9,37c-11.3,5.3-22.7,4-33.9-0.7C11.6,89.7,7.6,87,4,83.4z"/>
	<path d="M433.6,16.5c-2.9,5.7-5.8,11.3-8.7,17.1c-4.3-3.3-8.8-5.9-14-6.9c-3.1-0.6-6.1-0.9-9.1,0.3c-2.2,0.9-3.9,2.3-4.3,4.8
		c-0.4,2.6,0.9,4.4,3,5.6c3,1.6,6.2,3,9.4,4.5c4.5,2.1,9.2,3.9,13.4,6.4c8.9,5.2,13,13.2,11.7,23.5c-1.1,9.4-6.2,16.2-14.8,20.2
		c-13.5,6.3-34.7,2.2-44.9-8.7c-0.1-0.2-0.2-0.4-0.4-0.6c3.5-5.1,7-10.3,10.7-15.7c0.7,0.5,1.3,1,2,1.5c4.8,3.6,9.9,6.5,15.9,7
		c2.4,0.2,5,0,7.3-0.8c4.5-1.7,5.2-7.1,1.1-9.8c-2.7-1.8-5.8-3.1-8.8-4.5c-4.6-2.2-9.4-4.2-13.8-6.7c-8.7-5.1-13.5-12.6-12.5-23
		c1.1-10.6,6.9-17.8,16.8-21.3c13.4-4.7,26.1-2.8,37.8,5.3C432.1,15.1,432.8,15.8,433.6,16.5z"/>
	<path d="M477.8,71.8c1.7,0.7,3.4,1.4,5.2,1.9c1.9,0.6,1.2,2,1.2,3.2c0,1.1,0.5,2.4-1.2,2.9c-1.7,0.5-3.4,1.2-5,2.3
		c3.1,0.3,6.3,0.5,9.6,0.8c0,2,0,3.8,0,6.1c-7.3-0.6-14.5-1.2-22-1.8c0-2-0.1-3.8,0.1-5.6c0.1-0.5,0.8-1.1,1.4-1.4
		c3.1-1.2,6.2-2.2,9.8-3.5c-3.3-1.2-6.2-2.3-9.1-3.2c-1.7-0.5-2.3-1.2-2.2-3c0.1-4.1,0-4.2,4.3-4.6c5.8-0.5,11.7-1,17.8-1.5
		c0,2.1,0,4,0,6.1c-3.2,0.2-6.4,0.5-9.6,0.7C477.8,71.5,477.8,71.7,477.8,71.8z"/>
	<path d="M449.3,3c0.7,0,1.5,0,2.5,0c0,31.7,0,63.4,0,95.3c-0.6,0-1.4,0.1-2.5,0.1C449.3,66.6,449.3,34.9,449.3,3z"/>
	<path d="M479.9,14.2c-1.7,0-3.3,0-5,0c0-2.8,0-5.4,0-8.2c4.3,0,8.4,0,13,0c-0.2,1.8-0.5,3.4-0.7,5.1c-0.1,0.5,0.1,1.1,0.2,1.6
		c1.2,4.5,0.6,8.6-3,11.7c-3.7,3.2-8,3.8-12.5,1.9c-4.3-1.8-6.5-5.4-6.7-10.1c-0.2-3.5,0.5-6.7,3.1-9.5c1.5,1,2.9,1.9,4.3,2.8
		c-2.6,5.3-2.3,8.9,0.6,10.6c2.6,1.6,6.4,0.8,8.1-1.6c1.6-2.3,1.3-5.5-1-7.5C480.2,12.2,480.1,13.1,479.9,14.2z"/>
	<path d="M487.7,56.2c-2.7-0.9-4.9-1.6-7.2-2.4c-4.5-1.5-8.9-3.1-13.4-4.6c-1.2-0.4-1.6-1-1.6-2.2c-0.1-4.5-0.1-4.5,4.1-5.9
		c5.9-2,11.8-4,18.1-6.2c0,2.1,0.1,3.9-0.1,5.7c0,0.4-1,1-1.7,1.1c-2.3,0.3-3,1.5-2.7,3.7c0.1,0.5,0.1,1.1,0,1.6
		c-0.1,1.3,0.3,2.1,1.6,2.2c2.6,0.2,3.1,1.7,2.8,4C487.6,54,487.7,54.9,487.7,56.2z M473.6,45.4c0,0.1,0,0.3,0,0.4
		c1.5,0.4,2.9,0.8,4.6,1.2c0-1.1,0-1.9,0-2.9C476.5,44.5,475,44.9,473.6,45.4z"/>
</g>
</svg>
