<?xml version="1.0" encoding="utf-8"?>
<!-- Generator: Adobe Illustrator 25.0.1, SVG Export Plug-In . SVG Version: 6.00 Build 0)  -->
<svg version="1.1" id="Layer_1" xmlns="http://www.w3.org/2000/svg" xmlns:xlink="http://www.w3.org/1999/xlink" x="0px" y="0px"
	 viewBox="0 0 253.5 92.7" style="enable-background:new 0 0 253.5 92.7;" xml:space="preserve">
<style type="text/css">
	.st0{display:none;fill:none;}
	.st1{fill:#100E51;}
	.st2{fill:#100E51;}
	.st3{fill:#100E51;}
</style>
<g>
	<path class="st0" d="M43.9,15.5L15.1,30.3c0,0-7.7,35.9,28.9,50.1c0,0,34.7-10.7,28.9-50.1L43.9,15.5z M43.9,72.1
		C16.7,61.6,22.4,34.8,22.4,34.8l21.5-11l21.5,11C69.8,64.1,43.9,72.1,43.9,72.1z"/>
	<g>
		
			<linearGradient id="SVGID_1_" gradientUnits="userSpaceOnUse" x1="9.608" y1="76.1539" x2="74.5083" y2="25.4481" gradientTransform="matrix(1 0 0 -1 0 94)">
			<stop  offset="0" style="stop-color:#0052FE"/>
			<stop  offset="0.2415" style="stop-color:#0055FE"/>
			<stop  offset="0.4283" style="stop-color:#005FFE"/>
			<stop  offset="0.5967" style="stop-color:#016FFD"/>
			<stop  offset="0.7543" style="stop-color:#0287FD"/>
			<stop  offset="0.9029" style="stop-color:#03A4FC"/>
			<stop  offset="1" style="stop-color:#04BCFB"/>
		</linearGradient>
		<path class="st1" d="M83.1,24L43.9,4L4.8,24c0,0-10.4,48.7,39.1,67.8C43.9,91.8,90.9,77.3,83.1,24z M43.9,80.3
			c-36.5-14.1-28.8-50-28.8-50L44,15.5l28.9,14.8C78.6,69.6,43.9,80.3,43.9,80.3z"/>
		
			<linearGradient id="SVGID_2_" gradientUnits="userSpaceOnUse" x1="25.03" y1="62.5663" x2="60.6998" y2="34.6979" gradientTransform="matrix(1 0 0 -1 0 94)">
			<stop  offset="0" style="stop-color:#0052FE"/>
			<stop  offset="0.2587" style="stop-color:#0055FE"/>
			<stop  offset="0.4237" style="stop-color:#005DFE"/>
			<stop  offset="0.5625" style="stop-color:#016CFD"/>
			<stop  offset="0.6867" style="stop-color:#0281FD"/>
			<stop  offset="0.8013" style="stop-color:#039CFC"/>
			<stop  offset="0.9073" style="stop-color:#04BDFC"/>
			<stop  offset="1" style="stop-color:#05E0FB"/>
		</linearGradient>
		<path class="st2" d="M43.9,23.8l-21.5,11c0,0-5.7,26.8,21.5,37.3c0,0,25.8-8,21.5-37.3L43.9,23.8z"/>
	</g>
</g>
<g>
	<path class="st3" d="M106.2,64.5V46.1h-6.7V34.9h6.7V23.8H119v11.1h8.2v11.3H119V61c0,2.4,1.3,4.1,3.6,4.1c1.4,0,2.9-0.5,3.3-1
		l2.5,9.7c-1.6,1.5-4.8,2.7-9.6,2.7C110.6,76.5,106.2,72.3,106.2,64.5z"/>
	<path class="st3" d="M132.9,75.5V34.9h12.9v5c2.7-3.3,7.8-6.1,12.7-6.1v12.4c-0.8-0.2-1.8-0.3-3.2-0.3c-3.4,0-7.8,1.4-9.5,3.7v25.9
		C145.8,75.5,132.9,75.5,132.9,75.5z"/>
	<path class="st3" d="M191,75.5v-4.9c-2.5,2.9-7.2,5.9-14,5.9c-9.2,0-13.4-5.2-13.4-12.7V34.9h12.9v23.6c0,4.9,2.5,6.6,6.7,6.6
		c3.7,0,6.2-2,7.7-4V34.9h12.9v40.6H191z"/>
	<path class="st3" d="M209.8,55.1c0-11.8,8.9-21.3,21.6-21.3c12,0,20.8,8.8,20.8,22.6v2.8h-28.9c0.8,3.8,4.3,7.2,10.2,7.2
		c2.9,0,7.8-1.3,10.1-3.4l5.5,8.1c-4,3.6-10.8,5.4-17,5.4C219.5,76.5,209.8,68.3,209.8,55.1z M231.4,43.9c-5.6,0-7.8,4-8.3,7h16.7
		C239.5,48,237.4,43.9,231.4,43.9z"/>
</g>
</svg>
