<?xml version="1.0" encoding="utf-8"?>
<!-- Generator: Adobe Illustrator 27.4.0, SVG Export Plug-In . SVG Version: 6.00 Build 0)  -->
<svg version="1.1" id="Layer_1" xmlns="http://www.w3.org/2000/svg" xmlns:xlink="http://www.w3.org/1999/xlink" x="0px" y="0px"
	 width="267px" height="210px" viewBox="0 0 267 210" style="enable-background:new 0 0 267 210;" xml:space="preserve">
<style type="text/css">
	.st0{fill:#100E51;}
</style>
<g>
	<path class="st0" d="M79.9,198.6c29.7-36.1,59.3-72,88.8-107.9c-0.1-0.1-0.2-0.3-0.4-0.4c-11.1,0-22.1,0-33.4,0
		c0.1-0.5,0.1-0.9,0.3-1.3c5-11.6,10.1-23.1,15.1-34.7c2-4.6,4-9.3,5.9-14c0.4-1,1-1.3,2-1.3c14.2,0,28.4-0.1,42.5,0.2
		c12.2,0.2,24.1,2.2,35.4,7.1c8,3.4,14.8,8.4,19.3,16c4.7,7.7,5.8,16.2,4.9,25.1c-1.6,15.9-13.2,25.5-27.2,28.1
		c-1.8,0.3-3.6,0.8-5.4,1.2c0,0.2,0,0.3,0,0.5c1.1,0.3,2.2,0.5,3.3,0.8c10.3,2.6,18.7,7.8,23.4,17.8c3.6,7.8,3.6,16,1.8,24.3
		c-3,13.6-11.6,22.8-23.5,29.2c-9.3,5-19.3,7.2-29.7,8.6c-9.9,1.3-19.8,0.9-29.7,0.9c-30.4,0.1-60.7,0-91.1,0
		C81.5,198.6,80.9,198.6,79.9,198.6z M170.7,159.8c0.5,0.1,0.9,0.2,1.3,0.2c6,0.3,11.9-0.1,17.8-1.2c3.3-0.6,6.3-1.7,8.7-4.3
		c5.1-5.5,3.2-15.3-3.4-17.7c-6.4-2.3-13.1-1.8-19.7-1.6C173.8,143.4,172.3,151.6,170.7,159.8z M182.1,98.3c1.6,0,3,0.1,4.5,0
		c4-0.4,8.1-0.6,12.1-1.4c3.1-0.6,6-2.2,7.5-5.4c2.8-5.8-0.1-11.9-6.7-13.2c-3.9-0.8-8.1-0.7-12.1-0.8c-0.4,0-1.1,0.7-1.2,1.1
		c-0.6,2.3-1.1,4.7-1.6,7.1C183.8,89.7,183,93.9,182.1,98.3z"/>
	<path class="st0" d="M33.4,171c1.6-8.7,3.1-17.3,4.7-25.8c2.4-12.8,4.9-25.5,7.2-38.3c0.3-1.4,0-3.1-0.6-4.4
		C33.3,75.1,21.7,47.7,10.2,20.2c-1.2-2.9-2.6-5.7-3.9-8.7c0.4,0,0.9-0.1,1.3-0.1c19.9,0,39.7,0,59.6,0c1.5,0,2.1,0.5,2.5,1.8
		c3.3,10.5,6.7,21,9.9,31.6c0.9,3.1,1.4,6.3,2.2,9.8c0.4-0.5,0.6-0.6,0.7-0.9c2.5-7.4,6.6-14.1,10.8-20.7
		c4.1-6.4,8.2-12.8,12.3-19.3c1-1.7,2.2-2.4,4.2-2.4c21.6,0.1,43.1,0.1,64.7,0.1c0.3,0,0.6,0,1.3,0c-0.7,0.8-1.1,1.4-1.6,2.1
		c-7.1,9.1-14.1,18.4-21.3,27.4c-7.7,9.6-15.7,19-23.6,28.6c-9.8,11.9-19.6,23.8-29.4,35.7c-3.6,4.4-7.2,8.7-10.9,13.1
		c-0.3,0.4-0.5,0.8-0.9,1.6c11.4,0,22.4,0,33.7,0c-0.9,2.3-1.8,4.3-2.6,6.2c-6,14-11.9,28-17.9,42c-1.3,3-1.2,3-4.3,3
		c-20,0-40.1,0-60.1,0C35.7,171,34.7,171,33.4,171z"/>
</g>
</svg>
